G04 #@! TF.GenerationSoftware,KiCad,Pcbnew,5.1.5+dfsg1-2build2*
G04 #@! TF.CreationDate,2022-08-24T15:36:07+02:00*
G04 #@! TF.ProjectId,capLevelSensorESP,6361704c-6576-4656-9c53-656e736f7245,rev?*
G04 #@! TF.SameCoordinates,Original*
G04 #@! TF.FileFunction,Copper,L1,Top*
G04 #@! TF.FilePolarity,Positive*
%FSLAX46Y46*%
G04 Gerber Fmt 4.6, Leading zero omitted, Abs format (unit mm)*
G04 Created by KiCad (PCBNEW 5.1.5+dfsg1-2build2) date 2022-08-24 15:36:07*
%MOMM*%
%LPD*%
G04 APERTURE LIST*
%ADD10C,0.100000*%
%ADD11O,2.000000X3.000000*%
%ADD12C,0.800000*%
%ADD13C,6.000000*%
%ADD14C,5.000000*%
%ADD15O,1.800000X2.500000*%
%ADD16O,3.600000X3.600000*%
%ADD17O,3.000000X1.800000*%
%ADD18C,3.000000*%
%ADD19R,3.000000X3.000000*%
%ADD20O,2.500000X2.500000*%
%ADD21R,2.500000X2.500000*%
%ADD22O,2.200000X2.200000*%
%ADD23R,2.200000X2.200000*%
%ADD24C,1.600000*%
%ADD25R,1.600000X1.600000*%
%ADD26R,1.500000X1.050000*%
%ADD27O,1.500000X1.050000*%
%ADD28R,1.000000X1.500000*%
%ADD29O,1.700000X1.700000*%
%ADD30R,1.700000X1.700000*%
%ADD31O,1.600000X1.600000*%
%ADD32C,1.800000*%
%ADD33R,1.800000X1.800000*%
%ADD34C,2.000000*%
%ADD35R,2.000000X2.000000*%
%ADD36C,1.200000*%
%ADD37C,0.800000*%
%ADD38C,1.000000*%
%ADD39C,0.600000*%
%ADD40C,0.400000*%
G04 APERTURE END LIST*
G04 #@! TA.AperFunction,ComponentPad*
D10*
G36*
X77466360Y-131852769D02*
G01*
X77522177Y-131861048D01*
X77576914Y-131874759D01*
X77630043Y-131893769D01*
X77681053Y-131917895D01*
X77729453Y-131946905D01*
X77774776Y-131980519D01*
X77816586Y-132018414D01*
X77854481Y-132060224D01*
X77888095Y-132105547D01*
X77917105Y-132153947D01*
X77941231Y-132204957D01*
X77960241Y-132258086D01*
X77973952Y-132312823D01*
X77982231Y-132368640D01*
X77985000Y-132425000D01*
X77985000Y-134275000D01*
X77982231Y-134331360D01*
X77973952Y-134387177D01*
X77960241Y-134441914D01*
X77941231Y-134495043D01*
X77917105Y-134546053D01*
X77888095Y-134594453D01*
X77854481Y-134639776D01*
X77816586Y-134681586D01*
X77774776Y-134719481D01*
X77729453Y-134753095D01*
X77681053Y-134782105D01*
X77630043Y-134806231D01*
X77576914Y-134825241D01*
X77522177Y-134838952D01*
X77466360Y-134847231D01*
X77410000Y-134850000D01*
X76260000Y-134850000D01*
X76203640Y-134847231D01*
X76147823Y-134838952D01*
X76093086Y-134825241D01*
X76039957Y-134806231D01*
X75988947Y-134782105D01*
X75940547Y-134753095D01*
X75895224Y-134719481D01*
X75853414Y-134681586D01*
X75815519Y-134639776D01*
X75781905Y-134594453D01*
X75752895Y-134546053D01*
X75728769Y-134495043D01*
X75709759Y-134441914D01*
X75696048Y-134387177D01*
X75687769Y-134331360D01*
X75685000Y-134275000D01*
X75685000Y-132425000D01*
X75687769Y-132368640D01*
X75696048Y-132312823D01*
X75709759Y-132258086D01*
X75728769Y-132204957D01*
X75752895Y-132153947D01*
X75781905Y-132105547D01*
X75815519Y-132060224D01*
X75853414Y-132018414D01*
X75895224Y-131980519D01*
X75940547Y-131946905D01*
X75988947Y-131917895D01*
X76039957Y-131893769D01*
X76093086Y-131874759D01*
X76147823Y-131861048D01*
X76203640Y-131852769D01*
X76260000Y-131850000D01*
X77410000Y-131850000D01*
X77466360Y-131852769D01*
G37*
G04 #@! TD.AperFunction*
D11*
X79375000Y-133350000D03*
X81915000Y-133350000D03*
G04 #@! TA.AperFunction,ComponentPad*
D10*
G36*
X84924009Y-113042408D02*
G01*
X84972545Y-113049607D01*
X85020142Y-113061530D01*
X85066342Y-113078060D01*
X85110698Y-113099039D01*
X85152785Y-113124265D01*
X85192197Y-113153495D01*
X85228553Y-113186447D01*
X85261505Y-113222803D01*
X85290735Y-113262215D01*
X85315961Y-113304302D01*
X85336940Y-113348658D01*
X85353470Y-113394858D01*
X85365393Y-113442455D01*
X85372592Y-113490991D01*
X85375000Y-113540000D01*
X85375000Y-122540000D01*
X85372592Y-122589009D01*
X85365393Y-122637545D01*
X85353470Y-122685142D01*
X85336940Y-122731342D01*
X85315961Y-122775698D01*
X85290735Y-122817785D01*
X85261505Y-122857197D01*
X85228553Y-122893553D01*
X85192197Y-122926505D01*
X85152785Y-122955735D01*
X85110698Y-122980961D01*
X85066342Y-123001940D01*
X85020142Y-123018470D01*
X84972545Y-123030393D01*
X84924009Y-123037592D01*
X84875000Y-123040000D01*
X73875000Y-123040000D01*
X73825991Y-123037592D01*
X73777455Y-123030393D01*
X73729858Y-123018470D01*
X73683658Y-123001940D01*
X73639302Y-122980961D01*
X73597215Y-122955735D01*
X73557803Y-122926505D01*
X73521447Y-122893553D01*
X73488495Y-122857197D01*
X73459265Y-122817785D01*
X73434039Y-122775698D01*
X73413060Y-122731342D01*
X73396530Y-122685142D01*
X73384607Y-122637545D01*
X73377408Y-122589009D01*
X73375000Y-122540000D01*
X73375000Y-113540000D01*
X73377408Y-113490991D01*
X73384607Y-113442455D01*
X73396530Y-113394858D01*
X73413060Y-113348658D01*
X73434039Y-113304302D01*
X73459265Y-113262215D01*
X73488495Y-113222803D01*
X73521447Y-113186447D01*
X73557803Y-113153495D01*
X73597215Y-113124265D01*
X73639302Y-113099039D01*
X73683658Y-113078060D01*
X73729858Y-113061530D01*
X73777455Y-113049607D01*
X73825991Y-113042408D01*
X73875000Y-113040000D01*
X84875000Y-113040000D01*
X84924009Y-113042408D01*
G37*
G04 #@! TD.AperFunction*
D12*
X164785990Y-152079010D03*
X163195000Y-151420000D03*
X161604010Y-152079010D03*
X160945000Y-153670000D03*
X161604010Y-155260990D03*
X163195000Y-155920000D03*
X164785990Y-155260990D03*
X165445000Y-153670000D03*
D13*
X163195000Y-153670000D03*
D12*
X164785990Y-82229010D03*
X163195000Y-81570000D03*
X161604010Y-82229010D03*
X160945000Y-83820000D03*
X161604010Y-85410990D03*
X163195000Y-86070000D03*
X164785990Y-85410990D03*
X165445000Y-83820000D03*
D13*
X163195000Y-83820000D03*
D14*
X109220000Y-97790000D03*
X109220000Y-90170000D03*
D13*
X56515000Y-83820000D03*
D12*
X58765000Y-83820000D03*
X58105990Y-85410990D03*
X56515000Y-86070000D03*
X54924010Y-85410990D03*
X54265000Y-83820000D03*
X54924010Y-82229010D03*
X56515000Y-81570000D03*
X58105990Y-82229010D03*
D13*
X56515000Y-153670000D03*
D12*
X58765000Y-153670000D03*
X58105990Y-155260990D03*
X56515000Y-155920000D03*
X54924010Y-155260990D03*
X54265000Y-153670000D03*
X54924010Y-152079010D03*
X56515000Y-151420000D03*
X58105990Y-152079010D03*
D15*
X132040000Y-152155000D03*
X137120000Y-152155000D03*
D16*
X138900000Y-156855000D03*
D15*
X129500000Y-152155000D03*
X139660000Y-152155000D03*
X134580000Y-152155000D03*
D16*
X130300000Y-156855000D03*
X130300000Y-79755000D03*
X138900000Y-79755000D03*
D15*
X129540000Y-84455000D03*
X132080000Y-84455000D03*
X134620000Y-84455000D03*
X137160000Y-84455000D03*
X139700000Y-84455000D03*
X148550000Y-152155000D03*
X153630000Y-152155000D03*
D16*
X155410000Y-156855000D03*
D15*
X146010000Y-152155000D03*
X156170000Y-152155000D03*
X151090000Y-152155000D03*
D16*
X146810000Y-156855000D03*
X146810000Y-79755000D03*
X155410000Y-79755000D03*
D15*
X146050000Y-84455000D03*
X148590000Y-84455000D03*
X151130000Y-84455000D03*
X153670000Y-84455000D03*
X156210000Y-84455000D03*
D17*
X121920000Y-99060000D03*
X121920000Y-116840000D03*
X121920000Y-96520000D03*
X121920000Y-91440000D03*
X121920000Y-93980000D03*
X121920000Y-121920000D03*
X121920000Y-127000000D03*
X121920000Y-119380000D03*
G04 #@! TA.AperFunction,ComponentPad*
D10*
G36*
X123014108Y-85462167D02*
G01*
X123057791Y-85468647D01*
X123100628Y-85479377D01*
X123142208Y-85494254D01*
X123182129Y-85513135D01*
X123220007Y-85535839D01*
X123255477Y-85562145D01*
X123288198Y-85591802D01*
X123317855Y-85624523D01*
X123344161Y-85659993D01*
X123366865Y-85697871D01*
X123385746Y-85737792D01*
X123400623Y-85779372D01*
X123411353Y-85822209D01*
X123417833Y-85865892D01*
X123420000Y-85910000D01*
X123420000Y-86810000D01*
X123417833Y-86854108D01*
X123411353Y-86897791D01*
X123400623Y-86940628D01*
X123385746Y-86982208D01*
X123366865Y-87022129D01*
X123344161Y-87060007D01*
X123317855Y-87095477D01*
X123288198Y-87128198D01*
X123255477Y-87157855D01*
X123220007Y-87184161D01*
X123182129Y-87206865D01*
X123142208Y-87225746D01*
X123100628Y-87240623D01*
X123057791Y-87251353D01*
X123014108Y-87257833D01*
X122970000Y-87260000D01*
X120870000Y-87260000D01*
X120825892Y-87257833D01*
X120782209Y-87251353D01*
X120739372Y-87240623D01*
X120697792Y-87225746D01*
X120657871Y-87206865D01*
X120619993Y-87184161D01*
X120584523Y-87157855D01*
X120551802Y-87128198D01*
X120522145Y-87095477D01*
X120495839Y-87060007D01*
X120473135Y-87022129D01*
X120454254Y-86982208D01*
X120439377Y-86940628D01*
X120428647Y-86897791D01*
X120422167Y-86854108D01*
X120420000Y-86810000D01*
X120420000Y-85910000D01*
X120422167Y-85865892D01*
X120428647Y-85822209D01*
X120439377Y-85779372D01*
X120454254Y-85737792D01*
X120473135Y-85697871D01*
X120495839Y-85659993D01*
X120522145Y-85624523D01*
X120551802Y-85591802D01*
X120584523Y-85562145D01*
X120619993Y-85535839D01*
X120657871Y-85513135D01*
X120697792Y-85494254D01*
X120739372Y-85479377D01*
X120782209Y-85468647D01*
X120825892Y-85462167D01*
X120870000Y-85460000D01*
X122970000Y-85460000D01*
X123014108Y-85462167D01*
G37*
G04 #@! TD.AperFunction*
D17*
X121920000Y-132080000D03*
X121920000Y-129540000D03*
X121920000Y-109220000D03*
X121920000Y-104140000D03*
X121920000Y-106680000D03*
X121920000Y-114300000D03*
X121920000Y-124460000D03*
X121920000Y-111760000D03*
G04 #@! TA.AperFunction,ComponentPad*
D10*
G36*
X123014108Y-100702167D02*
G01*
X123057791Y-100708647D01*
X123100628Y-100719377D01*
X123142208Y-100734254D01*
X123182129Y-100753135D01*
X123220007Y-100775839D01*
X123255477Y-100802145D01*
X123288198Y-100831802D01*
X123317855Y-100864523D01*
X123344161Y-100899993D01*
X123366865Y-100937871D01*
X123385746Y-100977792D01*
X123400623Y-101019372D01*
X123411353Y-101062209D01*
X123417833Y-101105892D01*
X123420000Y-101150000D01*
X123420000Y-102050000D01*
X123417833Y-102094108D01*
X123411353Y-102137791D01*
X123400623Y-102180628D01*
X123385746Y-102222208D01*
X123366865Y-102262129D01*
X123344161Y-102300007D01*
X123317855Y-102335477D01*
X123288198Y-102368198D01*
X123255477Y-102397855D01*
X123220007Y-102424161D01*
X123182129Y-102446865D01*
X123142208Y-102465746D01*
X123100628Y-102480623D01*
X123057791Y-102491353D01*
X123014108Y-102497833D01*
X122970000Y-102500000D01*
X120870000Y-102500000D01*
X120825892Y-102497833D01*
X120782209Y-102491353D01*
X120739372Y-102480623D01*
X120697792Y-102465746D01*
X120657871Y-102446865D01*
X120619993Y-102424161D01*
X120584523Y-102397855D01*
X120551802Y-102368198D01*
X120522145Y-102335477D01*
X120495839Y-102300007D01*
X120473135Y-102262129D01*
X120454254Y-102222208D01*
X120439377Y-102180628D01*
X120428647Y-102137791D01*
X120422167Y-102094108D01*
X120420000Y-102050000D01*
X120420000Y-101150000D01*
X120422167Y-101105892D01*
X120428647Y-101062209D01*
X120439377Y-101019372D01*
X120454254Y-100977792D01*
X120473135Y-100937871D01*
X120495839Y-100899993D01*
X120522145Y-100864523D01*
X120551802Y-100831802D01*
X120584523Y-100802145D01*
X120619993Y-100775839D01*
X120657871Y-100753135D01*
X120697792Y-100734254D01*
X120739372Y-100719377D01*
X120782209Y-100708647D01*
X120825892Y-100702167D01*
X120870000Y-100700000D01*
X122970000Y-100700000D01*
X123014108Y-100702167D01*
G37*
G04 #@! TD.AperFunction*
D17*
X121920000Y-88900000D03*
X96520000Y-99060000D03*
X96520000Y-88900000D03*
X96520000Y-101600000D03*
X96520000Y-104140000D03*
X96520000Y-106680000D03*
X96520000Y-86360000D03*
X96520000Y-91440000D03*
X96520000Y-93980000D03*
X96520000Y-96520000D03*
X96520000Y-129540000D03*
X96520000Y-132080000D03*
X96520000Y-124460000D03*
X96520000Y-127000000D03*
G04 #@! TA.AperFunction,ComponentPad*
D10*
G36*
X97614108Y-118482167D02*
G01*
X97657791Y-118488647D01*
X97700628Y-118499377D01*
X97742208Y-118514254D01*
X97782129Y-118533135D01*
X97820007Y-118555839D01*
X97855477Y-118582145D01*
X97888198Y-118611802D01*
X97917855Y-118644523D01*
X97944161Y-118679993D01*
X97966865Y-118717871D01*
X97985746Y-118757792D01*
X98000623Y-118799372D01*
X98011353Y-118842209D01*
X98017833Y-118885892D01*
X98020000Y-118930000D01*
X98020000Y-119830000D01*
X98017833Y-119874108D01*
X98011353Y-119917791D01*
X98000623Y-119960628D01*
X97985746Y-120002208D01*
X97966865Y-120042129D01*
X97944161Y-120080007D01*
X97917855Y-120115477D01*
X97888198Y-120148198D01*
X97855477Y-120177855D01*
X97820007Y-120204161D01*
X97782129Y-120226865D01*
X97742208Y-120245746D01*
X97700628Y-120260623D01*
X97657791Y-120271353D01*
X97614108Y-120277833D01*
X97570000Y-120280000D01*
X95470000Y-120280000D01*
X95425892Y-120277833D01*
X95382209Y-120271353D01*
X95339372Y-120260623D01*
X95297792Y-120245746D01*
X95257871Y-120226865D01*
X95219993Y-120204161D01*
X95184523Y-120177855D01*
X95151802Y-120148198D01*
X95122145Y-120115477D01*
X95095839Y-120080007D01*
X95073135Y-120042129D01*
X95054254Y-120002208D01*
X95039377Y-119960628D01*
X95028647Y-119917791D01*
X95022167Y-119874108D01*
X95020000Y-119830000D01*
X95020000Y-118930000D01*
X95022167Y-118885892D01*
X95028647Y-118842209D01*
X95039377Y-118799372D01*
X95054254Y-118757792D01*
X95073135Y-118717871D01*
X95095839Y-118679993D01*
X95122145Y-118644523D01*
X95151802Y-118611802D01*
X95184523Y-118582145D01*
X95219993Y-118555839D01*
X95257871Y-118533135D01*
X95297792Y-118514254D01*
X95339372Y-118499377D01*
X95382209Y-118488647D01*
X95425892Y-118482167D01*
X95470000Y-118480000D01*
X97570000Y-118480000D01*
X97614108Y-118482167D01*
G37*
G04 #@! TD.AperFunction*
D17*
X96520000Y-121920000D03*
X96520000Y-109220000D03*
X96520000Y-111760000D03*
X96520000Y-114300000D03*
X96520000Y-116840000D03*
D18*
X56515000Y-95250000D03*
X56515000Y-100330000D03*
X56515000Y-105410000D03*
D19*
X56515000Y-120650000D03*
D18*
X56515000Y-110490000D03*
X56515000Y-115570000D03*
D20*
X79510000Y-91440000D03*
X67310000Y-91440000D03*
X67310000Y-79440000D03*
X79510000Y-79440000D03*
D21*
X81510000Y-85440000D03*
D20*
X79510000Y-109790000D03*
X67310000Y-109790000D03*
X67310000Y-97790000D03*
X79510000Y-97790000D03*
D21*
X81510000Y-103790000D03*
D15*
X92710000Y-96020000D03*
X92710000Y-88020000D03*
D22*
X72390000Y-131445000D03*
D23*
X62230000Y-131445000D03*
D24*
X98465000Y-138430000D03*
D25*
X100965000Y-138430000D03*
D24*
X64175000Y-137160000D03*
D25*
X66675000Y-137160000D03*
D15*
X107950000Y-125340000D03*
X107950000Y-117340000D03*
X104140000Y-122800000D03*
X104140000Y-114800000D03*
X100330000Y-120260000D03*
X100330000Y-112260000D03*
X83185000Y-141995000D03*
X83185000Y-149995000D03*
X111760000Y-134230000D03*
X111760000Y-126230000D03*
X92710000Y-99560000D03*
X92710000Y-107560000D03*
X100330000Y-86860000D03*
X100330000Y-94860000D03*
X104140000Y-86860000D03*
X104140000Y-94860000D03*
X63500000Y-142105000D03*
X63500000Y-150105000D03*
X67310000Y-150105000D03*
X67310000Y-142105000D03*
D26*
X86995000Y-97790000D03*
D27*
X86995000Y-100330000D03*
X86995000Y-99060000D03*
D26*
X86995000Y-79375000D03*
D27*
X86995000Y-81915000D03*
X86995000Y-80645000D03*
D28*
X104170000Y-131445000D03*
X102870000Y-131445000D03*
X104155000Y-128905000D03*
X102855000Y-128905000D03*
X111095000Y-119380000D03*
X112395000Y-119380000D03*
D29*
X90170000Y-131445000D03*
D30*
X90170000Y-128905000D03*
D28*
X111125000Y-121920000D03*
X112425000Y-121920000D03*
D29*
X121920000Y-152400000D03*
X121920000Y-149860000D03*
X121920000Y-147320000D03*
X121920000Y-144780000D03*
D30*
X121920000Y-142240000D03*
D29*
X111125000Y-80010000D03*
X113665000Y-80010000D03*
X116205000Y-80010000D03*
X118745000Y-80010000D03*
X121285000Y-80010000D03*
D30*
X123825000Y-80010000D03*
D29*
X161290000Y-107950000D03*
X161290000Y-105410000D03*
X161290000Y-102870000D03*
X161290000Y-100330000D03*
D30*
X161290000Y-97790000D03*
D18*
X64770000Y-156210000D03*
D19*
X80010000Y-156210000D03*
D18*
X69850000Y-156210000D03*
X74930000Y-156210000D03*
X56515000Y-127000000D03*
D19*
X56515000Y-142240000D03*
D18*
X56515000Y-132080000D03*
X56515000Y-137160000D03*
D15*
X70485000Y-125865000D03*
X70485000Y-117865000D03*
X64770000Y-125865000D03*
X64770000Y-117865000D03*
D31*
X86995000Y-103505000D03*
D25*
X86995000Y-111125000D03*
D31*
X86995000Y-85090000D03*
D25*
X86995000Y-92710000D03*
D32*
X95250000Y-80010000D03*
D33*
X97790000Y-80010000D03*
D32*
X104140000Y-80010000D03*
D33*
X106680000Y-80010000D03*
D34*
X71760712Y-138970000D03*
D35*
X78105000Y-142970000D03*
D34*
X72432856Y-140970000D03*
D35*
X77432856Y-140970000D03*
D32*
X83185000Y-136525000D03*
X80685000Y-136525000D03*
D24*
X88900000Y-119380000D03*
D25*
X91400000Y-119380000D03*
D24*
X85765000Y-156845000D03*
D25*
X88265000Y-156845000D03*
D32*
X91440000Y-125095000D03*
X88940000Y-125095000D03*
D12*
X80645000Y-119380000D03*
X78105000Y-119380000D03*
X76835000Y-119380000D03*
X76835000Y-118110000D03*
X81915000Y-119380000D03*
X81915000Y-118110000D03*
X74295000Y-121920000D03*
X75565000Y-121920000D03*
X76835000Y-121920000D03*
X78105000Y-121920000D03*
X80645000Y-121920000D03*
X81915000Y-121920000D03*
X83185000Y-121920000D03*
X84455000Y-121920000D03*
X83185000Y-119380000D03*
X83185000Y-118110000D03*
X84455000Y-118110000D03*
X84455000Y-119380000D03*
X84455000Y-120650000D03*
X83185000Y-120650000D03*
X81915000Y-120650000D03*
X80645000Y-120650000D03*
X78105000Y-120650000D03*
X76835000Y-120650000D03*
X75565000Y-120650000D03*
X74295000Y-120650000D03*
X75565000Y-119380000D03*
X74295000Y-119380000D03*
X75565000Y-118110000D03*
X74295000Y-118110000D03*
X74295000Y-114300000D03*
X75565000Y-114300000D03*
X76835000Y-114300000D03*
X78105000Y-114300000D03*
X79375000Y-114300000D03*
X80645000Y-114300000D03*
X81915000Y-114300000D03*
X83185000Y-114300000D03*
X84455000Y-114300000D03*
X84455000Y-115570000D03*
X83185000Y-115570000D03*
X81915000Y-115570000D03*
X76835000Y-115570000D03*
X75565000Y-115570000D03*
X74295000Y-115570000D03*
X74295000Y-116840000D03*
X75565000Y-116840000D03*
X76835000Y-116840000D03*
X81915000Y-116840000D03*
X83185000Y-116840000D03*
X84455000Y-116840000D03*
X79375000Y-120650000D03*
X79375000Y-121920000D03*
X79375000Y-119380000D03*
D36*
X72390000Y-131445000D02*
X76200000Y-131445000D01*
X76835000Y-132080000D02*
X76835000Y-133350000D01*
X76200000Y-131445000D02*
X76835000Y-132080000D01*
X72390000Y-131445000D02*
X67310000Y-131445000D01*
X66675000Y-132080000D02*
X66675000Y-137160000D01*
X67310000Y-131445000D02*
X66675000Y-132080000D01*
X66675000Y-140970000D02*
X67310000Y-141605000D01*
X66675000Y-137160000D02*
X66675000Y-140970000D01*
X62230000Y-131445000D02*
X62230000Y-127000000D01*
X62230000Y-127000000D02*
X62865000Y-126365000D01*
X62865000Y-126365000D02*
X64770000Y-126365000D01*
D37*
X104140000Y-86360000D02*
X104140000Y-80010000D01*
D36*
X53815000Y-120650000D02*
X56515000Y-120650000D01*
X53340000Y-121125000D02*
X53815000Y-120650000D01*
X53340000Y-126365000D02*
X53340000Y-121125000D01*
X53975000Y-127000000D02*
X53340000Y-126365000D01*
X56515000Y-127000000D02*
X53975000Y-127000000D01*
X56515000Y-132080000D02*
X53975000Y-132080000D01*
X53975000Y-132080000D02*
X53340000Y-131445000D01*
X53340000Y-131445000D02*
X53340000Y-127635000D01*
X53340000Y-127635000D02*
X53975000Y-127000000D01*
X80685000Y-136525000D02*
X72390000Y-136525000D01*
X72390000Y-136525000D02*
X71760712Y-137154288D01*
X72432856Y-139642144D02*
X71760712Y-138970000D01*
X72432856Y-140970000D02*
X72432856Y-139642144D01*
D38*
X95020000Y-119380000D02*
X92480000Y-116840000D01*
X96520000Y-119380000D02*
X95020000Y-119380000D01*
X92480000Y-116840000D02*
X89535000Y-116840000D01*
X88900000Y-117475000D02*
X88900000Y-119380000D01*
X89535000Y-116840000D02*
X88900000Y-117475000D01*
D37*
X136525000Y-82550000D02*
X137160000Y-83185000D01*
X113665000Y-80010000D02*
X113665000Y-78740000D01*
X113665000Y-78740000D02*
X114300000Y-78105000D01*
X114300000Y-78105000D02*
X118110000Y-78105000D01*
X118110000Y-78105000D02*
X118745000Y-78740000D01*
X118745000Y-78740000D02*
X118745000Y-80010000D01*
X123825000Y-80010000D02*
X123825000Y-78740000D01*
X123825000Y-78740000D02*
X123190000Y-78105000D01*
X123190000Y-78105000D02*
X119380000Y-78105000D01*
X119380000Y-78105000D02*
X118745000Y-78740000D01*
X123825000Y-80010000D02*
X123825000Y-81915000D01*
D38*
X121920000Y-144780000D02*
X136525000Y-144780000D01*
X136525000Y-144780000D02*
X137160000Y-145415000D01*
X137120000Y-145455000D02*
X137120000Y-152155000D01*
X137160000Y-145415000D02*
X137120000Y-145455000D01*
D37*
X136525000Y-82550000D02*
X124460000Y-82550000D01*
X124460000Y-82550000D02*
X123825000Y-81915000D01*
D36*
X71760712Y-137800712D02*
X71755000Y-137795000D01*
X71760712Y-138970000D02*
X71760712Y-137800712D01*
X71760712Y-137154288D02*
X71755000Y-137795000D01*
X63500000Y-137835000D02*
X64175000Y-137160000D01*
X63500000Y-141605000D02*
X63500000Y-137835000D01*
X121285000Y-83820000D02*
X121920000Y-84455000D01*
X121920000Y-84455000D02*
X121920000Y-86360000D01*
X107315000Y-83820000D02*
X121285000Y-83820000D01*
X106680000Y-83185000D02*
X107315000Y-83820000D01*
X106680000Y-80010000D02*
X106680000Y-83185000D01*
X123825000Y-83185000D02*
X123825000Y-80010000D01*
X123190000Y-83820000D02*
X123825000Y-83185000D01*
X121285000Y-83820000D02*
X123190000Y-83820000D01*
X121920000Y-101600000D02*
X118745000Y-101600000D01*
X118745000Y-101600000D02*
X118110000Y-100965000D01*
X118110000Y-100965000D02*
X118110000Y-86995000D01*
X118110000Y-86995000D02*
X118745000Y-86360000D01*
X118745000Y-86360000D02*
X121920000Y-86360000D01*
D37*
X154305000Y-100330000D02*
X161290000Y-100330000D01*
X153670000Y-99695000D02*
X154305000Y-100330000D01*
X153670000Y-84455000D02*
X153670000Y-99695000D01*
X153035000Y-116840000D02*
X137795000Y-116840000D01*
X137795000Y-116840000D02*
X137160000Y-116205000D01*
X153630000Y-152155000D02*
X153630000Y-117435000D01*
X153630000Y-117435000D02*
X153035000Y-116840000D01*
X137160000Y-116205000D02*
X137160000Y-84455000D01*
X137160000Y-84455000D02*
X137160000Y-83185000D01*
X137160000Y-83185000D02*
X137795000Y-82550000D01*
X137795000Y-82550000D02*
X153035000Y-82550000D01*
X153035000Y-82550000D02*
X153670000Y-83185000D01*
X153670000Y-83185000D02*
X153670000Y-84455000D01*
X137120000Y-152155000D02*
X137120000Y-153630000D01*
X137120000Y-153630000D02*
X137795000Y-154305000D01*
X137795000Y-154305000D02*
X153035000Y-154305000D01*
X153035000Y-154305000D02*
X153670000Y-153670000D01*
X153630000Y-153630000D02*
X153630000Y-152155000D01*
X153670000Y-153670000D02*
X153630000Y-153630000D01*
D36*
X79375000Y-133350000D02*
X79375000Y-121920000D01*
X88265000Y-116840000D02*
X88900000Y-117475000D01*
X79375000Y-116840000D02*
X81915000Y-116840000D01*
X81915000Y-116840000D02*
X83185000Y-116840000D01*
X83185000Y-116840000D02*
X84455000Y-116840000D01*
X84455000Y-116840000D02*
X88265000Y-116840000D01*
X79375000Y-120650000D02*
X79375000Y-119380000D01*
X79375000Y-121920000D02*
X79375000Y-120650000D01*
X79375000Y-119380000D02*
X79375000Y-116840000D01*
D37*
X95250000Y-80010000D02*
X95250000Y-83185000D01*
X95250000Y-83185000D02*
X95885000Y-83820000D01*
X95885000Y-83820000D02*
X99695000Y-83820000D01*
X100330000Y-84455000D02*
X100330000Y-86360000D01*
X99695000Y-83820000D02*
X100330000Y-84455000D01*
D39*
X79575000Y-79375000D02*
X79510000Y-79440000D01*
X85863630Y-85090000D02*
X84455000Y-83681370D01*
X86995000Y-85090000D02*
X85863630Y-85090000D01*
X84455000Y-80010000D02*
X85090000Y-79375000D01*
X84455000Y-83681370D02*
X84455000Y-80010000D01*
X85090000Y-79375000D02*
X79575000Y-79375000D01*
X86995000Y-79375000D02*
X85090000Y-79375000D01*
X85725000Y-91440000D02*
X86995000Y-92710000D01*
X79510000Y-91440000D02*
X85725000Y-91440000D01*
X85660000Y-109790000D02*
X86995000Y-111125000D01*
X79510000Y-109790000D02*
X85660000Y-109790000D01*
D36*
X71185000Y-109790000D02*
X79510000Y-109790000D01*
X70485000Y-110490000D02*
X71185000Y-109790000D01*
X70485000Y-117365000D02*
X70485000Y-110490000D01*
D39*
X86995000Y-103505000D02*
X86360000Y-103505000D01*
X86360000Y-103505000D02*
X84455000Y-101600000D01*
X84455000Y-101600000D02*
X84455000Y-98425000D01*
X84455000Y-98425000D02*
X85090000Y-97790000D01*
X85090000Y-97790000D02*
X86995000Y-97790000D01*
X79510000Y-97790000D02*
X85090000Y-97790000D01*
D36*
X56515000Y-115570000D02*
X64135000Y-115570000D01*
X64135000Y-115570000D02*
X64770000Y-116205000D01*
X64770000Y-116205000D02*
X64770000Y-117365000D01*
X64770000Y-117365000D02*
X64770000Y-121285000D01*
X64770000Y-121285000D02*
X65405000Y-121920000D01*
X65405000Y-121920000D02*
X69850000Y-121920000D01*
X70485000Y-122555000D02*
X70485000Y-126365000D01*
X69850000Y-121920000D02*
X70485000Y-122555000D01*
X63500000Y-80010000D02*
X64070000Y-79440000D01*
X63500000Y-94615000D02*
X63500000Y-80010000D01*
X62865000Y-95250000D02*
X63500000Y-94615000D01*
X64070000Y-79440000D02*
X67310000Y-79440000D01*
X56515000Y-95250000D02*
X62865000Y-95250000D01*
X56515000Y-105410000D02*
X62865000Y-105410000D01*
X62865000Y-105410000D02*
X63500000Y-104775000D01*
X63500000Y-104775000D02*
X63500000Y-98425000D01*
X64135000Y-97790000D02*
X67310000Y-97790000D01*
X63500000Y-98425000D02*
X64135000Y-97790000D01*
X77432856Y-142297856D02*
X78105000Y-142970000D01*
X77432856Y-140970000D02*
X77432856Y-142297856D01*
X74084990Y-144790010D02*
X62795833Y-144790010D01*
X75905000Y-142970000D02*
X74084990Y-144790010D01*
X78105000Y-142970000D02*
X75905000Y-142970000D01*
X62795833Y-144790010D02*
X60325000Y-142319177D01*
X60325000Y-142319177D02*
X60325000Y-137795000D01*
X59690000Y-137160000D02*
X56515000Y-137160000D01*
X60325000Y-137795000D02*
X59690000Y-137160000D01*
X81915000Y-133350000D02*
X83185000Y-134620000D01*
X83185000Y-134620000D02*
X83185000Y-136525000D01*
X83185000Y-136525000D02*
X83185000Y-141495000D01*
X81710000Y-142970000D02*
X83185000Y-141495000D01*
X78105000Y-142970000D02*
X81710000Y-142970000D01*
D38*
X91400000Y-125055000D02*
X91440000Y-125095000D01*
X91400000Y-119380000D02*
X91400000Y-125055000D01*
X90170000Y-128905000D02*
X90170000Y-128270000D01*
X90170000Y-128270000D02*
X91440000Y-127000000D01*
X91440000Y-127000000D02*
X91440000Y-125095000D01*
X90170000Y-128905000D02*
X82550000Y-128905000D01*
X82550000Y-128905000D02*
X81915000Y-129540000D01*
X81915000Y-129540000D02*
X81915000Y-133350000D01*
X121920000Y-142240000D02*
X139065000Y-142240000D01*
X139660000Y-142835000D02*
X139660000Y-152155000D01*
X139065000Y-142240000D02*
X139660000Y-142835000D01*
D37*
X156210000Y-84455000D02*
X156210000Y-97155000D01*
X156210000Y-97155000D02*
X156845000Y-97790000D01*
X156845000Y-97790000D02*
X161290000Y-97790000D01*
X156170000Y-152155000D02*
X156170000Y-114895000D01*
X156170000Y-114895000D02*
X155575000Y-114300000D01*
X140335000Y-114300000D02*
X139700000Y-113665000D01*
X155575000Y-114300000D02*
X140335000Y-114300000D01*
X139700000Y-84455000D02*
X139700000Y-113665000D01*
D38*
X70485000Y-159385000D02*
X69850000Y-158750000D01*
X69850000Y-158750000D02*
X69850000Y-156210000D01*
X87630000Y-159385000D02*
X70485000Y-159385000D01*
X88265000Y-158750000D02*
X87630000Y-159385000D01*
X88265000Y-156845000D02*
X88265000Y-158750000D01*
X85725000Y-150495000D02*
X83185000Y-150495000D01*
X86360000Y-149860000D02*
X85725000Y-150495000D01*
X86360000Y-135890000D02*
X86360000Y-149860000D01*
X86995000Y-135255000D02*
X86360000Y-135890000D01*
X93345000Y-134620000D02*
X92710000Y-135255000D01*
X93345000Y-123190000D02*
X93345000Y-134620000D01*
X94615000Y-121920000D02*
X93345000Y-123190000D01*
X92710000Y-135255000D02*
X86995000Y-135255000D01*
X96520000Y-121920000D02*
X94615000Y-121920000D01*
X83185000Y-147955000D02*
X83185000Y-150495000D01*
X82550000Y-147320000D02*
X83185000Y-147955000D01*
X61595000Y-147320000D02*
X82550000Y-147320000D01*
X56515000Y-142240000D02*
X61595000Y-147320000D01*
D37*
X111125000Y-142240000D02*
X111760000Y-141605000D01*
X90805000Y-142240000D02*
X111125000Y-142240000D01*
X90170000Y-142875000D02*
X90805000Y-142240000D01*
X90170000Y-153670000D02*
X90170000Y-142875000D01*
X89535000Y-154305000D02*
X90170000Y-153670000D01*
X81280000Y-154305000D02*
X89535000Y-154305000D01*
X80010000Y-155575000D02*
X81280000Y-154305000D01*
X111760000Y-141605000D02*
X111760000Y-134730000D01*
X80010000Y-156845000D02*
X80010000Y-155575000D01*
D39*
X92710000Y-81280000D02*
X92710000Y-87520000D01*
X92075000Y-80645000D02*
X92710000Y-81280000D01*
X86995000Y-80645000D02*
X88265000Y-80645000D01*
X88265000Y-80645000D02*
X92075000Y-80645000D01*
X87630000Y-80645000D02*
X88265000Y-80645000D01*
X87239990Y-99304990D02*
X90414990Y-99304990D01*
X86995000Y-99060000D02*
X87239990Y-99304990D01*
X90414990Y-99304990D02*
X90805000Y-99695000D01*
X90805000Y-99695000D02*
X90805000Y-107315000D01*
X91550000Y-108060000D02*
X92710000Y-108060000D01*
X90805000Y-107315000D02*
X91550000Y-108060000D01*
D38*
X63500000Y-150605000D02*
X67310000Y-150605000D01*
D37*
X102855000Y-135875000D02*
X102855000Y-128905000D01*
X102870000Y-135890000D02*
X102855000Y-135875000D01*
X102235000Y-136525000D02*
X102870000Y-135890000D01*
X88265000Y-151765000D02*
X88265000Y-137160000D01*
X80645000Y-152400000D02*
X87630000Y-152400000D01*
X87630000Y-152400000D02*
X88265000Y-151765000D01*
X80010000Y-151765000D02*
X80645000Y-152400000D01*
X80010000Y-151350000D02*
X80010000Y-151765000D01*
X79265000Y-150605000D02*
X80010000Y-151350000D01*
X88265000Y-137160000D02*
X88900000Y-136525000D01*
X67310000Y-150605000D02*
X79265000Y-150605000D01*
X100660000Y-136525000D02*
X100330000Y-136525000D01*
X100965000Y-136830000D02*
X100660000Y-136525000D01*
X100965000Y-138430000D02*
X100965000Y-136830000D01*
X100330000Y-136525000D02*
X102235000Y-136525000D01*
X88900000Y-136525000D02*
X100330000Y-136525000D01*
X104140000Y-102870000D02*
X104140000Y-95360000D01*
X102870000Y-104140000D02*
X104140000Y-102870000D01*
X96520000Y-104140000D02*
X102870000Y-104140000D01*
X96520000Y-101600000D02*
X99060000Y-101600000D01*
X100330000Y-100330000D02*
X100330000Y-95360000D01*
X99060000Y-101600000D02*
X100330000Y-100330000D01*
D39*
X96520000Y-96520000D02*
X92710000Y-96520000D01*
X92710000Y-99060000D02*
X96520000Y-99060000D01*
D37*
X111125000Y-119380000D02*
X111125000Y-122555000D01*
X111125000Y-125095000D02*
X111760000Y-125730000D01*
X111125000Y-122555000D02*
X111125000Y-125095000D01*
X96520000Y-111760000D02*
X100330000Y-111760000D01*
X151765000Y-102870000D02*
X161290000Y-102870000D01*
X151130000Y-102235000D02*
X151765000Y-102870000D01*
X151130000Y-84455000D02*
X151130000Y-102235000D01*
X96520000Y-114300000D02*
X104140000Y-114300000D01*
X148590000Y-84455000D02*
X148590000Y-104775000D01*
X148590000Y-104775000D02*
X149225000Y-105410000D01*
X149225000Y-105410000D02*
X161290000Y-105410000D01*
X96520000Y-116840000D02*
X107950000Y-116840000D01*
X146050000Y-84455000D02*
X146050000Y-107315000D01*
X146050000Y-107315000D02*
X146685000Y-107950000D01*
X146685000Y-107950000D02*
X161290000Y-107950000D01*
D38*
X132040000Y-152155000D02*
X132040000Y-150535000D01*
D36*
X131365000Y-149860000D02*
X132040000Y-150535000D01*
X121920000Y-149860000D02*
X131365000Y-149860000D01*
D37*
X129500000Y-152155000D02*
X129150000Y-152155000D01*
X129150000Y-152155000D02*
X128905000Y-152400000D01*
D36*
X129255000Y-152400000D02*
X129500000Y-152155000D01*
X121920000Y-152400000D02*
X129255000Y-152400000D01*
D38*
X121920000Y-147320000D02*
X133985000Y-147320000D01*
X134580000Y-147915000D02*
X134580000Y-152155000D01*
X133985000Y-147320000D02*
X134580000Y-147915000D01*
D37*
X113725000Y-121920000D02*
X112425000Y-121920000D01*
X114300000Y-121345000D02*
X113725000Y-121920000D01*
X114300000Y-107315000D02*
X114300000Y-121345000D01*
X113665000Y-106680000D02*
X114300000Y-107315000D01*
X96520000Y-106680000D02*
X113665000Y-106680000D01*
X112395000Y-109855000D02*
X112395000Y-119380000D01*
X111760000Y-109220000D02*
X112395000Y-109855000D01*
X96520000Y-109220000D02*
X111760000Y-109220000D01*
X104155000Y-128905000D02*
X116205000Y-128905000D01*
X116205000Y-128905000D02*
X116840000Y-128270000D01*
X116840000Y-128270000D02*
X116840000Y-122555000D01*
X117475000Y-121920000D02*
X121920000Y-121920000D01*
X116840000Y-122555000D02*
X117475000Y-121920000D01*
X119620000Y-124460000D02*
X118745000Y-125335000D01*
X121920000Y-124460000D02*
X119620000Y-124460000D01*
X104170000Y-131445000D02*
X118110000Y-131445000D01*
X118110000Y-131445000D02*
X118745000Y-130810000D01*
X118745000Y-130810000D02*
X118745000Y-125335000D01*
X132715000Y-121920000D02*
X132080000Y-121285000D01*
X147955000Y-121920000D02*
X132715000Y-121920000D01*
X148550000Y-122515000D02*
X147955000Y-121920000D01*
X148550000Y-152155000D02*
X148550000Y-122515000D01*
X132080000Y-84455000D02*
X132080000Y-121285000D01*
X130175000Y-124460000D02*
X129540000Y-123825000D01*
X145415000Y-124460000D02*
X130175000Y-124460000D01*
X146010000Y-125055000D02*
X145415000Y-124460000D01*
X146010000Y-152155000D02*
X146010000Y-125055000D01*
X129540000Y-84455000D02*
X129540000Y-123825000D01*
X151130000Y-135255000D02*
X151090000Y-152155000D01*
X151130000Y-135255000D02*
X151130000Y-120015000D01*
X151130000Y-120015000D02*
X150495000Y-119380000D01*
X135255000Y-119380000D02*
X134620000Y-118745000D01*
X150495000Y-119380000D02*
X135255000Y-119380000D01*
X134620000Y-84455000D02*
X134620000Y-118745000D01*
X107950000Y-125840000D02*
X107950000Y-123825000D01*
X107425000Y-123300000D02*
X104140000Y-123300000D01*
X107950000Y-123825000D02*
X107425000Y-123300000D01*
X100330000Y-120760000D02*
X103615000Y-120760000D01*
X104140000Y-121285000D02*
X104140000Y-123300000D01*
X103615000Y-120760000D02*
X104140000Y-121285000D01*
X100330000Y-130570000D02*
X100330000Y-120760000D01*
X98820000Y-132080000D02*
X100330000Y-130570000D01*
X96520000Y-132080000D02*
X98820000Y-132080000D01*
D36*
X61595000Y-110490000D02*
X56515000Y-110490000D01*
X68295000Y-103790000D02*
X61595000Y-110490000D01*
X81510000Y-103790000D02*
X68295000Y-103790000D01*
D40*
G36*
X159185000Y-90805000D02*
G01*
X159188843Y-90844018D01*
X159200224Y-90881537D01*
X159218706Y-90916114D01*
X159243579Y-90946421D01*
X159273886Y-90971294D01*
X159308463Y-90989776D01*
X159345982Y-91001157D01*
X159385000Y-91005000D01*
X166805000Y-91005000D01*
X166805000Y-146485000D01*
X159385000Y-146485000D01*
X159345982Y-146488843D01*
X159308463Y-146500224D01*
X159273886Y-146518706D01*
X159243579Y-146543579D01*
X159218706Y-146573886D01*
X159200224Y-146608463D01*
X159188843Y-146645982D01*
X159185000Y-146685000D01*
X159185000Y-160455000D01*
X91005000Y-160455000D01*
X91005000Y-156598922D01*
X127700000Y-156598922D01*
X127700000Y-157111078D01*
X127799917Y-157613392D01*
X127995910Y-158086562D01*
X128280448Y-158512403D01*
X128642597Y-158874552D01*
X129068438Y-159159090D01*
X129541608Y-159355083D01*
X130043922Y-159455000D01*
X130556078Y-159455000D01*
X131058392Y-159355083D01*
X131531562Y-159159090D01*
X131957403Y-158874552D01*
X132319552Y-158512403D01*
X132604090Y-158086562D01*
X132800083Y-157613392D01*
X132900000Y-157111078D01*
X132900000Y-156598922D01*
X136300000Y-156598922D01*
X136300000Y-157111078D01*
X136399917Y-157613392D01*
X136595910Y-158086562D01*
X136880448Y-158512403D01*
X137242597Y-158874552D01*
X137668438Y-159159090D01*
X138141608Y-159355083D01*
X138643922Y-159455000D01*
X139156078Y-159455000D01*
X139658392Y-159355083D01*
X140131562Y-159159090D01*
X140557403Y-158874552D01*
X140919552Y-158512403D01*
X141204090Y-158086562D01*
X141400083Y-157613392D01*
X141500000Y-157111078D01*
X141500000Y-156598922D01*
X144210000Y-156598922D01*
X144210000Y-157111078D01*
X144309917Y-157613392D01*
X144505910Y-158086562D01*
X144790448Y-158512403D01*
X145152597Y-158874552D01*
X145578438Y-159159090D01*
X146051608Y-159355083D01*
X146553922Y-159455000D01*
X147066078Y-159455000D01*
X147568392Y-159355083D01*
X148041562Y-159159090D01*
X148467403Y-158874552D01*
X148829552Y-158512403D01*
X149114090Y-158086562D01*
X149310083Y-157613392D01*
X149410000Y-157111078D01*
X149410000Y-156598922D01*
X152810000Y-156598922D01*
X152810000Y-157111078D01*
X152909917Y-157613392D01*
X153105910Y-158086562D01*
X153390448Y-158512403D01*
X153752597Y-158874552D01*
X154178438Y-159159090D01*
X154651608Y-159355083D01*
X155153922Y-159455000D01*
X155666078Y-159455000D01*
X156168392Y-159355083D01*
X156641562Y-159159090D01*
X157067403Y-158874552D01*
X157429552Y-158512403D01*
X157714090Y-158086562D01*
X157910083Y-157613392D01*
X158010000Y-157111078D01*
X158010000Y-156598922D01*
X157910083Y-156096608D01*
X157714090Y-155623438D01*
X157429552Y-155197597D01*
X157067403Y-154835448D01*
X156641562Y-154550910D01*
X156168392Y-154354917D01*
X155666078Y-154255000D01*
X155153922Y-154255000D01*
X154651608Y-154354917D01*
X154178438Y-154550910D01*
X153752597Y-154835448D01*
X153390448Y-155197597D01*
X153105910Y-155623438D01*
X152909917Y-156096608D01*
X152810000Y-156598922D01*
X149410000Y-156598922D01*
X149310083Y-156096608D01*
X149114090Y-155623438D01*
X148829552Y-155197597D01*
X148467403Y-154835448D01*
X148041562Y-154550910D01*
X147568392Y-154354917D01*
X147066078Y-154255000D01*
X146553922Y-154255000D01*
X146051608Y-154354917D01*
X145578438Y-154550910D01*
X145152597Y-154835448D01*
X144790448Y-155197597D01*
X144505910Y-155623438D01*
X144309917Y-156096608D01*
X144210000Y-156598922D01*
X141500000Y-156598922D01*
X141400083Y-156096608D01*
X141204090Y-155623438D01*
X140919552Y-155197597D01*
X140557403Y-154835448D01*
X140131562Y-154550910D01*
X139658392Y-154354917D01*
X139156078Y-154255000D01*
X138643922Y-154255000D01*
X138141608Y-154354917D01*
X137668438Y-154550910D01*
X137242597Y-154835448D01*
X136880448Y-155197597D01*
X136595910Y-155623438D01*
X136399917Y-156096608D01*
X136300000Y-156598922D01*
X132900000Y-156598922D01*
X132800083Y-156096608D01*
X132604090Y-155623438D01*
X132319552Y-155197597D01*
X131957403Y-154835448D01*
X131531562Y-154550910D01*
X131058392Y-154354917D01*
X130556078Y-154255000D01*
X130043922Y-154255000D01*
X129541608Y-154354917D01*
X129068438Y-154550910D01*
X128642597Y-154835448D01*
X128280448Y-155197597D01*
X127995910Y-155623438D01*
X127799917Y-156096608D01*
X127700000Y-156598922D01*
X91005000Y-156598922D01*
X91005000Y-154537106D01*
X91022634Y-154522634D01*
X91172591Y-154339910D01*
X91284019Y-154131442D01*
X91352637Y-153905241D01*
X91370000Y-153728950D01*
X91370000Y-153728949D01*
X91375806Y-153670000D01*
X91370000Y-153611050D01*
X91370000Y-147157489D01*
X120270000Y-147157489D01*
X120270000Y-147482511D01*
X120333408Y-147801287D01*
X120457789Y-148101568D01*
X120638361Y-148371814D01*
X120856547Y-148590000D01*
X120638361Y-148808186D01*
X120457789Y-149078432D01*
X120333408Y-149378713D01*
X120270000Y-149697489D01*
X120270000Y-150022511D01*
X120333408Y-150341287D01*
X120457789Y-150641568D01*
X120638361Y-150911814D01*
X120856547Y-151130000D01*
X120638361Y-151348186D01*
X120457789Y-151618432D01*
X120333408Y-151918713D01*
X120270000Y-152237489D01*
X120270000Y-152562511D01*
X120333408Y-152881287D01*
X120457789Y-153181568D01*
X120638361Y-153451814D01*
X120868186Y-153681639D01*
X121138432Y-153862211D01*
X121438713Y-153986592D01*
X121757489Y-154050000D01*
X122082511Y-154050000D01*
X122401287Y-153986592D01*
X122701568Y-153862211D01*
X122794674Y-153800000D01*
X128398239Y-153800000D01*
X128550962Y-153925337D01*
X128846292Y-154083194D01*
X129166743Y-154180402D01*
X129500000Y-154213225D01*
X129833258Y-154180402D01*
X130153709Y-154083194D01*
X130449039Y-153925337D01*
X130707897Y-153712897D01*
X130770000Y-153637224D01*
X130832104Y-153712897D01*
X131090962Y-153925337D01*
X131386292Y-154083194D01*
X131706743Y-154180402D01*
X132040000Y-154213225D01*
X132373258Y-154180402D01*
X132693709Y-154083194D01*
X132989039Y-153925337D01*
X133247897Y-153712897D01*
X133310000Y-153637224D01*
X133372104Y-153712897D01*
X133630962Y-153925337D01*
X133926292Y-154083194D01*
X134246743Y-154180402D01*
X134580000Y-154213225D01*
X134913258Y-154180402D01*
X135233709Y-154083194D01*
X135529039Y-153925337D01*
X135787897Y-153712897D01*
X135914428Y-153558719D01*
X136021157Y-153680212D01*
X136271543Y-153872004D01*
X136554535Y-154011263D01*
X136815260Y-154083860D01*
X137066000Y-153934981D01*
X137066000Y-152209000D01*
X137046000Y-152209000D01*
X137046000Y-152101000D01*
X137066000Y-152101000D01*
X137066000Y-150375019D01*
X136815260Y-150226140D01*
X136554535Y-150298737D01*
X136271543Y-150437996D01*
X136021157Y-150629788D01*
X135914428Y-150751281D01*
X135880000Y-150709330D01*
X135880000Y-147978860D01*
X135886290Y-147914999D01*
X135875090Y-147801287D01*
X135861190Y-147660155D01*
X135786855Y-147415104D01*
X135666140Y-147189264D01*
X135503687Y-146991313D01*
X135454075Y-146950598D01*
X134949403Y-146445926D01*
X134908687Y-146396313D01*
X134710736Y-146233860D01*
X134484896Y-146113145D01*
X134239845Y-146038810D01*
X134048864Y-146020000D01*
X134048861Y-146020000D01*
X133985000Y-146013710D01*
X133921139Y-146020000D01*
X122944335Y-146020000D01*
X122894022Y-145986382D01*
X123016591Y-145886733D01*
X123211433Y-145651533D01*
X123356646Y-145382841D01*
X123446650Y-145090982D01*
X123449446Y-145076914D01*
X123299944Y-144834000D01*
X121974000Y-144834000D01*
X121974000Y-144854000D01*
X121866000Y-144854000D01*
X121866000Y-144834000D01*
X120540056Y-144834000D01*
X120390554Y-145076914D01*
X120393350Y-145090982D01*
X120483354Y-145382841D01*
X120628567Y-145651533D01*
X120823409Y-145886733D01*
X120945978Y-145986382D01*
X120868186Y-146038361D01*
X120638361Y-146268186D01*
X120457789Y-146538432D01*
X120333408Y-146838713D01*
X120270000Y-147157489D01*
X91370000Y-147157489D01*
X91370000Y-143440000D01*
X111066053Y-143440000D01*
X111125000Y-143445806D01*
X111183947Y-143440000D01*
X111183950Y-143440000D01*
X111360241Y-143422637D01*
X111586442Y-143354019D01*
X111794910Y-143242591D01*
X111977634Y-143092634D01*
X112015216Y-143046839D01*
X112566836Y-142495219D01*
X112612634Y-142457634D01*
X112762591Y-142274910D01*
X112874019Y-142066442D01*
X112942637Y-141840241D01*
X112960000Y-141663950D01*
X112960000Y-141663949D01*
X112965806Y-141605000D01*
X112960000Y-141546050D01*
X112960000Y-141390000D01*
X120266130Y-141390000D01*
X120266130Y-143090000D01*
X120281576Y-143246827D01*
X120327321Y-143397628D01*
X120401607Y-143536606D01*
X120501578Y-143658422D01*
X120623394Y-143758393D01*
X120713147Y-143806368D01*
X120628567Y-143908467D01*
X120483354Y-144177159D01*
X120393350Y-144469018D01*
X120390554Y-144483086D01*
X120540056Y-144726000D01*
X121866000Y-144726000D01*
X121866000Y-144706000D01*
X121974000Y-144706000D01*
X121974000Y-144726000D01*
X123299944Y-144726000D01*
X123449446Y-144483086D01*
X123446650Y-144469018D01*
X123356646Y-144177159D01*
X123211433Y-143908467D01*
X123126853Y-143806368D01*
X123216606Y-143758393D01*
X123338422Y-143658422D01*
X123435608Y-143540000D01*
X138360000Y-143540000D01*
X138360001Y-150709330D01*
X138325572Y-150751282D01*
X138218843Y-150629788D01*
X137968457Y-150437996D01*
X137685465Y-150298737D01*
X137424740Y-150226140D01*
X137174000Y-150375019D01*
X137174000Y-152101000D01*
X137194000Y-152101000D01*
X137194000Y-152209000D01*
X137174000Y-152209000D01*
X137174000Y-153934981D01*
X137424740Y-154083860D01*
X137685465Y-154011263D01*
X137968457Y-153872004D01*
X138218843Y-153680212D01*
X138325572Y-153558719D01*
X138452104Y-153712897D01*
X138710962Y-153925337D01*
X139006292Y-154083194D01*
X139326743Y-154180402D01*
X139660000Y-154213225D01*
X139993258Y-154180402D01*
X140313709Y-154083194D01*
X140609039Y-153925337D01*
X140867897Y-153712897D01*
X141080337Y-153454039D01*
X141238194Y-153158709D01*
X141335402Y-152838257D01*
X141360000Y-152588509D01*
X141360000Y-151721490D01*
X141335402Y-151471742D01*
X141238194Y-151151291D01*
X141080337Y-150855961D01*
X140960000Y-150709330D01*
X140960000Y-142898860D01*
X140966290Y-142834999D01*
X140956923Y-142739895D01*
X140941190Y-142580155D01*
X140866855Y-142335104D01*
X140746140Y-142109264D01*
X140583687Y-141911313D01*
X140534075Y-141870598D01*
X140029403Y-141365926D01*
X139988687Y-141316313D01*
X139790736Y-141153860D01*
X139564896Y-141033145D01*
X139319845Y-140958810D01*
X139128864Y-140940000D01*
X139128861Y-140940000D01*
X139065000Y-140933710D01*
X139001139Y-140940000D01*
X123435608Y-140940000D01*
X123338422Y-140821578D01*
X123216606Y-140721607D01*
X123077628Y-140647321D01*
X122926827Y-140601576D01*
X122770000Y-140586130D01*
X121070000Y-140586130D01*
X120913173Y-140601576D01*
X120762372Y-140647321D01*
X120623394Y-140721607D01*
X120501578Y-140821578D01*
X120401607Y-140943394D01*
X120327321Y-141082372D01*
X120281576Y-141233173D01*
X120266130Y-141390000D01*
X112960000Y-141390000D01*
X112960000Y-135794378D01*
X112967897Y-135787897D01*
X113180337Y-135529039D01*
X113338194Y-135233709D01*
X113435402Y-134913258D01*
X113460000Y-134663510D01*
X113460000Y-133796491D01*
X113435402Y-133546743D01*
X113338194Y-133226291D01*
X113180337Y-132930961D01*
X112967897Y-132672103D01*
X112934872Y-132645000D01*
X118051053Y-132645000D01*
X118110000Y-132650806D01*
X118168947Y-132645000D01*
X118168950Y-132645000D01*
X118345241Y-132627637D01*
X118571442Y-132559019D01*
X118779910Y-132447591D01*
X118962634Y-132297634D01*
X119000216Y-132251839D01*
X119551836Y-131700219D01*
X119597634Y-131662634D01*
X119712611Y-131522533D01*
X119644598Y-131746742D01*
X119611775Y-132080000D01*
X119644598Y-132413258D01*
X119741806Y-132733709D01*
X119899663Y-133029039D01*
X120112103Y-133287897D01*
X120370961Y-133500337D01*
X120666291Y-133658194D01*
X120986742Y-133755402D01*
X121236490Y-133780000D01*
X122603510Y-133780000D01*
X122853258Y-133755402D01*
X123173709Y-133658194D01*
X123469039Y-133500337D01*
X123727897Y-133287897D01*
X123940337Y-133029039D01*
X124098194Y-132733709D01*
X124195402Y-132413258D01*
X124228225Y-132080000D01*
X124195402Y-131746742D01*
X124098194Y-131426291D01*
X123940337Y-131130961D01*
X123727897Y-130872103D01*
X123652225Y-130810000D01*
X123727897Y-130747897D01*
X123940337Y-130489039D01*
X124098194Y-130193709D01*
X124195402Y-129873258D01*
X124228225Y-129540000D01*
X124195402Y-129206742D01*
X124098194Y-128886291D01*
X123940337Y-128590961D01*
X123727897Y-128332103D01*
X123652225Y-128270000D01*
X123727897Y-128207897D01*
X123940337Y-127949039D01*
X124098194Y-127653709D01*
X124195402Y-127333258D01*
X124228225Y-127000000D01*
X124195402Y-126666742D01*
X124098194Y-126346291D01*
X123940337Y-126050961D01*
X123727897Y-125792103D01*
X123652225Y-125730000D01*
X123727897Y-125667897D01*
X123940337Y-125409039D01*
X124098194Y-125113709D01*
X124195402Y-124793258D01*
X124228225Y-124460000D01*
X124195402Y-124126742D01*
X124098194Y-123806291D01*
X123940337Y-123510961D01*
X123727897Y-123252103D01*
X123652225Y-123190000D01*
X123727897Y-123127897D01*
X123940337Y-122869039D01*
X124098194Y-122573709D01*
X124195402Y-122253258D01*
X124228225Y-121920000D01*
X124195402Y-121586742D01*
X124098194Y-121266291D01*
X123940337Y-120970961D01*
X123727897Y-120712103D01*
X123652225Y-120650000D01*
X123727897Y-120587897D01*
X123940337Y-120329039D01*
X124098194Y-120033709D01*
X124195402Y-119713258D01*
X124228225Y-119380000D01*
X124195402Y-119046742D01*
X124098194Y-118726291D01*
X123940337Y-118430961D01*
X123727897Y-118172103D01*
X123652225Y-118110000D01*
X123727897Y-118047897D01*
X123940337Y-117789039D01*
X124098194Y-117493709D01*
X124195402Y-117173258D01*
X124228225Y-116840000D01*
X124195402Y-116506742D01*
X124098194Y-116186291D01*
X123940337Y-115890961D01*
X123727897Y-115632103D01*
X123652225Y-115570000D01*
X123727897Y-115507897D01*
X123940337Y-115249039D01*
X124098194Y-114953709D01*
X124195402Y-114633258D01*
X124228225Y-114300000D01*
X124195402Y-113966742D01*
X124098194Y-113646291D01*
X123940337Y-113350961D01*
X123727897Y-113092103D01*
X123652225Y-113030000D01*
X123727897Y-112967897D01*
X123940337Y-112709039D01*
X124098194Y-112413709D01*
X124195402Y-112093258D01*
X124228225Y-111760000D01*
X124195402Y-111426742D01*
X124098194Y-111106291D01*
X123940337Y-110810961D01*
X123727897Y-110552103D01*
X123652225Y-110490000D01*
X123727897Y-110427897D01*
X123940337Y-110169039D01*
X124098194Y-109873709D01*
X124195402Y-109553258D01*
X124228225Y-109220000D01*
X124195402Y-108886742D01*
X124098194Y-108566291D01*
X123940337Y-108270961D01*
X123727897Y-108012103D01*
X123652225Y-107950000D01*
X123727897Y-107887897D01*
X123940337Y-107629039D01*
X124098194Y-107333709D01*
X124195402Y-107013258D01*
X124228225Y-106680000D01*
X124195402Y-106346742D01*
X124098194Y-106026291D01*
X123940337Y-105730961D01*
X123727897Y-105472103D01*
X123652225Y-105410000D01*
X123727897Y-105347897D01*
X123940337Y-105089039D01*
X124098194Y-104793709D01*
X124195402Y-104473258D01*
X124228225Y-104140000D01*
X124195402Y-103806742D01*
X124098194Y-103486291D01*
X123940337Y-103190961D01*
X123841233Y-103070203D01*
X123923054Y-103003054D01*
X124011529Y-102895247D01*
X124077272Y-102772251D01*
X124117756Y-102638792D01*
X124131426Y-102500000D01*
X124128000Y-101831000D01*
X123951000Y-101654000D01*
X121974000Y-101654000D01*
X121974000Y-101674000D01*
X121866000Y-101674000D01*
X121866000Y-101654000D01*
X119889000Y-101654000D01*
X119712000Y-101831000D01*
X119708574Y-102500000D01*
X119722244Y-102638792D01*
X119762728Y-102772251D01*
X119828471Y-102895247D01*
X119916946Y-103003054D01*
X119998767Y-103070203D01*
X119899663Y-103190961D01*
X119741806Y-103486291D01*
X119644598Y-103806742D01*
X119611775Y-104140000D01*
X119644598Y-104473258D01*
X119741806Y-104793709D01*
X119899663Y-105089039D01*
X120112103Y-105347897D01*
X120187775Y-105410000D01*
X120112103Y-105472103D01*
X119899663Y-105730961D01*
X119741806Y-106026291D01*
X119644598Y-106346742D01*
X119611775Y-106680000D01*
X119644598Y-107013258D01*
X119741806Y-107333709D01*
X119899663Y-107629039D01*
X120112103Y-107887897D01*
X120187775Y-107950000D01*
X120112103Y-108012103D01*
X119899663Y-108270961D01*
X119741806Y-108566291D01*
X119644598Y-108886742D01*
X119611775Y-109220000D01*
X119644598Y-109553258D01*
X119741806Y-109873709D01*
X119899663Y-110169039D01*
X120112103Y-110427897D01*
X120187775Y-110490000D01*
X120112103Y-110552103D01*
X119899663Y-110810961D01*
X119741806Y-111106291D01*
X119644598Y-111426742D01*
X119611775Y-111760000D01*
X119644598Y-112093258D01*
X119741806Y-112413709D01*
X119899663Y-112709039D01*
X120112103Y-112967897D01*
X120187775Y-113030000D01*
X120112103Y-113092103D01*
X119899663Y-113350961D01*
X119741806Y-113646291D01*
X119644598Y-113966742D01*
X119611775Y-114300000D01*
X119644598Y-114633258D01*
X119741806Y-114953709D01*
X119899663Y-115249039D01*
X120112103Y-115507897D01*
X120187775Y-115570000D01*
X120112103Y-115632103D01*
X119899663Y-115890961D01*
X119741806Y-116186291D01*
X119644598Y-116506742D01*
X119611775Y-116840000D01*
X119644598Y-117173258D01*
X119741806Y-117493709D01*
X119899663Y-117789039D01*
X120112103Y-118047897D01*
X120187775Y-118110000D01*
X120112103Y-118172103D01*
X119899663Y-118430961D01*
X119741806Y-118726291D01*
X119644598Y-119046742D01*
X119611775Y-119380000D01*
X119644598Y-119713258D01*
X119741806Y-120033709D01*
X119899663Y-120329039D01*
X120112103Y-120587897D01*
X120187775Y-120650000D01*
X120112103Y-120712103D01*
X120105622Y-120720000D01*
X117533950Y-120720000D01*
X117475000Y-120714194D01*
X117416050Y-120720000D01*
X117239759Y-120737363D01*
X117013558Y-120805981D01*
X116805090Y-120917409D01*
X116622366Y-121067366D01*
X116584780Y-121113165D01*
X116033156Y-121664788D01*
X115987367Y-121702366D01*
X115949790Y-121748154D01*
X115949788Y-121748156D01*
X115837409Y-121885090D01*
X115725981Y-122093559D01*
X115678179Y-122251142D01*
X115657830Y-122318225D01*
X115657364Y-122319760D01*
X115634194Y-122555000D01*
X115640001Y-122613957D01*
X115640000Y-127705000D01*
X113035929Y-127705000D01*
X113180337Y-127529039D01*
X113338194Y-127233709D01*
X113435402Y-126913258D01*
X113460000Y-126663510D01*
X113460000Y-125796491D01*
X113435402Y-125546743D01*
X113338194Y-125226291D01*
X113180337Y-124930961D01*
X112967897Y-124672103D01*
X112709039Y-124459663D01*
X112413709Y-124301806D01*
X112325000Y-124274896D01*
X112325000Y-123473870D01*
X112925000Y-123473870D01*
X113081827Y-123458424D01*
X113232628Y-123412679D01*
X113371606Y-123338393D01*
X113493422Y-123238422D01*
X113590608Y-123120000D01*
X113666053Y-123120000D01*
X113725000Y-123125806D01*
X113783947Y-123120000D01*
X113783950Y-123120000D01*
X113960241Y-123102637D01*
X114186442Y-123034019D01*
X114394910Y-122922591D01*
X114577634Y-122772634D01*
X114615216Y-122726840D01*
X115106840Y-122235216D01*
X115152634Y-122197634D01*
X115302591Y-122014910D01*
X115414019Y-121806442D01*
X115482637Y-121580241D01*
X115500000Y-121403950D01*
X115500000Y-121403947D01*
X115505806Y-121345000D01*
X115500000Y-121286053D01*
X115500000Y-107373950D01*
X115505806Y-107315000D01*
X115482637Y-107079759D01*
X115414019Y-106853558D01*
X115332430Y-106700916D01*
X115302591Y-106645090D01*
X115152634Y-106462366D01*
X115106836Y-106424781D01*
X114555216Y-105873161D01*
X114517634Y-105827366D01*
X114334910Y-105677409D01*
X114126442Y-105565981D01*
X113900241Y-105497363D01*
X113723950Y-105480000D01*
X113723947Y-105480000D01*
X113665000Y-105474194D01*
X113606053Y-105480000D01*
X98334378Y-105480000D01*
X98327897Y-105472103D01*
X98252225Y-105410000D01*
X98327897Y-105347897D01*
X98334378Y-105340000D01*
X102811053Y-105340000D01*
X102870000Y-105345806D01*
X102928947Y-105340000D01*
X102928950Y-105340000D01*
X103105241Y-105322637D01*
X103331442Y-105254019D01*
X103539910Y-105142591D01*
X103722634Y-104992634D01*
X103760216Y-104946840D01*
X104946841Y-103760215D01*
X104992634Y-103722634D01*
X105142591Y-103539910D01*
X105254019Y-103331442D01*
X105322637Y-103105241D01*
X105340000Y-102928950D01*
X105340000Y-102928948D01*
X105345806Y-102870001D01*
X105340000Y-102811054D01*
X105340000Y-97464978D01*
X105920000Y-97464978D01*
X105920000Y-98115022D01*
X106046817Y-98752574D01*
X106295578Y-99353136D01*
X106656723Y-99893627D01*
X107116373Y-100353277D01*
X107656864Y-100714422D01*
X108257426Y-100963183D01*
X108894978Y-101090000D01*
X109545022Y-101090000D01*
X110182574Y-100963183D01*
X110783136Y-100714422D01*
X111323627Y-100353277D01*
X111783277Y-99893627D01*
X112144422Y-99353136D01*
X112393183Y-98752574D01*
X112520000Y-98115022D01*
X112520000Y-97464978D01*
X112393183Y-96827426D01*
X112144422Y-96226864D01*
X111783277Y-95686373D01*
X111323627Y-95226723D01*
X110783136Y-94865578D01*
X110182574Y-94616817D01*
X109545022Y-94490000D01*
X108894978Y-94490000D01*
X108257426Y-94616817D01*
X107656864Y-94865578D01*
X107116373Y-95226723D01*
X106656723Y-95686373D01*
X106295578Y-96226864D01*
X106046817Y-96827426D01*
X105920000Y-97464978D01*
X105340000Y-97464978D01*
X105340000Y-96424378D01*
X105347897Y-96417897D01*
X105560337Y-96159039D01*
X105718194Y-95863709D01*
X105815402Y-95543257D01*
X105840000Y-95293509D01*
X105840000Y-94426490D01*
X105815402Y-94176742D01*
X105718194Y-93856291D01*
X105560337Y-93560961D01*
X105347897Y-93302103D01*
X105089038Y-93089663D01*
X104793708Y-92931806D01*
X104473257Y-92834598D01*
X104140000Y-92801775D01*
X103806742Y-92834598D01*
X103486291Y-92931806D01*
X103190961Y-93089663D01*
X102932103Y-93302103D01*
X102719663Y-93560962D01*
X102561806Y-93856292D01*
X102464598Y-94176743D01*
X102440000Y-94426491D01*
X102440000Y-95293510D01*
X102464598Y-95543258D01*
X102561806Y-95863709D01*
X102719663Y-96159039D01*
X102932104Y-96417897D01*
X102940001Y-96424378D01*
X102940000Y-102372944D01*
X102372944Y-102940000D01*
X98334378Y-102940000D01*
X98327897Y-102932103D01*
X98252225Y-102870000D01*
X98327897Y-102807897D01*
X98334378Y-102800000D01*
X99001053Y-102800000D01*
X99060000Y-102805806D01*
X99118947Y-102800000D01*
X99118950Y-102800000D01*
X99295241Y-102782637D01*
X99521442Y-102714019D01*
X99729910Y-102602591D01*
X99912634Y-102452634D01*
X99950216Y-102406840D01*
X101136841Y-101220215D01*
X101182634Y-101182634D01*
X101332591Y-100999910D01*
X101444019Y-100791442D01*
X101512637Y-100565241D01*
X101530000Y-100388950D01*
X101530000Y-100388948D01*
X101535806Y-100330001D01*
X101530000Y-100271054D01*
X101530000Y-96424378D01*
X101537897Y-96417897D01*
X101750337Y-96159039D01*
X101908194Y-95863709D01*
X102005402Y-95543257D01*
X102030000Y-95293509D01*
X102030000Y-94426490D01*
X102005402Y-94176742D01*
X101908194Y-93856291D01*
X101750337Y-93560961D01*
X101537897Y-93302103D01*
X101279038Y-93089663D01*
X100983708Y-92931806D01*
X100663257Y-92834598D01*
X100330000Y-92801775D01*
X99996742Y-92834598D01*
X99676291Y-92931806D01*
X99380961Y-93089663D01*
X99122103Y-93302103D01*
X98909663Y-93560962D01*
X98806046Y-93754815D01*
X98795402Y-93646742D01*
X98698194Y-93326291D01*
X98540337Y-93030961D01*
X98327897Y-92772103D01*
X98252225Y-92710000D01*
X98327897Y-92647897D01*
X98540337Y-92389039D01*
X98698194Y-92093709D01*
X98795402Y-91773258D01*
X98828225Y-91440000D01*
X98795402Y-91106742D01*
X98698194Y-90786291D01*
X98540337Y-90490961D01*
X98327897Y-90232103D01*
X98252225Y-90170000D01*
X98327897Y-90107897D01*
X98540337Y-89849039D01*
X98542507Y-89844978D01*
X105920000Y-89844978D01*
X105920000Y-90495022D01*
X106046817Y-91132574D01*
X106295578Y-91733136D01*
X106656723Y-92273627D01*
X107116373Y-92733277D01*
X107656864Y-93094422D01*
X108257426Y-93343183D01*
X108894978Y-93470000D01*
X109545022Y-93470000D01*
X110182574Y-93343183D01*
X110783136Y-93094422D01*
X111323627Y-92733277D01*
X111783277Y-92273627D01*
X112144422Y-91733136D01*
X112393183Y-91132574D01*
X112520000Y-90495022D01*
X112520000Y-89844978D01*
X112393183Y-89207426D01*
X112265843Y-88900000D01*
X119611775Y-88900000D01*
X119644598Y-89233258D01*
X119741806Y-89553709D01*
X119899663Y-89849039D01*
X120112103Y-90107897D01*
X120187775Y-90170000D01*
X120112103Y-90232103D01*
X119899663Y-90490961D01*
X119741806Y-90786291D01*
X119644598Y-91106742D01*
X119611775Y-91440000D01*
X119644598Y-91773258D01*
X119741806Y-92093709D01*
X119899663Y-92389039D01*
X120112103Y-92647897D01*
X120187775Y-92710000D01*
X120112103Y-92772103D01*
X119899663Y-93030961D01*
X119741806Y-93326291D01*
X119644598Y-93646742D01*
X119611775Y-93980000D01*
X119644598Y-94313258D01*
X119741806Y-94633709D01*
X119899663Y-94929039D01*
X120112103Y-95187897D01*
X120187775Y-95250000D01*
X120112103Y-95312103D01*
X119899663Y-95570961D01*
X119741806Y-95866291D01*
X119644598Y-96186742D01*
X119611775Y-96520000D01*
X119644598Y-96853258D01*
X119741806Y-97173709D01*
X119899663Y-97469039D01*
X120112103Y-97727897D01*
X120187775Y-97790000D01*
X120112103Y-97852103D01*
X119899663Y-98110961D01*
X119741806Y-98406291D01*
X119644598Y-98726742D01*
X119611775Y-99060000D01*
X119644598Y-99393258D01*
X119741806Y-99713709D01*
X119899663Y-100009039D01*
X119998767Y-100129797D01*
X119916946Y-100196946D01*
X119828471Y-100304753D01*
X119762728Y-100427749D01*
X119722244Y-100561208D01*
X119708574Y-100700000D01*
X119712000Y-101369000D01*
X119889000Y-101546000D01*
X121866000Y-101546000D01*
X121866000Y-101526000D01*
X121974000Y-101526000D01*
X121974000Y-101546000D01*
X123951000Y-101546000D01*
X124128000Y-101369000D01*
X124131426Y-100700000D01*
X124117756Y-100561208D01*
X124077272Y-100427749D01*
X124011529Y-100304753D01*
X123923054Y-100196946D01*
X123841233Y-100129797D01*
X123940337Y-100009039D01*
X124098194Y-99713709D01*
X124195402Y-99393258D01*
X124228225Y-99060000D01*
X124195402Y-98726742D01*
X124098194Y-98406291D01*
X123940337Y-98110961D01*
X123727897Y-97852103D01*
X123652225Y-97790000D01*
X123727897Y-97727897D01*
X123940337Y-97469039D01*
X124098194Y-97173709D01*
X124195402Y-96853258D01*
X124228225Y-96520000D01*
X124195402Y-96186742D01*
X124098194Y-95866291D01*
X123940337Y-95570961D01*
X123727897Y-95312103D01*
X123652225Y-95250000D01*
X123727897Y-95187897D01*
X123940337Y-94929039D01*
X124098194Y-94633709D01*
X124195402Y-94313258D01*
X124228225Y-93980000D01*
X124195402Y-93646742D01*
X124098194Y-93326291D01*
X123940337Y-93030961D01*
X123727897Y-92772103D01*
X123652225Y-92710000D01*
X123727897Y-92647897D01*
X123940337Y-92389039D01*
X124098194Y-92093709D01*
X124195402Y-91773258D01*
X124228225Y-91440000D01*
X124195402Y-91106742D01*
X124098194Y-90786291D01*
X123940337Y-90490961D01*
X123727897Y-90232103D01*
X123652225Y-90170000D01*
X123727897Y-90107897D01*
X123940337Y-89849039D01*
X124098194Y-89553709D01*
X124195402Y-89233258D01*
X124228225Y-88900000D01*
X124195402Y-88566742D01*
X124098194Y-88246291D01*
X123940337Y-87950961D01*
X123841233Y-87830203D01*
X123923054Y-87763054D01*
X124011529Y-87655247D01*
X124077272Y-87532251D01*
X124117756Y-87398792D01*
X124131426Y-87260000D01*
X124128000Y-86591000D01*
X123951000Y-86414000D01*
X121974000Y-86414000D01*
X121974000Y-86434000D01*
X121866000Y-86434000D01*
X121866000Y-86414000D01*
X119889000Y-86414000D01*
X119712000Y-86591000D01*
X119708574Y-87260000D01*
X119722244Y-87398792D01*
X119762728Y-87532251D01*
X119828471Y-87655247D01*
X119916946Y-87763054D01*
X119998767Y-87830203D01*
X119899663Y-87950961D01*
X119741806Y-88246291D01*
X119644598Y-88566742D01*
X119611775Y-88900000D01*
X112265843Y-88900000D01*
X112144422Y-88606864D01*
X111783277Y-88066373D01*
X111323627Y-87606723D01*
X110783136Y-87245578D01*
X110182574Y-86996817D01*
X109545022Y-86870000D01*
X108894978Y-86870000D01*
X108257426Y-86996817D01*
X107656864Y-87245578D01*
X107116373Y-87606723D01*
X106656723Y-88066373D01*
X106295578Y-88606864D01*
X106046817Y-89207426D01*
X105920000Y-89844978D01*
X98542507Y-89844978D01*
X98698194Y-89553709D01*
X98795402Y-89233258D01*
X98828225Y-88900000D01*
X98795402Y-88566742D01*
X98698194Y-88246291D01*
X98540337Y-87950961D01*
X98327897Y-87692103D01*
X98252225Y-87630000D01*
X98327897Y-87567897D01*
X98540337Y-87309039D01*
X98630000Y-87141291D01*
X98630000Y-87293510D01*
X98654598Y-87543258D01*
X98751806Y-87863709D01*
X98909663Y-88159039D01*
X99122104Y-88417897D01*
X99380962Y-88630337D01*
X99676292Y-88788194D01*
X99996743Y-88885402D01*
X100330000Y-88918225D01*
X100663258Y-88885402D01*
X100983709Y-88788194D01*
X101279039Y-88630337D01*
X101537897Y-88417897D01*
X101750337Y-88159039D01*
X101908194Y-87863709D01*
X102005402Y-87543257D01*
X102030000Y-87293509D01*
X102030000Y-86426490D01*
X102005402Y-86176742D01*
X101908194Y-85856291D01*
X101750337Y-85560961D01*
X101537897Y-85302103D01*
X101530000Y-85295622D01*
X101530000Y-84513950D01*
X101535806Y-84455000D01*
X101512637Y-84219759D01*
X101444019Y-83993558D01*
X101369910Y-83854910D01*
X101332591Y-83785090D01*
X101182634Y-83602366D01*
X101136836Y-83564781D01*
X100585216Y-83013161D01*
X100547634Y-82967366D01*
X100364910Y-82817409D01*
X100156442Y-82705981D01*
X99930241Y-82637363D01*
X99753950Y-82620000D01*
X99753947Y-82620000D01*
X99695000Y-82614194D01*
X99636053Y-82620000D01*
X96450000Y-82620000D01*
X96450000Y-81464801D01*
X96494753Y-81501529D01*
X96617749Y-81567272D01*
X96751208Y-81607756D01*
X96890000Y-81621426D01*
X97559000Y-81618000D01*
X97736000Y-81441000D01*
X97736000Y-80064000D01*
X97844000Y-80064000D01*
X97844000Y-81441000D01*
X98021000Y-81618000D01*
X98690000Y-81621426D01*
X98828792Y-81607756D01*
X98962251Y-81567272D01*
X99085247Y-81501529D01*
X99193054Y-81413054D01*
X99281529Y-81305247D01*
X99347272Y-81182251D01*
X99387756Y-81048792D01*
X99401426Y-80910000D01*
X99398000Y-80241000D01*
X99221000Y-80064000D01*
X97844000Y-80064000D01*
X97736000Y-80064000D01*
X97716000Y-80064000D01*
X97716000Y-79956000D01*
X97736000Y-79956000D01*
X97736000Y-78579000D01*
X97844000Y-78579000D01*
X97844000Y-79956000D01*
X99221000Y-79956000D01*
X99334435Y-79842565D01*
X102440000Y-79842565D01*
X102440000Y-80177435D01*
X102505330Y-80505872D01*
X102633479Y-80815252D01*
X102819523Y-81093687D01*
X102940001Y-81214165D01*
X102940000Y-85295622D01*
X102932103Y-85302103D01*
X102719663Y-85560962D01*
X102561806Y-85856292D01*
X102464598Y-86176743D01*
X102440000Y-86426491D01*
X102440000Y-87293510D01*
X102464598Y-87543258D01*
X102561806Y-87863709D01*
X102719663Y-88159039D01*
X102932104Y-88417897D01*
X103190962Y-88630337D01*
X103486292Y-88788194D01*
X103806743Y-88885402D01*
X104140000Y-88918225D01*
X104473258Y-88885402D01*
X104793709Y-88788194D01*
X105089039Y-88630337D01*
X105347897Y-88417897D01*
X105560337Y-88159039D01*
X105718194Y-87863709D01*
X105815402Y-87543257D01*
X105840000Y-87293509D01*
X105840000Y-86426490D01*
X105815402Y-86176742D01*
X105718194Y-85856291D01*
X105560337Y-85560961D01*
X105477481Y-85460000D01*
X119708574Y-85460000D01*
X119712000Y-86129000D01*
X119889000Y-86306000D01*
X121866000Y-86306000D01*
X121866000Y-84929000D01*
X121974000Y-84929000D01*
X121974000Y-86306000D01*
X123951000Y-86306000D01*
X124128000Y-86129000D01*
X124131426Y-85460000D01*
X124117756Y-85321208D01*
X124077272Y-85187749D01*
X124011529Y-85064753D01*
X123923054Y-84956946D01*
X123815247Y-84868471D01*
X123692251Y-84802728D01*
X123558792Y-84762244D01*
X123420000Y-84748574D01*
X122151000Y-84752000D01*
X121974000Y-84929000D01*
X121866000Y-84929000D01*
X121689000Y-84752000D01*
X120420000Y-84748574D01*
X120281208Y-84762244D01*
X120147749Y-84802728D01*
X120024753Y-84868471D01*
X119916946Y-84956946D01*
X119828471Y-85064753D01*
X119762728Y-85187749D01*
X119722244Y-85321208D01*
X119708574Y-85460000D01*
X105477481Y-85460000D01*
X105347897Y-85302103D01*
X105340000Y-85295622D01*
X105340000Y-84021490D01*
X127840000Y-84021490D01*
X127840000Y-84888509D01*
X127864598Y-85138257D01*
X127961806Y-85458708D01*
X128119663Y-85754038D01*
X128332103Y-86012897D01*
X128340000Y-86019378D01*
X128340001Y-123766043D01*
X128334194Y-123825000D01*
X128357364Y-124060240D01*
X128425981Y-124286441D01*
X128537409Y-124494910D01*
X128622939Y-124599128D01*
X128687367Y-124677634D01*
X128733155Y-124715211D01*
X129284780Y-125266835D01*
X129322366Y-125312634D01*
X129505090Y-125462591D01*
X129677781Y-125554896D01*
X129713558Y-125574019D01*
X129939759Y-125642637D01*
X130175000Y-125665806D01*
X130233950Y-125660000D01*
X144810001Y-125660000D01*
X144810000Y-150590622D01*
X144802103Y-150597103D01*
X144589663Y-150855962D01*
X144431806Y-151151292D01*
X144334598Y-151471743D01*
X144310000Y-151721491D01*
X144310000Y-152588510D01*
X144334598Y-152838258D01*
X144431806Y-153158709D01*
X144589663Y-153454039D01*
X144802104Y-153712897D01*
X145060962Y-153925337D01*
X145356292Y-154083194D01*
X145676743Y-154180402D01*
X146010000Y-154213225D01*
X146343258Y-154180402D01*
X146663709Y-154083194D01*
X146959039Y-153925337D01*
X147217897Y-153712897D01*
X147280000Y-153637224D01*
X147342104Y-153712897D01*
X147600962Y-153925337D01*
X147896292Y-154083194D01*
X148216743Y-154180402D01*
X148550000Y-154213225D01*
X148883258Y-154180402D01*
X149203709Y-154083194D01*
X149499039Y-153925337D01*
X149757897Y-153712897D01*
X149820000Y-153637224D01*
X149882104Y-153712897D01*
X150140962Y-153925337D01*
X150436292Y-154083194D01*
X150756743Y-154180402D01*
X151090000Y-154213225D01*
X151423258Y-154180402D01*
X151743709Y-154083194D01*
X152039039Y-153925337D01*
X152297897Y-153712897D01*
X152424428Y-153558719D01*
X152531157Y-153680212D01*
X152781543Y-153872004D01*
X153064535Y-154011263D01*
X153325260Y-154083860D01*
X153576000Y-153934981D01*
X153576000Y-152209000D01*
X153556000Y-152209000D01*
X153556000Y-152101000D01*
X153576000Y-152101000D01*
X153576000Y-150375019D01*
X153325260Y-150226140D01*
X153064535Y-150298737D01*
X152781543Y-150437996D01*
X152531157Y-150629788D01*
X152424428Y-150751281D01*
X152297897Y-150597103D01*
X152293699Y-150593658D01*
X152329860Y-135315368D01*
X152330000Y-135313950D01*
X152330000Y-135256351D01*
X152330136Y-135198891D01*
X152330000Y-135197476D01*
X152330000Y-120073950D01*
X152335806Y-120015000D01*
X152312637Y-119779759D01*
X152244019Y-119553558D01*
X152154187Y-119385494D01*
X152132591Y-119345090D01*
X151982634Y-119162366D01*
X151936835Y-119124780D01*
X151385216Y-118573161D01*
X151347634Y-118527366D01*
X151164910Y-118377409D01*
X150956442Y-118265981D01*
X150730241Y-118197363D01*
X150553950Y-118180000D01*
X150553947Y-118180000D01*
X150495000Y-118174194D01*
X150436053Y-118180000D01*
X135820000Y-118180000D01*
X135820000Y-86019378D01*
X135827897Y-86012897D01*
X135954428Y-85858719D01*
X136061157Y-85980212D01*
X136311543Y-86172004D01*
X136594535Y-86311263D01*
X136855260Y-86383860D01*
X137106000Y-86234981D01*
X137106000Y-84509000D01*
X137086000Y-84509000D01*
X137086000Y-84401000D01*
X137106000Y-84401000D01*
X137106000Y-82675019D01*
X137214000Y-82675019D01*
X137214000Y-84401000D01*
X137234000Y-84401000D01*
X137234000Y-84509000D01*
X137214000Y-84509000D01*
X137214000Y-86234981D01*
X137464740Y-86383860D01*
X137725465Y-86311263D01*
X138008457Y-86172004D01*
X138258843Y-85980212D01*
X138365572Y-85858718D01*
X138492103Y-86012897D01*
X138500000Y-86019378D01*
X138500001Y-113606043D01*
X138494194Y-113665000D01*
X138517364Y-113900240D01*
X138585981Y-114126441D01*
X138697409Y-114334910D01*
X138809788Y-114471844D01*
X138847367Y-114517634D01*
X138893156Y-114555212D01*
X139444780Y-115106835D01*
X139482366Y-115152634D01*
X139665090Y-115302591D01*
X139765837Y-115356441D01*
X139873558Y-115414019D01*
X140099759Y-115482637D01*
X140335000Y-115505806D01*
X140393950Y-115500000D01*
X154970001Y-115500000D01*
X154970000Y-150590622D01*
X154962103Y-150597103D01*
X154835572Y-150751282D01*
X154728843Y-150629788D01*
X154478457Y-150437996D01*
X154195465Y-150298737D01*
X153934740Y-150226140D01*
X153684000Y-150375019D01*
X153684000Y-152101000D01*
X153704000Y-152101000D01*
X153704000Y-152209000D01*
X153684000Y-152209000D01*
X153684000Y-153934981D01*
X153934740Y-154083860D01*
X154195465Y-154011263D01*
X154478457Y-153872004D01*
X154728843Y-153680212D01*
X154835572Y-153558719D01*
X154962104Y-153712897D01*
X155220962Y-153925337D01*
X155516292Y-154083194D01*
X155836743Y-154180402D01*
X156170000Y-154213225D01*
X156503258Y-154180402D01*
X156823709Y-154083194D01*
X157119039Y-153925337D01*
X157377897Y-153712897D01*
X157590337Y-153454039D01*
X157748194Y-153158709D01*
X157845402Y-152838257D01*
X157870000Y-152588509D01*
X157870000Y-151721490D01*
X157845402Y-151471742D01*
X157748194Y-151151291D01*
X157590337Y-150855961D01*
X157377897Y-150597103D01*
X157370000Y-150590622D01*
X157370000Y-114953946D01*
X157375806Y-114894999D01*
X157364383Y-114779019D01*
X157352637Y-114659759D01*
X157284019Y-114433558D01*
X157172591Y-114225090D01*
X157022634Y-114042366D01*
X156976840Y-114004784D01*
X156465216Y-113493160D01*
X156427634Y-113447366D01*
X156244910Y-113297409D01*
X156036442Y-113185981D01*
X155810241Y-113117363D01*
X155633950Y-113100000D01*
X155633947Y-113100000D01*
X155575000Y-113094194D01*
X155516053Y-113100000D01*
X140900000Y-113100000D01*
X140900000Y-86019378D01*
X140907897Y-86012897D01*
X141120337Y-85754039D01*
X141278194Y-85458709D01*
X141375402Y-85138258D01*
X141400000Y-84888510D01*
X141400000Y-84021491D01*
X141400000Y-84021490D01*
X144350000Y-84021490D01*
X144350000Y-84888509D01*
X144374598Y-85138257D01*
X144471806Y-85458708D01*
X144629663Y-85754038D01*
X144842103Y-86012897D01*
X144850000Y-86019378D01*
X144850001Y-107256043D01*
X144844194Y-107315000D01*
X144867364Y-107550240D01*
X144935981Y-107776441D01*
X145047409Y-107984910D01*
X145142138Y-108100337D01*
X145197367Y-108167634D01*
X145243156Y-108205212D01*
X145794780Y-108756835D01*
X145832366Y-108802634D01*
X146015090Y-108952591D01*
X146108213Y-109002366D01*
X146223558Y-109064019D01*
X146449759Y-109132637D01*
X146685000Y-109155806D01*
X146743950Y-109150000D01*
X160156547Y-109150000D01*
X160238186Y-109231639D01*
X160508432Y-109412211D01*
X160808713Y-109536592D01*
X161127489Y-109600000D01*
X161452511Y-109600000D01*
X161771287Y-109536592D01*
X162071568Y-109412211D01*
X162341814Y-109231639D01*
X162571639Y-109001814D01*
X162752211Y-108731568D01*
X162876592Y-108431287D01*
X162940000Y-108112511D01*
X162940000Y-107787489D01*
X162876592Y-107468713D01*
X162752211Y-107168432D01*
X162571639Y-106898186D01*
X162353453Y-106680000D01*
X162571639Y-106461814D01*
X162752211Y-106191568D01*
X162876592Y-105891287D01*
X162940000Y-105572511D01*
X162940000Y-105247489D01*
X162876592Y-104928713D01*
X162752211Y-104628432D01*
X162571639Y-104358186D01*
X162353453Y-104140000D01*
X162571639Y-103921814D01*
X162752211Y-103651568D01*
X162876592Y-103351287D01*
X162940000Y-103032511D01*
X162940000Y-102707489D01*
X162876592Y-102388713D01*
X162752211Y-102088432D01*
X162571639Y-101818186D01*
X162341814Y-101588361D01*
X162264022Y-101536382D01*
X162386591Y-101436733D01*
X162581433Y-101201533D01*
X162726646Y-100932841D01*
X162816650Y-100640982D01*
X162819446Y-100626914D01*
X162669944Y-100384000D01*
X161344000Y-100384000D01*
X161344000Y-100404000D01*
X161236000Y-100404000D01*
X161236000Y-100384000D01*
X159910056Y-100384000D01*
X159760554Y-100626914D01*
X159763350Y-100640982D01*
X159853354Y-100932841D01*
X159998567Y-101201533D01*
X160193409Y-101436733D01*
X160315978Y-101536382D01*
X160238186Y-101588361D01*
X160156547Y-101670000D01*
X152330000Y-101670000D01*
X152330000Y-86019378D01*
X152337897Y-86012897D01*
X152464428Y-85858719D01*
X152571157Y-85980212D01*
X152821543Y-86172004D01*
X153104535Y-86311263D01*
X153365260Y-86383860D01*
X153616000Y-86234981D01*
X153616000Y-84509000D01*
X153596000Y-84509000D01*
X153596000Y-84401000D01*
X153616000Y-84401000D01*
X153616000Y-82675019D01*
X153724000Y-82675019D01*
X153724000Y-84401000D01*
X153744000Y-84401000D01*
X153744000Y-84509000D01*
X153724000Y-84509000D01*
X153724000Y-86234981D01*
X153974740Y-86383860D01*
X154235465Y-86311263D01*
X154518457Y-86172004D01*
X154768843Y-85980212D01*
X154875572Y-85858718D01*
X155002103Y-86012897D01*
X155010000Y-86019378D01*
X155010001Y-97096043D01*
X155004194Y-97155000D01*
X155027364Y-97390240D01*
X155095981Y-97616441D01*
X155207409Y-97824910D01*
X155302138Y-97940337D01*
X155357367Y-98007634D01*
X155403156Y-98045212D01*
X155954780Y-98596835D01*
X155992366Y-98642634D01*
X156175090Y-98792591D01*
X156332526Y-98876742D01*
X156383558Y-98904019D01*
X156609759Y-98972637D01*
X156845000Y-98995806D01*
X156903950Y-98990000D01*
X159719970Y-98990000D01*
X159771607Y-99086606D01*
X159871578Y-99208422D01*
X159993394Y-99308393D01*
X160083147Y-99356368D01*
X159998567Y-99458467D01*
X159853354Y-99727159D01*
X159763350Y-100019018D01*
X159760554Y-100033086D01*
X159910056Y-100276000D01*
X161236000Y-100276000D01*
X161236000Y-100256000D01*
X161344000Y-100256000D01*
X161344000Y-100276000D01*
X162669944Y-100276000D01*
X162819446Y-100033086D01*
X162816650Y-100019018D01*
X162726646Y-99727159D01*
X162581433Y-99458467D01*
X162496853Y-99356368D01*
X162586606Y-99308393D01*
X162708422Y-99208422D01*
X162808393Y-99086606D01*
X162882679Y-98947628D01*
X162928424Y-98796827D01*
X162943870Y-98640000D01*
X162943870Y-96940000D01*
X162928424Y-96783173D01*
X162882679Y-96632372D01*
X162808393Y-96493394D01*
X162708422Y-96371578D01*
X162586606Y-96271607D01*
X162447628Y-96197321D01*
X162296827Y-96151576D01*
X162140000Y-96136130D01*
X160440000Y-96136130D01*
X160283173Y-96151576D01*
X160132372Y-96197321D01*
X159993394Y-96271607D01*
X159871578Y-96371578D01*
X159771607Y-96493394D01*
X159719970Y-96590000D01*
X157410000Y-96590000D01*
X157410000Y-86019378D01*
X157417897Y-86012897D01*
X157630337Y-85754039D01*
X157788194Y-85458709D01*
X157885402Y-85138258D01*
X157910000Y-84888510D01*
X157910000Y-84021491D01*
X157885402Y-83771743D01*
X157788194Y-83451291D01*
X157630337Y-83155961D01*
X157417897Y-82897103D01*
X157159039Y-82684663D01*
X156863709Y-82526806D01*
X156543258Y-82429598D01*
X156210000Y-82396775D01*
X155876743Y-82429598D01*
X155556292Y-82526806D01*
X155260962Y-82684663D01*
X155002104Y-82897103D01*
X154875572Y-83051281D01*
X154768843Y-82929788D01*
X154518457Y-82737996D01*
X154235465Y-82598737D01*
X153974740Y-82526140D01*
X153724000Y-82675019D01*
X153616000Y-82675019D01*
X153365260Y-82526140D01*
X153104535Y-82598737D01*
X152821543Y-82737996D01*
X152571157Y-82929788D01*
X152464428Y-83051281D01*
X152337897Y-82897103D01*
X152079039Y-82684663D01*
X151783709Y-82526806D01*
X151463258Y-82429598D01*
X151130000Y-82396775D01*
X150796743Y-82429598D01*
X150476292Y-82526806D01*
X150180962Y-82684663D01*
X149922104Y-82897103D01*
X149860000Y-82972776D01*
X149797897Y-82897103D01*
X149539039Y-82684663D01*
X149243709Y-82526806D01*
X148923258Y-82429598D01*
X148590000Y-82396775D01*
X148256743Y-82429598D01*
X147936292Y-82526806D01*
X147640962Y-82684663D01*
X147382104Y-82897103D01*
X147320000Y-82972776D01*
X147257897Y-82897103D01*
X146999039Y-82684663D01*
X146703709Y-82526806D01*
X146383258Y-82429598D01*
X146050000Y-82396775D01*
X145716743Y-82429598D01*
X145396292Y-82526806D01*
X145100962Y-82684663D01*
X144842104Y-82897103D01*
X144629663Y-83155961D01*
X144471806Y-83451291D01*
X144374598Y-83771742D01*
X144350000Y-84021490D01*
X141400000Y-84021490D01*
X141375402Y-83771743D01*
X141278194Y-83451291D01*
X141120337Y-83155961D01*
X140907897Y-82897103D01*
X140649039Y-82684663D01*
X140353709Y-82526806D01*
X140033258Y-82429598D01*
X139700000Y-82396775D01*
X139366743Y-82429598D01*
X139046292Y-82526806D01*
X138750962Y-82684663D01*
X138492104Y-82897103D01*
X138365572Y-83051281D01*
X138258843Y-82929788D01*
X138008457Y-82737996D01*
X137725465Y-82598737D01*
X137464740Y-82526140D01*
X137214000Y-82675019D01*
X137106000Y-82675019D01*
X136855260Y-82526140D01*
X136594535Y-82598737D01*
X136311543Y-82737996D01*
X136061157Y-82929788D01*
X135954428Y-83051281D01*
X135827897Y-82897103D01*
X135569039Y-82684663D01*
X135273709Y-82526806D01*
X134953258Y-82429598D01*
X134620000Y-82396775D01*
X134286743Y-82429598D01*
X133966292Y-82526806D01*
X133670962Y-82684663D01*
X133412104Y-82897103D01*
X133350000Y-82972776D01*
X133287897Y-82897103D01*
X133029039Y-82684663D01*
X132733709Y-82526806D01*
X132413258Y-82429598D01*
X132080000Y-82396775D01*
X131746743Y-82429598D01*
X131426292Y-82526806D01*
X131130962Y-82684663D01*
X130872104Y-82897103D01*
X130810000Y-82972776D01*
X130747897Y-82897103D01*
X130489039Y-82684663D01*
X130193709Y-82526806D01*
X129873258Y-82429598D01*
X129540000Y-82396775D01*
X129206743Y-82429598D01*
X128886292Y-82526806D01*
X128590962Y-82684663D01*
X128332104Y-82897103D01*
X128119663Y-83155961D01*
X127961806Y-83451291D01*
X127864598Y-83771742D01*
X127840000Y-84021490D01*
X105340000Y-84021490D01*
X105340000Y-81464801D01*
X105384753Y-81501529D01*
X105507749Y-81567272D01*
X105641208Y-81607756D01*
X105780000Y-81621426D01*
X106449000Y-81618000D01*
X106626000Y-81441000D01*
X106626000Y-80064000D01*
X106734000Y-80064000D01*
X106734000Y-81441000D01*
X106911000Y-81618000D01*
X107580000Y-81621426D01*
X107718792Y-81607756D01*
X107852251Y-81567272D01*
X107975247Y-81501529D01*
X108083054Y-81413054D01*
X108171529Y-81305247D01*
X108237272Y-81182251D01*
X108277756Y-81048792D01*
X108291426Y-80910000D01*
X108288000Y-80241000D01*
X108111000Y-80064000D01*
X106734000Y-80064000D01*
X106626000Y-80064000D01*
X106606000Y-80064000D01*
X106606000Y-79956000D01*
X106626000Y-79956000D01*
X106626000Y-78579000D01*
X106734000Y-78579000D01*
X106734000Y-79956000D01*
X108111000Y-79956000D01*
X108219511Y-79847489D01*
X109475000Y-79847489D01*
X109475000Y-80172511D01*
X109538408Y-80491287D01*
X109662789Y-80791568D01*
X109843361Y-81061814D01*
X110073186Y-81291639D01*
X110343432Y-81472211D01*
X110643713Y-81596592D01*
X110962489Y-81660000D01*
X111287511Y-81660000D01*
X111606287Y-81596592D01*
X111906568Y-81472211D01*
X112176814Y-81291639D01*
X112406639Y-81061814D01*
X112458618Y-80984022D01*
X112558267Y-81106591D01*
X112793467Y-81301433D01*
X113062159Y-81446646D01*
X113354018Y-81536650D01*
X113368086Y-81539446D01*
X113611000Y-81389944D01*
X113611000Y-80064000D01*
X113591000Y-80064000D01*
X113591000Y-79956000D01*
X113611000Y-79956000D01*
X113611000Y-78630056D01*
X113719000Y-78630056D01*
X113719000Y-79956000D01*
X113739000Y-79956000D01*
X113739000Y-80064000D01*
X113719000Y-80064000D01*
X113719000Y-81389944D01*
X113961914Y-81539446D01*
X113975982Y-81536650D01*
X114267841Y-81446646D01*
X114536533Y-81301433D01*
X114771733Y-81106591D01*
X114871382Y-80984022D01*
X114923361Y-81061814D01*
X115153186Y-81291639D01*
X115423432Y-81472211D01*
X115723713Y-81596592D01*
X116042489Y-81660000D01*
X116367511Y-81660000D01*
X116686287Y-81596592D01*
X116986568Y-81472211D01*
X117256814Y-81291639D01*
X117486639Y-81061814D01*
X117538618Y-80984022D01*
X117638267Y-81106591D01*
X117873467Y-81301433D01*
X118142159Y-81446646D01*
X118434018Y-81536650D01*
X118448086Y-81539446D01*
X118691000Y-81389944D01*
X118691000Y-80064000D01*
X118671000Y-80064000D01*
X118671000Y-79956000D01*
X118691000Y-79956000D01*
X118691000Y-78630056D01*
X118799000Y-78630056D01*
X118799000Y-79956000D01*
X118819000Y-79956000D01*
X118819000Y-80064000D01*
X118799000Y-80064000D01*
X118799000Y-81389944D01*
X119041914Y-81539446D01*
X119055982Y-81536650D01*
X119347841Y-81446646D01*
X119616533Y-81301433D01*
X119851733Y-81106591D01*
X119951382Y-80984022D01*
X120003361Y-81061814D01*
X120233186Y-81291639D01*
X120503432Y-81472211D01*
X120803713Y-81596592D01*
X121122489Y-81660000D01*
X121447511Y-81660000D01*
X121766287Y-81596592D01*
X122066568Y-81472211D01*
X122336814Y-81291639D01*
X122379895Y-81248558D01*
X122383471Y-81255247D01*
X122471946Y-81363054D01*
X122579753Y-81451529D01*
X122702749Y-81517272D01*
X122836208Y-81557756D01*
X122975000Y-81571426D01*
X123594000Y-81568000D01*
X123771000Y-81391000D01*
X123771000Y-80064000D01*
X123879000Y-80064000D01*
X123879000Y-81391000D01*
X124056000Y-81568000D01*
X124675000Y-81571426D01*
X124813792Y-81557756D01*
X124947251Y-81517272D01*
X125070247Y-81451529D01*
X125178054Y-81363054D01*
X125266529Y-81255247D01*
X125332272Y-81132251D01*
X125372756Y-80998792D01*
X125386426Y-80860000D01*
X125383000Y-80241000D01*
X125206000Y-80064000D01*
X123879000Y-80064000D01*
X123771000Y-80064000D01*
X123751000Y-80064000D01*
X123751000Y-79956000D01*
X123771000Y-79956000D01*
X123771000Y-78629000D01*
X123879000Y-78629000D01*
X123879000Y-79956000D01*
X125206000Y-79956000D01*
X125383000Y-79779000D01*
X125384550Y-79498922D01*
X127700000Y-79498922D01*
X127700000Y-80011078D01*
X127799917Y-80513392D01*
X127995910Y-80986562D01*
X128280448Y-81412403D01*
X128642597Y-81774552D01*
X129068438Y-82059090D01*
X129541608Y-82255083D01*
X130043922Y-82355000D01*
X130556078Y-82355000D01*
X131058392Y-82255083D01*
X131531562Y-82059090D01*
X131957403Y-81774552D01*
X132319552Y-81412403D01*
X132604090Y-80986562D01*
X132800083Y-80513392D01*
X132900000Y-80011078D01*
X132900000Y-79498922D01*
X136300000Y-79498922D01*
X136300000Y-80011078D01*
X136399917Y-80513392D01*
X136595910Y-80986562D01*
X136880448Y-81412403D01*
X137242597Y-81774552D01*
X137668438Y-82059090D01*
X138141608Y-82255083D01*
X138643922Y-82355000D01*
X139156078Y-82355000D01*
X139658392Y-82255083D01*
X140131562Y-82059090D01*
X140557403Y-81774552D01*
X140919552Y-81412403D01*
X141204090Y-80986562D01*
X141400083Y-80513392D01*
X141500000Y-80011078D01*
X141500000Y-79498922D01*
X144210000Y-79498922D01*
X144210000Y-80011078D01*
X144309917Y-80513392D01*
X144505910Y-80986562D01*
X144790448Y-81412403D01*
X145152597Y-81774552D01*
X145578438Y-82059090D01*
X146051608Y-82255083D01*
X146553922Y-82355000D01*
X147066078Y-82355000D01*
X147568392Y-82255083D01*
X148041562Y-82059090D01*
X148467403Y-81774552D01*
X148829552Y-81412403D01*
X149114090Y-80986562D01*
X149310083Y-80513392D01*
X149410000Y-80011078D01*
X149410000Y-79498922D01*
X152810000Y-79498922D01*
X152810000Y-80011078D01*
X152909917Y-80513392D01*
X153105910Y-80986562D01*
X153390448Y-81412403D01*
X153752597Y-81774552D01*
X154178438Y-82059090D01*
X154651608Y-82255083D01*
X155153922Y-82355000D01*
X155666078Y-82355000D01*
X156168392Y-82255083D01*
X156641562Y-82059090D01*
X157067403Y-81774552D01*
X157429552Y-81412403D01*
X157714090Y-80986562D01*
X157910083Y-80513392D01*
X158010000Y-80011078D01*
X158010000Y-79498922D01*
X157910083Y-78996608D01*
X157714090Y-78523438D01*
X157429552Y-78097597D01*
X157067403Y-77735448D01*
X156641562Y-77450910D01*
X156168392Y-77254917D01*
X155666078Y-77155000D01*
X155153922Y-77155000D01*
X154651608Y-77254917D01*
X154178438Y-77450910D01*
X153752597Y-77735448D01*
X153390448Y-78097597D01*
X153105910Y-78523438D01*
X152909917Y-78996608D01*
X152810000Y-79498922D01*
X149410000Y-79498922D01*
X149310083Y-78996608D01*
X149114090Y-78523438D01*
X148829552Y-78097597D01*
X148467403Y-77735448D01*
X148041562Y-77450910D01*
X147568392Y-77254917D01*
X147066078Y-77155000D01*
X146553922Y-77155000D01*
X146051608Y-77254917D01*
X145578438Y-77450910D01*
X145152597Y-77735448D01*
X144790448Y-78097597D01*
X144505910Y-78523438D01*
X144309917Y-78996608D01*
X144210000Y-79498922D01*
X141500000Y-79498922D01*
X141400083Y-78996608D01*
X141204090Y-78523438D01*
X140919552Y-78097597D01*
X140557403Y-77735448D01*
X140131562Y-77450910D01*
X139658392Y-77254917D01*
X139156078Y-77155000D01*
X138643922Y-77155000D01*
X138141608Y-77254917D01*
X137668438Y-77450910D01*
X137242597Y-77735448D01*
X136880448Y-78097597D01*
X136595910Y-78523438D01*
X136399917Y-78996608D01*
X136300000Y-79498922D01*
X132900000Y-79498922D01*
X132800083Y-78996608D01*
X132604090Y-78523438D01*
X132319552Y-78097597D01*
X131957403Y-77735448D01*
X131531562Y-77450910D01*
X131058392Y-77254917D01*
X130556078Y-77155000D01*
X130043922Y-77155000D01*
X129541608Y-77254917D01*
X129068438Y-77450910D01*
X128642597Y-77735448D01*
X128280448Y-78097597D01*
X127995910Y-78523438D01*
X127799917Y-78996608D01*
X127700000Y-79498922D01*
X125384550Y-79498922D01*
X125386426Y-79160000D01*
X125372756Y-79021208D01*
X125332272Y-78887749D01*
X125266529Y-78764753D01*
X125178054Y-78656946D01*
X125070247Y-78568471D01*
X124947251Y-78502728D01*
X124813792Y-78462244D01*
X124675000Y-78448574D01*
X124056000Y-78452000D01*
X123879000Y-78629000D01*
X123771000Y-78629000D01*
X123594000Y-78452000D01*
X122975000Y-78448574D01*
X122836208Y-78462244D01*
X122702749Y-78502728D01*
X122579753Y-78568471D01*
X122471946Y-78656946D01*
X122383471Y-78764753D01*
X122379895Y-78771442D01*
X122336814Y-78728361D01*
X122066568Y-78547789D01*
X121766287Y-78423408D01*
X121447511Y-78360000D01*
X121122489Y-78360000D01*
X120803713Y-78423408D01*
X120503432Y-78547789D01*
X120233186Y-78728361D01*
X120003361Y-78958186D01*
X119951382Y-79035978D01*
X119851733Y-78913409D01*
X119616533Y-78718567D01*
X119347841Y-78573354D01*
X119055982Y-78483350D01*
X119041914Y-78480554D01*
X118799000Y-78630056D01*
X118691000Y-78630056D01*
X118448086Y-78480554D01*
X118434018Y-78483350D01*
X118142159Y-78573354D01*
X117873467Y-78718567D01*
X117638267Y-78913409D01*
X117538618Y-79035978D01*
X117486639Y-78958186D01*
X117256814Y-78728361D01*
X116986568Y-78547789D01*
X116686287Y-78423408D01*
X116367511Y-78360000D01*
X116042489Y-78360000D01*
X115723713Y-78423408D01*
X115423432Y-78547789D01*
X115153186Y-78728361D01*
X114923361Y-78958186D01*
X114871382Y-79035978D01*
X114771733Y-78913409D01*
X114536533Y-78718567D01*
X114267841Y-78573354D01*
X113975982Y-78483350D01*
X113961914Y-78480554D01*
X113719000Y-78630056D01*
X113611000Y-78630056D01*
X113368086Y-78480554D01*
X113354018Y-78483350D01*
X113062159Y-78573354D01*
X112793467Y-78718567D01*
X112558267Y-78913409D01*
X112458618Y-79035978D01*
X112406639Y-78958186D01*
X112176814Y-78728361D01*
X111906568Y-78547789D01*
X111606287Y-78423408D01*
X111287511Y-78360000D01*
X110962489Y-78360000D01*
X110643713Y-78423408D01*
X110343432Y-78547789D01*
X110073186Y-78728361D01*
X109843361Y-78958186D01*
X109662789Y-79228432D01*
X109538408Y-79528713D01*
X109475000Y-79847489D01*
X108219511Y-79847489D01*
X108288000Y-79779000D01*
X108291426Y-79110000D01*
X108277756Y-78971208D01*
X108237272Y-78837749D01*
X108171529Y-78714753D01*
X108083054Y-78606946D01*
X107975247Y-78518471D01*
X107852251Y-78452728D01*
X107718792Y-78412244D01*
X107580000Y-78398574D01*
X106911000Y-78402000D01*
X106734000Y-78579000D01*
X106626000Y-78579000D01*
X106449000Y-78402000D01*
X105780000Y-78398574D01*
X105641208Y-78412244D01*
X105507749Y-78452728D01*
X105384753Y-78518471D01*
X105276946Y-78606946D01*
X105214316Y-78683261D01*
X104945252Y-78503479D01*
X104635872Y-78375330D01*
X104307435Y-78310000D01*
X103972565Y-78310000D01*
X103644128Y-78375330D01*
X103334748Y-78503479D01*
X103056313Y-78689523D01*
X102819523Y-78926313D01*
X102633479Y-79204748D01*
X102505330Y-79514128D01*
X102440000Y-79842565D01*
X99334435Y-79842565D01*
X99398000Y-79779000D01*
X99401426Y-79110000D01*
X99387756Y-78971208D01*
X99347272Y-78837749D01*
X99281529Y-78714753D01*
X99193054Y-78606946D01*
X99085247Y-78518471D01*
X98962251Y-78452728D01*
X98828792Y-78412244D01*
X98690000Y-78398574D01*
X98021000Y-78402000D01*
X97844000Y-78579000D01*
X97736000Y-78579000D01*
X97559000Y-78402000D01*
X96890000Y-78398574D01*
X96751208Y-78412244D01*
X96617749Y-78452728D01*
X96494753Y-78518471D01*
X96386946Y-78606946D01*
X96324316Y-78683261D01*
X96055252Y-78503479D01*
X95745872Y-78375330D01*
X95417435Y-78310000D01*
X95082565Y-78310000D01*
X94754128Y-78375330D01*
X94444748Y-78503479D01*
X94166313Y-78689523D01*
X93929523Y-78926313D01*
X93743479Y-79204748D01*
X93615330Y-79514128D01*
X93550000Y-79842565D01*
X93550000Y-80177435D01*
X93615330Y-80505872D01*
X93743479Y-80815252D01*
X93929523Y-81093687D01*
X94050000Y-81214164D01*
X94050001Y-83126043D01*
X94044194Y-83185000D01*
X94067364Y-83420240D01*
X94135981Y-83646441D01*
X94247409Y-83854910D01*
X94359788Y-83991844D01*
X94397367Y-84037634D01*
X94443156Y-84075212D01*
X94994780Y-84626835D01*
X95032366Y-84672634D01*
X95205189Y-84814466D01*
X94970961Y-84939663D01*
X94712103Y-85152103D01*
X94499663Y-85410961D01*
X94341806Y-85706291D01*
X94244598Y-86026742D01*
X94211775Y-86360000D01*
X94244598Y-86693258D01*
X94341806Y-87013709D01*
X94499663Y-87309039D01*
X94712103Y-87567897D01*
X94787775Y-87630000D01*
X94712103Y-87692103D01*
X94499663Y-87950961D01*
X94410000Y-88118709D01*
X94410000Y-87586491D01*
X94385402Y-87336743D01*
X94288194Y-87016291D01*
X94130337Y-86720961D01*
X93917897Y-86462103D01*
X93810000Y-86373554D01*
X93810000Y-81334036D01*
X93815322Y-81280000D01*
X93794084Y-81064362D01*
X93731184Y-80857011D01*
X93629042Y-80665916D01*
X93491581Y-80498419D01*
X93449596Y-80463963D01*
X92891034Y-79905400D01*
X92856581Y-79863419D01*
X92689084Y-79725958D01*
X92497988Y-79623816D01*
X92290638Y-79560916D01*
X92129036Y-79545000D01*
X92129034Y-79545000D01*
X92075000Y-79539678D01*
X92020966Y-79545000D01*
X91005000Y-79545000D01*
X91005000Y-77035000D01*
X159185000Y-77035000D01*
X159185000Y-90805000D01*
G37*
X159185000Y-90805000D02*
X159188843Y-90844018D01*
X159200224Y-90881537D01*
X159218706Y-90916114D01*
X159243579Y-90946421D01*
X159273886Y-90971294D01*
X159308463Y-90989776D01*
X159345982Y-91001157D01*
X159385000Y-91005000D01*
X166805000Y-91005000D01*
X166805000Y-146485000D01*
X159385000Y-146485000D01*
X159345982Y-146488843D01*
X159308463Y-146500224D01*
X159273886Y-146518706D01*
X159243579Y-146543579D01*
X159218706Y-146573886D01*
X159200224Y-146608463D01*
X159188843Y-146645982D01*
X159185000Y-146685000D01*
X159185000Y-160455000D01*
X91005000Y-160455000D01*
X91005000Y-156598922D01*
X127700000Y-156598922D01*
X127700000Y-157111078D01*
X127799917Y-157613392D01*
X127995910Y-158086562D01*
X128280448Y-158512403D01*
X128642597Y-158874552D01*
X129068438Y-159159090D01*
X129541608Y-159355083D01*
X130043922Y-159455000D01*
X130556078Y-159455000D01*
X131058392Y-159355083D01*
X131531562Y-159159090D01*
X131957403Y-158874552D01*
X132319552Y-158512403D01*
X132604090Y-158086562D01*
X132800083Y-157613392D01*
X132900000Y-157111078D01*
X132900000Y-156598922D01*
X136300000Y-156598922D01*
X136300000Y-157111078D01*
X136399917Y-157613392D01*
X136595910Y-158086562D01*
X136880448Y-158512403D01*
X137242597Y-158874552D01*
X137668438Y-159159090D01*
X138141608Y-159355083D01*
X138643922Y-159455000D01*
X139156078Y-159455000D01*
X139658392Y-159355083D01*
X140131562Y-159159090D01*
X140557403Y-158874552D01*
X140919552Y-158512403D01*
X141204090Y-158086562D01*
X141400083Y-157613392D01*
X141500000Y-157111078D01*
X141500000Y-156598922D01*
X144210000Y-156598922D01*
X144210000Y-157111078D01*
X144309917Y-157613392D01*
X144505910Y-158086562D01*
X144790448Y-158512403D01*
X145152597Y-158874552D01*
X145578438Y-159159090D01*
X146051608Y-159355083D01*
X146553922Y-159455000D01*
X147066078Y-159455000D01*
X147568392Y-159355083D01*
X148041562Y-159159090D01*
X148467403Y-158874552D01*
X148829552Y-158512403D01*
X149114090Y-158086562D01*
X149310083Y-157613392D01*
X149410000Y-157111078D01*
X149410000Y-156598922D01*
X152810000Y-156598922D01*
X152810000Y-157111078D01*
X152909917Y-157613392D01*
X153105910Y-158086562D01*
X153390448Y-158512403D01*
X153752597Y-158874552D01*
X154178438Y-159159090D01*
X154651608Y-159355083D01*
X155153922Y-159455000D01*
X155666078Y-159455000D01*
X156168392Y-159355083D01*
X156641562Y-159159090D01*
X157067403Y-158874552D01*
X157429552Y-158512403D01*
X157714090Y-158086562D01*
X157910083Y-157613392D01*
X158010000Y-157111078D01*
X158010000Y-156598922D01*
X157910083Y-156096608D01*
X157714090Y-155623438D01*
X157429552Y-155197597D01*
X157067403Y-154835448D01*
X156641562Y-154550910D01*
X156168392Y-154354917D01*
X155666078Y-154255000D01*
X155153922Y-154255000D01*
X154651608Y-154354917D01*
X154178438Y-154550910D01*
X153752597Y-154835448D01*
X153390448Y-155197597D01*
X153105910Y-155623438D01*
X152909917Y-156096608D01*
X152810000Y-156598922D01*
X149410000Y-156598922D01*
X149310083Y-156096608D01*
X149114090Y-155623438D01*
X148829552Y-155197597D01*
X148467403Y-154835448D01*
X148041562Y-154550910D01*
X147568392Y-154354917D01*
X147066078Y-154255000D01*
X146553922Y-154255000D01*
X146051608Y-154354917D01*
X145578438Y-154550910D01*
X145152597Y-154835448D01*
X144790448Y-155197597D01*
X144505910Y-155623438D01*
X144309917Y-156096608D01*
X144210000Y-156598922D01*
X141500000Y-156598922D01*
X141400083Y-156096608D01*
X141204090Y-155623438D01*
X140919552Y-155197597D01*
X140557403Y-154835448D01*
X140131562Y-154550910D01*
X139658392Y-154354917D01*
X139156078Y-154255000D01*
X138643922Y-154255000D01*
X138141608Y-154354917D01*
X137668438Y-154550910D01*
X137242597Y-154835448D01*
X136880448Y-155197597D01*
X136595910Y-155623438D01*
X136399917Y-156096608D01*
X136300000Y-156598922D01*
X132900000Y-156598922D01*
X132800083Y-156096608D01*
X132604090Y-155623438D01*
X132319552Y-155197597D01*
X131957403Y-154835448D01*
X131531562Y-154550910D01*
X131058392Y-154354917D01*
X130556078Y-154255000D01*
X130043922Y-154255000D01*
X129541608Y-154354917D01*
X129068438Y-154550910D01*
X128642597Y-154835448D01*
X128280448Y-155197597D01*
X127995910Y-155623438D01*
X127799917Y-156096608D01*
X127700000Y-156598922D01*
X91005000Y-156598922D01*
X91005000Y-154537106D01*
X91022634Y-154522634D01*
X91172591Y-154339910D01*
X91284019Y-154131442D01*
X91352637Y-153905241D01*
X91370000Y-153728950D01*
X91370000Y-153728949D01*
X91375806Y-153670000D01*
X91370000Y-153611050D01*
X91370000Y-147157489D01*
X120270000Y-147157489D01*
X120270000Y-147482511D01*
X120333408Y-147801287D01*
X120457789Y-148101568D01*
X120638361Y-148371814D01*
X120856547Y-148590000D01*
X120638361Y-148808186D01*
X120457789Y-149078432D01*
X120333408Y-149378713D01*
X120270000Y-149697489D01*
X120270000Y-150022511D01*
X120333408Y-150341287D01*
X120457789Y-150641568D01*
X120638361Y-150911814D01*
X120856547Y-151130000D01*
X120638361Y-151348186D01*
X120457789Y-151618432D01*
X120333408Y-151918713D01*
X120270000Y-152237489D01*
X120270000Y-152562511D01*
X120333408Y-152881287D01*
X120457789Y-153181568D01*
X120638361Y-153451814D01*
X120868186Y-153681639D01*
X121138432Y-153862211D01*
X121438713Y-153986592D01*
X121757489Y-154050000D01*
X122082511Y-154050000D01*
X122401287Y-153986592D01*
X122701568Y-153862211D01*
X122794674Y-153800000D01*
X128398239Y-153800000D01*
X128550962Y-153925337D01*
X128846292Y-154083194D01*
X129166743Y-154180402D01*
X129500000Y-154213225D01*
X129833258Y-154180402D01*
X130153709Y-154083194D01*
X130449039Y-153925337D01*
X130707897Y-153712897D01*
X130770000Y-153637224D01*
X130832104Y-153712897D01*
X131090962Y-153925337D01*
X131386292Y-154083194D01*
X131706743Y-154180402D01*
X132040000Y-154213225D01*
X132373258Y-154180402D01*
X132693709Y-154083194D01*
X132989039Y-153925337D01*
X133247897Y-153712897D01*
X133310000Y-153637224D01*
X133372104Y-153712897D01*
X133630962Y-153925337D01*
X133926292Y-154083194D01*
X134246743Y-154180402D01*
X134580000Y-154213225D01*
X134913258Y-154180402D01*
X135233709Y-154083194D01*
X135529039Y-153925337D01*
X135787897Y-153712897D01*
X135914428Y-153558719D01*
X136021157Y-153680212D01*
X136271543Y-153872004D01*
X136554535Y-154011263D01*
X136815260Y-154083860D01*
X137066000Y-153934981D01*
X137066000Y-152209000D01*
X137046000Y-152209000D01*
X137046000Y-152101000D01*
X137066000Y-152101000D01*
X137066000Y-150375019D01*
X136815260Y-150226140D01*
X136554535Y-150298737D01*
X136271543Y-150437996D01*
X136021157Y-150629788D01*
X135914428Y-150751281D01*
X135880000Y-150709330D01*
X135880000Y-147978860D01*
X135886290Y-147914999D01*
X135875090Y-147801287D01*
X135861190Y-147660155D01*
X135786855Y-147415104D01*
X135666140Y-147189264D01*
X135503687Y-146991313D01*
X135454075Y-146950598D01*
X134949403Y-146445926D01*
X134908687Y-146396313D01*
X134710736Y-146233860D01*
X134484896Y-146113145D01*
X134239845Y-146038810D01*
X134048864Y-146020000D01*
X134048861Y-146020000D01*
X133985000Y-146013710D01*
X133921139Y-146020000D01*
X122944335Y-146020000D01*
X122894022Y-145986382D01*
X123016591Y-145886733D01*
X123211433Y-145651533D01*
X123356646Y-145382841D01*
X123446650Y-145090982D01*
X123449446Y-145076914D01*
X123299944Y-144834000D01*
X121974000Y-144834000D01*
X121974000Y-144854000D01*
X121866000Y-144854000D01*
X121866000Y-144834000D01*
X120540056Y-144834000D01*
X120390554Y-145076914D01*
X120393350Y-145090982D01*
X120483354Y-145382841D01*
X120628567Y-145651533D01*
X120823409Y-145886733D01*
X120945978Y-145986382D01*
X120868186Y-146038361D01*
X120638361Y-146268186D01*
X120457789Y-146538432D01*
X120333408Y-146838713D01*
X120270000Y-147157489D01*
X91370000Y-147157489D01*
X91370000Y-143440000D01*
X111066053Y-143440000D01*
X111125000Y-143445806D01*
X111183947Y-143440000D01*
X111183950Y-143440000D01*
X111360241Y-143422637D01*
X111586442Y-143354019D01*
X111794910Y-143242591D01*
X111977634Y-143092634D01*
X112015216Y-143046839D01*
X112566836Y-142495219D01*
X112612634Y-142457634D01*
X112762591Y-142274910D01*
X112874019Y-142066442D01*
X112942637Y-141840241D01*
X112960000Y-141663950D01*
X112960000Y-141663949D01*
X112965806Y-141605000D01*
X112960000Y-141546050D01*
X112960000Y-141390000D01*
X120266130Y-141390000D01*
X120266130Y-143090000D01*
X120281576Y-143246827D01*
X120327321Y-143397628D01*
X120401607Y-143536606D01*
X120501578Y-143658422D01*
X120623394Y-143758393D01*
X120713147Y-143806368D01*
X120628567Y-143908467D01*
X120483354Y-144177159D01*
X120393350Y-144469018D01*
X120390554Y-144483086D01*
X120540056Y-144726000D01*
X121866000Y-144726000D01*
X121866000Y-144706000D01*
X121974000Y-144706000D01*
X121974000Y-144726000D01*
X123299944Y-144726000D01*
X123449446Y-144483086D01*
X123446650Y-144469018D01*
X123356646Y-144177159D01*
X123211433Y-143908467D01*
X123126853Y-143806368D01*
X123216606Y-143758393D01*
X123338422Y-143658422D01*
X123435608Y-143540000D01*
X138360000Y-143540000D01*
X138360001Y-150709330D01*
X138325572Y-150751282D01*
X138218843Y-150629788D01*
X137968457Y-150437996D01*
X137685465Y-150298737D01*
X137424740Y-150226140D01*
X137174000Y-150375019D01*
X137174000Y-152101000D01*
X137194000Y-152101000D01*
X137194000Y-152209000D01*
X137174000Y-152209000D01*
X137174000Y-153934981D01*
X137424740Y-154083860D01*
X137685465Y-154011263D01*
X137968457Y-153872004D01*
X138218843Y-153680212D01*
X138325572Y-153558719D01*
X138452104Y-153712897D01*
X138710962Y-153925337D01*
X139006292Y-154083194D01*
X139326743Y-154180402D01*
X139660000Y-154213225D01*
X139993258Y-154180402D01*
X140313709Y-154083194D01*
X140609039Y-153925337D01*
X140867897Y-153712897D01*
X141080337Y-153454039D01*
X141238194Y-153158709D01*
X141335402Y-152838257D01*
X141360000Y-152588509D01*
X141360000Y-151721490D01*
X141335402Y-151471742D01*
X141238194Y-151151291D01*
X141080337Y-150855961D01*
X140960000Y-150709330D01*
X140960000Y-142898860D01*
X140966290Y-142834999D01*
X140956923Y-142739895D01*
X140941190Y-142580155D01*
X140866855Y-142335104D01*
X140746140Y-142109264D01*
X140583687Y-141911313D01*
X140534075Y-141870598D01*
X140029403Y-141365926D01*
X139988687Y-141316313D01*
X139790736Y-141153860D01*
X139564896Y-141033145D01*
X139319845Y-140958810D01*
X139128864Y-140940000D01*
X139128861Y-140940000D01*
X139065000Y-140933710D01*
X139001139Y-140940000D01*
X123435608Y-140940000D01*
X123338422Y-140821578D01*
X123216606Y-140721607D01*
X123077628Y-140647321D01*
X122926827Y-140601576D01*
X122770000Y-140586130D01*
X121070000Y-140586130D01*
X120913173Y-140601576D01*
X120762372Y-140647321D01*
X120623394Y-140721607D01*
X120501578Y-140821578D01*
X120401607Y-140943394D01*
X120327321Y-141082372D01*
X120281576Y-141233173D01*
X120266130Y-141390000D01*
X112960000Y-141390000D01*
X112960000Y-135794378D01*
X112967897Y-135787897D01*
X113180337Y-135529039D01*
X113338194Y-135233709D01*
X113435402Y-134913258D01*
X113460000Y-134663510D01*
X113460000Y-133796491D01*
X113435402Y-133546743D01*
X113338194Y-133226291D01*
X113180337Y-132930961D01*
X112967897Y-132672103D01*
X112934872Y-132645000D01*
X118051053Y-132645000D01*
X118110000Y-132650806D01*
X118168947Y-132645000D01*
X118168950Y-132645000D01*
X118345241Y-132627637D01*
X118571442Y-132559019D01*
X118779910Y-132447591D01*
X118962634Y-132297634D01*
X119000216Y-132251839D01*
X119551836Y-131700219D01*
X119597634Y-131662634D01*
X119712611Y-131522533D01*
X119644598Y-131746742D01*
X119611775Y-132080000D01*
X119644598Y-132413258D01*
X119741806Y-132733709D01*
X119899663Y-133029039D01*
X120112103Y-133287897D01*
X120370961Y-133500337D01*
X120666291Y-133658194D01*
X120986742Y-133755402D01*
X121236490Y-133780000D01*
X122603510Y-133780000D01*
X122853258Y-133755402D01*
X123173709Y-133658194D01*
X123469039Y-133500337D01*
X123727897Y-133287897D01*
X123940337Y-133029039D01*
X124098194Y-132733709D01*
X124195402Y-132413258D01*
X124228225Y-132080000D01*
X124195402Y-131746742D01*
X124098194Y-131426291D01*
X123940337Y-131130961D01*
X123727897Y-130872103D01*
X123652225Y-130810000D01*
X123727897Y-130747897D01*
X123940337Y-130489039D01*
X124098194Y-130193709D01*
X124195402Y-129873258D01*
X124228225Y-129540000D01*
X124195402Y-129206742D01*
X124098194Y-128886291D01*
X123940337Y-128590961D01*
X123727897Y-128332103D01*
X123652225Y-128270000D01*
X123727897Y-128207897D01*
X123940337Y-127949039D01*
X124098194Y-127653709D01*
X124195402Y-127333258D01*
X124228225Y-127000000D01*
X124195402Y-126666742D01*
X124098194Y-126346291D01*
X123940337Y-126050961D01*
X123727897Y-125792103D01*
X123652225Y-125730000D01*
X123727897Y-125667897D01*
X123940337Y-125409039D01*
X124098194Y-125113709D01*
X124195402Y-124793258D01*
X124228225Y-124460000D01*
X124195402Y-124126742D01*
X124098194Y-123806291D01*
X123940337Y-123510961D01*
X123727897Y-123252103D01*
X123652225Y-123190000D01*
X123727897Y-123127897D01*
X123940337Y-122869039D01*
X124098194Y-122573709D01*
X124195402Y-122253258D01*
X124228225Y-121920000D01*
X124195402Y-121586742D01*
X124098194Y-121266291D01*
X123940337Y-120970961D01*
X123727897Y-120712103D01*
X123652225Y-120650000D01*
X123727897Y-120587897D01*
X123940337Y-120329039D01*
X124098194Y-120033709D01*
X124195402Y-119713258D01*
X124228225Y-119380000D01*
X124195402Y-119046742D01*
X124098194Y-118726291D01*
X123940337Y-118430961D01*
X123727897Y-118172103D01*
X123652225Y-118110000D01*
X123727897Y-118047897D01*
X123940337Y-117789039D01*
X124098194Y-117493709D01*
X124195402Y-117173258D01*
X124228225Y-116840000D01*
X124195402Y-116506742D01*
X124098194Y-116186291D01*
X123940337Y-115890961D01*
X123727897Y-115632103D01*
X123652225Y-115570000D01*
X123727897Y-115507897D01*
X123940337Y-115249039D01*
X124098194Y-114953709D01*
X124195402Y-114633258D01*
X124228225Y-114300000D01*
X124195402Y-113966742D01*
X124098194Y-113646291D01*
X123940337Y-113350961D01*
X123727897Y-113092103D01*
X123652225Y-113030000D01*
X123727897Y-112967897D01*
X123940337Y-112709039D01*
X124098194Y-112413709D01*
X124195402Y-112093258D01*
X124228225Y-111760000D01*
X124195402Y-111426742D01*
X124098194Y-111106291D01*
X123940337Y-110810961D01*
X123727897Y-110552103D01*
X123652225Y-110490000D01*
X123727897Y-110427897D01*
X123940337Y-110169039D01*
X124098194Y-109873709D01*
X124195402Y-109553258D01*
X124228225Y-109220000D01*
X124195402Y-108886742D01*
X124098194Y-108566291D01*
X123940337Y-108270961D01*
X123727897Y-108012103D01*
X123652225Y-107950000D01*
X123727897Y-107887897D01*
X123940337Y-107629039D01*
X124098194Y-107333709D01*
X124195402Y-107013258D01*
X124228225Y-106680000D01*
X124195402Y-106346742D01*
X124098194Y-106026291D01*
X123940337Y-105730961D01*
X123727897Y-105472103D01*
X123652225Y-105410000D01*
X123727897Y-105347897D01*
X123940337Y-105089039D01*
X124098194Y-104793709D01*
X124195402Y-104473258D01*
X124228225Y-104140000D01*
X124195402Y-103806742D01*
X124098194Y-103486291D01*
X123940337Y-103190961D01*
X123841233Y-103070203D01*
X123923054Y-103003054D01*
X124011529Y-102895247D01*
X124077272Y-102772251D01*
X124117756Y-102638792D01*
X124131426Y-102500000D01*
X124128000Y-101831000D01*
X123951000Y-101654000D01*
X121974000Y-101654000D01*
X121974000Y-101674000D01*
X121866000Y-101674000D01*
X121866000Y-101654000D01*
X119889000Y-101654000D01*
X119712000Y-101831000D01*
X119708574Y-102500000D01*
X119722244Y-102638792D01*
X119762728Y-102772251D01*
X119828471Y-102895247D01*
X119916946Y-103003054D01*
X119998767Y-103070203D01*
X119899663Y-103190961D01*
X119741806Y-103486291D01*
X119644598Y-103806742D01*
X119611775Y-104140000D01*
X119644598Y-104473258D01*
X119741806Y-104793709D01*
X119899663Y-105089039D01*
X120112103Y-105347897D01*
X120187775Y-105410000D01*
X120112103Y-105472103D01*
X119899663Y-105730961D01*
X119741806Y-106026291D01*
X119644598Y-106346742D01*
X119611775Y-106680000D01*
X119644598Y-107013258D01*
X119741806Y-107333709D01*
X119899663Y-107629039D01*
X120112103Y-107887897D01*
X120187775Y-107950000D01*
X120112103Y-108012103D01*
X119899663Y-108270961D01*
X119741806Y-108566291D01*
X119644598Y-108886742D01*
X119611775Y-109220000D01*
X119644598Y-109553258D01*
X119741806Y-109873709D01*
X119899663Y-110169039D01*
X120112103Y-110427897D01*
X120187775Y-110490000D01*
X120112103Y-110552103D01*
X119899663Y-110810961D01*
X119741806Y-111106291D01*
X119644598Y-111426742D01*
X119611775Y-111760000D01*
X119644598Y-112093258D01*
X119741806Y-112413709D01*
X119899663Y-112709039D01*
X120112103Y-112967897D01*
X120187775Y-113030000D01*
X120112103Y-113092103D01*
X119899663Y-113350961D01*
X119741806Y-113646291D01*
X119644598Y-113966742D01*
X119611775Y-114300000D01*
X119644598Y-114633258D01*
X119741806Y-114953709D01*
X119899663Y-115249039D01*
X120112103Y-115507897D01*
X120187775Y-115570000D01*
X120112103Y-115632103D01*
X119899663Y-115890961D01*
X119741806Y-116186291D01*
X119644598Y-116506742D01*
X119611775Y-116840000D01*
X119644598Y-117173258D01*
X119741806Y-117493709D01*
X119899663Y-117789039D01*
X120112103Y-118047897D01*
X120187775Y-118110000D01*
X120112103Y-118172103D01*
X119899663Y-118430961D01*
X119741806Y-118726291D01*
X119644598Y-119046742D01*
X119611775Y-119380000D01*
X119644598Y-119713258D01*
X119741806Y-120033709D01*
X119899663Y-120329039D01*
X120112103Y-120587897D01*
X120187775Y-120650000D01*
X120112103Y-120712103D01*
X120105622Y-120720000D01*
X117533950Y-120720000D01*
X117475000Y-120714194D01*
X117416050Y-120720000D01*
X117239759Y-120737363D01*
X117013558Y-120805981D01*
X116805090Y-120917409D01*
X116622366Y-121067366D01*
X116584780Y-121113165D01*
X116033156Y-121664788D01*
X115987367Y-121702366D01*
X115949790Y-121748154D01*
X115949788Y-121748156D01*
X115837409Y-121885090D01*
X115725981Y-122093559D01*
X115678179Y-122251142D01*
X115657830Y-122318225D01*
X115657364Y-122319760D01*
X115634194Y-122555000D01*
X115640001Y-122613957D01*
X115640000Y-127705000D01*
X113035929Y-127705000D01*
X113180337Y-127529039D01*
X113338194Y-127233709D01*
X113435402Y-126913258D01*
X113460000Y-126663510D01*
X113460000Y-125796491D01*
X113435402Y-125546743D01*
X113338194Y-125226291D01*
X113180337Y-124930961D01*
X112967897Y-124672103D01*
X112709039Y-124459663D01*
X112413709Y-124301806D01*
X112325000Y-124274896D01*
X112325000Y-123473870D01*
X112925000Y-123473870D01*
X113081827Y-123458424D01*
X113232628Y-123412679D01*
X113371606Y-123338393D01*
X113493422Y-123238422D01*
X113590608Y-123120000D01*
X113666053Y-123120000D01*
X113725000Y-123125806D01*
X113783947Y-123120000D01*
X113783950Y-123120000D01*
X113960241Y-123102637D01*
X114186442Y-123034019D01*
X114394910Y-122922591D01*
X114577634Y-122772634D01*
X114615216Y-122726840D01*
X115106840Y-122235216D01*
X115152634Y-122197634D01*
X115302591Y-122014910D01*
X115414019Y-121806442D01*
X115482637Y-121580241D01*
X115500000Y-121403950D01*
X115500000Y-121403947D01*
X115505806Y-121345000D01*
X115500000Y-121286053D01*
X115500000Y-107373950D01*
X115505806Y-107315000D01*
X115482637Y-107079759D01*
X115414019Y-106853558D01*
X115332430Y-106700916D01*
X115302591Y-106645090D01*
X115152634Y-106462366D01*
X115106836Y-106424781D01*
X114555216Y-105873161D01*
X114517634Y-105827366D01*
X114334910Y-105677409D01*
X114126442Y-105565981D01*
X113900241Y-105497363D01*
X113723950Y-105480000D01*
X113723947Y-105480000D01*
X113665000Y-105474194D01*
X113606053Y-105480000D01*
X98334378Y-105480000D01*
X98327897Y-105472103D01*
X98252225Y-105410000D01*
X98327897Y-105347897D01*
X98334378Y-105340000D01*
X102811053Y-105340000D01*
X102870000Y-105345806D01*
X102928947Y-105340000D01*
X102928950Y-105340000D01*
X103105241Y-105322637D01*
X103331442Y-105254019D01*
X103539910Y-105142591D01*
X103722634Y-104992634D01*
X103760216Y-104946840D01*
X104946841Y-103760215D01*
X104992634Y-103722634D01*
X105142591Y-103539910D01*
X105254019Y-103331442D01*
X105322637Y-103105241D01*
X105340000Y-102928950D01*
X105340000Y-102928948D01*
X105345806Y-102870001D01*
X105340000Y-102811054D01*
X105340000Y-97464978D01*
X105920000Y-97464978D01*
X105920000Y-98115022D01*
X106046817Y-98752574D01*
X106295578Y-99353136D01*
X106656723Y-99893627D01*
X107116373Y-100353277D01*
X107656864Y-100714422D01*
X108257426Y-100963183D01*
X108894978Y-101090000D01*
X109545022Y-101090000D01*
X110182574Y-100963183D01*
X110783136Y-100714422D01*
X111323627Y-100353277D01*
X111783277Y-99893627D01*
X112144422Y-99353136D01*
X112393183Y-98752574D01*
X112520000Y-98115022D01*
X112520000Y-97464978D01*
X112393183Y-96827426D01*
X112144422Y-96226864D01*
X111783277Y-95686373D01*
X111323627Y-95226723D01*
X110783136Y-94865578D01*
X110182574Y-94616817D01*
X109545022Y-94490000D01*
X108894978Y-94490000D01*
X108257426Y-94616817D01*
X107656864Y-94865578D01*
X107116373Y-95226723D01*
X106656723Y-95686373D01*
X106295578Y-96226864D01*
X106046817Y-96827426D01*
X105920000Y-97464978D01*
X105340000Y-97464978D01*
X105340000Y-96424378D01*
X105347897Y-96417897D01*
X105560337Y-96159039D01*
X105718194Y-95863709D01*
X105815402Y-95543257D01*
X105840000Y-95293509D01*
X105840000Y-94426490D01*
X105815402Y-94176742D01*
X105718194Y-93856291D01*
X105560337Y-93560961D01*
X105347897Y-93302103D01*
X105089038Y-93089663D01*
X104793708Y-92931806D01*
X104473257Y-92834598D01*
X104140000Y-92801775D01*
X103806742Y-92834598D01*
X103486291Y-92931806D01*
X103190961Y-93089663D01*
X102932103Y-93302103D01*
X102719663Y-93560962D01*
X102561806Y-93856292D01*
X102464598Y-94176743D01*
X102440000Y-94426491D01*
X102440000Y-95293510D01*
X102464598Y-95543258D01*
X102561806Y-95863709D01*
X102719663Y-96159039D01*
X102932104Y-96417897D01*
X102940001Y-96424378D01*
X102940000Y-102372944D01*
X102372944Y-102940000D01*
X98334378Y-102940000D01*
X98327897Y-102932103D01*
X98252225Y-102870000D01*
X98327897Y-102807897D01*
X98334378Y-102800000D01*
X99001053Y-102800000D01*
X99060000Y-102805806D01*
X99118947Y-102800000D01*
X99118950Y-102800000D01*
X99295241Y-102782637D01*
X99521442Y-102714019D01*
X99729910Y-102602591D01*
X99912634Y-102452634D01*
X99950216Y-102406840D01*
X101136841Y-101220215D01*
X101182634Y-101182634D01*
X101332591Y-100999910D01*
X101444019Y-100791442D01*
X101512637Y-100565241D01*
X101530000Y-100388950D01*
X101530000Y-100388948D01*
X101535806Y-100330001D01*
X101530000Y-100271054D01*
X101530000Y-96424378D01*
X101537897Y-96417897D01*
X101750337Y-96159039D01*
X101908194Y-95863709D01*
X102005402Y-95543257D01*
X102030000Y-95293509D01*
X102030000Y-94426490D01*
X102005402Y-94176742D01*
X101908194Y-93856291D01*
X101750337Y-93560961D01*
X101537897Y-93302103D01*
X101279038Y-93089663D01*
X100983708Y-92931806D01*
X100663257Y-92834598D01*
X100330000Y-92801775D01*
X99996742Y-92834598D01*
X99676291Y-92931806D01*
X99380961Y-93089663D01*
X99122103Y-93302103D01*
X98909663Y-93560962D01*
X98806046Y-93754815D01*
X98795402Y-93646742D01*
X98698194Y-93326291D01*
X98540337Y-93030961D01*
X98327897Y-92772103D01*
X98252225Y-92710000D01*
X98327897Y-92647897D01*
X98540337Y-92389039D01*
X98698194Y-92093709D01*
X98795402Y-91773258D01*
X98828225Y-91440000D01*
X98795402Y-91106742D01*
X98698194Y-90786291D01*
X98540337Y-90490961D01*
X98327897Y-90232103D01*
X98252225Y-90170000D01*
X98327897Y-90107897D01*
X98540337Y-89849039D01*
X98542507Y-89844978D01*
X105920000Y-89844978D01*
X105920000Y-90495022D01*
X106046817Y-91132574D01*
X106295578Y-91733136D01*
X106656723Y-92273627D01*
X107116373Y-92733277D01*
X107656864Y-93094422D01*
X108257426Y-93343183D01*
X108894978Y-93470000D01*
X109545022Y-93470000D01*
X110182574Y-93343183D01*
X110783136Y-93094422D01*
X111323627Y-92733277D01*
X111783277Y-92273627D01*
X112144422Y-91733136D01*
X112393183Y-91132574D01*
X112520000Y-90495022D01*
X112520000Y-89844978D01*
X112393183Y-89207426D01*
X112265843Y-88900000D01*
X119611775Y-88900000D01*
X119644598Y-89233258D01*
X119741806Y-89553709D01*
X119899663Y-89849039D01*
X120112103Y-90107897D01*
X120187775Y-90170000D01*
X120112103Y-90232103D01*
X119899663Y-90490961D01*
X119741806Y-90786291D01*
X119644598Y-91106742D01*
X119611775Y-91440000D01*
X119644598Y-91773258D01*
X119741806Y-92093709D01*
X119899663Y-92389039D01*
X120112103Y-92647897D01*
X120187775Y-92710000D01*
X120112103Y-92772103D01*
X119899663Y-93030961D01*
X119741806Y-93326291D01*
X119644598Y-93646742D01*
X119611775Y-93980000D01*
X119644598Y-94313258D01*
X119741806Y-94633709D01*
X119899663Y-94929039D01*
X120112103Y-95187897D01*
X120187775Y-95250000D01*
X120112103Y-95312103D01*
X119899663Y-95570961D01*
X119741806Y-95866291D01*
X119644598Y-96186742D01*
X119611775Y-96520000D01*
X119644598Y-96853258D01*
X119741806Y-97173709D01*
X119899663Y-97469039D01*
X120112103Y-97727897D01*
X120187775Y-97790000D01*
X120112103Y-97852103D01*
X119899663Y-98110961D01*
X119741806Y-98406291D01*
X119644598Y-98726742D01*
X119611775Y-99060000D01*
X119644598Y-99393258D01*
X119741806Y-99713709D01*
X119899663Y-100009039D01*
X119998767Y-100129797D01*
X119916946Y-100196946D01*
X119828471Y-100304753D01*
X119762728Y-100427749D01*
X119722244Y-100561208D01*
X119708574Y-100700000D01*
X119712000Y-101369000D01*
X119889000Y-101546000D01*
X121866000Y-101546000D01*
X121866000Y-101526000D01*
X121974000Y-101526000D01*
X121974000Y-101546000D01*
X123951000Y-101546000D01*
X124128000Y-101369000D01*
X124131426Y-100700000D01*
X124117756Y-100561208D01*
X124077272Y-100427749D01*
X124011529Y-100304753D01*
X123923054Y-100196946D01*
X123841233Y-100129797D01*
X123940337Y-100009039D01*
X124098194Y-99713709D01*
X124195402Y-99393258D01*
X124228225Y-99060000D01*
X124195402Y-98726742D01*
X124098194Y-98406291D01*
X123940337Y-98110961D01*
X123727897Y-97852103D01*
X123652225Y-97790000D01*
X123727897Y-97727897D01*
X123940337Y-97469039D01*
X124098194Y-97173709D01*
X124195402Y-96853258D01*
X124228225Y-96520000D01*
X124195402Y-96186742D01*
X124098194Y-95866291D01*
X123940337Y-95570961D01*
X123727897Y-95312103D01*
X123652225Y-95250000D01*
X123727897Y-95187897D01*
X123940337Y-94929039D01*
X124098194Y-94633709D01*
X124195402Y-94313258D01*
X124228225Y-93980000D01*
X124195402Y-93646742D01*
X124098194Y-93326291D01*
X123940337Y-93030961D01*
X123727897Y-92772103D01*
X123652225Y-92710000D01*
X123727897Y-92647897D01*
X123940337Y-92389039D01*
X124098194Y-92093709D01*
X124195402Y-91773258D01*
X124228225Y-91440000D01*
X124195402Y-91106742D01*
X124098194Y-90786291D01*
X123940337Y-90490961D01*
X123727897Y-90232103D01*
X123652225Y-90170000D01*
X123727897Y-90107897D01*
X123940337Y-89849039D01*
X124098194Y-89553709D01*
X124195402Y-89233258D01*
X124228225Y-88900000D01*
X124195402Y-88566742D01*
X124098194Y-88246291D01*
X123940337Y-87950961D01*
X123841233Y-87830203D01*
X123923054Y-87763054D01*
X124011529Y-87655247D01*
X124077272Y-87532251D01*
X124117756Y-87398792D01*
X124131426Y-87260000D01*
X124128000Y-86591000D01*
X123951000Y-86414000D01*
X121974000Y-86414000D01*
X121974000Y-86434000D01*
X121866000Y-86434000D01*
X121866000Y-86414000D01*
X119889000Y-86414000D01*
X119712000Y-86591000D01*
X119708574Y-87260000D01*
X119722244Y-87398792D01*
X119762728Y-87532251D01*
X119828471Y-87655247D01*
X119916946Y-87763054D01*
X119998767Y-87830203D01*
X119899663Y-87950961D01*
X119741806Y-88246291D01*
X119644598Y-88566742D01*
X119611775Y-88900000D01*
X112265843Y-88900000D01*
X112144422Y-88606864D01*
X111783277Y-88066373D01*
X111323627Y-87606723D01*
X110783136Y-87245578D01*
X110182574Y-86996817D01*
X109545022Y-86870000D01*
X108894978Y-86870000D01*
X108257426Y-86996817D01*
X107656864Y-87245578D01*
X107116373Y-87606723D01*
X106656723Y-88066373D01*
X106295578Y-88606864D01*
X106046817Y-89207426D01*
X105920000Y-89844978D01*
X98542507Y-89844978D01*
X98698194Y-89553709D01*
X98795402Y-89233258D01*
X98828225Y-88900000D01*
X98795402Y-88566742D01*
X98698194Y-88246291D01*
X98540337Y-87950961D01*
X98327897Y-87692103D01*
X98252225Y-87630000D01*
X98327897Y-87567897D01*
X98540337Y-87309039D01*
X98630000Y-87141291D01*
X98630000Y-87293510D01*
X98654598Y-87543258D01*
X98751806Y-87863709D01*
X98909663Y-88159039D01*
X99122104Y-88417897D01*
X99380962Y-88630337D01*
X99676292Y-88788194D01*
X99996743Y-88885402D01*
X100330000Y-88918225D01*
X100663258Y-88885402D01*
X100983709Y-88788194D01*
X101279039Y-88630337D01*
X101537897Y-88417897D01*
X101750337Y-88159039D01*
X101908194Y-87863709D01*
X102005402Y-87543257D01*
X102030000Y-87293509D01*
X102030000Y-86426490D01*
X102005402Y-86176742D01*
X101908194Y-85856291D01*
X101750337Y-85560961D01*
X101537897Y-85302103D01*
X101530000Y-85295622D01*
X101530000Y-84513950D01*
X101535806Y-84455000D01*
X101512637Y-84219759D01*
X101444019Y-83993558D01*
X101369910Y-83854910D01*
X101332591Y-83785090D01*
X101182634Y-83602366D01*
X101136836Y-83564781D01*
X100585216Y-83013161D01*
X100547634Y-82967366D01*
X100364910Y-82817409D01*
X100156442Y-82705981D01*
X99930241Y-82637363D01*
X99753950Y-82620000D01*
X99753947Y-82620000D01*
X99695000Y-82614194D01*
X99636053Y-82620000D01*
X96450000Y-82620000D01*
X96450000Y-81464801D01*
X96494753Y-81501529D01*
X96617749Y-81567272D01*
X96751208Y-81607756D01*
X96890000Y-81621426D01*
X97559000Y-81618000D01*
X97736000Y-81441000D01*
X97736000Y-80064000D01*
X97844000Y-80064000D01*
X97844000Y-81441000D01*
X98021000Y-81618000D01*
X98690000Y-81621426D01*
X98828792Y-81607756D01*
X98962251Y-81567272D01*
X99085247Y-81501529D01*
X99193054Y-81413054D01*
X99281529Y-81305247D01*
X99347272Y-81182251D01*
X99387756Y-81048792D01*
X99401426Y-80910000D01*
X99398000Y-80241000D01*
X99221000Y-80064000D01*
X97844000Y-80064000D01*
X97736000Y-80064000D01*
X97716000Y-80064000D01*
X97716000Y-79956000D01*
X97736000Y-79956000D01*
X97736000Y-78579000D01*
X97844000Y-78579000D01*
X97844000Y-79956000D01*
X99221000Y-79956000D01*
X99334435Y-79842565D01*
X102440000Y-79842565D01*
X102440000Y-80177435D01*
X102505330Y-80505872D01*
X102633479Y-80815252D01*
X102819523Y-81093687D01*
X102940001Y-81214165D01*
X102940000Y-85295622D01*
X102932103Y-85302103D01*
X102719663Y-85560962D01*
X102561806Y-85856292D01*
X102464598Y-86176743D01*
X102440000Y-86426491D01*
X102440000Y-87293510D01*
X102464598Y-87543258D01*
X102561806Y-87863709D01*
X102719663Y-88159039D01*
X102932104Y-88417897D01*
X103190962Y-88630337D01*
X103486292Y-88788194D01*
X103806743Y-88885402D01*
X104140000Y-88918225D01*
X104473258Y-88885402D01*
X104793709Y-88788194D01*
X105089039Y-88630337D01*
X105347897Y-88417897D01*
X105560337Y-88159039D01*
X105718194Y-87863709D01*
X105815402Y-87543257D01*
X105840000Y-87293509D01*
X105840000Y-86426490D01*
X105815402Y-86176742D01*
X105718194Y-85856291D01*
X105560337Y-85560961D01*
X105477481Y-85460000D01*
X119708574Y-85460000D01*
X119712000Y-86129000D01*
X119889000Y-86306000D01*
X121866000Y-86306000D01*
X121866000Y-84929000D01*
X121974000Y-84929000D01*
X121974000Y-86306000D01*
X123951000Y-86306000D01*
X124128000Y-86129000D01*
X124131426Y-85460000D01*
X124117756Y-85321208D01*
X124077272Y-85187749D01*
X124011529Y-85064753D01*
X123923054Y-84956946D01*
X123815247Y-84868471D01*
X123692251Y-84802728D01*
X123558792Y-84762244D01*
X123420000Y-84748574D01*
X122151000Y-84752000D01*
X121974000Y-84929000D01*
X121866000Y-84929000D01*
X121689000Y-84752000D01*
X120420000Y-84748574D01*
X120281208Y-84762244D01*
X120147749Y-84802728D01*
X120024753Y-84868471D01*
X119916946Y-84956946D01*
X119828471Y-85064753D01*
X119762728Y-85187749D01*
X119722244Y-85321208D01*
X119708574Y-85460000D01*
X105477481Y-85460000D01*
X105347897Y-85302103D01*
X105340000Y-85295622D01*
X105340000Y-84021490D01*
X127840000Y-84021490D01*
X127840000Y-84888509D01*
X127864598Y-85138257D01*
X127961806Y-85458708D01*
X128119663Y-85754038D01*
X128332103Y-86012897D01*
X128340000Y-86019378D01*
X128340001Y-123766043D01*
X128334194Y-123825000D01*
X128357364Y-124060240D01*
X128425981Y-124286441D01*
X128537409Y-124494910D01*
X128622939Y-124599128D01*
X128687367Y-124677634D01*
X128733155Y-124715211D01*
X129284780Y-125266835D01*
X129322366Y-125312634D01*
X129505090Y-125462591D01*
X129677781Y-125554896D01*
X129713558Y-125574019D01*
X129939759Y-125642637D01*
X130175000Y-125665806D01*
X130233950Y-125660000D01*
X144810001Y-125660000D01*
X144810000Y-150590622D01*
X144802103Y-150597103D01*
X144589663Y-150855962D01*
X144431806Y-151151292D01*
X144334598Y-151471743D01*
X144310000Y-151721491D01*
X144310000Y-152588510D01*
X144334598Y-152838258D01*
X144431806Y-153158709D01*
X144589663Y-153454039D01*
X144802104Y-153712897D01*
X145060962Y-153925337D01*
X145356292Y-154083194D01*
X145676743Y-154180402D01*
X146010000Y-154213225D01*
X146343258Y-154180402D01*
X146663709Y-154083194D01*
X146959039Y-153925337D01*
X147217897Y-153712897D01*
X147280000Y-153637224D01*
X147342104Y-153712897D01*
X147600962Y-153925337D01*
X147896292Y-154083194D01*
X148216743Y-154180402D01*
X148550000Y-154213225D01*
X148883258Y-154180402D01*
X149203709Y-154083194D01*
X149499039Y-153925337D01*
X149757897Y-153712897D01*
X149820000Y-153637224D01*
X149882104Y-153712897D01*
X150140962Y-153925337D01*
X150436292Y-154083194D01*
X150756743Y-154180402D01*
X151090000Y-154213225D01*
X151423258Y-154180402D01*
X151743709Y-154083194D01*
X152039039Y-153925337D01*
X152297897Y-153712897D01*
X152424428Y-153558719D01*
X152531157Y-153680212D01*
X152781543Y-153872004D01*
X153064535Y-154011263D01*
X153325260Y-154083860D01*
X153576000Y-153934981D01*
X153576000Y-152209000D01*
X153556000Y-152209000D01*
X153556000Y-152101000D01*
X153576000Y-152101000D01*
X153576000Y-150375019D01*
X153325260Y-150226140D01*
X153064535Y-150298737D01*
X152781543Y-150437996D01*
X152531157Y-150629788D01*
X152424428Y-150751281D01*
X152297897Y-150597103D01*
X152293699Y-150593658D01*
X152329860Y-135315368D01*
X152330000Y-135313950D01*
X152330000Y-135256351D01*
X152330136Y-135198891D01*
X152330000Y-135197476D01*
X152330000Y-120073950D01*
X152335806Y-120015000D01*
X152312637Y-119779759D01*
X152244019Y-119553558D01*
X152154187Y-119385494D01*
X152132591Y-119345090D01*
X151982634Y-119162366D01*
X151936835Y-119124780D01*
X151385216Y-118573161D01*
X151347634Y-118527366D01*
X151164910Y-118377409D01*
X150956442Y-118265981D01*
X150730241Y-118197363D01*
X150553950Y-118180000D01*
X150553947Y-118180000D01*
X150495000Y-118174194D01*
X150436053Y-118180000D01*
X135820000Y-118180000D01*
X135820000Y-86019378D01*
X135827897Y-86012897D01*
X135954428Y-85858719D01*
X136061157Y-85980212D01*
X136311543Y-86172004D01*
X136594535Y-86311263D01*
X136855260Y-86383860D01*
X137106000Y-86234981D01*
X137106000Y-84509000D01*
X137086000Y-84509000D01*
X137086000Y-84401000D01*
X137106000Y-84401000D01*
X137106000Y-82675019D01*
X137214000Y-82675019D01*
X137214000Y-84401000D01*
X137234000Y-84401000D01*
X137234000Y-84509000D01*
X137214000Y-84509000D01*
X137214000Y-86234981D01*
X137464740Y-86383860D01*
X137725465Y-86311263D01*
X138008457Y-86172004D01*
X138258843Y-85980212D01*
X138365572Y-85858718D01*
X138492103Y-86012897D01*
X138500000Y-86019378D01*
X138500001Y-113606043D01*
X138494194Y-113665000D01*
X138517364Y-113900240D01*
X138585981Y-114126441D01*
X138697409Y-114334910D01*
X138809788Y-114471844D01*
X138847367Y-114517634D01*
X138893156Y-114555212D01*
X139444780Y-115106835D01*
X139482366Y-115152634D01*
X139665090Y-115302591D01*
X139765837Y-115356441D01*
X139873558Y-115414019D01*
X140099759Y-115482637D01*
X140335000Y-115505806D01*
X140393950Y-115500000D01*
X154970001Y-115500000D01*
X154970000Y-150590622D01*
X154962103Y-150597103D01*
X154835572Y-150751282D01*
X154728843Y-150629788D01*
X154478457Y-150437996D01*
X154195465Y-150298737D01*
X153934740Y-150226140D01*
X153684000Y-150375019D01*
X153684000Y-152101000D01*
X153704000Y-152101000D01*
X153704000Y-152209000D01*
X153684000Y-152209000D01*
X153684000Y-153934981D01*
X153934740Y-154083860D01*
X154195465Y-154011263D01*
X154478457Y-153872004D01*
X154728843Y-153680212D01*
X154835572Y-153558719D01*
X154962104Y-153712897D01*
X155220962Y-153925337D01*
X155516292Y-154083194D01*
X155836743Y-154180402D01*
X156170000Y-154213225D01*
X156503258Y-154180402D01*
X156823709Y-154083194D01*
X157119039Y-153925337D01*
X157377897Y-153712897D01*
X157590337Y-153454039D01*
X157748194Y-153158709D01*
X157845402Y-152838257D01*
X157870000Y-152588509D01*
X157870000Y-151721490D01*
X157845402Y-151471742D01*
X157748194Y-151151291D01*
X157590337Y-150855961D01*
X157377897Y-150597103D01*
X157370000Y-150590622D01*
X157370000Y-114953946D01*
X157375806Y-114894999D01*
X157364383Y-114779019D01*
X157352637Y-114659759D01*
X157284019Y-114433558D01*
X157172591Y-114225090D01*
X157022634Y-114042366D01*
X156976840Y-114004784D01*
X156465216Y-113493160D01*
X156427634Y-113447366D01*
X156244910Y-113297409D01*
X156036442Y-113185981D01*
X155810241Y-113117363D01*
X155633950Y-113100000D01*
X155633947Y-113100000D01*
X155575000Y-113094194D01*
X155516053Y-113100000D01*
X140900000Y-113100000D01*
X140900000Y-86019378D01*
X140907897Y-86012897D01*
X141120337Y-85754039D01*
X141278194Y-85458709D01*
X141375402Y-85138258D01*
X141400000Y-84888510D01*
X141400000Y-84021491D01*
X141400000Y-84021490D01*
X144350000Y-84021490D01*
X144350000Y-84888509D01*
X144374598Y-85138257D01*
X144471806Y-85458708D01*
X144629663Y-85754038D01*
X144842103Y-86012897D01*
X144850000Y-86019378D01*
X144850001Y-107256043D01*
X144844194Y-107315000D01*
X144867364Y-107550240D01*
X144935981Y-107776441D01*
X145047409Y-107984910D01*
X145142138Y-108100337D01*
X145197367Y-108167634D01*
X145243156Y-108205212D01*
X145794780Y-108756835D01*
X145832366Y-108802634D01*
X146015090Y-108952591D01*
X146108213Y-109002366D01*
X146223558Y-109064019D01*
X146449759Y-109132637D01*
X146685000Y-109155806D01*
X146743950Y-109150000D01*
X160156547Y-109150000D01*
X160238186Y-109231639D01*
X160508432Y-109412211D01*
X160808713Y-109536592D01*
X161127489Y-109600000D01*
X161452511Y-109600000D01*
X161771287Y-109536592D01*
X162071568Y-109412211D01*
X162341814Y-109231639D01*
X162571639Y-109001814D01*
X162752211Y-108731568D01*
X162876592Y-108431287D01*
X162940000Y-108112511D01*
X162940000Y-107787489D01*
X162876592Y-107468713D01*
X162752211Y-107168432D01*
X162571639Y-106898186D01*
X162353453Y-106680000D01*
X162571639Y-106461814D01*
X162752211Y-106191568D01*
X162876592Y-105891287D01*
X162940000Y-105572511D01*
X162940000Y-105247489D01*
X162876592Y-104928713D01*
X162752211Y-104628432D01*
X162571639Y-104358186D01*
X162353453Y-104140000D01*
X162571639Y-103921814D01*
X162752211Y-103651568D01*
X162876592Y-103351287D01*
X162940000Y-103032511D01*
X162940000Y-102707489D01*
X162876592Y-102388713D01*
X162752211Y-102088432D01*
X162571639Y-101818186D01*
X162341814Y-101588361D01*
X162264022Y-101536382D01*
X162386591Y-101436733D01*
X162581433Y-101201533D01*
X162726646Y-100932841D01*
X162816650Y-100640982D01*
X162819446Y-100626914D01*
X162669944Y-100384000D01*
X161344000Y-100384000D01*
X161344000Y-100404000D01*
X161236000Y-100404000D01*
X161236000Y-100384000D01*
X159910056Y-100384000D01*
X159760554Y-100626914D01*
X159763350Y-100640982D01*
X159853354Y-100932841D01*
X159998567Y-101201533D01*
X160193409Y-101436733D01*
X160315978Y-101536382D01*
X160238186Y-101588361D01*
X160156547Y-101670000D01*
X152330000Y-101670000D01*
X152330000Y-86019378D01*
X152337897Y-86012897D01*
X152464428Y-85858719D01*
X152571157Y-85980212D01*
X152821543Y-86172004D01*
X153104535Y-86311263D01*
X153365260Y-86383860D01*
X153616000Y-86234981D01*
X153616000Y-84509000D01*
X153596000Y-84509000D01*
X153596000Y-84401000D01*
X153616000Y-84401000D01*
X153616000Y-82675019D01*
X153724000Y-82675019D01*
X153724000Y-84401000D01*
X153744000Y-84401000D01*
X153744000Y-84509000D01*
X153724000Y-84509000D01*
X153724000Y-86234981D01*
X153974740Y-86383860D01*
X154235465Y-86311263D01*
X154518457Y-86172004D01*
X154768843Y-85980212D01*
X154875572Y-85858718D01*
X155002103Y-86012897D01*
X155010000Y-86019378D01*
X155010001Y-97096043D01*
X155004194Y-97155000D01*
X155027364Y-97390240D01*
X155095981Y-97616441D01*
X155207409Y-97824910D01*
X155302138Y-97940337D01*
X155357367Y-98007634D01*
X155403156Y-98045212D01*
X155954780Y-98596835D01*
X155992366Y-98642634D01*
X156175090Y-98792591D01*
X156332526Y-98876742D01*
X156383558Y-98904019D01*
X156609759Y-98972637D01*
X156845000Y-98995806D01*
X156903950Y-98990000D01*
X159719970Y-98990000D01*
X159771607Y-99086606D01*
X159871578Y-99208422D01*
X159993394Y-99308393D01*
X160083147Y-99356368D01*
X159998567Y-99458467D01*
X159853354Y-99727159D01*
X159763350Y-100019018D01*
X159760554Y-100033086D01*
X159910056Y-100276000D01*
X161236000Y-100276000D01*
X161236000Y-100256000D01*
X161344000Y-100256000D01*
X161344000Y-100276000D01*
X162669944Y-100276000D01*
X162819446Y-100033086D01*
X162816650Y-100019018D01*
X162726646Y-99727159D01*
X162581433Y-99458467D01*
X162496853Y-99356368D01*
X162586606Y-99308393D01*
X162708422Y-99208422D01*
X162808393Y-99086606D01*
X162882679Y-98947628D01*
X162928424Y-98796827D01*
X162943870Y-98640000D01*
X162943870Y-96940000D01*
X162928424Y-96783173D01*
X162882679Y-96632372D01*
X162808393Y-96493394D01*
X162708422Y-96371578D01*
X162586606Y-96271607D01*
X162447628Y-96197321D01*
X162296827Y-96151576D01*
X162140000Y-96136130D01*
X160440000Y-96136130D01*
X160283173Y-96151576D01*
X160132372Y-96197321D01*
X159993394Y-96271607D01*
X159871578Y-96371578D01*
X159771607Y-96493394D01*
X159719970Y-96590000D01*
X157410000Y-96590000D01*
X157410000Y-86019378D01*
X157417897Y-86012897D01*
X157630337Y-85754039D01*
X157788194Y-85458709D01*
X157885402Y-85138258D01*
X157910000Y-84888510D01*
X157910000Y-84021491D01*
X157885402Y-83771743D01*
X157788194Y-83451291D01*
X157630337Y-83155961D01*
X157417897Y-82897103D01*
X157159039Y-82684663D01*
X156863709Y-82526806D01*
X156543258Y-82429598D01*
X156210000Y-82396775D01*
X155876743Y-82429598D01*
X155556292Y-82526806D01*
X155260962Y-82684663D01*
X155002104Y-82897103D01*
X154875572Y-83051281D01*
X154768843Y-82929788D01*
X154518457Y-82737996D01*
X154235465Y-82598737D01*
X153974740Y-82526140D01*
X153724000Y-82675019D01*
X153616000Y-82675019D01*
X153365260Y-82526140D01*
X153104535Y-82598737D01*
X152821543Y-82737996D01*
X152571157Y-82929788D01*
X152464428Y-83051281D01*
X152337897Y-82897103D01*
X152079039Y-82684663D01*
X151783709Y-82526806D01*
X151463258Y-82429598D01*
X151130000Y-82396775D01*
X150796743Y-82429598D01*
X150476292Y-82526806D01*
X150180962Y-82684663D01*
X149922104Y-82897103D01*
X149860000Y-82972776D01*
X149797897Y-82897103D01*
X149539039Y-82684663D01*
X149243709Y-82526806D01*
X148923258Y-82429598D01*
X148590000Y-82396775D01*
X148256743Y-82429598D01*
X147936292Y-82526806D01*
X147640962Y-82684663D01*
X147382104Y-82897103D01*
X147320000Y-82972776D01*
X147257897Y-82897103D01*
X146999039Y-82684663D01*
X146703709Y-82526806D01*
X146383258Y-82429598D01*
X146050000Y-82396775D01*
X145716743Y-82429598D01*
X145396292Y-82526806D01*
X145100962Y-82684663D01*
X144842104Y-82897103D01*
X144629663Y-83155961D01*
X144471806Y-83451291D01*
X144374598Y-83771742D01*
X144350000Y-84021490D01*
X141400000Y-84021490D01*
X141375402Y-83771743D01*
X141278194Y-83451291D01*
X141120337Y-83155961D01*
X140907897Y-82897103D01*
X140649039Y-82684663D01*
X140353709Y-82526806D01*
X140033258Y-82429598D01*
X139700000Y-82396775D01*
X139366743Y-82429598D01*
X139046292Y-82526806D01*
X138750962Y-82684663D01*
X138492104Y-82897103D01*
X138365572Y-83051281D01*
X138258843Y-82929788D01*
X138008457Y-82737996D01*
X137725465Y-82598737D01*
X137464740Y-82526140D01*
X137214000Y-82675019D01*
X137106000Y-82675019D01*
X136855260Y-82526140D01*
X136594535Y-82598737D01*
X136311543Y-82737996D01*
X136061157Y-82929788D01*
X135954428Y-83051281D01*
X135827897Y-82897103D01*
X135569039Y-82684663D01*
X135273709Y-82526806D01*
X134953258Y-82429598D01*
X134620000Y-82396775D01*
X134286743Y-82429598D01*
X133966292Y-82526806D01*
X133670962Y-82684663D01*
X133412104Y-82897103D01*
X133350000Y-82972776D01*
X133287897Y-82897103D01*
X133029039Y-82684663D01*
X132733709Y-82526806D01*
X132413258Y-82429598D01*
X132080000Y-82396775D01*
X131746743Y-82429598D01*
X131426292Y-82526806D01*
X131130962Y-82684663D01*
X130872104Y-82897103D01*
X130810000Y-82972776D01*
X130747897Y-82897103D01*
X130489039Y-82684663D01*
X130193709Y-82526806D01*
X129873258Y-82429598D01*
X129540000Y-82396775D01*
X129206743Y-82429598D01*
X128886292Y-82526806D01*
X128590962Y-82684663D01*
X128332104Y-82897103D01*
X128119663Y-83155961D01*
X127961806Y-83451291D01*
X127864598Y-83771742D01*
X127840000Y-84021490D01*
X105340000Y-84021490D01*
X105340000Y-81464801D01*
X105384753Y-81501529D01*
X105507749Y-81567272D01*
X105641208Y-81607756D01*
X105780000Y-81621426D01*
X106449000Y-81618000D01*
X106626000Y-81441000D01*
X106626000Y-80064000D01*
X106734000Y-80064000D01*
X106734000Y-81441000D01*
X106911000Y-81618000D01*
X107580000Y-81621426D01*
X107718792Y-81607756D01*
X107852251Y-81567272D01*
X107975247Y-81501529D01*
X108083054Y-81413054D01*
X108171529Y-81305247D01*
X108237272Y-81182251D01*
X108277756Y-81048792D01*
X108291426Y-80910000D01*
X108288000Y-80241000D01*
X108111000Y-80064000D01*
X106734000Y-80064000D01*
X106626000Y-80064000D01*
X106606000Y-80064000D01*
X106606000Y-79956000D01*
X106626000Y-79956000D01*
X106626000Y-78579000D01*
X106734000Y-78579000D01*
X106734000Y-79956000D01*
X108111000Y-79956000D01*
X108219511Y-79847489D01*
X109475000Y-79847489D01*
X109475000Y-80172511D01*
X109538408Y-80491287D01*
X109662789Y-80791568D01*
X109843361Y-81061814D01*
X110073186Y-81291639D01*
X110343432Y-81472211D01*
X110643713Y-81596592D01*
X110962489Y-81660000D01*
X111287511Y-81660000D01*
X111606287Y-81596592D01*
X111906568Y-81472211D01*
X112176814Y-81291639D01*
X112406639Y-81061814D01*
X112458618Y-80984022D01*
X112558267Y-81106591D01*
X112793467Y-81301433D01*
X113062159Y-81446646D01*
X113354018Y-81536650D01*
X113368086Y-81539446D01*
X113611000Y-81389944D01*
X113611000Y-80064000D01*
X113591000Y-80064000D01*
X113591000Y-79956000D01*
X113611000Y-79956000D01*
X113611000Y-78630056D01*
X113719000Y-78630056D01*
X113719000Y-79956000D01*
X113739000Y-79956000D01*
X113739000Y-80064000D01*
X113719000Y-80064000D01*
X113719000Y-81389944D01*
X113961914Y-81539446D01*
X113975982Y-81536650D01*
X114267841Y-81446646D01*
X114536533Y-81301433D01*
X114771733Y-81106591D01*
X114871382Y-80984022D01*
X114923361Y-81061814D01*
X115153186Y-81291639D01*
X115423432Y-81472211D01*
X115723713Y-81596592D01*
X116042489Y-81660000D01*
X116367511Y-81660000D01*
X116686287Y-81596592D01*
X116986568Y-81472211D01*
X117256814Y-81291639D01*
X117486639Y-81061814D01*
X117538618Y-80984022D01*
X117638267Y-81106591D01*
X117873467Y-81301433D01*
X118142159Y-81446646D01*
X118434018Y-81536650D01*
X118448086Y-81539446D01*
X118691000Y-81389944D01*
X118691000Y-80064000D01*
X118671000Y-80064000D01*
X118671000Y-79956000D01*
X118691000Y-79956000D01*
X118691000Y-78630056D01*
X118799000Y-78630056D01*
X118799000Y-79956000D01*
X118819000Y-79956000D01*
X118819000Y-80064000D01*
X118799000Y-80064000D01*
X118799000Y-81389944D01*
X119041914Y-81539446D01*
X119055982Y-81536650D01*
X119347841Y-81446646D01*
X119616533Y-81301433D01*
X119851733Y-81106591D01*
X119951382Y-80984022D01*
X120003361Y-81061814D01*
X120233186Y-81291639D01*
X120503432Y-81472211D01*
X120803713Y-81596592D01*
X121122489Y-81660000D01*
X121447511Y-81660000D01*
X121766287Y-81596592D01*
X122066568Y-81472211D01*
X122336814Y-81291639D01*
X122379895Y-81248558D01*
X122383471Y-81255247D01*
X122471946Y-81363054D01*
X122579753Y-81451529D01*
X122702749Y-81517272D01*
X122836208Y-81557756D01*
X122975000Y-81571426D01*
X123594000Y-81568000D01*
X123771000Y-81391000D01*
X123771000Y-80064000D01*
X123879000Y-80064000D01*
X123879000Y-81391000D01*
X124056000Y-81568000D01*
X124675000Y-81571426D01*
X124813792Y-81557756D01*
X124947251Y-81517272D01*
X125070247Y-81451529D01*
X125178054Y-81363054D01*
X125266529Y-81255247D01*
X125332272Y-81132251D01*
X125372756Y-80998792D01*
X125386426Y-80860000D01*
X125383000Y-80241000D01*
X125206000Y-80064000D01*
X123879000Y-80064000D01*
X123771000Y-80064000D01*
X123751000Y-80064000D01*
X123751000Y-79956000D01*
X123771000Y-79956000D01*
X123771000Y-78629000D01*
X123879000Y-78629000D01*
X123879000Y-79956000D01*
X125206000Y-79956000D01*
X125383000Y-79779000D01*
X125384550Y-79498922D01*
X127700000Y-79498922D01*
X127700000Y-80011078D01*
X127799917Y-80513392D01*
X127995910Y-80986562D01*
X128280448Y-81412403D01*
X128642597Y-81774552D01*
X129068438Y-82059090D01*
X129541608Y-82255083D01*
X130043922Y-82355000D01*
X130556078Y-82355000D01*
X131058392Y-82255083D01*
X131531562Y-82059090D01*
X131957403Y-81774552D01*
X132319552Y-81412403D01*
X132604090Y-80986562D01*
X132800083Y-80513392D01*
X132900000Y-80011078D01*
X132900000Y-79498922D01*
X136300000Y-79498922D01*
X136300000Y-80011078D01*
X136399917Y-80513392D01*
X136595910Y-80986562D01*
X136880448Y-81412403D01*
X137242597Y-81774552D01*
X137668438Y-82059090D01*
X138141608Y-82255083D01*
X138643922Y-82355000D01*
X139156078Y-82355000D01*
X139658392Y-82255083D01*
X140131562Y-82059090D01*
X140557403Y-81774552D01*
X140919552Y-81412403D01*
X141204090Y-80986562D01*
X141400083Y-80513392D01*
X141500000Y-80011078D01*
X141500000Y-79498922D01*
X144210000Y-79498922D01*
X144210000Y-80011078D01*
X144309917Y-80513392D01*
X144505910Y-80986562D01*
X144790448Y-81412403D01*
X145152597Y-81774552D01*
X145578438Y-82059090D01*
X146051608Y-82255083D01*
X146553922Y-82355000D01*
X147066078Y-82355000D01*
X147568392Y-82255083D01*
X148041562Y-82059090D01*
X148467403Y-81774552D01*
X148829552Y-81412403D01*
X149114090Y-80986562D01*
X149310083Y-80513392D01*
X149410000Y-80011078D01*
X149410000Y-79498922D01*
X152810000Y-79498922D01*
X152810000Y-80011078D01*
X152909917Y-80513392D01*
X153105910Y-80986562D01*
X153390448Y-81412403D01*
X153752597Y-81774552D01*
X154178438Y-82059090D01*
X154651608Y-82255083D01*
X155153922Y-82355000D01*
X155666078Y-82355000D01*
X156168392Y-82255083D01*
X156641562Y-82059090D01*
X157067403Y-81774552D01*
X157429552Y-81412403D01*
X157714090Y-80986562D01*
X157910083Y-80513392D01*
X158010000Y-80011078D01*
X158010000Y-79498922D01*
X157910083Y-78996608D01*
X157714090Y-78523438D01*
X157429552Y-78097597D01*
X157067403Y-77735448D01*
X156641562Y-77450910D01*
X156168392Y-77254917D01*
X155666078Y-77155000D01*
X155153922Y-77155000D01*
X154651608Y-77254917D01*
X154178438Y-77450910D01*
X153752597Y-77735448D01*
X153390448Y-78097597D01*
X153105910Y-78523438D01*
X152909917Y-78996608D01*
X152810000Y-79498922D01*
X149410000Y-79498922D01*
X149310083Y-78996608D01*
X149114090Y-78523438D01*
X148829552Y-78097597D01*
X148467403Y-77735448D01*
X148041562Y-77450910D01*
X147568392Y-77254917D01*
X147066078Y-77155000D01*
X146553922Y-77155000D01*
X146051608Y-77254917D01*
X145578438Y-77450910D01*
X145152597Y-77735448D01*
X144790448Y-78097597D01*
X144505910Y-78523438D01*
X144309917Y-78996608D01*
X144210000Y-79498922D01*
X141500000Y-79498922D01*
X141400083Y-78996608D01*
X141204090Y-78523438D01*
X140919552Y-78097597D01*
X140557403Y-77735448D01*
X140131562Y-77450910D01*
X139658392Y-77254917D01*
X139156078Y-77155000D01*
X138643922Y-77155000D01*
X138141608Y-77254917D01*
X137668438Y-77450910D01*
X137242597Y-77735448D01*
X136880448Y-78097597D01*
X136595910Y-78523438D01*
X136399917Y-78996608D01*
X136300000Y-79498922D01*
X132900000Y-79498922D01*
X132800083Y-78996608D01*
X132604090Y-78523438D01*
X132319552Y-78097597D01*
X131957403Y-77735448D01*
X131531562Y-77450910D01*
X131058392Y-77254917D01*
X130556078Y-77155000D01*
X130043922Y-77155000D01*
X129541608Y-77254917D01*
X129068438Y-77450910D01*
X128642597Y-77735448D01*
X128280448Y-78097597D01*
X127995910Y-78523438D01*
X127799917Y-78996608D01*
X127700000Y-79498922D01*
X125384550Y-79498922D01*
X125386426Y-79160000D01*
X125372756Y-79021208D01*
X125332272Y-78887749D01*
X125266529Y-78764753D01*
X125178054Y-78656946D01*
X125070247Y-78568471D01*
X124947251Y-78502728D01*
X124813792Y-78462244D01*
X124675000Y-78448574D01*
X124056000Y-78452000D01*
X123879000Y-78629000D01*
X123771000Y-78629000D01*
X123594000Y-78452000D01*
X122975000Y-78448574D01*
X122836208Y-78462244D01*
X122702749Y-78502728D01*
X122579753Y-78568471D01*
X122471946Y-78656946D01*
X122383471Y-78764753D01*
X122379895Y-78771442D01*
X122336814Y-78728361D01*
X122066568Y-78547789D01*
X121766287Y-78423408D01*
X121447511Y-78360000D01*
X121122489Y-78360000D01*
X120803713Y-78423408D01*
X120503432Y-78547789D01*
X120233186Y-78728361D01*
X120003361Y-78958186D01*
X119951382Y-79035978D01*
X119851733Y-78913409D01*
X119616533Y-78718567D01*
X119347841Y-78573354D01*
X119055982Y-78483350D01*
X119041914Y-78480554D01*
X118799000Y-78630056D01*
X118691000Y-78630056D01*
X118448086Y-78480554D01*
X118434018Y-78483350D01*
X118142159Y-78573354D01*
X117873467Y-78718567D01*
X117638267Y-78913409D01*
X117538618Y-79035978D01*
X117486639Y-78958186D01*
X117256814Y-78728361D01*
X116986568Y-78547789D01*
X116686287Y-78423408D01*
X116367511Y-78360000D01*
X116042489Y-78360000D01*
X115723713Y-78423408D01*
X115423432Y-78547789D01*
X115153186Y-78728361D01*
X114923361Y-78958186D01*
X114871382Y-79035978D01*
X114771733Y-78913409D01*
X114536533Y-78718567D01*
X114267841Y-78573354D01*
X113975982Y-78483350D01*
X113961914Y-78480554D01*
X113719000Y-78630056D01*
X113611000Y-78630056D01*
X113368086Y-78480554D01*
X113354018Y-78483350D01*
X113062159Y-78573354D01*
X112793467Y-78718567D01*
X112558267Y-78913409D01*
X112458618Y-79035978D01*
X112406639Y-78958186D01*
X112176814Y-78728361D01*
X111906568Y-78547789D01*
X111606287Y-78423408D01*
X111287511Y-78360000D01*
X110962489Y-78360000D01*
X110643713Y-78423408D01*
X110343432Y-78547789D01*
X110073186Y-78728361D01*
X109843361Y-78958186D01*
X109662789Y-79228432D01*
X109538408Y-79528713D01*
X109475000Y-79847489D01*
X108219511Y-79847489D01*
X108288000Y-79779000D01*
X108291426Y-79110000D01*
X108277756Y-78971208D01*
X108237272Y-78837749D01*
X108171529Y-78714753D01*
X108083054Y-78606946D01*
X107975247Y-78518471D01*
X107852251Y-78452728D01*
X107718792Y-78412244D01*
X107580000Y-78398574D01*
X106911000Y-78402000D01*
X106734000Y-78579000D01*
X106626000Y-78579000D01*
X106449000Y-78402000D01*
X105780000Y-78398574D01*
X105641208Y-78412244D01*
X105507749Y-78452728D01*
X105384753Y-78518471D01*
X105276946Y-78606946D01*
X105214316Y-78683261D01*
X104945252Y-78503479D01*
X104635872Y-78375330D01*
X104307435Y-78310000D01*
X103972565Y-78310000D01*
X103644128Y-78375330D01*
X103334748Y-78503479D01*
X103056313Y-78689523D01*
X102819523Y-78926313D01*
X102633479Y-79204748D01*
X102505330Y-79514128D01*
X102440000Y-79842565D01*
X99334435Y-79842565D01*
X99398000Y-79779000D01*
X99401426Y-79110000D01*
X99387756Y-78971208D01*
X99347272Y-78837749D01*
X99281529Y-78714753D01*
X99193054Y-78606946D01*
X99085247Y-78518471D01*
X98962251Y-78452728D01*
X98828792Y-78412244D01*
X98690000Y-78398574D01*
X98021000Y-78402000D01*
X97844000Y-78579000D01*
X97736000Y-78579000D01*
X97559000Y-78402000D01*
X96890000Y-78398574D01*
X96751208Y-78412244D01*
X96617749Y-78452728D01*
X96494753Y-78518471D01*
X96386946Y-78606946D01*
X96324316Y-78683261D01*
X96055252Y-78503479D01*
X95745872Y-78375330D01*
X95417435Y-78310000D01*
X95082565Y-78310000D01*
X94754128Y-78375330D01*
X94444748Y-78503479D01*
X94166313Y-78689523D01*
X93929523Y-78926313D01*
X93743479Y-79204748D01*
X93615330Y-79514128D01*
X93550000Y-79842565D01*
X93550000Y-80177435D01*
X93615330Y-80505872D01*
X93743479Y-80815252D01*
X93929523Y-81093687D01*
X94050000Y-81214164D01*
X94050001Y-83126043D01*
X94044194Y-83185000D01*
X94067364Y-83420240D01*
X94135981Y-83646441D01*
X94247409Y-83854910D01*
X94359788Y-83991844D01*
X94397367Y-84037634D01*
X94443156Y-84075212D01*
X94994780Y-84626835D01*
X95032366Y-84672634D01*
X95205189Y-84814466D01*
X94970961Y-84939663D01*
X94712103Y-85152103D01*
X94499663Y-85410961D01*
X94341806Y-85706291D01*
X94244598Y-86026742D01*
X94211775Y-86360000D01*
X94244598Y-86693258D01*
X94341806Y-87013709D01*
X94499663Y-87309039D01*
X94712103Y-87567897D01*
X94787775Y-87630000D01*
X94712103Y-87692103D01*
X94499663Y-87950961D01*
X94410000Y-88118709D01*
X94410000Y-87586491D01*
X94385402Y-87336743D01*
X94288194Y-87016291D01*
X94130337Y-86720961D01*
X93917897Y-86462103D01*
X93810000Y-86373554D01*
X93810000Y-81334036D01*
X93815322Y-81280000D01*
X93794084Y-81064362D01*
X93731184Y-80857011D01*
X93629042Y-80665916D01*
X93491581Y-80498419D01*
X93449596Y-80463963D01*
X92891034Y-79905400D01*
X92856581Y-79863419D01*
X92689084Y-79725958D01*
X92497988Y-79623816D01*
X92290638Y-79560916D01*
X92129036Y-79545000D01*
X92129034Y-79545000D01*
X92075000Y-79539678D01*
X92020966Y-79545000D01*
X91005000Y-79545000D01*
X91005000Y-77035000D01*
X159185000Y-77035000D01*
X159185000Y-90805000D01*
G36*
X110552104Y-132672103D02*
G01*
X110339663Y-132930961D01*
X110181806Y-133226291D01*
X110084598Y-133546742D01*
X110060000Y-133796490D01*
X110060000Y-134663509D01*
X110084598Y-134913257D01*
X110181806Y-135233708D01*
X110339663Y-135529038D01*
X110552103Y-135787897D01*
X110560001Y-135794379D01*
X110560000Y-141040000D01*
X91005000Y-141040000D01*
X91005000Y-137725000D01*
X97131887Y-137725000D01*
X97067159Y-137845048D01*
X96979900Y-138128993D01*
X96949713Y-138424506D01*
X96977756Y-138720229D01*
X97062954Y-139004799D01*
X97202032Y-139267279D01*
X97208137Y-139276417D01*
X97481268Y-139337364D01*
X98388632Y-138430000D01*
X98374490Y-138415858D01*
X98450858Y-138339490D01*
X98465000Y-138353632D01*
X98479142Y-138339490D01*
X98555510Y-138415858D01*
X98541368Y-138430000D01*
X98555510Y-138444142D01*
X98479142Y-138520510D01*
X98465000Y-138506368D01*
X97557636Y-139413732D01*
X97618583Y-139686863D01*
X97880048Y-139827841D01*
X98163993Y-139915100D01*
X98459506Y-139945287D01*
X98755229Y-139917244D01*
X99039799Y-139832046D01*
X99302279Y-139692968D01*
X99311417Y-139686863D01*
X99372364Y-139413734D01*
X99390126Y-139431496D01*
X99422321Y-139537628D01*
X99496607Y-139676606D01*
X99596578Y-139798422D01*
X99718394Y-139898393D01*
X99857372Y-139972679D01*
X100008173Y-140018424D01*
X100165000Y-140033870D01*
X101765000Y-140033870D01*
X101921827Y-140018424D01*
X102072628Y-139972679D01*
X102211606Y-139898393D01*
X102333422Y-139798422D01*
X102433393Y-139676606D01*
X102507679Y-139537628D01*
X102553424Y-139386827D01*
X102568870Y-139230000D01*
X102568870Y-137677718D01*
X102696442Y-137639019D01*
X102904910Y-137527591D01*
X103087634Y-137377634D01*
X103125216Y-137331839D01*
X103676844Y-136780211D01*
X103722633Y-136742633D01*
X103872591Y-136559909D01*
X103925002Y-136461855D01*
X103984019Y-136351442D01*
X104052637Y-136125241D01*
X104075806Y-135890000D01*
X104055000Y-135678751D01*
X104055000Y-132998870D01*
X104670000Y-132998870D01*
X104826827Y-132983424D01*
X104977628Y-132937679D01*
X105116606Y-132863393D01*
X105238422Y-132763422D01*
X105335608Y-132645000D01*
X110585129Y-132645000D01*
X110552104Y-132672103D01*
G37*
X110552104Y-132672103D02*
X110339663Y-132930961D01*
X110181806Y-133226291D01*
X110084598Y-133546742D01*
X110060000Y-133796490D01*
X110060000Y-134663509D01*
X110084598Y-134913257D01*
X110181806Y-135233708D01*
X110339663Y-135529038D01*
X110552103Y-135787897D01*
X110560001Y-135794379D01*
X110560000Y-141040000D01*
X91005000Y-141040000D01*
X91005000Y-137725000D01*
X97131887Y-137725000D01*
X97067159Y-137845048D01*
X96979900Y-138128993D01*
X96949713Y-138424506D01*
X96977756Y-138720229D01*
X97062954Y-139004799D01*
X97202032Y-139267279D01*
X97208137Y-139276417D01*
X97481268Y-139337364D01*
X98388632Y-138430000D01*
X98374490Y-138415858D01*
X98450858Y-138339490D01*
X98465000Y-138353632D01*
X98479142Y-138339490D01*
X98555510Y-138415858D01*
X98541368Y-138430000D01*
X98555510Y-138444142D01*
X98479142Y-138520510D01*
X98465000Y-138506368D01*
X97557636Y-139413732D01*
X97618583Y-139686863D01*
X97880048Y-139827841D01*
X98163993Y-139915100D01*
X98459506Y-139945287D01*
X98755229Y-139917244D01*
X99039799Y-139832046D01*
X99302279Y-139692968D01*
X99311417Y-139686863D01*
X99372364Y-139413734D01*
X99390126Y-139431496D01*
X99422321Y-139537628D01*
X99496607Y-139676606D01*
X99596578Y-139798422D01*
X99718394Y-139898393D01*
X99857372Y-139972679D01*
X100008173Y-140018424D01*
X100165000Y-140033870D01*
X101765000Y-140033870D01*
X101921827Y-140018424D01*
X102072628Y-139972679D01*
X102211606Y-139898393D01*
X102333422Y-139798422D01*
X102433393Y-139676606D01*
X102507679Y-139537628D01*
X102553424Y-139386827D01*
X102568870Y-139230000D01*
X102568870Y-137677718D01*
X102696442Y-137639019D01*
X102904910Y-137527591D01*
X103087634Y-137377634D01*
X103125216Y-137331839D01*
X103676844Y-136780211D01*
X103722633Y-136742633D01*
X103872591Y-136559909D01*
X103925002Y-136461855D01*
X103984019Y-136351442D01*
X104052637Y-136125241D01*
X104075806Y-135890000D01*
X104055000Y-135678751D01*
X104055000Y-132998870D01*
X104670000Y-132998870D01*
X104826827Y-132983424D01*
X104977628Y-132937679D01*
X105116606Y-132863393D01*
X105238422Y-132763422D01*
X105335608Y-132645000D01*
X110585129Y-132645000D01*
X110552104Y-132672103D01*
G36*
X94499663Y-107629039D02*
G01*
X94712103Y-107887897D01*
X94787775Y-107950000D01*
X94712103Y-108012103D01*
X94499663Y-108270961D01*
X94341806Y-108566291D01*
X94244598Y-108886742D01*
X94211775Y-109220000D01*
X94244598Y-109553258D01*
X94341806Y-109873709D01*
X94499663Y-110169039D01*
X94712103Y-110427897D01*
X94787775Y-110490000D01*
X94712103Y-110552103D01*
X94499663Y-110810961D01*
X94341806Y-111106291D01*
X94244598Y-111426742D01*
X94211775Y-111760000D01*
X94244598Y-112093258D01*
X94341806Y-112413709D01*
X94499663Y-112709039D01*
X94712103Y-112967897D01*
X94787775Y-113030000D01*
X94712103Y-113092103D01*
X94499663Y-113350961D01*
X94341806Y-113646291D01*
X94244598Y-113966742D01*
X94211775Y-114300000D01*
X94244598Y-114633258D01*
X94341806Y-114953709D01*
X94499663Y-115249039D01*
X94712103Y-115507897D01*
X94787775Y-115570000D01*
X94712103Y-115632103D01*
X94499663Y-115890961D01*
X94341806Y-116186291D01*
X94244598Y-116506742D01*
X94211775Y-116840000D01*
X94244598Y-117173258D01*
X94341806Y-117493709D01*
X94499663Y-117789039D01*
X94598767Y-117909797D01*
X94516946Y-117976946D01*
X94428471Y-118084753D01*
X94362728Y-118207749D01*
X94322244Y-118341208D01*
X94308574Y-118480000D01*
X94312000Y-119149000D01*
X94489000Y-119326000D01*
X96466000Y-119326000D01*
X96466000Y-119306000D01*
X96574000Y-119306000D01*
X96574000Y-119326000D01*
X96594000Y-119326000D01*
X96594000Y-119434000D01*
X96574000Y-119434000D01*
X96574000Y-119454000D01*
X96466000Y-119454000D01*
X96466000Y-119434000D01*
X94489000Y-119434000D01*
X94312000Y-119611000D01*
X94308574Y-120280000D01*
X94322244Y-120418792D01*
X94362728Y-120552251D01*
X94406552Y-120634240D01*
X94360155Y-120638810D01*
X94115104Y-120713145D01*
X93889264Y-120833860D01*
X93691313Y-120996313D01*
X93650601Y-121045921D01*
X92700000Y-121996523D01*
X92700000Y-120804574D01*
X92768422Y-120748422D01*
X92868393Y-120626606D01*
X92942679Y-120487628D01*
X92988424Y-120336827D01*
X93003870Y-120180000D01*
X93003870Y-118580000D01*
X92988424Y-118423173D01*
X92942679Y-118272372D01*
X92868393Y-118133394D01*
X92768422Y-118011578D01*
X92646606Y-117911607D01*
X92507628Y-117837321D01*
X92356827Y-117791576D01*
X92200000Y-117776130D01*
X91005000Y-117776130D01*
X91005000Y-109015968D01*
X91038057Y-109033637D01*
X91127012Y-109081184D01*
X91334362Y-109144084D01*
X91495964Y-109160000D01*
X91495965Y-109160000D01*
X91549999Y-109165322D01*
X91558831Y-109164452D01*
X91760962Y-109330337D01*
X92056292Y-109488194D01*
X92376743Y-109585402D01*
X92710000Y-109618225D01*
X93043258Y-109585402D01*
X93363709Y-109488194D01*
X93659039Y-109330337D01*
X93917897Y-109117897D01*
X94130337Y-108859039D01*
X94288194Y-108563709D01*
X94385402Y-108243257D01*
X94410000Y-107993509D01*
X94410000Y-107461291D01*
X94499663Y-107629039D01*
G37*
X94499663Y-107629039D02*
X94712103Y-107887897D01*
X94787775Y-107950000D01*
X94712103Y-108012103D01*
X94499663Y-108270961D01*
X94341806Y-108566291D01*
X94244598Y-108886742D01*
X94211775Y-109220000D01*
X94244598Y-109553258D01*
X94341806Y-109873709D01*
X94499663Y-110169039D01*
X94712103Y-110427897D01*
X94787775Y-110490000D01*
X94712103Y-110552103D01*
X94499663Y-110810961D01*
X94341806Y-111106291D01*
X94244598Y-111426742D01*
X94211775Y-111760000D01*
X94244598Y-112093258D01*
X94341806Y-112413709D01*
X94499663Y-112709039D01*
X94712103Y-112967897D01*
X94787775Y-113030000D01*
X94712103Y-113092103D01*
X94499663Y-113350961D01*
X94341806Y-113646291D01*
X94244598Y-113966742D01*
X94211775Y-114300000D01*
X94244598Y-114633258D01*
X94341806Y-114953709D01*
X94499663Y-115249039D01*
X94712103Y-115507897D01*
X94787775Y-115570000D01*
X94712103Y-115632103D01*
X94499663Y-115890961D01*
X94341806Y-116186291D01*
X94244598Y-116506742D01*
X94211775Y-116840000D01*
X94244598Y-117173258D01*
X94341806Y-117493709D01*
X94499663Y-117789039D01*
X94598767Y-117909797D01*
X94516946Y-117976946D01*
X94428471Y-118084753D01*
X94362728Y-118207749D01*
X94322244Y-118341208D01*
X94308574Y-118480000D01*
X94312000Y-119149000D01*
X94489000Y-119326000D01*
X96466000Y-119326000D01*
X96466000Y-119306000D01*
X96574000Y-119306000D01*
X96574000Y-119326000D01*
X96594000Y-119326000D01*
X96594000Y-119434000D01*
X96574000Y-119434000D01*
X96574000Y-119454000D01*
X96466000Y-119454000D01*
X96466000Y-119434000D01*
X94489000Y-119434000D01*
X94312000Y-119611000D01*
X94308574Y-120280000D01*
X94322244Y-120418792D01*
X94362728Y-120552251D01*
X94406552Y-120634240D01*
X94360155Y-120638810D01*
X94115104Y-120713145D01*
X93889264Y-120833860D01*
X93691313Y-120996313D01*
X93650601Y-121045921D01*
X92700000Y-121996523D01*
X92700000Y-120804574D01*
X92768422Y-120748422D01*
X92868393Y-120626606D01*
X92942679Y-120487628D01*
X92988424Y-120336827D01*
X93003870Y-120180000D01*
X93003870Y-118580000D01*
X92988424Y-118423173D01*
X92942679Y-118272372D01*
X92868393Y-118133394D01*
X92768422Y-118011578D01*
X92646606Y-117911607D01*
X92507628Y-117837321D01*
X92356827Y-117791576D01*
X92200000Y-117776130D01*
X91005000Y-117776130D01*
X91005000Y-109015968D01*
X91038057Y-109033637D01*
X91127012Y-109081184D01*
X91334362Y-109144084D01*
X91495964Y-109160000D01*
X91495965Y-109160000D01*
X91549999Y-109165322D01*
X91558831Y-109164452D01*
X91760962Y-109330337D01*
X92056292Y-109488194D01*
X92376743Y-109585402D01*
X92710000Y-109618225D01*
X93043258Y-109585402D01*
X93363709Y-109488194D01*
X93659039Y-109330337D01*
X93917897Y-109117897D01*
X94130337Y-108859039D01*
X94288194Y-108563709D01*
X94385402Y-108243257D01*
X94410000Y-107993509D01*
X94410000Y-107461291D01*
X94499663Y-107629039D01*
G36*
X86218579Y-113806421D02*
G01*
X86248886Y-113831294D01*
X86283463Y-113849776D01*
X86320982Y-113861157D01*
X86360000Y-113865000D01*
X91875000Y-113865000D01*
X91875000Y-117275000D01*
X88900000Y-117275000D01*
X88860982Y-117278843D01*
X88823463Y-117290224D01*
X88788886Y-117308706D01*
X88758579Y-117333579D01*
X88733706Y-117363886D01*
X88715224Y-117398463D01*
X88703843Y-117435982D01*
X88700000Y-117475000D01*
X88700000Y-127549426D01*
X88654392Y-127605000D01*
X82613863Y-127605000D01*
X82550000Y-127598710D01*
X82486137Y-127605000D01*
X82486136Y-127605000D01*
X82295155Y-127623810D01*
X82050104Y-127698145D01*
X81824265Y-127818859D01*
X81824263Y-127818860D01*
X81824264Y-127818860D01*
X81626313Y-127981313D01*
X81585593Y-128030931D01*
X81040927Y-128575596D01*
X80991313Y-128616313D01*
X80828860Y-128814265D01*
X80708145Y-129040105D01*
X80633810Y-129285156D01*
X80626819Y-129356140D01*
X80608710Y-129540000D01*
X80615000Y-129603861D01*
X80615001Y-131596699D01*
X80411113Y-131845136D01*
X80243971Y-132157838D01*
X80141045Y-132497139D01*
X80115000Y-132761577D01*
X80115000Y-133150000D01*
X78788870Y-133150000D01*
X78788870Y-132425000D01*
X78762375Y-132155996D01*
X78683910Y-131897329D01*
X78556489Y-131658941D01*
X78385008Y-131449992D01*
X78176059Y-131278511D01*
X77937671Y-131151090D01*
X77865894Y-131129317D01*
X77829738Y-131085261D01*
X77776318Y-131041420D01*
X77238584Y-130503686D01*
X77194739Y-130450261D01*
X76981562Y-130275310D01*
X76738349Y-130145310D01*
X76474448Y-130065257D01*
X76268777Y-130045000D01*
X76268769Y-130045000D01*
X76200000Y-130038227D01*
X76131231Y-130045000D01*
X73677005Y-130045000D01*
X73601179Y-129969174D01*
X73289987Y-129761242D01*
X72944209Y-129618016D01*
X72590000Y-129547559D01*
X72590000Y-112595000D01*
X85007158Y-112595000D01*
X86218579Y-113806421D01*
G37*
X86218579Y-113806421D02*
X86248886Y-113831294D01*
X86283463Y-113849776D01*
X86320982Y-113861157D01*
X86360000Y-113865000D01*
X91875000Y-113865000D01*
X91875000Y-117275000D01*
X88900000Y-117275000D01*
X88860982Y-117278843D01*
X88823463Y-117290224D01*
X88788886Y-117308706D01*
X88758579Y-117333579D01*
X88733706Y-117363886D01*
X88715224Y-117398463D01*
X88703843Y-117435982D01*
X88700000Y-117475000D01*
X88700000Y-127549426D01*
X88654392Y-127605000D01*
X82613863Y-127605000D01*
X82550000Y-127598710D01*
X82486137Y-127605000D01*
X82486136Y-127605000D01*
X82295155Y-127623810D01*
X82050104Y-127698145D01*
X81824265Y-127818859D01*
X81824263Y-127818860D01*
X81824264Y-127818860D01*
X81626313Y-127981313D01*
X81585593Y-128030931D01*
X81040927Y-128575596D01*
X80991313Y-128616313D01*
X80828860Y-128814265D01*
X80708145Y-129040105D01*
X80633810Y-129285156D01*
X80626819Y-129356140D01*
X80608710Y-129540000D01*
X80615000Y-129603861D01*
X80615001Y-131596699D01*
X80411113Y-131845136D01*
X80243971Y-132157838D01*
X80141045Y-132497139D01*
X80115000Y-132761577D01*
X80115000Y-133150000D01*
X78788870Y-133150000D01*
X78788870Y-132425000D01*
X78762375Y-132155996D01*
X78683910Y-131897329D01*
X78556489Y-131658941D01*
X78385008Y-131449992D01*
X78176059Y-131278511D01*
X77937671Y-131151090D01*
X77865894Y-131129317D01*
X77829738Y-131085261D01*
X77776318Y-131041420D01*
X77238584Y-130503686D01*
X77194739Y-130450261D01*
X76981562Y-130275310D01*
X76738349Y-130145310D01*
X76474448Y-130065257D01*
X76268777Y-130045000D01*
X76268769Y-130045000D01*
X76200000Y-130038227D01*
X76131231Y-130045000D01*
X73677005Y-130045000D01*
X73601179Y-129969174D01*
X73289987Y-129761242D01*
X72944209Y-129618016D01*
X72590000Y-129547559D01*
X72590000Y-112595000D01*
X85007158Y-112595000D01*
X86218579Y-113806421D01*
M02*
