G04 #@! TF.GenerationSoftware,KiCad,Pcbnew,5.1.5+dfsg1-2build2*
G04 #@! TF.CreationDate,2022-08-24T15:36:07+02:00*
G04 #@! TF.ProjectId,capLevelSensorESP,6361704c-6576-4656-9c53-656e736f7245,rev?*
G04 #@! TF.SameCoordinates,Original*
G04 #@! TF.FileFunction,Legend,Top*
G04 #@! TF.FilePolarity,Positive*
%FSLAX46Y46*%
G04 Gerber Fmt 4.6, Leading zero omitted, Abs format (unit mm)*
G04 Created by KiCad (PCBNEW 5.1.5+dfsg1-2build2) date 2022-08-24 15:36:07*
%MOMM*%
%LPD*%
G04 APERTURE LIST*
%ADD10C,0.150000*%
%ADD11C,0.120000*%
%ADD12C,0.050000*%
G04 APERTURE END LIST*
D10*
X93290476Y-149645714D02*
X93290476Y-150312380D01*
X92861904Y-149645714D02*
X92861904Y-150169523D01*
X92909523Y-150264761D01*
X93004761Y-150312380D01*
X93147619Y-150312380D01*
X93242857Y-150264761D01*
X93290476Y-150217142D01*
X94338095Y-150217142D02*
X94290476Y-150264761D01*
X94147619Y-150312380D01*
X94052380Y-150312380D01*
X93909523Y-150264761D01*
X93814285Y-150169523D01*
X93766666Y-150074285D01*
X93719047Y-149883809D01*
X93719047Y-149740952D01*
X93766666Y-149550476D01*
X93814285Y-149455238D01*
X93909523Y-149360000D01*
X94052380Y-149312380D01*
X94147619Y-149312380D01*
X94290476Y-149360000D01*
X94338095Y-149407619D01*
X95480952Y-150026666D02*
X95957142Y-150026666D01*
X95385714Y-150312380D02*
X95719047Y-149312380D01*
X96052380Y-150312380D01*
X96385714Y-150312380D02*
X96385714Y-149312380D01*
X96957142Y-150312380D01*
X96957142Y-149312380D01*
X97433333Y-150312380D02*
X97433333Y-149312380D01*
X97671428Y-149312380D01*
X97814285Y-149360000D01*
X97909523Y-149455238D01*
X97957142Y-149550476D01*
X98004761Y-149740952D01*
X98004761Y-149883809D01*
X97957142Y-150074285D01*
X97909523Y-150169523D01*
X97814285Y-150264761D01*
X97671428Y-150312380D01*
X97433333Y-150312380D01*
X99195238Y-150312380D02*
X99195238Y-149312380D01*
X99433333Y-149312380D01*
X99576190Y-149360000D01*
X99671428Y-149455238D01*
X99719047Y-149550476D01*
X99766666Y-149740952D01*
X99766666Y-149883809D01*
X99719047Y-150074285D01*
X99671428Y-150169523D01*
X99576190Y-150264761D01*
X99433333Y-150312380D01*
X99195238Y-150312380D01*
X100195238Y-150312380D02*
X100195238Y-149312380D01*
X100623809Y-150264761D02*
X100766666Y-150312380D01*
X101004761Y-150312380D01*
X101100000Y-150264761D01*
X101147619Y-150217142D01*
X101195238Y-150121904D01*
X101195238Y-150026666D01*
X101147619Y-149931428D01*
X101100000Y-149883809D01*
X101004761Y-149836190D01*
X100814285Y-149788571D01*
X100719047Y-149740952D01*
X100671428Y-149693333D01*
X100623809Y-149598095D01*
X100623809Y-149502857D01*
X100671428Y-149407619D01*
X100719047Y-149360000D01*
X100814285Y-149312380D01*
X101052380Y-149312380D01*
X101195238Y-149360000D01*
X101623809Y-150312380D02*
X101623809Y-149312380D01*
X102004761Y-149312380D01*
X102100000Y-149360000D01*
X102147619Y-149407619D01*
X102195238Y-149502857D01*
X102195238Y-149645714D01*
X102147619Y-149740952D01*
X102100000Y-149788571D01*
X102004761Y-149836190D01*
X101623809Y-149836190D01*
X103100000Y-150312380D02*
X102623809Y-150312380D01*
X102623809Y-149312380D01*
X103385714Y-150026666D02*
X103861904Y-150026666D01*
X103290476Y-150312380D02*
X103623809Y-149312380D01*
X103957142Y-150312380D01*
X104480952Y-149836190D02*
X104480952Y-150312380D01*
X104147619Y-149312380D02*
X104480952Y-149836190D01*
X104814285Y-149312380D01*
X106242857Y-149788571D02*
X106385714Y-149836190D01*
X106433333Y-149883809D01*
X106480952Y-149979047D01*
X106480952Y-150121904D01*
X106433333Y-150217142D01*
X106385714Y-150264761D01*
X106290476Y-150312380D01*
X105909523Y-150312380D01*
X105909523Y-149312380D01*
X106242857Y-149312380D01*
X106338095Y-149360000D01*
X106385714Y-149407619D01*
X106433333Y-149502857D01*
X106433333Y-149598095D01*
X106385714Y-149693333D01*
X106338095Y-149740952D01*
X106242857Y-149788571D01*
X105909523Y-149788571D01*
X107100000Y-149312380D02*
X107290476Y-149312380D01*
X107385714Y-149360000D01*
X107480952Y-149455238D01*
X107528571Y-149645714D01*
X107528571Y-149979047D01*
X107480952Y-150169523D01*
X107385714Y-150264761D01*
X107290476Y-150312380D01*
X107100000Y-150312380D01*
X107004761Y-150264761D01*
X106909523Y-150169523D01*
X106861904Y-149979047D01*
X106861904Y-149645714D01*
X106909523Y-149455238D01*
X107004761Y-149360000D01*
X107100000Y-149312380D01*
X107909523Y-150026666D02*
X108385714Y-150026666D01*
X107814285Y-150312380D02*
X108147619Y-149312380D01*
X108480952Y-150312380D01*
X109385714Y-150312380D02*
X109052380Y-149836190D01*
X108814285Y-150312380D02*
X108814285Y-149312380D01*
X109195238Y-149312380D01*
X109290476Y-149360000D01*
X109338095Y-149407619D01*
X109385714Y-149502857D01*
X109385714Y-149645714D01*
X109338095Y-149740952D01*
X109290476Y-149788571D01*
X109195238Y-149836190D01*
X108814285Y-149836190D01*
X109814285Y-150312380D02*
X109814285Y-149312380D01*
X110052380Y-149312380D01*
X110195238Y-149360000D01*
X110290476Y-149455238D01*
X110338095Y-149550476D01*
X110385714Y-149740952D01*
X110385714Y-149883809D01*
X110338095Y-150074285D01*
X110290476Y-150169523D01*
X110195238Y-150264761D01*
X110052380Y-150312380D01*
X109814285Y-150312380D01*
D11*
X163830000Y-147320000D02*
X163195000Y-147320000D01*
X166370000Y-150495000D02*
X166370000Y-151130000D01*
X164465000Y-160020000D02*
X163830000Y-160020000D01*
X161925000Y-147320000D02*
X166370000Y-151765000D01*
X160020000Y-156845000D02*
X163195000Y-160020000D01*
X166370000Y-154940000D02*
X160020000Y-148590000D01*
X165735000Y-160020000D02*
X165100000Y-160020000D01*
X160020000Y-152400000D02*
X160020000Y-153035000D01*
X160020000Y-154940000D02*
X160020000Y-155575000D01*
X166370000Y-154305000D02*
X166370000Y-154940000D01*
X160020000Y-159385000D02*
X160655000Y-160020000D01*
X166370000Y-158115000D02*
X166370000Y-158750000D01*
X162560000Y-147320000D02*
X161925000Y-147320000D01*
X166370000Y-160020000D02*
X160020000Y-153670000D01*
X160020000Y-158750000D02*
X160020000Y-159385000D01*
X160020000Y-156210000D02*
X160020000Y-156845000D01*
X166370000Y-147320000D02*
X165735000Y-147320000D01*
X160020000Y-150495000D02*
X166370000Y-156845000D01*
X166370000Y-158750000D02*
X160020000Y-152400000D01*
X164465000Y-147320000D02*
X166370000Y-149225000D01*
X160020000Y-149225000D02*
X166370000Y-155575000D01*
X166370000Y-151765000D02*
X166370000Y-152400000D01*
X159385000Y-160655000D02*
X159385000Y-146685000D01*
X166370000Y-156845000D02*
X166370000Y-157480000D01*
X163195000Y-160020000D02*
X162560000Y-160020000D01*
X162560000Y-160020000D02*
X160020000Y-157480000D01*
X160020000Y-147955000D02*
X166370000Y-154305000D01*
X165100000Y-147320000D02*
X164465000Y-147320000D01*
X166370000Y-159385000D02*
X166370000Y-160020000D01*
X166370000Y-148590000D02*
X165100000Y-147320000D01*
X166370000Y-149225000D02*
X166370000Y-149860000D01*
X160020000Y-149860000D02*
X160020000Y-150495000D01*
X160655000Y-160020000D02*
X160020000Y-160020000D01*
X160020000Y-157480000D02*
X160020000Y-158115000D01*
X161925000Y-160020000D02*
X161290000Y-160020000D01*
X166370000Y-147955000D02*
X166370000Y-148590000D01*
X161290000Y-160020000D02*
X160020000Y-158750000D01*
X166370000Y-151130000D02*
X162560000Y-147320000D01*
X165100000Y-160020000D02*
X160020000Y-154940000D01*
X160020000Y-155575000D02*
X164465000Y-160020000D01*
X160020000Y-154305000D02*
X165735000Y-160020000D01*
X165735000Y-147320000D02*
X166370000Y-147955000D01*
X159385000Y-146685000D02*
X167005000Y-146685000D01*
X160020000Y-147320000D02*
X160020000Y-147955000D01*
X161290000Y-147320000D02*
X160655000Y-147320000D01*
X160020000Y-151765000D02*
X166370000Y-158115000D01*
X160020000Y-153670000D02*
X160020000Y-154305000D01*
X160020000Y-153035000D02*
X166370000Y-159385000D01*
X160020000Y-151130000D02*
X160020000Y-151765000D01*
X166370000Y-153670000D02*
X160020000Y-147320000D01*
X167005000Y-146685000D02*
X167005000Y-160655000D01*
X166370000Y-157480000D02*
X160020000Y-151130000D01*
X160020000Y-148590000D02*
X160020000Y-149225000D01*
X166370000Y-152400000D02*
X161290000Y-147320000D01*
X166370000Y-155575000D02*
X166370000Y-156210000D01*
X166370000Y-153035000D02*
X166370000Y-153670000D01*
X163195000Y-147320000D02*
X166370000Y-150495000D01*
X163830000Y-160020000D02*
X160020000Y-156210000D01*
X167005000Y-160655000D02*
X159385000Y-160655000D01*
X166370000Y-149860000D02*
X163830000Y-147320000D01*
X160020000Y-158115000D02*
X161925000Y-160020000D01*
X160655000Y-147320000D02*
X166370000Y-153035000D01*
X166370000Y-156210000D02*
X160020000Y-149860000D01*
X160655000Y-77470000D02*
X166370000Y-83185000D01*
X166370000Y-86360000D02*
X160020000Y-80010000D01*
X163830000Y-77470000D02*
X163195000Y-77470000D01*
X166370000Y-80645000D02*
X166370000Y-81280000D01*
X164465000Y-90170000D02*
X163830000Y-90170000D01*
X161925000Y-77470000D02*
X166370000Y-81915000D01*
X166370000Y-80010000D02*
X163830000Y-77470000D01*
X160020000Y-88265000D02*
X161925000Y-90170000D01*
X167005000Y-90805000D02*
X159385000Y-90805000D01*
X160020000Y-86995000D02*
X163195000Y-90170000D01*
X166370000Y-85090000D02*
X160020000Y-78740000D01*
X165735000Y-90170000D02*
X165100000Y-90170000D01*
X160020000Y-82550000D02*
X160020000Y-83185000D01*
X160020000Y-85090000D02*
X160020000Y-85725000D01*
X166370000Y-84455000D02*
X166370000Y-85090000D01*
X160020000Y-89535000D02*
X160655000Y-90170000D01*
X166370000Y-88265000D02*
X166370000Y-88900000D01*
X162560000Y-77470000D02*
X161925000Y-77470000D01*
X166370000Y-90170000D02*
X160020000Y-83820000D01*
X160020000Y-88900000D02*
X160020000Y-89535000D01*
X160020000Y-86360000D02*
X160020000Y-86995000D01*
X166370000Y-77470000D02*
X165735000Y-77470000D01*
X160020000Y-80645000D02*
X166370000Y-86995000D01*
X166370000Y-88900000D02*
X160020000Y-82550000D01*
X164465000Y-77470000D02*
X166370000Y-79375000D01*
X160020000Y-79375000D02*
X166370000Y-85725000D01*
X166370000Y-81915000D02*
X166370000Y-82550000D01*
X159385000Y-90805000D02*
X159385000Y-76835000D01*
X166370000Y-86995000D02*
X166370000Y-87630000D01*
X163195000Y-90170000D02*
X162560000Y-90170000D01*
X162560000Y-90170000D02*
X160020000Y-87630000D01*
X160020000Y-78105000D02*
X166370000Y-84455000D01*
X165100000Y-77470000D02*
X164465000Y-77470000D01*
X166370000Y-89535000D02*
X166370000Y-90170000D01*
X166370000Y-78740000D02*
X165100000Y-77470000D01*
X166370000Y-79375000D02*
X166370000Y-80010000D01*
X160020000Y-80010000D02*
X160020000Y-80645000D01*
X160655000Y-90170000D02*
X160020000Y-90170000D01*
X160020000Y-87630000D02*
X160020000Y-88265000D01*
X161925000Y-90170000D02*
X161290000Y-90170000D01*
X166370000Y-78105000D02*
X166370000Y-78740000D01*
X161290000Y-90170000D02*
X160020000Y-88900000D01*
X166370000Y-81280000D02*
X162560000Y-77470000D01*
X165100000Y-90170000D02*
X160020000Y-85090000D01*
X160020000Y-85725000D02*
X164465000Y-90170000D01*
X160020000Y-84455000D02*
X165735000Y-90170000D01*
X165735000Y-77470000D02*
X166370000Y-78105000D01*
X159385000Y-76835000D02*
X167005000Y-76835000D01*
X160020000Y-77470000D02*
X160020000Y-78105000D01*
X161290000Y-77470000D02*
X160655000Y-77470000D01*
X160020000Y-81915000D02*
X166370000Y-88265000D01*
X160020000Y-83820000D02*
X160020000Y-84455000D01*
X160020000Y-83185000D02*
X166370000Y-89535000D01*
X160020000Y-81280000D02*
X160020000Y-81915000D01*
X166370000Y-83820000D02*
X160020000Y-77470000D01*
X167005000Y-76835000D02*
X167005000Y-90805000D01*
X166370000Y-87630000D02*
X160020000Y-81280000D01*
X160020000Y-78740000D02*
X160020000Y-79375000D01*
X166370000Y-82550000D02*
X161290000Y-77470000D01*
X166370000Y-85725000D02*
X166370000Y-86360000D01*
X166370000Y-83185000D02*
X166370000Y-83820000D01*
X163195000Y-77470000D02*
X166370000Y-80645000D01*
X163830000Y-90170000D02*
X160020000Y-86360000D01*
D10*
X93043809Y-151312619D02*
X93091428Y-151265000D01*
X93186666Y-151217380D01*
X93424761Y-151217380D01*
X93520000Y-151265000D01*
X93567619Y-151312619D01*
X93615238Y-151407857D01*
X93615238Y-151503095D01*
X93567619Y-151645952D01*
X92996190Y-152217380D01*
X93615238Y-152217380D01*
X94234285Y-151217380D02*
X94329523Y-151217380D01*
X94424761Y-151265000D01*
X94472380Y-151312619D01*
X94520000Y-151407857D01*
X94567619Y-151598333D01*
X94567619Y-151836428D01*
X94520000Y-152026904D01*
X94472380Y-152122142D01*
X94424761Y-152169761D01*
X94329523Y-152217380D01*
X94234285Y-152217380D01*
X94139047Y-152169761D01*
X94091428Y-152122142D01*
X94043809Y-152026904D01*
X93996190Y-151836428D01*
X93996190Y-151598333D01*
X94043809Y-151407857D01*
X94091428Y-151312619D01*
X94139047Y-151265000D01*
X94234285Y-151217380D01*
X94948571Y-151312619D02*
X94996190Y-151265000D01*
X95091428Y-151217380D01*
X95329523Y-151217380D01*
X95424761Y-151265000D01*
X95472380Y-151312619D01*
X95520000Y-151407857D01*
X95520000Y-151503095D01*
X95472380Y-151645952D01*
X94900952Y-152217380D01*
X95520000Y-152217380D01*
X95900952Y-151312619D02*
X95948571Y-151265000D01*
X96043809Y-151217380D01*
X96281904Y-151217380D01*
X96377142Y-151265000D01*
X96424761Y-151312619D01*
X96472380Y-151407857D01*
X96472380Y-151503095D01*
X96424761Y-151645952D01*
X95853333Y-152217380D01*
X96472380Y-152217380D01*
X97853333Y-151217380D02*
X97948571Y-151217380D01*
X98043809Y-151265000D01*
X98091428Y-151312619D01*
X98139047Y-151407857D01*
X98186666Y-151598333D01*
X98186666Y-151836428D01*
X98139047Y-152026904D01*
X98091428Y-152122142D01*
X98043809Y-152169761D01*
X97948571Y-152217380D01*
X97853333Y-152217380D01*
X97758095Y-152169761D01*
X97710476Y-152122142D01*
X97662857Y-152026904D01*
X97615238Y-151836428D01*
X97615238Y-151598333D01*
X97662857Y-151407857D01*
X97710476Y-151312619D01*
X97758095Y-151265000D01*
X97853333Y-151217380D01*
X98472380Y-151217380D02*
X98805714Y-152217380D01*
X99139047Y-151217380D01*
X99520000Y-152217380D02*
X99710476Y-152217380D01*
X99805714Y-152169761D01*
X99853333Y-152122142D01*
X99948571Y-151979285D01*
X99996190Y-151788809D01*
X99996190Y-151407857D01*
X99948571Y-151312619D01*
X99900952Y-151265000D01*
X99805714Y-151217380D01*
X99615238Y-151217380D01*
X99520000Y-151265000D01*
X99472380Y-151312619D01*
X99424761Y-151407857D01*
X99424761Y-151645952D01*
X99472380Y-151741190D01*
X99520000Y-151788809D01*
X99615238Y-151836428D01*
X99805714Y-151836428D01*
X99900952Y-151788809D01*
X99948571Y-151741190D01*
X99996190Y-151645952D01*
X53617857Y-100163333D02*
X53570238Y-100115714D01*
X53522619Y-99972857D01*
X53522619Y-99877619D01*
X53570238Y-99734761D01*
X53665476Y-99639523D01*
X53760714Y-99591904D01*
X53951190Y-99544285D01*
X54094047Y-99544285D01*
X54284523Y-99591904D01*
X54379761Y-99639523D01*
X54475000Y-99734761D01*
X54522619Y-99877619D01*
X54522619Y-99972857D01*
X54475000Y-100115714D01*
X54427380Y-100163333D01*
X53522619Y-101115714D02*
X53522619Y-100544285D01*
X53522619Y-100830000D02*
X54522619Y-100830000D01*
X54379761Y-100734761D01*
X54284523Y-100639523D01*
X54236904Y-100544285D01*
X53522619Y-93964285D02*
X54522619Y-93964285D01*
X53522619Y-94535714D01*
X54522619Y-94535714D01*
X54522619Y-95202380D02*
X54522619Y-95392857D01*
X54475000Y-95488095D01*
X54379761Y-95583333D01*
X54189285Y-95630952D01*
X53855952Y-95630952D01*
X53665476Y-95583333D01*
X53570238Y-95488095D01*
X53522619Y-95392857D01*
X53522619Y-95202380D01*
X53570238Y-95107142D01*
X53665476Y-95011904D01*
X53855952Y-94964285D01*
X54189285Y-94964285D01*
X54379761Y-95011904D01*
X54475000Y-95107142D01*
X54522619Y-95202380D01*
X53522619Y-96583333D02*
X53522619Y-96011904D01*
X53522619Y-96297619D02*
X54522619Y-96297619D01*
X54379761Y-96202380D01*
X54284523Y-96107142D01*
X54236904Y-96011904D01*
X53522619Y-104124285D02*
X54522619Y-104124285D01*
X53522619Y-104695714D01*
X54522619Y-104695714D01*
X54522619Y-105362380D02*
X54522619Y-105552857D01*
X54475000Y-105648095D01*
X54379761Y-105743333D01*
X54189285Y-105790952D01*
X53855952Y-105790952D01*
X53665476Y-105743333D01*
X53570238Y-105648095D01*
X53522619Y-105552857D01*
X53522619Y-105362380D01*
X53570238Y-105267142D01*
X53665476Y-105171904D01*
X53855952Y-105124285D01*
X54189285Y-105124285D01*
X54379761Y-105171904D01*
X54475000Y-105267142D01*
X54522619Y-105362380D01*
X54522619Y-106410000D02*
X54522619Y-106505238D01*
X54475000Y-106600476D01*
X54427380Y-106648095D01*
X54332142Y-106695714D01*
X54141666Y-106743333D01*
X53903571Y-106743333D01*
X53713095Y-106695714D01*
X53617857Y-106648095D01*
X53570238Y-106600476D01*
X53522619Y-106505238D01*
X53522619Y-106410000D01*
X53570238Y-106314761D01*
X53617857Y-106267142D01*
X53713095Y-106219523D01*
X53903571Y-106171904D01*
X54141666Y-106171904D01*
X54332142Y-106219523D01*
X54427380Y-106267142D01*
X54475000Y-106314761D01*
X54522619Y-106410000D01*
X53617857Y-110323333D02*
X53570238Y-110275714D01*
X53522619Y-110132857D01*
X53522619Y-110037619D01*
X53570238Y-109894761D01*
X53665476Y-109799523D01*
X53760714Y-109751904D01*
X53951190Y-109704285D01*
X54094047Y-109704285D01*
X54284523Y-109751904D01*
X54379761Y-109799523D01*
X54475000Y-109894761D01*
X54522619Y-110037619D01*
X54522619Y-110132857D01*
X54475000Y-110275714D01*
X54427380Y-110323333D01*
X54522619Y-110942380D02*
X54522619Y-111037619D01*
X54475000Y-111132857D01*
X54427380Y-111180476D01*
X54332142Y-111228095D01*
X54141666Y-111275714D01*
X53903571Y-111275714D01*
X53713095Y-111228095D01*
X53617857Y-111180476D01*
X53570238Y-111132857D01*
X53522619Y-111037619D01*
X53522619Y-110942380D01*
X53570238Y-110847142D01*
X53617857Y-110799523D01*
X53713095Y-110751904D01*
X53903571Y-110704285D01*
X54141666Y-110704285D01*
X54332142Y-110751904D01*
X54427380Y-110799523D01*
X54475000Y-110847142D01*
X54522619Y-110942380D01*
X54046428Y-114831904D02*
X53998809Y-114974761D01*
X53951190Y-115022380D01*
X53855952Y-115070000D01*
X53713095Y-115070000D01*
X53617857Y-115022380D01*
X53570238Y-114974761D01*
X53522619Y-114879523D01*
X53522619Y-114498571D01*
X54522619Y-114498571D01*
X54522619Y-114831904D01*
X54475000Y-114927142D01*
X54427380Y-114974761D01*
X54332142Y-115022380D01*
X54236904Y-115022380D01*
X54141666Y-114974761D01*
X54094047Y-114927142D01*
X54046428Y-114831904D01*
X54046428Y-114498571D01*
X53808333Y-115450952D02*
X53808333Y-115927142D01*
X53522619Y-115355714D02*
X54522619Y-115689047D01*
X53522619Y-116022380D01*
X54522619Y-116212857D02*
X54522619Y-116784285D01*
X53522619Y-116498571D02*
X54522619Y-116498571D01*
X54475000Y-119888095D02*
X54522619Y-119792857D01*
X54522619Y-119650000D01*
X54475000Y-119507142D01*
X54379761Y-119411904D01*
X54284523Y-119364285D01*
X54094047Y-119316666D01*
X53951190Y-119316666D01*
X53760714Y-119364285D01*
X53665476Y-119411904D01*
X53570238Y-119507142D01*
X53522619Y-119650000D01*
X53522619Y-119745238D01*
X53570238Y-119888095D01*
X53617857Y-119935714D01*
X53951190Y-119935714D01*
X53951190Y-119745238D01*
X53522619Y-120364285D02*
X54522619Y-120364285D01*
X53522619Y-120935714D01*
X54522619Y-120935714D01*
X53522619Y-121411904D02*
X54522619Y-121411904D01*
X54522619Y-121650000D01*
X54475000Y-121792857D01*
X54379761Y-121888095D01*
X54284523Y-121935714D01*
X54094047Y-121983333D01*
X53951190Y-121983333D01*
X53760714Y-121935714D01*
X53665476Y-121888095D01*
X53570238Y-121792857D01*
X53522619Y-121650000D01*
X53522619Y-121411904D01*
X53522619Y-140120952D02*
X54522619Y-140120952D01*
X54522619Y-140501904D01*
X54475000Y-140597142D01*
X54427380Y-140644761D01*
X54332142Y-140692380D01*
X54189285Y-140692380D01*
X54094047Y-140644761D01*
X54046428Y-140597142D01*
X53998809Y-140501904D01*
X53998809Y-140120952D01*
X54522619Y-141120952D02*
X53713095Y-141120952D01*
X53617857Y-141168571D01*
X53570238Y-141216190D01*
X53522619Y-141311428D01*
X53522619Y-141501904D01*
X53570238Y-141597142D01*
X53617857Y-141644761D01*
X53713095Y-141692380D01*
X54522619Y-141692380D01*
X53522619Y-142644761D02*
X53522619Y-142168571D01*
X54522619Y-142168571D01*
X53570238Y-142930476D02*
X53522619Y-143073333D01*
X53522619Y-143311428D01*
X53570238Y-143406666D01*
X53617857Y-143454285D01*
X53713095Y-143501904D01*
X53808333Y-143501904D01*
X53903571Y-143454285D01*
X53951190Y-143406666D01*
X53998809Y-143311428D01*
X54046428Y-143120952D01*
X54094047Y-143025714D01*
X54141666Y-142978095D01*
X54236904Y-142930476D01*
X54332142Y-142930476D01*
X54427380Y-142978095D01*
X54475000Y-143025714D01*
X54522619Y-143120952D01*
X54522619Y-143359047D01*
X54475000Y-143501904D01*
X54046428Y-143930476D02*
X54046428Y-144263809D01*
X53522619Y-144406666D02*
X53522619Y-143930476D01*
X54522619Y-143930476D01*
X54522619Y-144406666D01*
X53903571Y-135874285D02*
X53903571Y-136636190D01*
X53522619Y-136255238D02*
X54284523Y-136255238D01*
X54522619Y-137588571D02*
X54522619Y-137112380D01*
X54046428Y-137064761D01*
X54094047Y-137112380D01*
X54141666Y-137207619D01*
X54141666Y-137445714D01*
X54094047Y-137540952D01*
X54046428Y-137588571D01*
X53951190Y-137636190D01*
X53713095Y-137636190D01*
X53617857Y-137588571D01*
X53570238Y-137540952D01*
X53522619Y-137445714D01*
X53522619Y-137207619D01*
X53570238Y-137112380D01*
X53617857Y-137064761D01*
X54522619Y-137921904D02*
X53522619Y-138255238D01*
X54522619Y-138588571D01*
X54475000Y-131318095D02*
X54522619Y-131222857D01*
X54522619Y-131080000D01*
X54475000Y-130937142D01*
X54379761Y-130841904D01*
X54284523Y-130794285D01*
X54094047Y-130746666D01*
X53951190Y-130746666D01*
X53760714Y-130794285D01*
X53665476Y-130841904D01*
X53570238Y-130937142D01*
X53522619Y-131080000D01*
X53522619Y-131175238D01*
X53570238Y-131318095D01*
X53617857Y-131365714D01*
X53951190Y-131365714D01*
X53951190Y-131175238D01*
X53522619Y-131794285D02*
X54522619Y-131794285D01*
X53522619Y-132365714D01*
X54522619Y-132365714D01*
X53522619Y-132841904D02*
X54522619Y-132841904D01*
X54522619Y-133080000D01*
X54475000Y-133222857D01*
X54379761Y-133318095D01*
X54284523Y-133365714D01*
X54094047Y-133413333D01*
X53951190Y-133413333D01*
X53760714Y-133365714D01*
X53665476Y-133318095D01*
X53570238Y-133222857D01*
X53522619Y-133080000D01*
X53522619Y-132841904D01*
X54475000Y-126238095D02*
X54522619Y-126142857D01*
X54522619Y-126000000D01*
X54475000Y-125857142D01*
X54379761Y-125761904D01*
X54284523Y-125714285D01*
X54094047Y-125666666D01*
X53951190Y-125666666D01*
X53760714Y-125714285D01*
X53665476Y-125761904D01*
X53570238Y-125857142D01*
X53522619Y-126000000D01*
X53522619Y-126095238D01*
X53570238Y-126238095D01*
X53617857Y-126285714D01*
X53951190Y-126285714D01*
X53951190Y-126095238D01*
X53522619Y-126714285D02*
X54522619Y-126714285D01*
X53522619Y-127285714D01*
X54522619Y-127285714D01*
X53522619Y-127761904D02*
X54522619Y-127761904D01*
X54522619Y-128000000D01*
X54475000Y-128142857D01*
X54379761Y-128238095D01*
X54284523Y-128285714D01*
X54094047Y-128333333D01*
X53951190Y-128333333D01*
X53760714Y-128285714D01*
X53665476Y-128238095D01*
X53570238Y-128142857D01*
X53522619Y-128000000D01*
X53522619Y-127761904D01*
X63984285Y-159837380D02*
X63984285Y-158837380D01*
X64555714Y-159837380D01*
X64555714Y-158837380D01*
X65603333Y-159742142D02*
X65555714Y-159789761D01*
X65412857Y-159837380D01*
X65317619Y-159837380D01*
X65174761Y-159789761D01*
X65079523Y-159694523D01*
X65031904Y-159599285D01*
X64984285Y-159408809D01*
X64984285Y-159265952D01*
X65031904Y-159075476D01*
X65079523Y-158980238D01*
X65174761Y-158885000D01*
X65317619Y-158837380D01*
X65412857Y-158837380D01*
X65555714Y-158885000D01*
X65603333Y-158932619D01*
X78605238Y-159837380D02*
X78605238Y-158837380D01*
X78986190Y-158837380D01*
X79081428Y-158885000D01*
X79129047Y-158932619D01*
X79176666Y-159027857D01*
X79176666Y-159170714D01*
X79129047Y-159265952D01*
X79081428Y-159313571D01*
X78986190Y-159361190D01*
X78605238Y-159361190D01*
X79510000Y-158837380D02*
X79748095Y-159837380D01*
X79938571Y-159123095D01*
X80129047Y-159837380D01*
X80367142Y-158837380D01*
X80748095Y-159837380D02*
X80748095Y-158837380D01*
X81081428Y-159551666D01*
X81414761Y-158837380D01*
X81414761Y-159837380D01*
X74168095Y-158885000D02*
X74072857Y-158837380D01*
X73930000Y-158837380D01*
X73787142Y-158885000D01*
X73691904Y-158980238D01*
X73644285Y-159075476D01*
X73596666Y-159265952D01*
X73596666Y-159408809D01*
X73644285Y-159599285D01*
X73691904Y-159694523D01*
X73787142Y-159789761D01*
X73930000Y-159837380D01*
X74025238Y-159837380D01*
X74168095Y-159789761D01*
X74215714Y-159742142D01*
X74215714Y-159408809D01*
X74025238Y-159408809D01*
X74644285Y-159837380D02*
X74644285Y-158837380D01*
X75215714Y-159837380D01*
X75215714Y-158837380D01*
X75691904Y-159837380D02*
X75691904Y-158837380D01*
X75930000Y-158837380D01*
X76072857Y-158885000D01*
X76168095Y-158980238D01*
X76215714Y-159075476D01*
X76263333Y-159265952D01*
X76263333Y-159408809D01*
X76215714Y-159599285D01*
X76168095Y-159694523D01*
X76072857Y-159789761D01*
X75930000Y-159837380D01*
X75691904Y-159837380D01*
X68564285Y-159456428D02*
X69326190Y-159456428D01*
X68945238Y-159837380D02*
X68945238Y-159075476D01*
X70278571Y-158837380D02*
X69802380Y-158837380D01*
X69754761Y-159313571D01*
X69802380Y-159265952D01*
X69897619Y-159218333D01*
X70135714Y-159218333D01*
X70230952Y-159265952D01*
X70278571Y-159313571D01*
X70326190Y-159408809D01*
X70326190Y-159646904D01*
X70278571Y-159742142D01*
X70230952Y-159789761D01*
X70135714Y-159837380D01*
X69897619Y-159837380D01*
X69802380Y-159789761D01*
X69754761Y-159742142D01*
X70611904Y-158837380D02*
X70945238Y-159837380D01*
X71278571Y-158837380D01*
X93552857Y-148312142D02*
X93505238Y-148359761D01*
X93362380Y-148407380D01*
X93267142Y-148407380D01*
X93124285Y-148359761D01*
X93029047Y-148264523D01*
X92981428Y-148169285D01*
X92933809Y-147978809D01*
X92933809Y-147835952D01*
X92981428Y-147645476D01*
X93029047Y-147550238D01*
X93124285Y-147455000D01*
X93267142Y-147407380D01*
X93362380Y-147407380D01*
X93505238Y-147455000D01*
X93552857Y-147502619D01*
X93933809Y-148121666D02*
X94410000Y-148121666D01*
X93838571Y-148407380D02*
X94171904Y-147407380D01*
X94505238Y-148407380D01*
X94838571Y-148407380D02*
X94838571Y-147407380D01*
X95219523Y-147407380D01*
X95314761Y-147455000D01*
X95362380Y-147502619D01*
X95410000Y-147597857D01*
X95410000Y-147740714D01*
X95362380Y-147835952D01*
X95314761Y-147883571D01*
X95219523Y-147931190D01*
X94838571Y-147931190D01*
X95790952Y-148121666D02*
X96267142Y-148121666D01*
X95695714Y-148407380D02*
X96029047Y-147407380D01*
X96362380Y-148407380D01*
X97267142Y-148312142D02*
X97219523Y-148359761D01*
X97076666Y-148407380D01*
X96981428Y-148407380D01*
X96838571Y-148359761D01*
X96743333Y-148264523D01*
X96695714Y-148169285D01*
X96648095Y-147978809D01*
X96648095Y-147835952D01*
X96695714Y-147645476D01*
X96743333Y-147550238D01*
X96838571Y-147455000D01*
X96981428Y-147407380D01*
X97076666Y-147407380D01*
X97219523Y-147455000D01*
X97267142Y-147502619D01*
X97695714Y-148407380D02*
X97695714Y-147407380D01*
X98029047Y-147407380D02*
X98600476Y-147407380D01*
X98314761Y-148407380D02*
X98314761Y-147407380D01*
X98933809Y-148407380D02*
X98933809Y-147407380D01*
X99267142Y-147407380D02*
X99600476Y-148407380D01*
X99933809Y-147407380D01*
X100267142Y-147883571D02*
X100600476Y-147883571D01*
X100743333Y-148407380D02*
X100267142Y-148407380D01*
X100267142Y-147407380D01*
X100743333Y-147407380D01*
X101838571Y-147407380D02*
X102076666Y-148407380D01*
X102267142Y-147693095D01*
X102457619Y-148407380D01*
X102695714Y-147407380D01*
X103029047Y-148121666D02*
X103505238Y-148121666D01*
X102933809Y-148407380D02*
X103267142Y-147407380D01*
X103600476Y-148407380D01*
X103790952Y-147407380D02*
X104362380Y-147407380D01*
X104076666Y-148407380D02*
X104076666Y-147407380D01*
X104695714Y-147883571D02*
X105029047Y-147883571D01*
X105171904Y-148407380D02*
X104695714Y-148407380D01*
X104695714Y-147407380D01*
X105171904Y-147407380D01*
X106171904Y-148407380D02*
X105838571Y-147931190D01*
X105600476Y-148407380D02*
X105600476Y-147407380D01*
X105981428Y-147407380D01*
X106076666Y-147455000D01*
X106124285Y-147502619D01*
X106171904Y-147597857D01*
X106171904Y-147740714D01*
X106124285Y-147835952D01*
X106076666Y-147883571D01*
X105981428Y-147931190D01*
X105600476Y-147931190D01*
X107838571Y-148407380D02*
X107362380Y-148407380D01*
X107362380Y-147407380D01*
X108171904Y-147883571D02*
X108505238Y-147883571D01*
X108648095Y-148407380D02*
X108171904Y-148407380D01*
X108171904Y-147407380D01*
X108648095Y-147407380D01*
X108933809Y-147407380D02*
X109267142Y-148407380D01*
X109600476Y-147407380D01*
X109933809Y-147883571D02*
X110267142Y-147883571D01*
X110409999Y-148407380D02*
X109933809Y-148407380D01*
X109933809Y-147407380D01*
X110409999Y-147407380D01*
X111314761Y-148407380D02*
X110838571Y-148407380D01*
X110838571Y-147407380D01*
X112362380Y-148359761D02*
X112505238Y-148407380D01*
X112743333Y-148407380D01*
X112838571Y-148359761D01*
X112886190Y-148312142D01*
X112933809Y-148216904D01*
X112933809Y-148121666D01*
X112886190Y-148026428D01*
X112838571Y-147978809D01*
X112743333Y-147931190D01*
X112552857Y-147883571D01*
X112457619Y-147835952D01*
X112409999Y-147788333D01*
X112362380Y-147693095D01*
X112362380Y-147597857D01*
X112409999Y-147502619D01*
X112457619Y-147455000D01*
X112552857Y-147407380D01*
X112790952Y-147407380D01*
X112933809Y-147455000D01*
X113362380Y-147883571D02*
X113695714Y-147883571D01*
X113838571Y-148407380D02*
X113362380Y-148407380D01*
X113362380Y-147407380D01*
X113838571Y-147407380D01*
X114267142Y-148407380D02*
X114267142Y-147407380D01*
X114838571Y-148407380D01*
X114838571Y-147407380D01*
X115267142Y-148359761D02*
X115409999Y-148407380D01*
X115648095Y-148407380D01*
X115743333Y-148359761D01*
X115790952Y-148312142D01*
X115838571Y-148216904D01*
X115838571Y-148121666D01*
X115790952Y-148026428D01*
X115743333Y-147978809D01*
X115648095Y-147931190D01*
X115457619Y-147883571D01*
X115362380Y-147835952D01*
X115314761Y-147788333D01*
X115267142Y-147693095D01*
X115267142Y-147597857D01*
X115314761Y-147502619D01*
X115362380Y-147455000D01*
X115457619Y-147407380D01*
X115695714Y-147407380D01*
X115838571Y-147455000D01*
X116457619Y-147407380D02*
X116648095Y-147407380D01*
X116743333Y-147455000D01*
X116838571Y-147550238D01*
X116886190Y-147740714D01*
X116886190Y-148074047D01*
X116838571Y-148264523D01*
X116743333Y-148359761D01*
X116648095Y-148407380D01*
X116457619Y-148407380D01*
X116362380Y-148359761D01*
X116267142Y-148264523D01*
X116219523Y-148074047D01*
X116219523Y-147740714D01*
X116267142Y-147550238D01*
X116362380Y-147455000D01*
X116457619Y-147407380D01*
X117886190Y-148407380D02*
X117552857Y-147931190D01*
X117314761Y-148407380D02*
X117314761Y-147407380D01*
X117695714Y-147407380D01*
X117790952Y-147455000D01*
X117838571Y-147502619D01*
X117886190Y-147597857D01*
X117886190Y-147740714D01*
X117838571Y-147835952D01*
X117790952Y-147883571D01*
X117695714Y-147931190D01*
X117314761Y-147931190D01*
D11*
X60325000Y-90805000D02*
X52705000Y-90805000D01*
X53340000Y-88265000D02*
X55245000Y-90170000D01*
X59690000Y-80010000D02*
X57150000Y-77470000D01*
X55245000Y-77470000D02*
X59690000Y-81915000D01*
X57785000Y-90170000D02*
X57150000Y-90170000D01*
X59690000Y-80645000D02*
X59690000Y-81280000D01*
X57150000Y-77470000D02*
X56515000Y-77470000D01*
X59690000Y-86360000D02*
X53340000Y-80010000D01*
X53975000Y-77470000D02*
X59690000Y-83185000D01*
X57150000Y-90170000D02*
X53340000Y-86360000D01*
X56515000Y-77470000D02*
X59690000Y-80645000D01*
X59690000Y-83185000D02*
X59690000Y-83820000D01*
X59690000Y-85725000D02*
X59690000Y-86360000D01*
X59690000Y-82550000D02*
X54610000Y-77470000D01*
X53340000Y-78740000D02*
X53340000Y-79375000D01*
X59690000Y-87630000D02*
X53340000Y-81280000D01*
X60325000Y-76835000D02*
X60325000Y-90805000D01*
X59690000Y-83820000D02*
X53340000Y-77470000D01*
X53340000Y-81280000D02*
X53340000Y-81915000D01*
X53340000Y-83185000D02*
X59690000Y-89535000D01*
X53340000Y-83820000D02*
X53340000Y-84455000D01*
X53340000Y-81915000D02*
X59690000Y-88265000D01*
X54610000Y-77470000D02*
X53975000Y-77470000D01*
X53340000Y-77470000D02*
X53340000Y-78105000D01*
X52705000Y-76835000D02*
X60325000Y-76835000D01*
X59055000Y-77470000D02*
X59690000Y-78105000D01*
X53340000Y-84455000D02*
X59055000Y-90170000D01*
X53340000Y-85725000D02*
X57785000Y-90170000D01*
X58420000Y-90170000D02*
X53340000Y-85090000D01*
X59690000Y-81280000D02*
X55880000Y-77470000D01*
X54610000Y-90170000D02*
X53340000Y-88900000D01*
X59690000Y-78105000D02*
X59690000Y-78740000D01*
X55245000Y-90170000D02*
X54610000Y-90170000D01*
X53340000Y-87630000D02*
X53340000Y-88265000D01*
X53975000Y-90170000D02*
X53340000Y-90170000D01*
X53340000Y-80010000D02*
X53340000Y-80645000D01*
X59690000Y-79375000D02*
X59690000Y-80010000D01*
X59690000Y-78740000D02*
X58420000Y-77470000D01*
X59690000Y-89535000D02*
X59690000Y-90170000D01*
X58420000Y-77470000D02*
X57785000Y-77470000D01*
X53340000Y-78105000D02*
X59690000Y-84455000D01*
X55880000Y-90170000D02*
X53340000Y-87630000D01*
X56515000Y-90170000D02*
X55880000Y-90170000D01*
X59690000Y-86995000D02*
X59690000Y-87630000D01*
X52705000Y-90805000D02*
X52705000Y-76835000D01*
X59690000Y-81915000D02*
X59690000Y-82550000D01*
X53340000Y-79375000D02*
X59690000Y-85725000D01*
X57785000Y-77470000D02*
X59690000Y-79375000D01*
X59690000Y-88900000D02*
X53340000Y-82550000D01*
X53340000Y-80645000D02*
X59690000Y-86995000D01*
X59690000Y-77470000D02*
X59055000Y-77470000D01*
X53340000Y-86360000D02*
X53340000Y-86995000D01*
X53340000Y-88900000D02*
X53340000Y-89535000D01*
X59690000Y-90170000D02*
X53340000Y-83820000D01*
X55880000Y-77470000D02*
X55245000Y-77470000D01*
X59690000Y-88265000D02*
X59690000Y-88900000D01*
X53340000Y-89535000D02*
X53975000Y-90170000D01*
X59690000Y-84455000D02*
X59690000Y-85090000D01*
X53340000Y-85090000D02*
X53340000Y-85725000D01*
X53340000Y-82550000D02*
X53340000Y-83185000D01*
X59055000Y-90170000D02*
X58420000Y-90170000D01*
X59690000Y-85090000D02*
X53340000Y-78740000D01*
X53340000Y-86995000D02*
X56515000Y-90170000D01*
X60325000Y-160655000D02*
X52705000Y-160655000D01*
X53340000Y-158115000D02*
X55245000Y-160020000D01*
X59690000Y-149860000D02*
X57150000Y-147320000D01*
X55245000Y-147320000D02*
X59690000Y-151765000D01*
X57785000Y-160020000D02*
X57150000Y-160020000D01*
X59690000Y-150495000D02*
X59690000Y-151130000D01*
X57150000Y-147320000D02*
X56515000Y-147320000D01*
X59690000Y-156210000D02*
X53340000Y-149860000D01*
X53975000Y-147320000D02*
X59690000Y-153035000D01*
X57150000Y-160020000D02*
X53340000Y-156210000D01*
X56515000Y-147320000D02*
X59690000Y-150495000D01*
X59690000Y-153035000D02*
X59690000Y-153670000D01*
X59690000Y-155575000D02*
X59690000Y-156210000D01*
X59690000Y-152400000D02*
X54610000Y-147320000D01*
X53340000Y-148590000D02*
X53340000Y-149225000D01*
X59690000Y-157480000D02*
X53340000Y-151130000D01*
X60325000Y-146685000D02*
X60325000Y-160655000D01*
X59690000Y-153670000D02*
X53340000Y-147320000D01*
X53340000Y-151130000D02*
X53340000Y-151765000D01*
X53340000Y-153035000D02*
X59690000Y-159385000D01*
X53340000Y-153670000D02*
X53340000Y-154305000D01*
X53340000Y-151765000D02*
X59690000Y-158115000D01*
X54610000Y-147320000D02*
X53975000Y-147320000D01*
X53340000Y-147320000D02*
X53340000Y-147955000D01*
X52705000Y-146685000D02*
X60325000Y-146685000D01*
X59055000Y-147320000D02*
X59690000Y-147955000D01*
X53340000Y-154305000D02*
X59055000Y-160020000D01*
X53340000Y-155575000D02*
X57785000Y-160020000D01*
X58420000Y-160020000D02*
X53340000Y-154940000D01*
X59690000Y-151130000D02*
X55880000Y-147320000D01*
X54610000Y-160020000D02*
X53340000Y-158750000D01*
X59690000Y-147955000D02*
X59690000Y-148590000D01*
X55245000Y-160020000D02*
X54610000Y-160020000D01*
X53340000Y-157480000D02*
X53340000Y-158115000D01*
X53975000Y-160020000D02*
X53340000Y-160020000D01*
X53340000Y-149860000D02*
X53340000Y-150495000D01*
X59690000Y-149225000D02*
X59690000Y-149860000D01*
X59690000Y-148590000D02*
X58420000Y-147320000D01*
X59690000Y-159385000D02*
X59690000Y-160020000D01*
X58420000Y-147320000D02*
X57785000Y-147320000D01*
X53340000Y-147955000D02*
X59690000Y-154305000D01*
X55880000Y-160020000D02*
X53340000Y-157480000D01*
X56515000Y-160020000D02*
X55880000Y-160020000D01*
X59690000Y-156845000D02*
X59690000Y-157480000D01*
X52705000Y-160655000D02*
X52705000Y-146685000D01*
X59690000Y-151765000D02*
X59690000Y-152400000D01*
X53340000Y-149225000D02*
X59690000Y-155575000D01*
X57785000Y-147320000D02*
X59690000Y-149225000D01*
X59690000Y-158750000D02*
X53340000Y-152400000D01*
X53340000Y-150495000D02*
X59690000Y-156845000D01*
X59690000Y-147320000D02*
X59055000Y-147320000D01*
X53340000Y-156210000D02*
X53340000Y-156845000D01*
X53340000Y-158750000D02*
X53340000Y-159385000D01*
X59690000Y-160020000D02*
X53340000Y-153670000D01*
X55880000Y-147320000D02*
X55245000Y-147320000D01*
X59690000Y-158115000D02*
X59690000Y-158750000D01*
X53340000Y-159385000D02*
X53975000Y-160020000D01*
X59690000Y-154305000D02*
X59690000Y-154940000D01*
X53340000Y-154940000D02*
X53340000Y-155575000D01*
X53340000Y-152400000D02*
X53340000Y-153035000D01*
X59055000Y-160020000D02*
X58420000Y-160020000D01*
X59690000Y-154940000D02*
X53340000Y-148590000D01*
X53340000Y-156845000D02*
X56515000Y-160020000D01*
X74255000Y-129660000D02*
X84495000Y-129660000D01*
X74255000Y-113770000D02*
X84495000Y-113770000D01*
X74255000Y-113770000D02*
X74255000Y-129660000D01*
X84495000Y-113770000D02*
X84495000Y-129660000D01*
X76835000Y-129660000D02*
X76835000Y-132200000D01*
X79375000Y-129660000D02*
X79375000Y-132200000D01*
X81915000Y-129660000D02*
X81915000Y-132200000D01*
X85725000Y-123190000D02*
X84455000Y-123190000D01*
X84455000Y-123190000D02*
X85725000Y-123190000D01*
X85725000Y-123190000D02*
X85725000Y-113030000D01*
X85725000Y-113030000D02*
X73025000Y-113030000D01*
X73025000Y-113030000D02*
X73025000Y-123190000D01*
X73025000Y-123190000D02*
X74295000Y-123190000D01*
X127100000Y-84455000D02*
X127100000Y-152155000D01*
X142100000Y-84455000D02*
X142100000Y-152155000D01*
X140930000Y-150885000D02*
X129500000Y-150885000D01*
X128230000Y-150885000D02*
X128230000Y-153425000D01*
X127100000Y-152155000D02*
X128200000Y-152155000D01*
X141000000Y-152155000D02*
X142100000Y-152155000D01*
X131900000Y-156855000D02*
G75*
G03X131900000Y-156855000I-1600000J0D01*
G01*
X128230000Y-153425000D02*
X140930000Y-153425000D01*
X140500000Y-156855000D02*
G75*
G03X140500000Y-156855000I-1600000J0D01*
G01*
X127100000Y-159655000D02*
X135500000Y-159655000D01*
X142100000Y-152155000D02*
X142100000Y-159655000D01*
X142100000Y-159655000D02*
X135500000Y-159655000D01*
X127100000Y-152155000D02*
X127100000Y-159655000D01*
X129500000Y-150885000D02*
X128230000Y-150885000D01*
X140930000Y-153425000D02*
X140930000Y-150885000D01*
X131900000Y-79755000D02*
G75*
G03X131900000Y-79755000I-1600000J0D01*
G01*
X140500000Y-79755000D02*
G75*
G03X140500000Y-79755000I-1600000J0D01*
G01*
X127100000Y-76955000D02*
X133700000Y-76955000D01*
X127100000Y-84455000D02*
X127100000Y-76955000D01*
X128200000Y-84455000D02*
X127100000Y-84455000D01*
X142100000Y-84455000D02*
X141000000Y-84455000D01*
X142100000Y-76955000D02*
X133700000Y-76955000D01*
X142100000Y-84455000D02*
X142100000Y-76955000D01*
X128270000Y-85725000D02*
X139700000Y-85725000D01*
X128270000Y-83185000D02*
X128270000Y-85725000D01*
X140970000Y-83185000D02*
X128270000Y-83185000D01*
X140970000Y-85725000D02*
X140970000Y-83185000D01*
X139700000Y-85725000D02*
X140970000Y-85725000D01*
X143610000Y-84455000D02*
X143610000Y-152155000D01*
X158610000Y-84455000D02*
X158610000Y-152155000D01*
X157440000Y-150885000D02*
X146010000Y-150885000D01*
X144740000Y-150885000D02*
X144740000Y-153425000D01*
X143610000Y-152155000D02*
X144710000Y-152155000D01*
X157510000Y-152155000D02*
X158610000Y-152155000D01*
X148410000Y-156855000D02*
G75*
G03X148410000Y-156855000I-1600000J0D01*
G01*
X144740000Y-153425000D02*
X157440000Y-153425000D01*
X157010000Y-156855000D02*
G75*
G03X157010000Y-156855000I-1600000J0D01*
G01*
X143610000Y-159655000D02*
X152010000Y-159655000D01*
X158610000Y-152155000D02*
X158610000Y-159655000D01*
X158610000Y-159655000D02*
X152010000Y-159655000D01*
X143610000Y-152155000D02*
X143610000Y-159655000D01*
X146010000Y-150885000D02*
X144740000Y-150885000D01*
X157440000Y-153425000D02*
X157440000Y-150885000D01*
X148410000Y-79755000D02*
G75*
G03X148410000Y-79755000I-1600000J0D01*
G01*
X157010000Y-79755000D02*
G75*
G03X157010000Y-79755000I-1600000J0D01*
G01*
X143610000Y-76955000D02*
X150210000Y-76955000D01*
X143610000Y-84455000D02*
X143610000Y-76955000D01*
X144710000Y-84455000D02*
X143610000Y-84455000D01*
X158610000Y-84455000D02*
X157510000Y-84455000D01*
X158610000Y-76955000D02*
X150210000Y-76955000D01*
X158610000Y-84455000D02*
X158610000Y-76955000D01*
X144780000Y-85725000D02*
X156210000Y-85725000D01*
X144780000Y-83185000D02*
X144780000Y-85725000D01*
X157480000Y-83185000D02*
X144780000Y-83185000D01*
X157480000Y-85725000D02*
X157480000Y-83185000D01*
X156210000Y-85725000D02*
X157480000Y-85725000D01*
X113030000Y-133350000D02*
X121920000Y-133350000D01*
X95250000Y-133350000D02*
X105410000Y-133350000D01*
X105410000Y-128270000D02*
X109220000Y-128270000D01*
X105410000Y-128270000D02*
X105410000Y-133985000D01*
X109220000Y-133985000D02*
X105410000Y-133985000D01*
X113030000Y-133985000D02*
X109220000Y-133985000D01*
X113030000Y-128270000D02*
X113030000Y-133985000D01*
X109220000Y-128270000D02*
X113030000Y-128270000D01*
X116840000Y-85725000D02*
X116840000Y-103505000D01*
X116840000Y-103505000D02*
X109220000Y-103505000D01*
X109220000Y-103505000D02*
X101600000Y-103505000D01*
X116840000Y-85725000D02*
X109220000Y-85725000D01*
X101600000Y-94615000D02*
X101600000Y-103505000D01*
X101600000Y-85725000D02*
X101600000Y-94615000D01*
X109220000Y-85725000D02*
X101600000Y-85725000D01*
X120650000Y-85090000D02*
X120650000Y-133350000D01*
X97790000Y-133350000D02*
X97790000Y-85090000D01*
X95250000Y-85090000D02*
X95250000Y-133350000D01*
X123190000Y-85090000D02*
X95250000Y-85090000D01*
X123190000Y-133350000D02*
X123190000Y-85090000D01*
X121920000Y-133350000D02*
X123190000Y-133350000D01*
X95250000Y-132715000D02*
X95250000Y-85725000D01*
X121285000Y-85725000D02*
X122555000Y-85725000D01*
X60325000Y-123190000D02*
X60325000Y-92710000D01*
X52705000Y-123190000D02*
X52705000Y-92710000D01*
X59055000Y-123190000D02*
X59055000Y-92710000D01*
X60325000Y-92710000D02*
X52705000Y-92710000D01*
X52705000Y-123190000D02*
X60325000Y-123190000D01*
X79310000Y-86790000D02*
X79310000Y-89940000D01*
X79310000Y-80940000D02*
X79310000Y-84090000D01*
X84420000Y-84440000D02*
X84420000Y-86440000D01*
X78710000Y-85090000D02*
X78710000Y-85790000D01*
X79910000Y-85090000D02*
X78710000Y-85090000D01*
X79910000Y-85790000D02*
X79910000Y-85090000D01*
X78710000Y-85790000D02*
X79910000Y-85790000D01*
X79110000Y-85090000D02*
X79510000Y-85790000D01*
X61460000Y-77090000D02*
X61460000Y-93790000D01*
X84160000Y-77090000D02*
X61460000Y-77090000D01*
X84160000Y-93790000D02*
X84160000Y-77090000D01*
X61460000Y-93790000D02*
X84160000Y-93790000D01*
X79310000Y-105140000D02*
X79310000Y-108290000D01*
X79310000Y-99290000D02*
X79310000Y-102440000D01*
X84420000Y-102790000D02*
X84420000Y-104790000D01*
X78710000Y-103440000D02*
X78710000Y-104140000D01*
X79910000Y-103440000D02*
X78710000Y-103440000D01*
X79910000Y-104140000D02*
X79910000Y-103440000D01*
X78710000Y-104140000D02*
X79910000Y-104140000D01*
X79110000Y-103440000D02*
X79510000Y-104140000D01*
X61460000Y-95440000D02*
X61460000Y-112140000D01*
X84160000Y-95440000D02*
X61460000Y-95440000D01*
X84160000Y-112140000D02*
X84160000Y-95440000D01*
X61460000Y-112140000D02*
X84160000Y-112140000D01*
X92710000Y-96040000D02*
X92710000Y-95270000D01*
X92710000Y-87960000D02*
X92710000Y-88730000D01*
X94080000Y-95270000D02*
X94080000Y-88730000D01*
X91340000Y-95270000D02*
X94080000Y-95270000D01*
X91340000Y-88730000D02*
X91340000Y-95270000D01*
X94080000Y-88730000D02*
X91340000Y-88730000D01*
X65370000Y-129975000D02*
X65370000Y-132915000D01*
X65610000Y-129975000D02*
X65610000Y-132915000D01*
X65490000Y-129975000D02*
X65490000Y-132915000D01*
X71050000Y-131445000D02*
X70030000Y-131445000D01*
X63570000Y-131445000D02*
X64590000Y-131445000D01*
X70030000Y-129975000D02*
X64590000Y-129975000D01*
X70030000Y-132915000D02*
X70030000Y-129975000D01*
X64590000Y-132915000D02*
X70030000Y-132915000D01*
X64590000Y-129975000D02*
X64590000Y-132915000D01*
X102900241Y-140584000D02*
X102900241Y-139954000D01*
X103215241Y-140269000D02*
X102585241Y-140269000D01*
X96474000Y-138832000D02*
X96474000Y-138028000D01*
X96514000Y-139063000D02*
X96514000Y-137797000D01*
X96554000Y-139232000D02*
X96554000Y-137628000D01*
X96594000Y-139370000D02*
X96594000Y-137490000D01*
X96634000Y-139489000D02*
X96634000Y-137371000D01*
X96674000Y-139595000D02*
X96674000Y-137265000D01*
X96714000Y-139692000D02*
X96714000Y-137168000D01*
X96754000Y-139780000D02*
X96754000Y-137080000D01*
X96794000Y-139862000D02*
X96794000Y-136998000D01*
X96834000Y-139939000D02*
X96834000Y-136921000D01*
X96874000Y-140011000D02*
X96874000Y-136849000D01*
X96914000Y-140080000D02*
X96914000Y-136780000D01*
X96954000Y-140144000D02*
X96954000Y-136716000D01*
X96994000Y-140206000D02*
X96994000Y-136654000D01*
X97034000Y-140264000D02*
X97034000Y-136596000D01*
X97074000Y-140320000D02*
X97074000Y-136540000D01*
X97114000Y-140374000D02*
X97114000Y-136486000D01*
X97154000Y-140425000D02*
X97154000Y-136435000D01*
X97194000Y-140474000D02*
X97194000Y-136386000D01*
X97234000Y-140522000D02*
X97234000Y-136338000D01*
X97274000Y-140567000D02*
X97274000Y-136293000D01*
X97314000Y-140612000D02*
X97314000Y-136248000D01*
X97354000Y-140654000D02*
X97354000Y-136206000D01*
X97394000Y-140695000D02*
X97394000Y-136165000D01*
X97434000Y-137390000D02*
X97434000Y-136125000D01*
X97434000Y-140735000D02*
X97434000Y-139470000D01*
X97474000Y-137390000D02*
X97474000Y-136087000D01*
X97474000Y-140773000D02*
X97474000Y-139470000D01*
X97514000Y-137390000D02*
X97514000Y-136050000D01*
X97514000Y-140810000D02*
X97514000Y-139470000D01*
X97554000Y-137390000D02*
X97554000Y-136014000D01*
X97554000Y-140846000D02*
X97554000Y-139470000D01*
X97594000Y-137390000D02*
X97594000Y-135980000D01*
X97594000Y-140880000D02*
X97594000Y-139470000D01*
X97634000Y-137390000D02*
X97634000Y-135946000D01*
X97634000Y-140914000D02*
X97634000Y-139470000D01*
X97674000Y-137390000D02*
X97674000Y-135914000D01*
X97674000Y-140946000D02*
X97674000Y-139470000D01*
X97714000Y-137390000D02*
X97714000Y-135882000D01*
X97714000Y-140978000D02*
X97714000Y-139470000D01*
X97754000Y-137390000D02*
X97754000Y-135852000D01*
X97754000Y-141008000D02*
X97754000Y-139470000D01*
X97794000Y-137390000D02*
X97794000Y-135823000D01*
X97794000Y-141037000D02*
X97794000Y-139470000D01*
X97834000Y-137390000D02*
X97834000Y-135794000D01*
X97834000Y-141066000D02*
X97834000Y-139470000D01*
X97874000Y-137390000D02*
X97874000Y-135766000D01*
X97874000Y-141094000D02*
X97874000Y-139470000D01*
X97914000Y-137390000D02*
X97914000Y-135740000D01*
X97914000Y-141120000D02*
X97914000Y-139470000D01*
X97954000Y-137390000D02*
X97954000Y-135714000D01*
X97954000Y-141146000D02*
X97954000Y-139470000D01*
X97994000Y-137390000D02*
X97994000Y-135688000D01*
X97994000Y-141172000D02*
X97994000Y-139470000D01*
X98034000Y-137390000D02*
X98034000Y-135664000D01*
X98034000Y-141196000D02*
X98034000Y-139470000D01*
X98074000Y-137390000D02*
X98074000Y-135640000D01*
X98074000Y-141220000D02*
X98074000Y-139470000D01*
X98114000Y-137390000D02*
X98114000Y-135618000D01*
X98114000Y-141242000D02*
X98114000Y-139470000D01*
X98154000Y-137390000D02*
X98154000Y-135596000D01*
X98154000Y-141264000D02*
X98154000Y-139470000D01*
X98194000Y-137390000D02*
X98194000Y-135574000D01*
X98194000Y-141286000D02*
X98194000Y-139470000D01*
X98234000Y-137390000D02*
X98234000Y-135554000D01*
X98234000Y-141306000D02*
X98234000Y-139470000D01*
X98274000Y-137390000D02*
X98274000Y-135534000D01*
X98274000Y-141326000D02*
X98274000Y-139470000D01*
X98314000Y-137390000D02*
X98314000Y-135514000D01*
X98314000Y-141346000D02*
X98314000Y-139470000D01*
X98354000Y-137390000D02*
X98354000Y-135496000D01*
X98354000Y-141364000D02*
X98354000Y-139470000D01*
X98394000Y-137390000D02*
X98394000Y-135478000D01*
X98394000Y-141382000D02*
X98394000Y-139470000D01*
X98434000Y-137390000D02*
X98434000Y-135460000D01*
X98434000Y-141400000D02*
X98434000Y-139470000D01*
X98474000Y-137390000D02*
X98474000Y-135444000D01*
X98474000Y-141416000D02*
X98474000Y-139470000D01*
X98514000Y-137390000D02*
X98514000Y-135428000D01*
X98514000Y-141432000D02*
X98514000Y-139470000D01*
X98554000Y-137390000D02*
X98554000Y-135412000D01*
X98554000Y-141448000D02*
X98554000Y-139470000D01*
X98594000Y-137390000D02*
X98594000Y-135397000D01*
X98594000Y-141463000D02*
X98594000Y-139470000D01*
X98634000Y-137390000D02*
X98634000Y-135383000D01*
X98634000Y-141477000D02*
X98634000Y-139470000D01*
X98674000Y-137390000D02*
X98674000Y-135369000D01*
X98674000Y-141491000D02*
X98674000Y-139470000D01*
X98714000Y-137390000D02*
X98714000Y-135356000D01*
X98714000Y-141504000D02*
X98714000Y-139470000D01*
X98754000Y-137390000D02*
X98754000Y-135344000D01*
X98754000Y-141516000D02*
X98754000Y-139470000D01*
X98794000Y-137390000D02*
X98794000Y-135332000D01*
X98794000Y-141528000D02*
X98794000Y-139470000D01*
X98834000Y-137390000D02*
X98834000Y-135320000D01*
X98834000Y-141540000D02*
X98834000Y-139470000D01*
X98874000Y-137390000D02*
X98874000Y-135309000D01*
X98874000Y-141551000D02*
X98874000Y-139470000D01*
X98914000Y-137390000D02*
X98914000Y-135299000D01*
X98914000Y-141561000D02*
X98914000Y-139470000D01*
X98954000Y-137390000D02*
X98954000Y-135289000D01*
X98954000Y-141571000D02*
X98954000Y-139470000D01*
X98994000Y-137390000D02*
X98994000Y-135280000D01*
X98994000Y-141580000D02*
X98994000Y-139470000D01*
X99035000Y-137390000D02*
X99035000Y-135271000D01*
X99035000Y-141589000D02*
X99035000Y-139470000D01*
X99075000Y-137390000D02*
X99075000Y-135263000D01*
X99075000Y-141597000D02*
X99075000Y-139470000D01*
X99115000Y-137390000D02*
X99115000Y-135255000D01*
X99115000Y-141605000D02*
X99115000Y-139470000D01*
X99155000Y-137390000D02*
X99155000Y-135248000D01*
X99155000Y-141612000D02*
X99155000Y-139470000D01*
X99195000Y-137390000D02*
X99195000Y-135241000D01*
X99195000Y-141619000D02*
X99195000Y-139470000D01*
X99235000Y-137390000D02*
X99235000Y-135235000D01*
X99235000Y-141625000D02*
X99235000Y-139470000D01*
X99275000Y-137390000D02*
X99275000Y-135229000D01*
X99275000Y-141631000D02*
X99275000Y-139470000D01*
X99315000Y-137390000D02*
X99315000Y-135224000D01*
X99315000Y-141636000D02*
X99315000Y-139470000D01*
X99355000Y-137390000D02*
X99355000Y-135219000D01*
X99355000Y-141641000D02*
X99355000Y-139470000D01*
X99395000Y-137390000D02*
X99395000Y-135215000D01*
X99395000Y-141645000D02*
X99395000Y-139470000D01*
X99435000Y-137390000D02*
X99435000Y-135212000D01*
X99435000Y-141648000D02*
X99435000Y-139470000D01*
X99475000Y-137390000D02*
X99475000Y-135208000D01*
X99475000Y-141652000D02*
X99475000Y-139470000D01*
X99515000Y-141654000D02*
X99515000Y-135206000D01*
X99555000Y-141657000D02*
X99555000Y-135203000D01*
X99595000Y-141658000D02*
X99595000Y-135202000D01*
X99635000Y-141660000D02*
X99635000Y-135200000D01*
X99675000Y-141660000D02*
X99675000Y-135200000D01*
X99715000Y-141660000D02*
X99715000Y-135200000D01*
X102985000Y-138430000D02*
G75*
G03X102985000Y-138430000I-3270000J0D01*
G01*
X68610241Y-139314000D02*
X68610241Y-138684000D01*
X68925241Y-138999000D02*
X68295241Y-138999000D01*
X62184000Y-137562000D02*
X62184000Y-136758000D01*
X62224000Y-137793000D02*
X62224000Y-136527000D01*
X62264000Y-137962000D02*
X62264000Y-136358000D01*
X62304000Y-138100000D02*
X62304000Y-136220000D01*
X62344000Y-138219000D02*
X62344000Y-136101000D01*
X62384000Y-138325000D02*
X62384000Y-135995000D01*
X62424000Y-138422000D02*
X62424000Y-135898000D01*
X62464000Y-138510000D02*
X62464000Y-135810000D01*
X62504000Y-138592000D02*
X62504000Y-135728000D01*
X62544000Y-138669000D02*
X62544000Y-135651000D01*
X62584000Y-138741000D02*
X62584000Y-135579000D01*
X62624000Y-138810000D02*
X62624000Y-135510000D01*
X62664000Y-138874000D02*
X62664000Y-135446000D01*
X62704000Y-138936000D02*
X62704000Y-135384000D01*
X62744000Y-138994000D02*
X62744000Y-135326000D01*
X62784000Y-139050000D02*
X62784000Y-135270000D01*
X62824000Y-139104000D02*
X62824000Y-135216000D01*
X62864000Y-139155000D02*
X62864000Y-135165000D01*
X62904000Y-139204000D02*
X62904000Y-135116000D01*
X62944000Y-139252000D02*
X62944000Y-135068000D01*
X62984000Y-139297000D02*
X62984000Y-135023000D01*
X63024000Y-139342000D02*
X63024000Y-134978000D01*
X63064000Y-139384000D02*
X63064000Y-134936000D01*
X63104000Y-139425000D02*
X63104000Y-134895000D01*
X63144000Y-136120000D02*
X63144000Y-134855000D01*
X63144000Y-139465000D02*
X63144000Y-138200000D01*
X63184000Y-136120000D02*
X63184000Y-134817000D01*
X63184000Y-139503000D02*
X63184000Y-138200000D01*
X63224000Y-136120000D02*
X63224000Y-134780000D01*
X63224000Y-139540000D02*
X63224000Y-138200000D01*
X63264000Y-136120000D02*
X63264000Y-134744000D01*
X63264000Y-139576000D02*
X63264000Y-138200000D01*
X63304000Y-136120000D02*
X63304000Y-134710000D01*
X63304000Y-139610000D02*
X63304000Y-138200000D01*
X63344000Y-136120000D02*
X63344000Y-134676000D01*
X63344000Y-139644000D02*
X63344000Y-138200000D01*
X63384000Y-136120000D02*
X63384000Y-134644000D01*
X63384000Y-139676000D02*
X63384000Y-138200000D01*
X63424000Y-136120000D02*
X63424000Y-134612000D01*
X63424000Y-139708000D02*
X63424000Y-138200000D01*
X63464000Y-136120000D02*
X63464000Y-134582000D01*
X63464000Y-139738000D02*
X63464000Y-138200000D01*
X63504000Y-136120000D02*
X63504000Y-134553000D01*
X63504000Y-139767000D02*
X63504000Y-138200000D01*
X63544000Y-136120000D02*
X63544000Y-134524000D01*
X63544000Y-139796000D02*
X63544000Y-138200000D01*
X63584000Y-136120000D02*
X63584000Y-134496000D01*
X63584000Y-139824000D02*
X63584000Y-138200000D01*
X63624000Y-136120000D02*
X63624000Y-134470000D01*
X63624000Y-139850000D02*
X63624000Y-138200000D01*
X63664000Y-136120000D02*
X63664000Y-134444000D01*
X63664000Y-139876000D02*
X63664000Y-138200000D01*
X63704000Y-136120000D02*
X63704000Y-134418000D01*
X63704000Y-139902000D02*
X63704000Y-138200000D01*
X63744000Y-136120000D02*
X63744000Y-134394000D01*
X63744000Y-139926000D02*
X63744000Y-138200000D01*
X63784000Y-136120000D02*
X63784000Y-134370000D01*
X63784000Y-139950000D02*
X63784000Y-138200000D01*
X63824000Y-136120000D02*
X63824000Y-134348000D01*
X63824000Y-139972000D02*
X63824000Y-138200000D01*
X63864000Y-136120000D02*
X63864000Y-134326000D01*
X63864000Y-139994000D02*
X63864000Y-138200000D01*
X63904000Y-136120000D02*
X63904000Y-134304000D01*
X63904000Y-140016000D02*
X63904000Y-138200000D01*
X63944000Y-136120000D02*
X63944000Y-134284000D01*
X63944000Y-140036000D02*
X63944000Y-138200000D01*
X63984000Y-136120000D02*
X63984000Y-134264000D01*
X63984000Y-140056000D02*
X63984000Y-138200000D01*
X64024000Y-136120000D02*
X64024000Y-134244000D01*
X64024000Y-140076000D02*
X64024000Y-138200000D01*
X64064000Y-136120000D02*
X64064000Y-134226000D01*
X64064000Y-140094000D02*
X64064000Y-138200000D01*
X64104000Y-136120000D02*
X64104000Y-134208000D01*
X64104000Y-140112000D02*
X64104000Y-138200000D01*
X64144000Y-136120000D02*
X64144000Y-134190000D01*
X64144000Y-140130000D02*
X64144000Y-138200000D01*
X64184000Y-136120000D02*
X64184000Y-134174000D01*
X64184000Y-140146000D02*
X64184000Y-138200000D01*
X64224000Y-136120000D02*
X64224000Y-134158000D01*
X64224000Y-140162000D02*
X64224000Y-138200000D01*
X64264000Y-136120000D02*
X64264000Y-134142000D01*
X64264000Y-140178000D02*
X64264000Y-138200000D01*
X64304000Y-136120000D02*
X64304000Y-134127000D01*
X64304000Y-140193000D02*
X64304000Y-138200000D01*
X64344000Y-136120000D02*
X64344000Y-134113000D01*
X64344000Y-140207000D02*
X64344000Y-138200000D01*
X64384000Y-136120000D02*
X64384000Y-134099000D01*
X64384000Y-140221000D02*
X64384000Y-138200000D01*
X64424000Y-136120000D02*
X64424000Y-134086000D01*
X64424000Y-140234000D02*
X64424000Y-138200000D01*
X64464000Y-136120000D02*
X64464000Y-134074000D01*
X64464000Y-140246000D02*
X64464000Y-138200000D01*
X64504000Y-136120000D02*
X64504000Y-134062000D01*
X64504000Y-140258000D02*
X64504000Y-138200000D01*
X64544000Y-136120000D02*
X64544000Y-134050000D01*
X64544000Y-140270000D02*
X64544000Y-138200000D01*
X64584000Y-136120000D02*
X64584000Y-134039000D01*
X64584000Y-140281000D02*
X64584000Y-138200000D01*
X64624000Y-136120000D02*
X64624000Y-134029000D01*
X64624000Y-140291000D02*
X64624000Y-138200000D01*
X64664000Y-136120000D02*
X64664000Y-134019000D01*
X64664000Y-140301000D02*
X64664000Y-138200000D01*
X64704000Y-136120000D02*
X64704000Y-134010000D01*
X64704000Y-140310000D02*
X64704000Y-138200000D01*
X64745000Y-136120000D02*
X64745000Y-134001000D01*
X64745000Y-140319000D02*
X64745000Y-138200000D01*
X64785000Y-136120000D02*
X64785000Y-133993000D01*
X64785000Y-140327000D02*
X64785000Y-138200000D01*
X64825000Y-136120000D02*
X64825000Y-133985000D01*
X64825000Y-140335000D02*
X64825000Y-138200000D01*
X64865000Y-136120000D02*
X64865000Y-133978000D01*
X64865000Y-140342000D02*
X64865000Y-138200000D01*
X64905000Y-136120000D02*
X64905000Y-133971000D01*
X64905000Y-140349000D02*
X64905000Y-138200000D01*
X64945000Y-136120000D02*
X64945000Y-133965000D01*
X64945000Y-140355000D02*
X64945000Y-138200000D01*
X64985000Y-136120000D02*
X64985000Y-133959000D01*
X64985000Y-140361000D02*
X64985000Y-138200000D01*
X65025000Y-136120000D02*
X65025000Y-133954000D01*
X65025000Y-140366000D02*
X65025000Y-138200000D01*
X65065000Y-136120000D02*
X65065000Y-133949000D01*
X65065000Y-140371000D02*
X65065000Y-138200000D01*
X65105000Y-136120000D02*
X65105000Y-133945000D01*
X65105000Y-140375000D02*
X65105000Y-138200000D01*
X65145000Y-136120000D02*
X65145000Y-133942000D01*
X65145000Y-140378000D02*
X65145000Y-138200000D01*
X65185000Y-136120000D02*
X65185000Y-133938000D01*
X65185000Y-140382000D02*
X65185000Y-138200000D01*
X65225000Y-140384000D02*
X65225000Y-133936000D01*
X65265000Y-140387000D02*
X65265000Y-133933000D01*
X65305000Y-140388000D02*
X65305000Y-133932000D01*
X65345000Y-140390000D02*
X65345000Y-133930000D01*
X65385000Y-140390000D02*
X65385000Y-133930000D01*
X65425000Y-140390000D02*
X65425000Y-133930000D01*
X68695000Y-137160000D02*
G75*
G03X68695000Y-137160000I-3270000J0D01*
G01*
X107950000Y-125360000D02*
X107950000Y-124590000D01*
X107950000Y-117280000D02*
X107950000Y-118050000D01*
X109320000Y-124590000D02*
X109320000Y-118050000D01*
X106580000Y-124590000D02*
X109320000Y-124590000D01*
X106580000Y-118050000D02*
X106580000Y-124590000D01*
X109320000Y-118050000D02*
X106580000Y-118050000D01*
X104140000Y-122820000D02*
X104140000Y-122050000D01*
X104140000Y-114740000D02*
X104140000Y-115510000D01*
X105510000Y-122050000D02*
X105510000Y-115510000D01*
X102770000Y-122050000D02*
X105510000Y-122050000D01*
X102770000Y-115510000D02*
X102770000Y-122050000D01*
X105510000Y-115510000D02*
X102770000Y-115510000D01*
X100330000Y-120280000D02*
X100330000Y-119510000D01*
X100330000Y-112200000D02*
X100330000Y-112970000D01*
X101700000Y-119510000D02*
X101700000Y-112970000D01*
X98960000Y-119510000D02*
X101700000Y-119510000D01*
X98960000Y-112970000D02*
X98960000Y-119510000D01*
X101700000Y-112970000D02*
X98960000Y-112970000D01*
X83185000Y-141975000D02*
X83185000Y-142745000D01*
X83185000Y-150055000D02*
X83185000Y-149285000D01*
X81815000Y-142745000D02*
X81815000Y-149285000D01*
X84555000Y-142745000D02*
X81815000Y-142745000D01*
X84555000Y-149285000D02*
X84555000Y-142745000D01*
X81815000Y-149285000D02*
X84555000Y-149285000D01*
X111760000Y-134250000D02*
X111760000Y-133480000D01*
X111760000Y-126170000D02*
X111760000Y-126940000D01*
X113130000Y-133480000D02*
X113130000Y-126940000D01*
X110390000Y-133480000D02*
X113130000Y-133480000D01*
X110390000Y-126940000D02*
X110390000Y-133480000D01*
X113130000Y-126940000D02*
X110390000Y-126940000D01*
X92710000Y-99540000D02*
X92710000Y-100310000D01*
X92710000Y-107620000D02*
X92710000Y-106850000D01*
X91340000Y-100310000D02*
X91340000Y-106850000D01*
X94080000Y-100310000D02*
X91340000Y-100310000D01*
X94080000Y-106850000D02*
X94080000Y-100310000D01*
X91340000Y-106850000D02*
X94080000Y-106850000D01*
X100330000Y-86840000D02*
X100330000Y-87610000D01*
X100330000Y-94920000D02*
X100330000Y-94150000D01*
X98960000Y-87610000D02*
X98960000Y-94150000D01*
X101700000Y-87610000D02*
X98960000Y-87610000D01*
X101700000Y-94150000D02*
X101700000Y-87610000D01*
X98960000Y-94150000D02*
X101700000Y-94150000D01*
X104140000Y-86840000D02*
X104140000Y-87610000D01*
X104140000Y-94920000D02*
X104140000Y-94150000D01*
X102770000Y-87610000D02*
X102770000Y-94150000D01*
X105510000Y-87610000D02*
X102770000Y-87610000D01*
X105510000Y-94150000D02*
X105510000Y-87610000D01*
X102770000Y-94150000D02*
X105510000Y-94150000D01*
X63500000Y-142085000D02*
X63500000Y-142855000D01*
X63500000Y-150165000D02*
X63500000Y-149395000D01*
X62130000Y-142855000D02*
X62130000Y-149395000D01*
X64870000Y-142855000D02*
X62130000Y-142855000D01*
X64870000Y-149395000D02*
X64870000Y-142855000D01*
X62130000Y-149395000D02*
X64870000Y-149395000D01*
X67310000Y-150125000D02*
X67310000Y-149355000D01*
X67310000Y-142045000D02*
X67310000Y-142815000D01*
X68680000Y-149355000D02*
X68680000Y-142815000D01*
X65940000Y-149355000D02*
X68680000Y-149355000D01*
X65940000Y-142815000D02*
X65940000Y-149355000D01*
X68680000Y-142815000D02*
X65940000Y-142815000D01*
X85156522Y-100898478D02*
G75*
G03X89595000Y-99060000I1838478J1838478D01*
G01*
X85156522Y-97221522D02*
G75*
G02X89595000Y-99060000I1838478J-1838478D01*
G01*
X85145000Y-97260000D02*
X85145000Y-100860000D01*
X85156522Y-82483478D02*
G75*
G03X89595000Y-80645000I1838478J1838478D01*
G01*
X85156522Y-78806522D02*
G75*
G02X89595000Y-80645000I1838478J-1838478D01*
G01*
X85145000Y-78845000D02*
X85145000Y-82445000D01*
X104920000Y-132445000D02*
X102120000Y-132445000D01*
X102120000Y-132445000D02*
X102120000Y-130445000D01*
X102120000Y-130445000D02*
X104920000Y-130445000D01*
X104920000Y-130445000D02*
X104920000Y-132445000D01*
X104905000Y-129905000D02*
X102105000Y-129905000D01*
X102105000Y-129905000D02*
X102105000Y-127905000D01*
X102105000Y-127905000D02*
X104905000Y-127905000D01*
X104905000Y-127905000D02*
X104905000Y-129905000D01*
X110345000Y-118380000D02*
X113145000Y-118380000D01*
X113145000Y-118380000D02*
X113145000Y-120380000D01*
X113145000Y-120380000D02*
X110345000Y-120380000D01*
X110345000Y-120380000D02*
X110345000Y-118380000D01*
X88840000Y-127575000D02*
X90170000Y-127575000D01*
X88840000Y-128905000D02*
X88840000Y-127575000D01*
X88840000Y-130175000D02*
X91500000Y-130175000D01*
X91500000Y-130175000D02*
X91500000Y-132775000D01*
X88840000Y-130175000D02*
X88840000Y-132775000D01*
X88840000Y-132775000D02*
X91500000Y-132775000D01*
X110375000Y-120920000D02*
X113175000Y-120920000D01*
X113175000Y-120920000D02*
X113175000Y-122920000D01*
X113175000Y-122920000D02*
X110375000Y-122920000D01*
X110375000Y-122920000D02*
X110375000Y-120920000D01*
X120590000Y-140910000D02*
X121920000Y-140910000D01*
X120590000Y-142240000D02*
X120590000Y-140910000D01*
X120590000Y-143510000D02*
X123250000Y-143510000D01*
X123250000Y-143510000D02*
X123250000Y-153730000D01*
X120590000Y-143510000D02*
X120590000Y-153730000D01*
X120590000Y-153730000D02*
X123250000Y-153730000D01*
X125155000Y-78680000D02*
X125155000Y-80010000D01*
X123825000Y-78680000D02*
X125155000Y-78680000D01*
X122555000Y-78680000D02*
X122555000Y-81340000D01*
X122555000Y-81340000D02*
X109795000Y-81340000D01*
X122555000Y-78680000D02*
X109795000Y-78680000D01*
X109795000Y-78680000D02*
X109795000Y-81340000D01*
X159960000Y-96460000D02*
X161290000Y-96460000D01*
X159960000Y-97790000D02*
X159960000Y-96460000D01*
X159960000Y-99060000D02*
X162620000Y-99060000D01*
X162620000Y-99060000D02*
X162620000Y-109280000D01*
X159960000Y-99060000D02*
X159960000Y-109280000D01*
X159960000Y-109280000D02*
X162620000Y-109280000D01*
X82550000Y-152400000D02*
X62230000Y-152400000D01*
X82550000Y-160020000D02*
X62230000Y-160020000D01*
X62230000Y-153670000D02*
X82550000Y-153670000D01*
X62230000Y-152400000D02*
X62230000Y-160020000D01*
X82550000Y-160020000D02*
X82550000Y-152400000D01*
X60325000Y-144780000D02*
X60325000Y-124460000D01*
X52705000Y-144780000D02*
X52705000Y-124460000D01*
X59055000Y-124460000D02*
X59055000Y-144780000D01*
X60325000Y-124460000D02*
X52705000Y-124460000D01*
X52705000Y-144780000D02*
X60325000Y-144780000D01*
X70485000Y-125885000D02*
X70485000Y-125115000D01*
X70485000Y-117805000D02*
X70485000Y-118575000D01*
X71855000Y-125115000D02*
X71855000Y-118575000D01*
X69115000Y-125115000D02*
X71855000Y-125115000D01*
X69115000Y-118575000D02*
X69115000Y-125115000D01*
X71855000Y-118575000D02*
X69115000Y-118575000D01*
X64770000Y-125885000D02*
X64770000Y-125115000D01*
X64770000Y-117805000D02*
X64770000Y-118575000D01*
X66140000Y-125115000D02*
X66140000Y-118575000D01*
X63400000Y-125115000D02*
X66140000Y-125115000D01*
X63400000Y-118575000D02*
X63400000Y-125115000D01*
X66140000Y-118575000D02*
X63400000Y-118575000D01*
X85875000Y-108835000D02*
X88115000Y-108835000D01*
X85875000Y-108595000D02*
X88115000Y-108595000D01*
X85875000Y-108715000D02*
X88115000Y-108715000D01*
X86995000Y-104545000D02*
X86995000Y-105195000D01*
X86995000Y-110085000D02*
X86995000Y-109435000D01*
X85875000Y-105195000D02*
X85875000Y-109435000D01*
X88115000Y-105195000D02*
X85875000Y-105195000D01*
X88115000Y-109435000D02*
X88115000Y-105195000D01*
X85875000Y-109435000D02*
X88115000Y-109435000D01*
X85875000Y-90420000D02*
X88115000Y-90420000D01*
X85875000Y-90180000D02*
X88115000Y-90180000D01*
X85875000Y-90300000D02*
X88115000Y-90300000D01*
X86995000Y-86130000D02*
X86995000Y-86780000D01*
X86995000Y-91670000D02*
X86995000Y-91020000D01*
X85875000Y-86780000D02*
X85875000Y-91020000D01*
X88115000Y-86780000D02*
X85875000Y-86780000D01*
X88115000Y-91020000D02*
X88115000Y-86780000D01*
X85875000Y-91020000D02*
X88115000Y-91020000D01*
X99080000Y-81650000D02*
X99080000Y-78370000D01*
X99020000Y-80010000D02*
G75*
G03X99020000Y-80010000I-2500000J0D01*
G01*
X93480001Y-80011958D02*
G75*
G02X99080000Y-78370488I3039999J1958D01*
G01*
X93480001Y-80008042D02*
G75*
G03X99080000Y-81649512I3039999J-1958D01*
G01*
X107970000Y-81650000D02*
X107970000Y-78370000D01*
X107910000Y-80010000D02*
G75*
G03X107910000Y-80010000I-2500000J0D01*
G01*
X102370001Y-80011958D02*
G75*
G02X107970000Y-78370488I3039999J1958D01*
G01*
X102370001Y-80008042D02*
G75*
G03X107970000Y-81649512I3039999J-1958D01*
G01*
X79912502Y-144345000D02*
X79912502Y-143345000D01*
X80412502Y-143845000D02*
X79412502Y-143845000D01*
X69851856Y-141569000D02*
X69851856Y-140371000D01*
X69891856Y-141832000D02*
X69891856Y-140108000D01*
X69931856Y-142032000D02*
X69931856Y-139908000D01*
X69971856Y-142200000D02*
X69971856Y-139740000D01*
X70011856Y-142348000D02*
X70011856Y-139592000D01*
X70051856Y-142480000D02*
X70051856Y-139460000D01*
X70091856Y-142600000D02*
X70091856Y-139340000D01*
X70131856Y-142712000D02*
X70131856Y-139228000D01*
X70171856Y-142816000D02*
X70171856Y-139124000D01*
X70211856Y-142914000D02*
X70211856Y-139026000D01*
X70251856Y-143007000D02*
X70251856Y-138933000D01*
X70291856Y-143095000D02*
X70291856Y-138845000D01*
X70331856Y-143179000D02*
X70331856Y-138761000D01*
X70371856Y-143259000D02*
X70371856Y-138681000D01*
X70411856Y-143335000D02*
X70411856Y-138605000D01*
X70451856Y-143409000D02*
X70451856Y-138531000D01*
X70491856Y-143480000D02*
X70491856Y-138460000D01*
X70531856Y-143549000D02*
X70531856Y-140210000D01*
X70571856Y-143615000D02*
X70571856Y-140210000D01*
X70611856Y-143679000D02*
X70611856Y-140210000D01*
X70651856Y-143740000D02*
X70651856Y-140210000D01*
X70691856Y-143800000D02*
X70691856Y-140210000D01*
X70731856Y-143859000D02*
X70731856Y-140210000D01*
X70771856Y-143915000D02*
X70771856Y-140210000D01*
X70811856Y-143970000D02*
X70811856Y-140210000D01*
X70851856Y-144024000D02*
X70851856Y-140210000D01*
X70891856Y-144076000D02*
X70891856Y-140210000D01*
X70931856Y-144126000D02*
X70931856Y-140210000D01*
X70971856Y-144176000D02*
X70971856Y-140210000D01*
X71011856Y-137730000D02*
X71011856Y-137716000D01*
X71011856Y-144224000D02*
X71011856Y-140210000D01*
X71051856Y-137730000D02*
X71051856Y-137669000D01*
X71051856Y-144271000D02*
X71051856Y-140210000D01*
X71091856Y-137730000D02*
X71091856Y-137623000D01*
X71091856Y-144317000D02*
X71091856Y-140210000D01*
X71131856Y-137730000D02*
X71131856Y-137578000D01*
X71131856Y-144362000D02*
X71131856Y-140210000D01*
X71171856Y-137730000D02*
X71171856Y-137534000D01*
X71171856Y-144406000D02*
X71171856Y-140210000D01*
X71211856Y-137730000D02*
X71211856Y-137492000D01*
X71211856Y-144448000D02*
X71211856Y-142211000D01*
X71251856Y-137730000D02*
X71251856Y-137450000D01*
X71251856Y-144490000D02*
X71251856Y-142211000D01*
X71291856Y-137730000D02*
X71291856Y-137409000D01*
X71291856Y-144531000D02*
X71291856Y-142211000D01*
X71331856Y-137730000D02*
X71331856Y-137369000D01*
X71331856Y-144571000D02*
X71331856Y-142211000D01*
X71371856Y-137730000D02*
X71371856Y-137330000D01*
X71371856Y-144610000D02*
X71371856Y-142211000D01*
X71411856Y-137730000D02*
X71411856Y-137291000D01*
X71411856Y-144649000D02*
X71411856Y-142211000D01*
X71451856Y-137730000D02*
X71451856Y-137254000D01*
X71451856Y-144686000D02*
X71451856Y-142211000D01*
X71491856Y-137730000D02*
X71491856Y-137217000D01*
X71491856Y-144723000D02*
X71491856Y-142211000D01*
X71531856Y-137730000D02*
X71531856Y-137181000D01*
X71531856Y-144759000D02*
X71531856Y-142211000D01*
X71571856Y-137730000D02*
X71571856Y-137146000D01*
X71571856Y-144794000D02*
X71571856Y-142211000D01*
X71611856Y-137730000D02*
X71611856Y-137112000D01*
X71611856Y-144828000D02*
X71611856Y-142211000D01*
X71651856Y-137730000D02*
X71651856Y-137078000D01*
X71651856Y-144862000D02*
X71651856Y-142211000D01*
X71691856Y-137730000D02*
X71691856Y-137045000D01*
X71691856Y-144895000D02*
X71691856Y-142211000D01*
X71731856Y-137730000D02*
X71731856Y-137013000D01*
X71731856Y-144927000D02*
X71731856Y-142211000D01*
X71771856Y-137730000D02*
X71771856Y-136981000D01*
X71771856Y-144959000D02*
X71771856Y-142211000D01*
X71811856Y-137730000D02*
X71811856Y-136950000D01*
X71811856Y-144990000D02*
X71811856Y-142211000D01*
X71851856Y-137730000D02*
X71851856Y-136920000D01*
X71851856Y-145020000D02*
X71851856Y-142211000D01*
X71891856Y-137730000D02*
X71891856Y-136890000D01*
X71891856Y-145050000D02*
X71891856Y-142211000D01*
X71931856Y-137730000D02*
X71931856Y-136860000D01*
X71931856Y-145080000D02*
X71931856Y-142211000D01*
X71971856Y-137730000D02*
X71971856Y-136832000D01*
X71971856Y-145108000D02*
X71971856Y-142211000D01*
X72011856Y-137730000D02*
X72011856Y-136804000D01*
X72011856Y-145136000D02*
X72011856Y-142211000D01*
X72051856Y-137730000D02*
X72051856Y-136776000D01*
X72051856Y-145164000D02*
X72051856Y-142211000D01*
X72091856Y-137730000D02*
X72091856Y-136749000D01*
X72091856Y-145191000D02*
X72091856Y-142211000D01*
X72131856Y-137730000D02*
X72131856Y-136723000D01*
X72131856Y-145217000D02*
X72131856Y-142211000D01*
X72171856Y-137730000D02*
X72171856Y-136697000D01*
X72171856Y-145243000D02*
X72171856Y-142211000D01*
X72211856Y-137730000D02*
X72211856Y-136672000D01*
X72211856Y-145268000D02*
X72211856Y-142211000D01*
X72251856Y-137730000D02*
X72251856Y-136647000D01*
X72251856Y-145293000D02*
X72251856Y-142211000D01*
X72291856Y-137730000D02*
X72291856Y-136623000D01*
X72291856Y-145317000D02*
X72291856Y-142211000D01*
X72331856Y-137730000D02*
X72331856Y-136599000D01*
X72331856Y-145341000D02*
X72331856Y-142211000D01*
X72371856Y-137730000D02*
X72371856Y-136575000D01*
X72371856Y-145365000D02*
X72371856Y-142211000D01*
X72411856Y-137730000D02*
X72411856Y-136553000D01*
X72411856Y-145387000D02*
X72411856Y-142211000D01*
X72451856Y-137730000D02*
X72451856Y-136530000D01*
X72451856Y-145410000D02*
X72451856Y-142211000D01*
X72491856Y-137730000D02*
X72491856Y-136508000D01*
X72491856Y-145432000D02*
X72491856Y-142211000D01*
X72531856Y-137730000D02*
X72531856Y-136487000D01*
X72531856Y-145453000D02*
X72531856Y-142211000D01*
X72571856Y-137730000D02*
X72571856Y-136466000D01*
X72571856Y-145474000D02*
X72571856Y-142211000D01*
X72611856Y-137730000D02*
X72611856Y-136445000D01*
X72611856Y-145495000D02*
X72611856Y-142211000D01*
X72651856Y-137730000D02*
X72651856Y-136425000D01*
X72651856Y-145515000D02*
X72651856Y-142211000D01*
X72691856Y-137730000D02*
X72691856Y-136406000D01*
X72691856Y-145534000D02*
X72691856Y-142211000D01*
X72731856Y-137730000D02*
X72731856Y-136386000D01*
X72731856Y-145554000D02*
X72731856Y-142211000D01*
X72771856Y-137730000D02*
X72771856Y-136367000D01*
X72771856Y-145573000D02*
X72771856Y-142211000D01*
X72811856Y-137730000D02*
X72811856Y-136349000D01*
X72811856Y-145591000D02*
X72811856Y-142211000D01*
X72851856Y-137730000D02*
X72851856Y-136331000D01*
X72851856Y-145609000D02*
X72851856Y-142211000D01*
X72891856Y-137730000D02*
X72891856Y-136313000D01*
X72891856Y-145627000D02*
X72891856Y-142211000D01*
X72931856Y-137730000D02*
X72931856Y-136296000D01*
X72931856Y-145644000D02*
X72931856Y-142211000D01*
X72971856Y-137730000D02*
X72971856Y-136280000D01*
X72971856Y-145660000D02*
X72971856Y-142211000D01*
X73011856Y-139729000D02*
X73011856Y-136263000D01*
X73011856Y-145677000D02*
X73011856Y-142211000D01*
X73051856Y-139729000D02*
X73051856Y-136247000D01*
X73051856Y-145693000D02*
X73051856Y-142211000D01*
X73091856Y-139729000D02*
X73091856Y-136232000D01*
X73091856Y-145708000D02*
X73091856Y-142211000D01*
X73131856Y-139729000D02*
X73131856Y-136216000D01*
X73131856Y-145724000D02*
X73131856Y-142211000D01*
X73171856Y-139729000D02*
X73171856Y-136202000D01*
X73171856Y-145738000D02*
X73171856Y-142211000D01*
X73211856Y-139729000D02*
X73211856Y-136187000D01*
X73211856Y-145753000D02*
X73211856Y-142211000D01*
X73251856Y-139729000D02*
X73251856Y-136173000D01*
X73251856Y-145767000D02*
X73251856Y-142211000D01*
X73291856Y-139729000D02*
X73291856Y-136159000D01*
X73291856Y-145781000D02*
X73291856Y-142211000D01*
X73331856Y-139729000D02*
X73331856Y-136146000D01*
X73331856Y-145794000D02*
X73331856Y-142211000D01*
X73371856Y-139729000D02*
X73371856Y-136133000D01*
X73371856Y-145807000D02*
X73371856Y-142211000D01*
X73411856Y-139729000D02*
X73411856Y-136120000D01*
X73411856Y-145820000D02*
X73411856Y-142211000D01*
X73451856Y-139729000D02*
X73451856Y-136108000D01*
X73451856Y-145832000D02*
X73451856Y-142211000D01*
X73491856Y-139729000D02*
X73491856Y-136096000D01*
X73491856Y-145844000D02*
X73491856Y-142211000D01*
X73531856Y-139729000D02*
X73531856Y-136085000D01*
X73531856Y-145855000D02*
X73531856Y-142211000D01*
X73571856Y-139729000D02*
X73571856Y-136073000D01*
X73571856Y-145867000D02*
X73571856Y-142211000D01*
X73611856Y-139729000D02*
X73611856Y-136063000D01*
X73611856Y-145877000D02*
X73611856Y-142211000D01*
X73651856Y-139729000D02*
X73651856Y-136052000D01*
X73651856Y-145888000D02*
X73651856Y-142211000D01*
X73691856Y-145898000D02*
X73691856Y-136042000D01*
X73731856Y-145908000D02*
X73731856Y-136032000D01*
X73771856Y-145917000D02*
X73771856Y-136023000D01*
X73811856Y-145926000D02*
X73811856Y-136014000D01*
X73851856Y-145935000D02*
X73851856Y-136005000D01*
X73891856Y-145944000D02*
X73891856Y-135996000D01*
X73931856Y-145952000D02*
X73931856Y-135988000D01*
X73971856Y-145960000D02*
X73971856Y-135980000D01*
X74011856Y-145967000D02*
X74011856Y-135973000D01*
X74051856Y-145974000D02*
X74051856Y-135966000D01*
X74091856Y-145981000D02*
X74091856Y-135959000D01*
X74131856Y-145988000D02*
X74131856Y-135952000D01*
X74171856Y-145994000D02*
X74171856Y-135946000D01*
X74211856Y-146000000D02*
X74211856Y-135940000D01*
X74252856Y-146005000D02*
X74252856Y-135935000D01*
X74292856Y-146010000D02*
X74292856Y-135930000D01*
X74332856Y-146015000D02*
X74332856Y-135925000D01*
X74372856Y-146020000D02*
X74372856Y-135920000D01*
X74412856Y-146024000D02*
X74412856Y-135916000D01*
X74452856Y-146028000D02*
X74452856Y-135912000D01*
X74492856Y-146032000D02*
X74492856Y-135908000D01*
X74532856Y-146035000D02*
X74532856Y-135905000D01*
X74572856Y-146038000D02*
X74572856Y-135902000D01*
X74612856Y-146040000D02*
X74612856Y-135900000D01*
X74652856Y-146043000D02*
X74652856Y-135897000D01*
X74692856Y-146045000D02*
X74692856Y-135895000D01*
X74732856Y-146047000D02*
X74732856Y-135893000D01*
X74772856Y-146048000D02*
X74772856Y-135892000D01*
X74812856Y-146049000D02*
X74812856Y-135891000D01*
X74852856Y-146050000D02*
X74852856Y-135890000D01*
X74892856Y-146050000D02*
X74892856Y-135890000D01*
X74932856Y-146050000D02*
X74932856Y-135890000D01*
X79757760Y-142683098D02*
G75*
G03X78880868Y-144230000I-4824904J1713098D01*
G01*
X84355000Y-137645000D02*
X79515000Y-137645000D01*
X84355000Y-135405000D02*
X79515000Y-135405000D01*
X84355000Y-137645000D02*
X84355000Y-135405000D01*
X79515000Y-137645000D02*
X79515000Y-135405000D01*
X93335241Y-121534000D02*
X93335241Y-120904000D01*
X93650241Y-121219000D02*
X93020241Y-121219000D01*
X86909000Y-119782000D02*
X86909000Y-118978000D01*
X86949000Y-120013000D02*
X86949000Y-118747000D01*
X86989000Y-120182000D02*
X86989000Y-118578000D01*
X87029000Y-120320000D02*
X87029000Y-118440000D01*
X87069000Y-120439000D02*
X87069000Y-118321000D01*
X87109000Y-120545000D02*
X87109000Y-118215000D01*
X87149000Y-120642000D02*
X87149000Y-118118000D01*
X87189000Y-120730000D02*
X87189000Y-118030000D01*
X87229000Y-120812000D02*
X87229000Y-117948000D01*
X87269000Y-120889000D02*
X87269000Y-117871000D01*
X87309000Y-120961000D02*
X87309000Y-117799000D01*
X87349000Y-121030000D02*
X87349000Y-117730000D01*
X87389000Y-121094000D02*
X87389000Y-117666000D01*
X87429000Y-121156000D02*
X87429000Y-117604000D01*
X87469000Y-121214000D02*
X87469000Y-117546000D01*
X87509000Y-121270000D02*
X87509000Y-117490000D01*
X87549000Y-121324000D02*
X87549000Y-117436000D01*
X87589000Y-121375000D02*
X87589000Y-117385000D01*
X87629000Y-121424000D02*
X87629000Y-117336000D01*
X87669000Y-121472000D02*
X87669000Y-117288000D01*
X87709000Y-121517000D02*
X87709000Y-117243000D01*
X87749000Y-121562000D02*
X87749000Y-117198000D01*
X87789000Y-121604000D02*
X87789000Y-117156000D01*
X87829000Y-121645000D02*
X87829000Y-117115000D01*
X87869000Y-118340000D02*
X87869000Y-117075000D01*
X87869000Y-121685000D02*
X87869000Y-120420000D01*
X87909000Y-118340000D02*
X87909000Y-117037000D01*
X87909000Y-121723000D02*
X87909000Y-120420000D01*
X87949000Y-118340000D02*
X87949000Y-117000000D01*
X87949000Y-121760000D02*
X87949000Y-120420000D01*
X87989000Y-118340000D02*
X87989000Y-116964000D01*
X87989000Y-121796000D02*
X87989000Y-120420000D01*
X88029000Y-118340000D02*
X88029000Y-116930000D01*
X88029000Y-121830000D02*
X88029000Y-120420000D01*
X88069000Y-118340000D02*
X88069000Y-116896000D01*
X88069000Y-121864000D02*
X88069000Y-120420000D01*
X88109000Y-118340000D02*
X88109000Y-116864000D01*
X88109000Y-121896000D02*
X88109000Y-120420000D01*
X88149000Y-118340000D02*
X88149000Y-116832000D01*
X88149000Y-121928000D02*
X88149000Y-120420000D01*
X88189000Y-118340000D02*
X88189000Y-116802000D01*
X88189000Y-121958000D02*
X88189000Y-120420000D01*
X88229000Y-118340000D02*
X88229000Y-116773000D01*
X88229000Y-121987000D02*
X88229000Y-120420000D01*
X88269000Y-118340000D02*
X88269000Y-116744000D01*
X88269000Y-122016000D02*
X88269000Y-120420000D01*
X88309000Y-118340000D02*
X88309000Y-116716000D01*
X88309000Y-122044000D02*
X88309000Y-120420000D01*
X88349000Y-118340000D02*
X88349000Y-116690000D01*
X88349000Y-122070000D02*
X88349000Y-120420000D01*
X88389000Y-118340000D02*
X88389000Y-116664000D01*
X88389000Y-122096000D02*
X88389000Y-120420000D01*
X88429000Y-118340000D02*
X88429000Y-116638000D01*
X88429000Y-122122000D02*
X88429000Y-120420000D01*
X88469000Y-118340000D02*
X88469000Y-116614000D01*
X88469000Y-122146000D02*
X88469000Y-120420000D01*
X88509000Y-118340000D02*
X88509000Y-116590000D01*
X88509000Y-122170000D02*
X88509000Y-120420000D01*
X88549000Y-118340000D02*
X88549000Y-116568000D01*
X88549000Y-122192000D02*
X88549000Y-120420000D01*
X88589000Y-118340000D02*
X88589000Y-116546000D01*
X88589000Y-122214000D02*
X88589000Y-120420000D01*
X88629000Y-118340000D02*
X88629000Y-116524000D01*
X88629000Y-122236000D02*
X88629000Y-120420000D01*
X88669000Y-118340000D02*
X88669000Y-116504000D01*
X88669000Y-122256000D02*
X88669000Y-120420000D01*
X88709000Y-118340000D02*
X88709000Y-116484000D01*
X88709000Y-122276000D02*
X88709000Y-120420000D01*
X88749000Y-118340000D02*
X88749000Y-116464000D01*
X88749000Y-122296000D02*
X88749000Y-120420000D01*
X88789000Y-118340000D02*
X88789000Y-116446000D01*
X88789000Y-122314000D02*
X88789000Y-120420000D01*
X88829000Y-118340000D02*
X88829000Y-116428000D01*
X88829000Y-122332000D02*
X88829000Y-120420000D01*
X88869000Y-118340000D02*
X88869000Y-116410000D01*
X88869000Y-122350000D02*
X88869000Y-120420000D01*
X88909000Y-118340000D02*
X88909000Y-116394000D01*
X88909000Y-122366000D02*
X88909000Y-120420000D01*
X88949000Y-118340000D02*
X88949000Y-116378000D01*
X88949000Y-122382000D02*
X88949000Y-120420000D01*
X88989000Y-118340000D02*
X88989000Y-116362000D01*
X88989000Y-122398000D02*
X88989000Y-120420000D01*
X89029000Y-118340000D02*
X89029000Y-116347000D01*
X89029000Y-122413000D02*
X89029000Y-120420000D01*
X89069000Y-118340000D02*
X89069000Y-116333000D01*
X89069000Y-122427000D02*
X89069000Y-120420000D01*
X89109000Y-118340000D02*
X89109000Y-116319000D01*
X89109000Y-122441000D02*
X89109000Y-120420000D01*
X89149000Y-118340000D02*
X89149000Y-116306000D01*
X89149000Y-122454000D02*
X89149000Y-120420000D01*
X89189000Y-118340000D02*
X89189000Y-116294000D01*
X89189000Y-122466000D02*
X89189000Y-120420000D01*
X89229000Y-118340000D02*
X89229000Y-116282000D01*
X89229000Y-122478000D02*
X89229000Y-120420000D01*
X89269000Y-118340000D02*
X89269000Y-116270000D01*
X89269000Y-122490000D02*
X89269000Y-120420000D01*
X89309000Y-118340000D02*
X89309000Y-116259000D01*
X89309000Y-122501000D02*
X89309000Y-120420000D01*
X89349000Y-118340000D02*
X89349000Y-116249000D01*
X89349000Y-122511000D02*
X89349000Y-120420000D01*
X89389000Y-118340000D02*
X89389000Y-116239000D01*
X89389000Y-122521000D02*
X89389000Y-120420000D01*
X89429000Y-118340000D02*
X89429000Y-116230000D01*
X89429000Y-122530000D02*
X89429000Y-120420000D01*
X89470000Y-118340000D02*
X89470000Y-116221000D01*
X89470000Y-122539000D02*
X89470000Y-120420000D01*
X89510000Y-118340000D02*
X89510000Y-116213000D01*
X89510000Y-122547000D02*
X89510000Y-120420000D01*
X89550000Y-118340000D02*
X89550000Y-116205000D01*
X89550000Y-122555000D02*
X89550000Y-120420000D01*
X89590000Y-118340000D02*
X89590000Y-116198000D01*
X89590000Y-122562000D02*
X89590000Y-120420000D01*
X89630000Y-118340000D02*
X89630000Y-116191000D01*
X89630000Y-122569000D02*
X89630000Y-120420000D01*
X89670000Y-118340000D02*
X89670000Y-116185000D01*
X89670000Y-122575000D02*
X89670000Y-120420000D01*
X89710000Y-118340000D02*
X89710000Y-116179000D01*
X89710000Y-122581000D02*
X89710000Y-120420000D01*
X89750000Y-118340000D02*
X89750000Y-116174000D01*
X89750000Y-122586000D02*
X89750000Y-120420000D01*
X89790000Y-118340000D02*
X89790000Y-116169000D01*
X89790000Y-122591000D02*
X89790000Y-120420000D01*
X89830000Y-118340000D02*
X89830000Y-116165000D01*
X89830000Y-122595000D02*
X89830000Y-120420000D01*
X89870000Y-118340000D02*
X89870000Y-116162000D01*
X89870000Y-122598000D02*
X89870000Y-120420000D01*
X89910000Y-118340000D02*
X89910000Y-116158000D01*
X89910000Y-122602000D02*
X89910000Y-120420000D01*
X89950000Y-122604000D02*
X89950000Y-116156000D01*
X89990000Y-122607000D02*
X89990000Y-116153000D01*
X90030000Y-122608000D02*
X90030000Y-116152000D01*
X90070000Y-122610000D02*
X90070000Y-116150000D01*
X90110000Y-122610000D02*
X90110000Y-116150000D01*
X90150000Y-122610000D02*
X90150000Y-116150000D01*
X93420000Y-119380000D02*
G75*
G03X93420000Y-119380000I-3270000J0D01*
G01*
X90200241Y-158999000D02*
X90200241Y-158369000D01*
X90515241Y-158684000D02*
X89885241Y-158684000D01*
X83774000Y-157247000D02*
X83774000Y-156443000D01*
X83814000Y-157478000D02*
X83814000Y-156212000D01*
X83854000Y-157647000D02*
X83854000Y-156043000D01*
X83894000Y-157785000D02*
X83894000Y-155905000D01*
X83934000Y-157904000D02*
X83934000Y-155786000D01*
X83974000Y-158010000D02*
X83974000Y-155680000D01*
X84014000Y-158107000D02*
X84014000Y-155583000D01*
X84054000Y-158195000D02*
X84054000Y-155495000D01*
X84094000Y-158277000D02*
X84094000Y-155413000D01*
X84134000Y-158354000D02*
X84134000Y-155336000D01*
X84174000Y-158426000D02*
X84174000Y-155264000D01*
X84214000Y-158495000D02*
X84214000Y-155195000D01*
X84254000Y-158559000D02*
X84254000Y-155131000D01*
X84294000Y-158621000D02*
X84294000Y-155069000D01*
X84334000Y-158679000D02*
X84334000Y-155011000D01*
X84374000Y-158735000D02*
X84374000Y-154955000D01*
X84414000Y-158789000D02*
X84414000Y-154901000D01*
X84454000Y-158840000D02*
X84454000Y-154850000D01*
X84494000Y-158889000D02*
X84494000Y-154801000D01*
X84534000Y-158937000D02*
X84534000Y-154753000D01*
X84574000Y-158982000D02*
X84574000Y-154708000D01*
X84614000Y-159027000D02*
X84614000Y-154663000D01*
X84654000Y-159069000D02*
X84654000Y-154621000D01*
X84694000Y-159110000D02*
X84694000Y-154580000D01*
X84734000Y-155805000D02*
X84734000Y-154540000D01*
X84734000Y-159150000D02*
X84734000Y-157885000D01*
X84774000Y-155805000D02*
X84774000Y-154502000D01*
X84774000Y-159188000D02*
X84774000Y-157885000D01*
X84814000Y-155805000D02*
X84814000Y-154465000D01*
X84814000Y-159225000D02*
X84814000Y-157885000D01*
X84854000Y-155805000D02*
X84854000Y-154429000D01*
X84854000Y-159261000D02*
X84854000Y-157885000D01*
X84894000Y-155805000D02*
X84894000Y-154395000D01*
X84894000Y-159295000D02*
X84894000Y-157885000D01*
X84934000Y-155805000D02*
X84934000Y-154361000D01*
X84934000Y-159329000D02*
X84934000Y-157885000D01*
X84974000Y-155805000D02*
X84974000Y-154329000D01*
X84974000Y-159361000D02*
X84974000Y-157885000D01*
X85014000Y-155805000D02*
X85014000Y-154297000D01*
X85014000Y-159393000D02*
X85014000Y-157885000D01*
X85054000Y-155805000D02*
X85054000Y-154267000D01*
X85054000Y-159423000D02*
X85054000Y-157885000D01*
X85094000Y-155805000D02*
X85094000Y-154238000D01*
X85094000Y-159452000D02*
X85094000Y-157885000D01*
X85134000Y-155805000D02*
X85134000Y-154209000D01*
X85134000Y-159481000D02*
X85134000Y-157885000D01*
X85174000Y-155805000D02*
X85174000Y-154181000D01*
X85174000Y-159509000D02*
X85174000Y-157885000D01*
X85214000Y-155805000D02*
X85214000Y-154155000D01*
X85214000Y-159535000D02*
X85214000Y-157885000D01*
X85254000Y-155805000D02*
X85254000Y-154129000D01*
X85254000Y-159561000D02*
X85254000Y-157885000D01*
X85294000Y-155805000D02*
X85294000Y-154103000D01*
X85294000Y-159587000D02*
X85294000Y-157885000D01*
X85334000Y-155805000D02*
X85334000Y-154079000D01*
X85334000Y-159611000D02*
X85334000Y-157885000D01*
X85374000Y-155805000D02*
X85374000Y-154055000D01*
X85374000Y-159635000D02*
X85374000Y-157885000D01*
X85414000Y-155805000D02*
X85414000Y-154033000D01*
X85414000Y-159657000D02*
X85414000Y-157885000D01*
X85454000Y-155805000D02*
X85454000Y-154011000D01*
X85454000Y-159679000D02*
X85454000Y-157885000D01*
X85494000Y-155805000D02*
X85494000Y-153989000D01*
X85494000Y-159701000D02*
X85494000Y-157885000D01*
X85534000Y-155805000D02*
X85534000Y-153969000D01*
X85534000Y-159721000D02*
X85534000Y-157885000D01*
X85574000Y-155805000D02*
X85574000Y-153949000D01*
X85574000Y-159741000D02*
X85574000Y-157885000D01*
X85614000Y-155805000D02*
X85614000Y-153929000D01*
X85614000Y-159761000D02*
X85614000Y-157885000D01*
X85654000Y-155805000D02*
X85654000Y-153911000D01*
X85654000Y-159779000D02*
X85654000Y-157885000D01*
X85694000Y-155805000D02*
X85694000Y-153893000D01*
X85694000Y-159797000D02*
X85694000Y-157885000D01*
X85734000Y-155805000D02*
X85734000Y-153875000D01*
X85734000Y-159815000D02*
X85734000Y-157885000D01*
X85774000Y-155805000D02*
X85774000Y-153859000D01*
X85774000Y-159831000D02*
X85774000Y-157885000D01*
X85814000Y-155805000D02*
X85814000Y-153843000D01*
X85814000Y-159847000D02*
X85814000Y-157885000D01*
X85854000Y-155805000D02*
X85854000Y-153827000D01*
X85854000Y-159863000D02*
X85854000Y-157885000D01*
X85894000Y-155805000D02*
X85894000Y-153812000D01*
X85894000Y-159878000D02*
X85894000Y-157885000D01*
X85934000Y-155805000D02*
X85934000Y-153798000D01*
X85934000Y-159892000D02*
X85934000Y-157885000D01*
X85974000Y-155805000D02*
X85974000Y-153784000D01*
X85974000Y-159906000D02*
X85974000Y-157885000D01*
X86014000Y-155805000D02*
X86014000Y-153771000D01*
X86014000Y-159919000D02*
X86014000Y-157885000D01*
X86054000Y-155805000D02*
X86054000Y-153759000D01*
X86054000Y-159931000D02*
X86054000Y-157885000D01*
X86094000Y-155805000D02*
X86094000Y-153747000D01*
X86094000Y-159943000D02*
X86094000Y-157885000D01*
X86134000Y-155805000D02*
X86134000Y-153735000D01*
X86134000Y-159955000D02*
X86134000Y-157885000D01*
X86174000Y-155805000D02*
X86174000Y-153724000D01*
X86174000Y-159966000D02*
X86174000Y-157885000D01*
X86214000Y-155805000D02*
X86214000Y-153714000D01*
X86214000Y-159976000D02*
X86214000Y-157885000D01*
X86254000Y-155805000D02*
X86254000Y-153704000D01*
X86254000Y-159986000D02*
X86254000Y-157885000D01*
X86294000Y-155805000D02*
X86294000Y-153695000D01*
X86294000Y-159995000D02*
X86294000Y-157885000D01*
X86335000Y-155805000D02*
X86335000Y-153686000D01*
X86335000Y-160004000D02*
X86335000Y-157885000D01*
X86375000Y-155805000D02*
X86375000Y-153678000D01*
X86375000Y-160012000D02*
X86375000Y-157885000D01*
X86415000Y-155805000D02*
X86415000Y-153670000D01*
X86415000Y-160020000D02*
X86415000Y-157885000D01*
X86455000Y-155805000D02*
X86455000Y-153663000D01*
X86455000Y-160027000D02*
X86455000Y-157885000D01*
X86495000Y-155805000D02*
X86495000Y-153656000D01*
X86495000Y-160034000D02*
X86495000Y-157885000D01*
X86535000Y-155805000D02*
X86535000Y-153650000D01*
X86535000Y-160040000D02*
X86535000Y-157885000D01*
X86575000Y-155805000D02*
X86575000Y-153644000D01*
X86575000Y-160046000D02*
X86575000Y-157885000D01*
X86615000Y-155805000D02*
X86615000Y-153639000D01*
X86615000Y-160051000D02*
X86615000Y-157885000D01*
X86655000Y-155805000D02*
X86655000Y-153634000D01*
X86655000Y-160056000D02*
X86655000Y-157885000D01*
X86695000Y-155805000D02*
X86695000Y-153630000D01*
X86695000Y-160060000D02*
X86695000Y-157885000D01*
X86735000Y-155805000D02*
X86735000Y-153627000D01*
X86735000Y-160063000D02*
X86735000Y-157885000D01*
X86775000Y-155805000D02*
X86775000Y-153623000D01*
X86775000Y-160067000D02*
X86775000Y-157885000D01*
X86815000Y-160069000D02*
X86815000Y-153621000D01*
X86855000Y-160072000D02*
X86855000Y-153618000D01*
X86895000Y-160073000D02*
X86895000Y-153617000D01*
X86935000Y-160075000D02*
X86935000Y-153615000D01*
X86975000Y-160075000D02*
X86975000Y-153615000D01*
X87015000Y-160075000D02*
X87015000Y-153615000D01*
X90285000Y-156845000D02*
G75*
G03X90285000Y-156845000I-3270000J0D01*
G01*
X92610000Y-126215000D02*
X87770000Y-126215000D01*
X92610000Y-123975000D02*
X87770000Y-123975000D01*
X92610000Y-126215000D02*
X92610000Y-123975000D01*
X87770000Y-126215000D02*
X87770000Y-123975000D01*
D10*
X77208333Y-126182380D02*
X76732142Y-126182380D01*
X76732142Y-125182380D01*
X77541666Y-126182380D02*
X77541666Y-125182380D01*
X77875000Y-125896666D01*
X78208333Y-125182380D01*
X78208333Y-126182380D01*
X78589285Y-125182380D02*
X79255952Y-125182380D01*
X78827380Y-126182380D01*
X79779761Y-125610952D02*
X79684523Y-125563333D01*
X79636904Y-125515714D01*
X79589285Y-125420476D01*
X79589285Y-125372857D01*
X79636904Y-125277619D01*
X79684523Y-125230000D01*
X79779761Y-125182380D01*
X79970238Y-125182380D01*
X80065476Y-125230000D01*
X80113095Y-125277619D01*
X80160714Y-125372857D01*
X80160714Y-125420476D01*
X80113095Y-125515714D01*
X80065476Y-125563333D01*
X79970238Y-125610952D01*
X79779761Y-125610952D01*
X79684523Y-125658571D01*
X79636904Y-125706190D01*
X79589285Y-125801428D01*
X79589285Y-125991904D01*
X79636904Y-126087142D01*
X79684523Y-126134761D01*
X79779761Y-126182380D01*
X79970238Y-126182380D01*
X80065476Y-126134761D01*
X80113095Y-126087142D01*
X80160714Y-125991904D01*
X80160714Y-125801428D01*
X80113095Y-125706190D01*
X80065476Y-125658571D01*
X79970238Y-125610952D01*
X80779761Y-125182380D02*
X80875000Y-125182380D01*
X80970238Y-125230000D01*
X81017857Y-125277619D01*
X81065476Y-125372857D01*
X81113095Y-125563333D01*
X81113095Y-125801428D01*
X81065476Y-125991904D01*
X81017857Y-126087142D01*
X80970238Y-126134761D01*
X80875000Y-126182380D01*
X80779761Y-126182380D01*
X80684523Y-126134761D01*
X80636904Y-126087142D01*
X80589285Y-125991904D01*
X80541666Y-125801428D01*
X80541666Y-125563333D01*
X80589285Y-125372857D01*
X80636904Y-125277619D01*
X80684523Y-125230000D01*
X80779761Y-125182380D01*
X82017857Y-125182380D02*
X81541666Y-125182380D01*
X81494047Y-125658571D01*
X81541666Y-125610952D01*
X81636904Y-125563333D01*
X81875000Y-125563333D01*
X81970238Y-125610952D01*
X82017857Y-125658571D01*
X82065476Y-125753809D01*
X82065476Y-125991904D01*
X82017857Y-126087142D01*
X81970238Y-126134761D01*
X81875000Y-126182380D01*
X81636904Y-126182380D01*
X81541666Y-126134761D01*
X81494047Y-126087142D01*
X107886666Y-98877380D02*
X107553333Y-98401190D01*
X107315238Y-98877380D02*
X107315238Y-97877380D01*
X107696190Y-97877380D01*
X107791428Y-97925000D01*
X107839047Y-97972619D01*
X107886666Y-98067857D01*
X107886666Y-98210714D01*
X107839047Y-98305952D01*
X107791428Y-98353571D01*
X107696190Y-98401190D01*
X107315238Y-98401190D01*
X108315238Y-98353571D02*
X108648571Y-98353571D01*
X108791428Y-98877380D02*
X108315238Y-98877380D01*
X108315238Y-97877380D01*
X108791428Y-97877380D01*
X109553333Y-98353571D02*
X109220000Y-98353571D01*
X109220000Y-98877380D02*
X109220000Y-97877380D01*
X109696190Y-97877380D01*
X110220000Y-97877380D02*
X110220000Y-98115476D01*
X109981904Y-98020238D02*
X110220000Y-98115476D01*
X110458095Y-98020238D01*
X110077142Y-98305952D02*
X110220000Y-98115476D01*
X110362857Y-98305952D01*
X110981904Y-97877380D02*
X110981904Y-98115476D01*
X110743809Y-98020238D02*
X110981904Y-98115476D01*
X111220000Y-98020238D01*
X110839047Y-98305952D02*
X110981904Y-98115476D01*
X111124761Y-98305952D01*
X107886666Y-91257380D02*
X107553333Y-90781190D01*
X107315238Y-91257380D02*
X107315238Y-90257380D01*
X107696190Y-90257380D01*
X107791428Y-90305000D01*
X107839047Y-90352619D01*
X107886666Y-90447857D01*
X107886666Y-90590714D01*
X107839047Y-90685952D01*
X107791428Y-90733571D01*
X107696190Y-90781190D01*
X107315238Y-90781190D01*
X108315238Y-90733571D02*
X108648571Y-90733571D01*
X108791428Y-91257380D02*
X108315238Y-91257380D01*
X108315238Y-90257380D01*
X108791428Y-90257380D01*
X109553333Y-90733571D02*
X109220000Y-90733571D01*
X109220000Y-91257380D02*
X109220000Y-90257380D01*
X109696190Y-90257380D01*
X110220000Y-90257380D02*
X110220000Y-90495476D01*
X109981904Y-90400238D02*
X110220000Y-90495476D01*
X110458095Y-90400238D01*
X110077142Y-90685952D02*
X110220000Y-90495476D01*
X110362857Y-90685952D01*
X110981904Y-90257380D02*
X110981904Y-90495476D01*
X110743809Y-90400238D02*
X110981904Y-90495476D01*
X111220000Y-90400238D01*
X110839047Y-90685952D02*
X110981904Y-90495476D01*
X111124761Y-90685952D01*
X133858095Y-149312380D02*
X133858095Y-150121904D01*
X133905714Y-150217142D01*
X133953333Y-150264761D01*
X134048571Y-150312380D01*
X134239047Y-150312380D01*
X134334285Y-150264761D01*
X134381904Y-150217142D01*
X134429523Y-150121904D01*
X134429523Y-149312380D01*
X134810476Y-149312380D02*
X135429523Y-149312380D01*
X135096190Y-149693333D01*
X135239047Y-149693333D01*
X135334285Y-149740952D01*
X135381904Y-149788571D01*
X135429523Y-149883809D01*
X135429523Y-150121904D01*
X135381904Y-150217142D01*
X135334285Y-150264761D01*
X135239047Y-150312380D01*
X134953333Y-150312380D01*
X134858095Y-150264761D01*
X134810476Y-150217142D01*
X150368095Y-149312380D02*
X150368095Y-150121904D01*
X150415714Y-150217142D01*
X150463333Y-150264761D01*
X150558571Y-150312380D01*
X150749047Y-150312380D01*
X150844285Y-150264761D01*
X150891904Y-150217142D01*
X150939523Y-150121904D01*
X150939523Y-149312380D01*
X151939523Y-150312380D02*
X151368095Y-150312380D01*
X151653809Y-150312380D02*
X151653809Y-149312380D01*
X151558571Y-149455238D01*
X151463333Y-149550476D01*
X151368095Y-149598095D01*
D12*
D10*
X101672380Y-104703571D02*
X102005714Y-104703571D01*
X102148571Y-105227380D02*
X101672380Y-105227380D01*
X101672380Y-104227380D01*
X102148571Y-104227380D01*
X102529523Y-105179761D02*
X102672380Y-105227380D01*
X102910476Y-105227380D01*
X103005714Y-105179761D01*
X103053333Y-105132142D01*
X103100952Y-105036904D01*
X103100952Y-104941666D01*
X103053333Y-104846428D01*
X103005714Y-104798809D01*
X102910476Y-104751190D01*
X102720000Y-104703571D01*
X102624761Y-104655952D01*
X102577142Y-104608333D01*
X102529523Y-104513095D01*
X102529523Y-104417857D01*
X102577142Y-104322619D01*
X102624761Y-104275000D01*
X102720000Y-104227380D01*
X102958095Y-104227380D01*
X103100952Y-104275000D01*
X103529523Y-105227380D02*
X103529523Y-104227380D01*
X103910476Y-104227380D01*
X104005714Y-104275000D01*
X104053333Y-104322619D01*
X104100952Y-104417857D01*
X104100952Y-104560714D01*
X104053333Y-104655952D01*
X104005714Y-104703571D01*
X103910476Y-104751190D01*
X103529523Y-104751190D01*
X104434285Y-104227380D02*
X105053333Y-104227380D01*
X104720000Y-104608333D01*
X104862857Y-104608333D01*
X104958095Y-104655952D01*
X105005714Y-104703571D01*
X105053333Y-104798809D01*
X105053333Y-105036904D01*
X105005714Y-105132142D01*
X104958095Y-105179761D01*
X104862857Y-105227380D01*
X104577142Y-105227380D01*
X104481904Y-105179761D01*
X104434285Y-105132142D01*
X105434285Y-104322619D02*
X105481904Y-104275000D01*
X105577142Y-104227380D01*
X105815238Y-104227380D01*
X105910476Y-104275000D01*
X105958095Y-104322619D01*
X106005714Y-104417857D01*
X106005714Y-104513095D01*
X105958095Y-104655952D01*
X105386666Y-105227380D01*
X106005714Y-105227380D01*
X106434285Y-104846428D02*
X107196190Y-104846428D01*
X107577142Y-104227380D02*
X107815238Y-105227380D01*
X108005714Y-104513095D01*
X108196190Y-105227380D01*
X108434285Y-104227380D01*
X109386666Y-105227380D02*
X109053333Y-104751190D01*
X108815238Y-105227380D02*
X108815238Y-104227380D01*
X109196190Y-104227380D01*
X109291428Y-104275000D01*
X109339047Y-104322619D01*
X109386666Y-104417857D01*
X109386666Y-104560714D01*
X109339047Y-104655952D01*
X109291428Y-104703571D01*
X109196190Y-104751190D01*
X108815238Y-104751190D01*
X110005714Y-104227380D02*
X110196190Y-104227380D01*
X110291428Y-104275000D01*
X110386666Y-104370238D01*
X110434285Y-104560714D01*
X110434285Y-104894047D01*
X110386666Y-105084523D01*
X110291428Y-105179761D01*
X110196190Y-105227380D01*
X110005714Y-105227380D01*
X109910476Y-105179761D01*
X109815238Y-105084523D01*
X109767619Y-104894047D01*
X109767619Y-104560714D01*
X109815238Y-104370238D01*
X109910476Y-104275000D01*
X110005714Y-104227380D01*
X111053333Y-104227380D02*
X111243809Y-104227380D01*
X111339047Y-104275000D01*
X111434285Y-104370238D01*
X111481904Y-104560714D01*
X111481904Y-104894047D01*
X111434285Y-105084523D01*
X111339047Y-105179761D01*
X111243809Y-105227380D01*
X111053333Y-105227380D01*
X110958095Y-105179761D01*
X110862857Y-105084523D01*
X110815238Y-104894047D01*
X110815238Y-104560714D01*
X110862857Y-104370238D01*
X110958095Y-104275000D01*
X111053333Y-104227380D01*
X111910476Y-105227380D02*
X111910476Y-104227380D01*
X112243809Y-104941666D01*
X112577142Y-104227380D01*
X112577142Y-105227380D01*
X113053333Y-104846428D02*
X113815238Y-104846428D01*
X114196190Y-104227380D02*
X114815238Y-104227380D01*
X114481904Y-104608333D01*
X114624761Y-104608333D01*
X114720000Y-104655952D01*
X114767619Y-104703571D01*
X114815238Y-104798809D01*
X114815238Y-105036904D01*
X114767619Y-105132142D01*
X114720000Y-105179761D01*
X114624761Y-105227380D01*
X114339047Y-105227380D01*
X114243809Y-105179761D01*
X114196190Y-105132142D01*
X115196190Y-104322619D02*
X115243809Y-104275000D01*
X115339047Y-104227380D01*
X115577142Y-104227380D01*
X115672380Y-104275000D01*
X115720000Y-104322619D01*
X115767619Y-104417857D01*
X115767619Y-104513095D01*
X115720000Y-104655952D01*
X115148571Y-105227380D01*
X115767619Y-105227380D01*
X116196190Y-104227380D02*
X116196190Y-105036904D01*
X116243809Y-105132142D01*
X116291428Y-105179761D01*
X116386666Y-105227380D01*
X116577142Y-105227380D01*
X116672380Y-105179761D01*
X116720000Y-105132142D01*
X116767619Y-105036904D01*
X116767619Y-104227380D01*
X102283095Y-102163571D02*
X102616428Y-102163571D01*
X102759285Y-102687380D02*
X102283095Y-102687380D01*
X102283095Y-101687380D01*
X102759285Y-101687380D01*
X103140238Y-102639761D02*
X103283095Y-102687380D01*
X103521190Y-102687380D01*
X103616428Y-102639761D01*
X103664047Y-102592142D01*
X103711666Y-102496904D01*
X103711666Y-102401666D01*
X103664047Y-102306428D01*
X103616428Y-102258809D01*
X103521190Y-102211190D01*
X103330714Y-102163571D01*
X103235476Y-102115952D01*
X103187857Y-102068333D01*
X103140238Y-101973095D01*
X103140238Y-101877857D01*
X103187857Y-101782619D01*
X103235476Y-101735000D01*
X103330714Y-101687380D01*
X103568809Y-101687380D01*
X103711666Y-101735000D01*
X104140238Y-102687380D02*
X104140238Y-101687380D01*
X104521190Y-101687380D01*
X104616428Y-101735000D01*
X104664047Y-101782619D01*
X104711666Y-101877857D01*
X104711666Y-102020714D01*
X104664047Y-102115952D01*
X104616428Y-102163571D01*
X104521190Y-102211190D01*
X104140238Y-102211190D01*
X105711666Y-102687380D02*
X105378333Y-102211190D01*
X105140238Y-102687380D02*
X105140238Y-101687380D01*
X105521190Y-101687380D01*
X105616428Y-101735000D01*
X105664047Y-101782619D01*
X105711666Y-101877857D01*
X105711666Y-102020714D01*
X105664047Y-102115952D01*
X105616428Y-102163571D01*
X105521190Y-102211190D01*
X105140238Y-102211190D01*
X106140238Y-102163571D02*
X106473571Y-102163571D01*
X106616428Y-102687380D02*
X106140238Y-102687380D01*
X106140238Y-101687380D01*
X106616428Y-101687380D01*
X106997380Y-102639761D02*
X107140238Y-102687380D01*
X107378333Y-102687380D01*
X107473571Y-102639761D01*
X107521190Y-102592142D01*
X107568809Y-102496904D01*
X107568809Y-102401666D01*
X107521190Y-102306428D01*
X107473571Y-102258809D01*
X107378333Y-102211190D01*
X107187857Y-102163571D01*
X107092619Y-102115952D01*
X107045000Y-102068333D01*
X106997380Y-101973095D01*
X106997380Y-101877857D01*
X107045000Y-101782619D01*
X107092619Y-101735000D01*
X107187857Y-101687380D01*
X107425952Y-101687380D01*
X107568809Y-101735000D01*
X107949761Y-102639761D02*
X108092619Y-102687380D01*
X108330714Y-102687380D01*
X108425952Y-102639761D01*
X108473571Y-102592142D01*
X108521190Y-102496904D01*
X108521190Y-102401666D01*
X108473571Y-102306428D01*
X108425952Y-102258809D01*
X108330714Y-102211190D01*
X108140238Y-102163571D01*
X108045000Y-102115952D01*
X107997380Y-102068333D01*
X107949761Y-101973095D01*
X107949761Y-101877857D01*
X107997380Y-101782619D01*
X108045000Y-101735000D01*
X108140238Y-101687380D01*
X108378333Y-101687380D01*
X108521190Y-101735000D01*
X108949761Y-102687380D02*
X108949761Y-101687380D01*
X109759285Y-102163571D02*
X109425952Y-102163571D01*
X109425952Y-102687380D02*
X109425952Y-101687380D01*
X109902142Y-101687380D01*
X61047380Y-113998333D02*
X61761666Y-113998333D01*
X61904523Y-114045952D01*
X61999761Y-114141190D01*
X62047380Y-114284047D01*
X62047380Y-114379285D01*
X62047380Y-112998333D02*
X62047380Y-113569761D01*
X62047380Y-113284047D02*
X61047380Y-113284047D01*
X61190238Y-113379285D01*
X61285476Y-113474523D01*
X61333095Y-113569761D01*
X77922380Y-86178095D02*
X76922380Y-86178095D01*
X77922380Y-85606666D02*
X77350952Y-86035238D01*
X76922380Y-85606666D02*
X77493809Y-86178095D01*
X77922380Y-84654285D02*
X77922380Y-85225714D01*
X77922380Y-84940000D02*
X76922380Y-84940000D01*
X77065238Y-85035238D01*
X77160476Y-85130476D01*
X77208095Y-85225714D01*
X77287380Y-104528095D02*
X76287380Y-104528095D01*
X77287380Y-103956666D02*
X76715952Y-104385238D01*
X76287380Y-103956666D02*
X76858809Y-104528095D01*
X76382619Y-103575714D02*
X76335000Y-103528095D01*
X76287380Y-103432857D01*
X76287380Y-103194761D01*
X76335000Y-103099523D01*
X76382619Y-103051904D01*
X76477857Y-103004285D01*
X76573095Y-103004285D01*
X76715952Y-103051904D01*
X77287380Y-103623333D01*
X77287380Y-103004285D01*
X93162380Y-92166666D02*
X92686190Y-92500000D01*
X93162380Y-92738095D02*
X92162380Y-92738095D01*
X92162380Y-92357142D01*
X92210000Y-92261904D01*
X92257619Y-92214285D01*
X92352857Y-92166666D01*
X92495714Y-92166666D01*
X92590952Y-92214285D01*
X92638571Y-92261904D01*
X92686190Y-92357142D01*
X92686190Y-92738095D01*
X92162380Y-91261904D02*
X92162380Y-91738095D01*
X92638571Y-91785714D01*
X92590952Y-91738095D01*
X92543333Y-91642857D01*
X92543333Y-91404761D01*
X92590952Y-91309523D01*
X92638571Y-91261904D01*
X92733809Y-91214285D01*
X92971904Y-91214285D01*
X93067142Y-91261904D01*
X93114761Y-91309523D01*
X93162380Y-91404761D01*
X93162380Y-91642857D01*
X93114761Y-91738095D01*
X93067142Y-91785714D01*
X61491904Y-129357380D02*
X61491904Y-128357380D01*
X61730000Y-128357380D01*
X61872857Y-128405000D01*
X61968095Y-128500238D01*
X62015714Y-128595476D01*
X62063333Y-128785952D01*
X62063333Y-128928809D01*
X62015714Y-129119285D01*
X61968095Y-129214523D01*
X61872857Y-129309761D01*
X61730000Y-129357380D01*
X61491904Y-129357380D01*
X63015714Y-129357380D02*
X62444285Y-129357380D01*
X62730000Y-129357380D02*
X62730000Y-128357380D01*
X62634761Y-128500238D01*
X62539523Y-128595476D01*
X62444285Y-128643095D01*
X99548333Y-143187142D02*
X99500714Y-143234761D01*
X99357857Y-143282380D01*
X99262619Y-143282380D01*
X99119761Y-143234761D01*
X99024523Y-143139523D01*
X98976904Y-143044285D01*
X98929285Y-142853809D01*
X98929285Y-142710952D01*
X98976904Y-142520476D01*
X99024523Y-142425238D01*
X99119761Y-142330000D01*
X99262619Y-142282380D01*
X99357857Y-142282380D01*
X99500714Y-142330000D01*
X99548333Y-142377619D01*
X100405476Y-142282380D02*
X100215000Y-142282380D01*
X100119761Y-142330000D01*
X100072142Y-142377619D01*
X99976904Y-142520476D01*
X99929285Y-142710952D01*
X99929285Y-143091904D01*
X99976904Y-143187142D01*
X100024523Y-143234761D01*
X100119761Y-143282380D01*
X100310238Y-143282380D01*
X100405476Y-143234761D01*
X100453095Y-143187142D01*
X100500714Y-143091904D01*
X100500714Y-142853809D01*
X100453095Y-142758571D01*
X100405476Y-142710952D01*
X100310238Y-142663333D01*
X100119761Y-142663333D01*
X100024523Y-142710952D01*
X99976904Y-142758571D01*
X99929285Y-142853809D01*
X65258333Y-141917142D02*
X65210714Y-141964761D01*
X65067857Y-142012380D01*
X64972619Y-142012380D01*
X64829761Y-141964761D01*
X64734523Y-141869523D01*
X64686904Y-141774285D01*
X64639285Y-141583809D01*
X64639285Y-141440952D01*
X64686904Y-141250476D01*
X64734523Y-141155238D01*
X64829761Y-141060000D01*
X64972619Y-141012380D01*
X65067857Y-141012380D01*
X65210714Y-141060000D01*
X65258333Y-141107619D01*
X66210714Y-142012380D02*
X65639285Y-142012380D01*
X65925000Y-142012380D02*
X65925000Y-141012380D01*
X65829761Y-141155238D01*
X65734523Y-141250476D01*
X65639285Y-141298095D01*
X108402380Y-121962857D02*
X107926190Y-122296190D01*
X108402380Y-122534285D02*
X107402380Y-122534285D01*
X107402380Y-122153333D01*
X107450000Y-122058095D01*
X107497619Y-122010476D01*
X107592857Y-121962857D01*
X107735714Y-121962857D01*
X107830952Y-122010476D01*
X107878571Y-122058095D01*
X107926190Y-122153333D01*
X107926190Y-122534285D01*
X108402380Y-121010476D02*
X108402380Y-121581904D01*
X108402380Y-121296190D02*
X107402380Y-121296190D01*
X107545238Y-121391428D01*
X107640476Y-121486666D01*
X107688095Y-121581904D01*
X108402380Y-120058095D02*
X108402380Y-120629523D01*
X108402380Y-120343809D02*
X107402380Y-120343809D01*
X107545238Y-120439047D01*
X107640476Y-120534285D01*
X107688095Y-120629523D01*
X104592380Y-119422857D02*
X104116190Y-119756190D01*
X104592380Y-119994285D02*
X103592380Y-119994285D01*
X103592380Y-119613333D01*
X103640000Y-119518095D01*
X103687619Y-119470476D01*
X103782857Y-119422857D01*
X103925714Y-119422857D01*
X104020952Y-119470476D01*
X104068571Y-119518095D01*
X104116190Y-119613333D01*
X104116190Y-119994285D01*
X104592380Y-118470476D02*
X104592380Y-119041904D01*
X104592380Y-118756190D02*
X103592380Y-118756190D01*
X103735238Y-118851428D01*
X103830476Y-118946666D01*
X103878095Y-119041904D01*
X103592380Y-117851428D02*
X103592380Y-117756190D01*
X103640000Y-117660952D01*
X103687619Y-117613333D01*
X103782857Y-117565714D01*
X103973333Y-117518095D01*
X104211428Y-117518095D01*
X104401904Y-117565714D01*
X104497142Y-117613333D01*
X104544761Y-117660952D01*
X104592380Y-117756190D01*
X104592380Y-117851428D01*
X104544761Y-117946666D01*
X104497142Y-117994285D01*
X104401904Y-118041904D01*
X104211428Y-118089523D01*
X103973333Y-118089523D01*
X103782857Y-118041904D01*
X103687619Y-117994285D01*
X103640000Y-117946666D01*
X103592380Y-117851428D01*
X100782380Y-116406666D02*
X100306190Y-116740000D01*
X100782380Y-116978095D02*
X99782380Y-116978095D01*
X99782380Y-116597142D01*
X99830000Y-116501904D01*
X99877619Y-116454285D01*
X99972857Y-116406666D01*
X100115714Y-116406666D01*
X100210952Y-116454285D01*
X100258571Y-116501904D01*
X100306190Y-116597142D01*
X100306190Y-116978095D01*
X100782380Y-115930476D02*
X100782380Y-115740000D01*
X100734761Y-115644761D01*
X100687142Y-115597142D01*
X100544285Y-115501904D01*
X100353809Y-115454285D01*
X99972857Y-115454285D01*
X99877619Y-115501904D01*
X99830000Y-115549523D01*
X99782380Y-115644761D01*
X99782380Y-115835238D01*
X99830000Y-115930476D01*
X99877619Y-115978095D01*
X99972857Y-116025714D01*
X100210952Y-116025714D01*
X100306190Y-115978095D01*
X100353809Y-115930476D01*
X100401428Y-115835238D01*
X100401428Y-115644761D01*
X100353809Y-115549523D01*
X100306190Y-115501904D01*
X100210952Y-115454285D01*
X83637380Y-146181666D02*
X83161190Y-146515000D01*
X83637380Y-146753095D02*
X82637380Y-146753095D01*
X82637380Y-146372142D01*
X82685000Y-146276904D01*
X82732619Y-146229285D01*
X82827857Y-146181666D01*
X82970714Y-146181666D01*
X83065952Y-146229285D01*
X83113571Y-146276904D01*
X83161190Y-146372142D01*
X83161190Y-146753095D01*
X83065952Y-145610238D02*
X83018333Y-145705476D01*
X82970714Y-145753095D01*
X82875476Y-145800714D01*
X82827857Y-145800714D01*
X82732619Y-145753095D01*
X82685000Y-145705476D01*
X82637380Y-145610238D01*
X82637380Y-145419761D01*
X82685000Y-145324523D01*
X82732619Y-145276904D01*
X82827857Y-145229285D01*
X82875476Y-145229285D01*
X82970714Y-145276904D01*
X83018333Y-145324523D01*
X83065952Y-145419761D01*
X83065952Y-145610238D01*
X83113571Y-145705476D01*
X83161190Y-145753095D01*
X83256428Y-145800714D01*
X83446904Y-145800714D01*
X83542142Y-145753095D01*
X83589761Y-145705476D01*
X83637380Y-145610238D01*
X83637380Y-145419761D01*
X83589761Y-145324523D01*
X83542142Y-145276904D01*
X83446904Y-145229285D01*
X83256428Y-145229285D01*
X83161190Y-145276904D01*
X83113571Y-145324523D01*
X83065952Y-145419761D01*
X112212380Y-130376666D02*
X111736190Y-130710000D01*
X112212380Y-130948095D02*
X111212380Y-130948095D01*
X111212380Y-130567142D01*
X111260000Y-130471904D01*
X111307619Y-130424285D01*
X111402857Y-130376666D01*
X111545714Y-130376666D01*
X111640952Y-130424285D01*
X111688571Y-130471904D01*
X111736190Y-130567142D01*
X111736190Y-130948095D01*
X111212380Y-130043333D02*
X111212380Y-129376666D01*
X112212380Y-129805238D01*
X93162380Y-103746666D02*
X92686190Y-104080000D01*
X93162380Y-104318095D02*
X92162380Y-104318095D01*
X92162380Y-103937142D01*
X92210000Y-103841904D01*
X92257619Y-103794285D01*
X92352857Y-103746666D01*
X92495714Y-103746666D01*
X92590952Y-103794285D01*
X92638571Y-103841904D01*
X92686190Y-103937142D01*
X92686190Y-104318095D01*
X92162380Y-102889523D02*
X92162380Y-103080000D01*
X92210000Y-103175238D01*
X92257619Y-103222857D01*
X92400476Y-103318095D01*
X92590952Y-103365714D01*
X92971904Y-103365714D01*
X93067142Y-103318095D01*
X93114761Y-103270476D01*
X93162380Y-103175238D01*
X93162380Y-102984761D01*
X93114761Y-102889523D01*
X93067142Y-102841904D01*
X92971904Y-102794285D01*
X92733809Y-102794285D01*
X92638571Y-102841904D01*
X92590952Y-102889523D01*
X92543333Y-102984761D01*
X92543333Y-103175238D01*
X92590952Y-103270476D01*
X92638571Y-103318095D01*
X92733809Y-103365714D01*
X100782380Y-91046666D02*
X100306190Y-91380000D01*
X100782380Y-91618095D02*
X99782380Y-91618095D01*
X99782380Y-91237142D01*
X99830000Y-91141904D01*
X99877619Y-91094285D01*
X99972857Y-91046666D01*
X100115714Y-91046666D01*
X100210952Y-91094285D01*
X100258571Y-91141904D01*
X100306190Y-91237142D01*
X100306190Y-91618095D01*
X100115714Y-90189523D02*
X100782380Y-90189523D01*
X99734761Y-90427619D02*
X100449047Y-90665714D01*
X100449047Y-90046666D01*
X104592380Y-91046666D02*
X104116190Y-91380000D01*
X104592380Y-91618095D02*
X103592380Y-91618095D01*
X103592380Y-91237142D01*
X103640000Y-91141904D01*
X103687619Y-91094285D01*
X103782857Y-91046666D01*
X103925714Y-91046666D01*
X104020952Y-91094285D01*
X104068571Y-91141904D01*
X104116190Y-91237142D01*
X104116190Y-91618095D01*
X103592380Y-90713333D02*
X103592380Y-90094285D01*
X103973333Y-90427619D01*
X103973333Y-90284761D01*
X104020952Y-90189523D01*
X104068571Y-90141904D01*
X104163809Y-90094285D01*
X104401904Y-90094285D01*
X104497142Y-90141904D01*
X104544761Y-90189523D01*
X104592380Y-90284761D01*
X104592380Y-90570476D01*
X104544761Y-90665714D01*
X104497142Y-90713333D01*
X63952380Y-146291666D02*
X63476190Y-146625000D01*
X63952380Y-146863095D02*
X62952380Y-146863095D01*
X62952380Y-146482142D01*
X63000000Y-146386904D01*
X63047619Y-146339285D01*
X63142857Y-146291666D01*
X63285714Y-146291666D01*
X63380952Y-146339285D01*
X63428571Y-146386904D01*
X63476190Y-146482142D01*
X63476190Y-146863095D01*
X63047619Y-145910714D02*
X63000000Y-145863095D01*
X62952380Y-145767857D01*
X62952380Y-145529761D01*
X63000000Y-145434523D01*
X63047619Y-145386904D01*
X63142857Y-145339285D01*
X63238095Y-145339285D01*
X63380952Y-145386904D01*
X63952380Y-145958333D01*
X63952380Y-145339285D01*
X67762380Y-146251666D02*
X67286190Y-146585000D01*
X67762380Y-146823095D02*
X66762380Y-146823095D01*
X66762380Y-146442142D01*
X66810000Y-146346904D01*
X66857619Y-146299285D01*
X66952857Y-146251666D01*
X67095714Y-146251666D01*
X67190952Y-146299285D01*
X67238571Y-146346904D01*
X67286190Y-146442142D01*
X67286190Y-146823095D01*
X67762380Y-145299285D02*
X67762380Y-145870714D01*
X67762380Y-145585000D02*
X66762380Y-145585000D01*
X66905238Y-145680238D01*
X67000476Y-145775476D01*
X67048095Y-145870714D01*
X91102619Y-99155238D02*
X91055000Y-99250476D01*
X90959761Y-99345714D01*
X90816904Y-99488571D01*
X90769285Y-99583809D01*
X90769285Y-99679047D01*
X91007380Y-99631428D02*
X90959761Y-99726666D01*
X90864523Y-99821904D01*
X90674047Y-99869523D01*
X90340714Y-99869523D01*
X90150238Y-99821904D01*
X90055000Y-99726666D01*
X90007380Y-99631428D01*
X90007380Y-99440952D01*
X90055000Y-99345714D01*
X90150238Y-99250476D01*
X90340714Y-99202857D01*
X90674047Y-99202857D01*
X90864523Y-99250476D01*
X90959761Y-99345714D01*
X91007380Y-99440952D01*
X91007380Y-99631428D01*
X90102619Y-98821904D02*
X90055000Y-98774285D01*
X90007380Y-98679047D01*
X90007380Y-98440952D01*
X90055000Y-98345714D01*
X90102619Y-98298095D01*
X90197857Y-98250476D01*
X90293095Y-98250476D01*
X90435952Y-98298095D01*
X91007380Y-98869523D01*
X91007380Y-98250476D01*
X91102619Y-80740238D02*
X91055000Y-80835476D01*
X90959761Y-80930714D01*
X90816904Y-81073571D01*
X90769285Y-81168809D01*
X90769285Y-81264047D01*
X91007380Y-81216428D02*
X90959761Y-81311666D01*
X90864523Y-81406904D01*
X90674047Y-81454523D01*
X90340714Y-81454523D01*
X90150238Y-81406904D01*
X90055000Y-81311666D01*
X90007380Y-81216428D01*
X90007380Y-81025952D01*
X90055000Y-80930714D01*
X90150238Y-80835476D01*
X90340714Y-80787857D01*
X90674047Y-80787857D01*
X90864523Y-80835476D01*
X90959761Y-80930714D01*
X91007380Y-81025952D01*
X91007380Y-81216428D01*
X91007380Y-79835476D02*
X91007380Y-80406904D01*
X91007380Y-80121190D02*
X90007380Y-80121190D01*
X90150238Y-80216428D01*
X90245476Y-80311666D01*
X90293095Y-80406904D01*
X99496666Y-130897380D02*
X99496666Y-131611666D01*
X99449047Y-131754523D01*
X99353809Y-131849761D01*
X99210952Y-131897380D01*
X99115714Y-131897380D01*
X99972857Y-131897380D02*
X99972857Y-130897380D01*
X100353809Y-130897380D01*
X100449047Y-130945000D01*
X100496666Y-130992619D01*
X100544285Y-131087857D01*
X100544285Y-131230714D01*
X100496666Y-131325952D01*
X100449047Y-131373571D01*
X100353809Y-131421190D01*
X99972857Y-131421190D01*
X101449047Y-130897380D02*
X100972857Y-130897380D01*
X100925238Y-131373571D01*
X100972857Y-131325952D01*
X101068095Y-131278333D01*
X101306190Y-131278333D01*
X101401428Y-131325952D01*
X101449047Y-131373571D01*
X101496666Y-131468809D01*
X101496666Y-131706904D01*
X101449047Y-131802142D01*
X101401428Y-131849761D01*
X101306190Y-131897380D01*
X101068095Y-131897380D01*
X100972857Y-131849761D01*
X100925238Y-131802142D01*
X99496666Y-128357380D02*
X99496666Y-129071666D01*
X99449047Y-129214523D01*
X99353809Y-129309761D01*
X99210952Y-129357380D01*
X99115714Y-129357380D01*
X99972857Y-129357380D02*
X99972857Y-128357380D01*
X100353809Y-128357380D01*
X100449047Y-128405000D01*
X100496666Y-128452619D01*
X100544285Y-128547857D01*
X100544285Y-128690714D01*
X100496666Y-128785952D01*
X100449047Y-128833571D01*
X100353809Y-128881190D01*
X99972857Y-128881190D01*
X101401428Y-128690714D02*
X101401428Y-129357380D01*
X101163333Y-128309761D02*
X100925238Y-129024047D01*
X101544285Y-129024047D01*
X114101666Y-118832380D02*
X114101666Y-119546666D01*
X114054047Y-119689523D01*
X113958809Y-119784761D01*
X113815952Y-119832380D01*
X113720714Y-119832380D01*
X114577857Y-119832380D02*
X114577857Y-118832380D01*
X114958809Y-118832380D01*
X115054047Y-118880000D01*
X115101666Y-118927619D01*
X115149285Y-119022857D01*
X115149285Y-119165714D01*
X115101666Y-119260952D01*
X115054047Y-119308571D01*
X114958809Y-119356190D01*
X114577857Y-119356190D01*
X115482619Y-118832380D02*
X116101666Y-118832380D01*
X115768333Y-119213333D01*
X115911190Y-119213333D01*
X116006428Y-119260952D01*
X116054047Y-119308571D01*
X116101666Y-119403809D01*
X116101666Y-119641904D01*
X116054047Y-119737142D01*
X116006428Y-119784761D01*
X115911190Y-119832380D01*
X115625476Y-119832380D01*
X115530238Y-119784761D01*
X115482619Y-119737142D01*
X89336666Y-134072380D02*
X89336666Y-134786666D01*
X89289047Y-134929523D01*
X89193809Y-135024761D01*
X89050952Y-135072380D01*
X88955714Y-135072380D01*
X89812857Y-135072380D02*
X89812857Y-134072380D01*
X90193809Y-134072380D01*
X90289047Y-134120000D01*
X90336666Y-134167619D01*
X90384285Y-134262857D01*
X90384285Y-134405714D01*
X90336666Y-134500952D01*
X90289047Y-134548571D01*
X90193809Y-134596190D01*
X89812857Y-134596190D01*
X90765238Y-134167619D02*
X90812857Y-134120000D01*
X90908095Y-134072380D01*
X91146190Y-134072380D01*
X91241428Y-134120000D01*
X91289047Y-134167619D01*
X91336666Y-134262857D01*
X91336666Y-134358095D01*
X91289047Y-134500952D01*
X90717619Y-135072380D01*
X91336666Y-135072380D01*
X114101666Y-121372380D02*
X114101666Y-122086666D01*
X114054047Y-122229523D01*
X113958809Y-122324761D01*
X113815952Y-122372380D01*
X113720714Y-122372380D01*
X114577857Y-122372380D02*
X114577857Y-121372380D01*
X114958809Y-121372380D01*
X115054047Y-121420000D01*
X115101666Y-121467619D01*
X115149285Y-121562857D01*
X115149285Y-121705714D01*
X115101666Y-121800952D01*
X115054047Y-121848571D01*
X114958809Y-121896190D01*
X114577857Y-121896190D01*
X116101666Y-122372380D02*
X115530238Y-122372380D01*
X115815952Y-122372380D02*
X115815952Y-121372380D01*
X115720714Y-121515238D01*
X115625476Y-121610476D01*
X115530238Y-121658095D01*
X121586666Y-138517380D02*
X121586666Y-139231666D01*
X121539047Y-139374523D01*
X121443809Y-139469761D01*
X121300952Y-139517380D01*
X121205714Y-139517380D01*
X121967619Y-138517380D02*
X122634285Y-138517380D01*
X122205714Y-139517380D01*
X125607380Y-80343333D02*
X126321666Y-80343333D01*
X126464523Y-80390952D01*
X126559761Y-80486190D01*
X126607380Y-80629047D01*
X126607380Y-80724285D01*
X125607380Y-79438571D02*
X125607380Y-79629047D01*
X125655000Y-79724285D01*
X125702619Y-79771904D01*
X125845476Y-79867142D01*
X126035952Y-79914761D01*
X126416904Y-79914761D01*
X126512142Y-79867142D01*
X126559761Y-79819523D01*
X126607380Y-79724285D01*
X126607380Y-79533809D01*
X126559761Y-79438571D01*
X126512142Y-79390952D01*
X126416904Y-79343333D01*
X126178809Y-79343333D01*
X126083571Y-79390952D01*
X126035952Y-79438571D01*
X125988333Y-79533809D01*
X125988333Y-79724285D01*
X126035952Y-79819523D01*
X126083571Y-79867142D01*
X126178809Y-79914761D01*
X160956666Y-94912380D02*
X160956666Y-95626666D01*
X160909047Y-95769523D01*
X160813809Y-95864761D01*
X160670952Y-95912380D01*
X160575714Y-95912380D01*
X161861428Y-95245714D02*
X161861428Y-95912380D01*
X161623333Y-94864761D02*
X161385238Y-95579047D01*
X162004285Y-95579047D01*
X77136666Y-150582380D02*
X77136666Y-151296666D01*
X77089047Y-151439523D01*
X76993809Y-151534761D01*
X76850952Y-151582380D01*
X76755714Y-151582380D01*
X77517619Y-150582380D02*
X78136666Y-150582380D01*
X77803333Y-150963333D01*
X77946190Y-150963333D01*
X78041428Y-151010952D01*
X78089047Y-151058571D01*
X78136666Y-151153809D01*
X78136666Y-151391904D01*
X78089047Y-151487142D01*
X78041428Y-151534761D01*
X77946190Y-151582380D01*
X77660476Y-151582380D01*
X77565238Y-151534761D01*
X77517619Y-151487142D01*
X61047380Y-134953333D02*
X61761666Y-134953333D01*
X61904523Y-135000952D01*
X61999761Y-135096190D01*
X62047380Y-135239047D01*
X62047380Y-135334285D01*
X61142619Y-134524761D02*
X61095000Y-134477142D01*
X61047380Y-134381904D01*
X61047380Y-134143809D01*
X61095000Y-134048571D01*
X61142619Y-134000952D01*
X61237857Y-133953333D01*
X61333095Y-133953333D01*
X61475952Y-134000952D01*
X62047380Y-134572380D01*
X62047380Y-133953333D01*
X70413571Y-122178333D02*
X70413571Y-122511666D01*
X70937380Y-122511666D02*
X69937380Y-122511666D01*
X69937380Y-122035476D01*
X70032619Y-121702142D02*
X69985000Y-121654523D01*
X69937380Y-121559285D01*
X69937380Y-121321190D01*
X69985000Y-121225952D01*
X70032619Y-121178333D01*
X70127857Y-121130714D01*
X70223095Y-121130714D01*
X70365952Y-121178333D01*
X70937380Y-121749761D01*
X70937380Y-121130714D01*
X64698571Y-122178333D02*
X64698571Y-122511666D01*
X65222380Y-122511666D02*
X64222380Y-122511666D01*
X64222380Y-122035476D01*
X65222380Y-121130714D02*
X65222380Y-121702142D01*
X65222380Y-121416428D02*
X64222380Y-121416428D01*
X64365238Y-121511666D01*
X64460476Y-121606904D01*
X64508095Y-121702142D01*
X89987380Y-111863095D02*
X88987380Y-111863095D01*
X88987380Y-111625000D01*
X89035000Y-111482142D01*
X89130238Y-111386904D01*
X89225476Y-111339285D01*
X89415952Y-111291666D01*
X89558809Y-111291666D01*
X89749285Y-111339285D01*
X89844523Y-111386904D01*
X89939761Y-111482142D01*
X89987380Y-111625000D01*
X89987380Y-111863095D01*
X88987380Y-110434523D02*
X88987380Y-110625000D01*
X89035000Y-110720238D01*
X89082619Y-110767857D01*
X89225476Y-110863095D01*
X89415952Y-110910714D01*
X89796904Y-110910714D01*
X89892142Y-110863095D01*
X89939761Y-110815476D01*
X89987380Y-110720238D01*
X89987380Y-110529761D01*
X89939761Y-110434523D01*
X89892142Y-110386904D01*
X89796904Y-110339285D01*
X89558809Y-110339285D01*
X89463571Y-110386904D01*
X89415952Y-110434523D01*
X89368333Y-110529761D01*
X89368333Y-110720238D01*
X89415952Y-110815476D01*
X89463571Y-110863095D01*
X89558809Y-110910714D01*
X89987380Y-93448095D02*
X88987380Y-93448095D01*
X88987380Y-93210000D01*
X89035000Y-93067142D01*
X89130238Y-92971904D01*
X89225476Y-92924285D01*
X89415952Y-92876666D01*
X89558809Y-92876666D01*
X89749285Y-92924285D01*
X89844523Y-92971904D01*
X89939761Y-93067142D01*
X89987380Y-93210000D01*
X89987380Y-93448095D01*
X88987380Y-91971904D02*
X88987380Y-92448095D01*
X89463571Y-92495714D01*
X89415952Y-92448095D01*
X89368333Y-92352857D01*
X89368333Y-92114761D01*
X89415952Y-92019523D01*
X89463571Y-91971904D01*
X89558809Y-91924285D01*
X89796904Y-91924285D01*
X89892142Y-91971904D01*
X89939761Y-92019523D01*
X89987380Y-92114761D01*
X89987380Y-92352857D01*
X89939761Y-92448095D01*
X89892142Y-92495714D01*
X95781904Y-84472380D02*
X95781904Y-83472380D01*
X96020000Y-83472380D01*
X96162857Y-83520000D01*
X96258095Y-83615238D01*
X96305714Y-83710476D01*
X96353333Y-83900952D01*
X96353333Y-84043809D01*
X96305714Y-84234285D01*
X96258095Y-84329523D01*
X96162857Y-84424761D01*
X96020000Y-84472380D01*
X95781904Y-84472380D01*
X97210476Y-83805714D02*
X97210476Y-84472380D01*
X96972380Y-83424761D02*
X96734285Y-84139047D01*
X97353333Y-84139047D01*
X104671904Y-84472380D02*
X104671904Y-83472380D01*
X104910000Y-83472380D01*
X105052857Y-83520000D01*
X105148095Y-83615238D01*
X105195714Y-83710476D01*
X105243333Y-83900952D01*
X105243333Y-84043809D01*
X105195714Y-84234285D01*
X105148095Y-84329523D01*
X105052857Y-84424761D01*
X104910000Y-84472380D01*
X104671904Y-84472380D01*
X105624285Y-83567619D02*
X105671904Y-83520000D01*
X105767142Y-83472380D01*
X106005238Y-83472380D01*
X106100476Y-83520000D01*
X106148095Y-83567619D01*
X106195714Y-83662857D01*
X106195714Y-83758095D01*
X106148095Y-83900952D01*
X105576666Y-84472380D01*
X106195714Y-84472380D01*
X74766189Y-147577142D02*
X74718570Y-147624761D01*
X74575713Y-147672380D01*
X74480475Y-147672380D01*
X74337617Y-147624761D01*
X74242379Y-147529523D01*
X74194760Y-147434285D01*
X74147141Y-147243809D01*
X74147141Y-147100952D01*
X74194760Y-146910476D01*
X74242379Y-146815238D01*
X74337617Y-146720000D01*
X74480475Y-146672380D01*
X74575713Y-146672380D01*
X74718570Y-146720000D01*
X74766189Y-146767619D01*
X75099522Y-146672380D02*
X75766189Y-146672380D01*
X75337617Y-147672380D01*
X81768333Y-139132142D02*
X81720714Y-139179761D01*
X81577857Y-139227380D01*
X81482619Y-139227380D01*
X81339761Y-139179761D01*
X81244523Y-139084523D01*
X81196904Y-138989285D01*
X81149285Y-138798809D01*
X81149285Y-138655952D01*
X81196904Y-138465476D01*
X81244523Y-138370238D01*
X81339761Y-138275000D01*
X81482619Y-138227380D01*
X81577857Y-138227380D01*
X81720714Y-138275000D01*
X81768333Y-138322619D01*
X82673095Y-138227380D02*
X82196904Y-138227380D01*
X82149285Y-138703571D01*
X82196904Y-138655952D01*
X82292142Y-138608333D01*
X82530238Y-138608333D01*
X82625476Y-138655952D01*
X82673095Y-138703571D01*
X82720714Y-138798809D01*
X82720714Y-139036904D01*
X82673095Y-139132142D01*
X82625476Y-139179761D01*
X82530238Y-139227380D01*
X82292142Y-139227380D01*
X82196904Y-139179761D01*
X82149285Y-139132142D01*
X86193333Y-122912142D02*
X86145714Y-122959761D01*
X86002857Y-123007380D01*
X85907619Y-123007380D01*
X85764761Y-122959761D01*
X85669523Y-122864523D01*
X85621904Y-122769285D01*
X85574285Y-122578809D01*
X85574285Y-122435952D01*
X85621904Y-122245476D01*
X85669523Y-122150238D01*
X85764761Y-122055000D01*
X85907619Y-122007380D01*
X86002857Y-122007380D01*
X86145714Y-122055000D01*
X86193333Y-122102619D01*
X87050476Y-122340714D02*
X87050476Y-123007380D01*
X86812380Y-121959761D02*
X86574285Y-122674047D01*
X87193333Y-122674047D01*
X86848333Y-161602142D02*
X86800714Y-161649761D01*
X86657857Y-161697380D01*
X86562619Y-161697380D01*
X86419761Y-161649761D01*
X86324523Y-161554523D01*
X86276904Y-161459285D01*
X86229285Y-161268809D01*
X86229285Y-161125952D01*
X86276904Y-160935476D01*
X86324523Y-160840238D01*
X86419761Y-160745000D01*
X86562619Y-160697380D01*
X86657857Y-160697380D01*
X86800714Y-160745000D01*
X86848333Y-160792619D01*
X87181666Y-160697380D02*
X87800714Y-160697380D01*
X87467380Y-161078333D01*
X87610238Y-161078333D01*
X87705476Y-161125952D01*
X87753095Y-161173571D01*
X87800714Y-161268809D01*
X87800714Y-161506904D01*
X87753095Y-161602142D01*
X87705476Y-161649761D01*
X87610238Y-161697380D01*
X87324523Y-161697380D01*
X87229285Y-161649761D01*
X87181666Y-161602142D01*
X86193333Y-125452142D02*
X86145714Y-125499761D01*
X86002857Y-125547380D01*
X85907619Y-125547380D01*
X85764761Y-125499761D01*
X85669523Y-125404523D01*
X85621904Y-125309285D01*
X85574285Y-125118809D01*
X85574285Y-124975952D01*
X85621904Y-124785476D01*
X85669523Y-124690238D01*
X85764761Y-124595000D01*
X85907619Y-124547380D01*
X86002857Y-124547380D01*
X86145714Y-124595000D01*
X86193333Y-124642619D01*
X86574285Y-124642619D02*
X86621904Y-124595000D01*
X86717142Y-124547380D01*
X86955238Y-124547380D01*
X87050476Y-124595000D01*
X87098095Y-124642619D01*
X87145714Y-124737857D01*
X87145714Y-124833095D01*
X87098095Y-124975952D01*
X86526666Y-125547380D01*
X87145714Y-125547380D01*
M02*
