M48
; DRILL file {KiCad 5.1.5+dfsg1-2build2} date среда, 20. јул 2022. 01:20:09 CEST
; FORMAT={-:-/ absolute / inch / decimal}
; #@! TF.CreationDate,2022-07-20T01:20:09+02:00
; #@! TF.GenerationSoftware,Kicad,Pcbnew,5.1.5+dfsg1-2build2
; #@! TF.FileFunction,Plated,1,2,PTH
FMAT,2
INCH
T1C0.0315
T2C0.0354
T3C0.1181
T4C0.1260
%
G90
G05
T1
X2.825Y-2.125
X2.825Y-2.2234
X2.125Y-2.6266
X2.125Y-2.725
X2.975Y-2.6
X3.0734Y-2.6
T2
X2.975Y-2.45
X2.975Y-2.75
X2.7Y-2.3957
X2.7Y-2.75
X2.55Y-2.0
X2.55Y-2.1
X2.55Y-2.2
X2.55Y-2.3
X2.85Y-2.4
X2.85Y-2.7543
X2.25Y-2.425
X2.25Y-2.725
X2.35Y-2.425
X2.35Y-2.725
X2.45Y-2.425
X2.45Y-2.725
X2.55Y-2.425
X2.55Y-2.725
T3
X3.3687Y-2.45
X3.3687Y-2.7492
T4
X1.0303Y-2.3984
X1.0303Y-2.8276
X1.7508Y-2.0047
X1.7508Y-2.4339
T0
M30
