G04 #@! TF.GenerationSoftware,KiCad,Pcbnew,5.1.5+dfsg1-2build2*
G04 #@! TF.CreationDate,2022-07-20T01:20:36+02:00*
G04 #@! TF.ProjectId,CapacitiveSensor,43617061-6369-4746-9976-6553656e736f,rev?*
G04 #@! TF.SameCoordinates,Original*
G04 #@! TF.FileFunction,Soldermask,Top*
G04 #@! TF.FilePolarity,Negative*
%FSLAX46Y46*%
G04 Gerber Fmt 4.6, Leading zero omitted, Abs format (unit mm)*
G04 Created by KiCad (PCBNEW 5.1.5+dfsg1-2build2) date 2022-07-20 01:20:36*
%MOMM*%
%LPD*%
G04 APERTURE LIST*
%ADD10C,0.100000*%
G04 APERTURE END LIST*
D10*
G36*
X26768254Y-69847818D02*
G01*
X27141511Y-70002426D01*
X27141513Y-70002427D01*
X27477436Y-70226884D01*
X27763116Y-70512564D01*
X27956185Y-70801511D01*
X27987574Y-70848489D01*
X28142182Y-71221746D01*
X28221000Y-71617993D01*
X28221000Y-72022007D01*
X28142182Y-72418254D01*
X27987574Y-72791511D01*
X27987573Y-72791513D01*
X27763116Y-73127436D01*
X27477436Y-73413116D01*
X27141513Y-73637573D01*
X27141512Y-73637574D01*
X27141511Y-73637574D01*
X26768254Y-73792182D01*
X26372007Y-73871000D01*
X25967993Y-73871000D01*
X25571746Y-73792182D01*
X25198489Y-73637574D01*
X25198488Y-73637574D01*
X25198487Y-73637573D01*
X24862564Y-73413116D01*
X24576884Y-73127436D01*
X24352427Y-72791513D01*
X24352426Y-72791511D01*
X24197818Y-72418254D01*
X24119000Y-72022007D01*
X24119000Y-71617993D01*
X24197818Y-71221746D01*
X24352426Y-70848489D01*
X24383816Y-70801511D01*
X24576884Y-70512564D01*
X24862564Y-70226884D01*
X25198487Y-70002427D01*
X25198489Y-70002426D01*
X25571746Y-69847818D01*
X25967993Y-69769000D01*
X26372007Y-69769000D01*
X26768254Y-69847818D01*
G37*
G36*
X86163254Y-67857818D02*
G01*
X86536511Y-68012426D01*
X86536513Y-68012427D01*
X86872436Y-68236884D01*
X87158116Y-68522564D01*
X87349572Y-68809097D01*
X87382574Y-68858489D01*
X87537182Y-69231746D01*
X87616000Y-69627993D01*
X87616000Y-70032007D01*
X87537182Y-70428254D01*
X87426738Y-70694889D01*
X87382573Y-70801513D01*
X87158116Y-71137436D01*
X86872436Y-71423116D01*
X86536513Y-71647573D01*
X86536512Y-71647574D01*
X86536511Y-71647574D01*
X86163254Y-71802182D01*
X85767007Y-71881000D01*
X85362993Y-71881000D01*
X84966746Y-71802182D01*
X84593489Y-71647574D01*
X84593488Y-71647574D01*
X84593487Y-71647573D01*
X84257564Y-71423116D01*
X83971884Y-71137436D01*
X83747427Y-70801513D01*
X83703262Y-70694889D01*
X83592818Y-70428254D01*
X83514000Y-70032007D01*
X83514000Y-69627993D01*
X83592818Y-69231746D01*
X83747426Y-68858489D01*
X83780429Y-68809097D01*
X83971884Y-68522564D01*
X84257564Y-68236884D01*
X84593487Y-68012427D01*
X84593489Y-68012426D01*
X84966746Y-67857818D01*
X85362993Y-67779000D01*
X85767007Y-67779000D01*
X86163254Y-67857818D01*
G37*
G36*
X79243210Y-68808489D02*
G01*
X79329950Y-68834802D01*
X79409889Y-68877530D01*
X79479962Y-68935038D01*
X79537470Y-69005111D01*
X79580198Y-69085050D01*
X79606511Y-69171790D01*
X79616000Y-69268140D01*
X79616000Y-70431860D01*
X79606511Y-70528210D01*
X79580198Y-70614950D01*
X79537470Y-70694889D01*
X79479962Y-70764962D01*
X79409889Y-70822470D01*
X79329950Y-70865198D01*
X79243210Y-70891511D01*
X79146860Y-70901000D01*
X74983140Y-70901000D01*
X74886790Y-70891511D01*
X74800050Y-70865198D01*
X74720111Y-70822470D01*
X74650038Y-70764962D01*
X74592530Y-70694889D01*
X74549802Y-70614950D01*
X74523489Y-70528210D01*
X74514000Y-70431860D01*
X74514000Y-69268140D01*
X74523489Y-69171790D01*
X74549802Y-69085050D01*
X74592530Y-69005111D01*
X74650038Y-68935038D01*
X74720111Y-68877530D01*
X74800050Y-68834802D01*
X74886790Y-68808489D01*
X74983140Y-68799000D01*
X79146860Y-68799000D01*
X79243210Y-68808489D01*
G37*
G36*
X72576425Y-68172760D02*
G01*
X72576428Y-68172761D01*
X72576429Y-68172761D01*
X72755693Y-68227140D01*
X72755696Y-68227142D01*
X72755697Y-68227142D01*
X72920903Y-68315446D01*
X73065712Y-68434288D01*
X73184554Y-68579097D01*
X73237725Y-68678574D01*
X73272860Y-68744307D01*
X73300311Y-68834802D01*
X73327240Y-68923574D01*
X73341000Y-69063283D01*
X73341000Y-69856718D01*
X73327240Y-69996425D01*
X73327239Y-69996428D01*
X73327239Y-69996429D01*
X73272860Y-70175693D01*
X73272858Y-70175696D01*
X73272858Y-70175697D01*
X73184554Y-70340903D01*
X73065712Y-70485712D01*
X72920903Y-70604554D01*
X72755696Y-70692858D01*
X72755692Y-70692860D01*
X72576428Y-70747239D01*
X72576427Y-70747239D01*
X72576424Y-70747240D01*
X72390000Y-70765601D01*
X72203575Y-70747240D01*
X72203572Y-70747239D01*
X72203571Y-70747239D01*
X72024307Y-70692860D01*
X72024303Y-70692858D01*
X71859097Y-70604554D01*
X71714288Y-70485712D01*
X71595446Y-70340903D01*
X71507142Y-70175696D01*
X71507141Y-70175693D01*
X71507140Y-70175692D01*
X71452761Y-69996428D01*
X71452761Y-69996427D01*
X71452760Y-69996424D01*
X71439000Y-69856717D01*
X71439000Y-69063282D01*
X71452760Y-68923570D01*
X71507140Y-68744308D01*
X71595447Y-68579097D01*
X71714289Y-68434288D01*
X71859098Y-68315446D01*
X72024304Y-68227142D01*
X72024305Y-68227142D01*
X72024308Y-68227140D01*
X72203572Y-68172761D01*
X72203573Y-68172761D01*
X72203576Y-68172760D01*
X72390000Y-68154399D01*
X72576425Y-68172760D01*
G37*
G36*
X68766425Y-68062760D02*
G01*
X68766428Y-68062761D01*
X68766429Y-68062761D01*
X68945693Y-68117140D01*
X68945696Y-68117142D01*
X68945697Y-68117142D01*
X69110903Y-68205446D01*
X69255712Y-68324288D01*
X69374554Y-68469097D01*
X69433350Y-68579097D01*
X69462860Y-68634307D01*
X69502364Y-68764534D01*
X69517240Y-68813574D01*
X69531000Y-68953283D01*
X69531000Y-69746718D01*
X69517240Y-69886425D01*
X69517239Y-69886428D01*
X69517239Y-69886429D01*
X69462860Y-70065693D01*
X69462858Y-70065696D01*
X69462858Y-70065697D01*
X69374554Y-70230903D01*
X69255712Y-70375712D01*
X69110903Y-70494554D01*
X68957404Y-70576600D01*
X68945692Y-70582860D01*
X68766428Y-70637239D01*
X68766427Y-70637239D01*
X68766424Y-70637240D01*
X68580000Y-70655601D01*
X68393575Y-70637240D01*
X68393572Y-70637239D01*
X68393571Y-70637239D01*
X68214307Y-70582860D01*
X68202595Y-70576600D01*
X68049097Y-70494554D01*
X67904288Y-70375712D01*
X67785446Y-70230903D01*
X67697142Y-70065696D01*
X67697141Y-70065693D01*
X67697140Y-70065692D01*
X67642761Y-69886428D01*
X67642761Y-69886427D01*
X67642760Y-69886424D01*
X67629000Y-69746717D01*
X67629000Y-68953282D01*
X67642760Y-68813570D01*
X67697140Y-68634308D01*
X67785447Y-68469097D01*
X67904289Y-68324288D01*
X68049098Y-68205446D01*
X68214304Y-68117142D01*
X68214305Y-68117142D01*
X68214308Y-68117140D01*
X68393572Y-68062761D01*
X68393573Y-68062761D01*
X68393576Y-68062760D01*
X68580000Y-68044399D01*
X68766425Y-68062760D01*
G37*
G36*
X57336425Y-67927760D02*
G01*
X57336428Y-67927761D01*
X57336429Y-67927761D01*
X57515693Y-67982140D01*
X57515696Y-67982142D01*
X57515697Y-67982142D01*
X57680903Y-68070446D01*
X57825712Y-68189288D01*
X57944554Y-68334097D01*
X58032859Y-68499305D01*
X58087240Y-68678574D01*
X58101000Y-68818283D01*
X58101000Y-69611718D01*
X58087240Y-69751425D01*
X58087239Y-69751428D01*
X58087239Y-69751429D01*
X58032860Y-69930693D01*
X58032858Y-69930696D01*
X58032858Y-69930697D01*
X57944554Y-70095903D01*
X57825712Y-70240712D01*
X57680903Y-70359554D01*
X57545626Y-70431860D01*
X57515692Y-70447860D01*
X57336428Y-70502239D01*
X57336427Y-70502239D01*
X57336424Y-70502240D01*
X57150000Y-70520601D01*
X56963575Y-70502240D01*
X56963572Y-70502239D01*
X56963571Y-70502239D01*
X56784307Y-70447860D01*
X56754373Y-70431860D01*
X56619097Y-70359554D01*
X56474288Y-70240712D01*
X56355446Y-70095903D01*
X56267142Y-69930696D01*
X56267141Y-69930693D01*
X56267140Y-69930692D01*
X56212761Y-69751428D01*
X56212761Y-69751427D01*
X56212760Y-69751424D01*
X56199000Y-69611717D01*
X56199000Y-68818282D01*
X56212760Y-68678570D01*
X56267140Y-68499308D01*
X56355447Y-68334097D01*
X56474289Y-68189288D01*
X56619098Y-68070446D01*
X56784304Y-67982142D01*
X56784305Y-67982142D01*
X56784308Y-67982140D01*
X56963572Y-67927761D01*
X56963573Y-67927761D01*
X56963576Y-67927760D01*
X57150000Y-67909399D01*
X57336425Y-67927760D01*
G37*
G36*
X59876425Y-67927760D02*
G01*
X59876428Y-67927761D01*
X59876429Y-67927761D01*
X60055693Y-67982140D01*
X60055696Y-67982142D01*
X60055697Y-67982142D01*
X60220903Y-68070446D01*
X60365712Y-68189288D01*
X60484554Y-68334097D01*
X60572859Y-68499305D01*
X60627240Y-68678574D01*
X60641000Y-68818283D01*
X60641000Y-69611718D01*
X60627240Y-69751425D01*
X60627239Y-69751428D01*
X60627239Y-69751429D01*
X60572860Y-69930693D01*
X60572858Y-69930696D01*
X60572858Y-69930697D01*
X60484554Y-70095903D01*
X60365712Y-70240712D01*
X60220903Y-70359554D01*
X60085626Y-70431860D01*
X60055692Y-70447860D01*
X59876428Y-70502239D01*
X59876427Y-70502239D01*
X59876424Y-70502240D01*
X59690000Y-70520601D01*
X59503575Y-70502240D01*
X59503572Y-70502239D01*
X59503571Y-70502239D01*
X59324307Y-70447860D01*
X59294373Y-70431860D01*
X59159097Y-70359554D01*
X59014288Y-70240712D01*
X58895446Y-70095903D01*
X58807142Y-69930696D01*
X58807141Y-69930693D01*
X58807140Y-69930692D01*
X58752761Y-69751428D01*
X58752761Y-69751427D01*
X58752760Y-69751424D01*
X58739000Y-69611717D01*
X58739000Y-68818282D01*
X58752760Y-68678570D01*
X58807140Y-68499308D01*
X58895447Y-68334097D01*
X59014289Y-68189288D01*
X59159098Y-68070446D01*
X59324304Y-67982142D01*
X59324305Y-67982142D01*
X59324308Y-67982140D01*
X59503572Y-67927761D01*
X59503573Y-67927761D01*
X59503576Y-67927760D01*
X59690000Y-67909399D01*
X59876425Y-67927760D01*
G37*
G36*
X62416425Y-67927760D02*
G01*
X62416428Y-67927761D01*
X62416429Y-67927761D01*
X62595693Y-67982140D01*
X62595696Y-67982142D01*
X62595697Y-67982142D01*
X62760903Y-68070446D01*
X62905712Y-68189288D01*
X63024554Y-68334097D01*
X63112859Y-68499305D01*
X63167240Y-68678574D01*
X63181000Y-68818283D01*
X63181000Y-69611718D01*
X63167240Y-69751425D01*
X63167239Y-69751428D01*
X63167239Y-69751429D01*
X63112860Y-69930693D01*
X63112858Y-69930696D01*
X63112858Y-69930697D01*
X63024554Y-70095903D01*
X62905712Y-70240712D01*
X62760903Y-70359554D01*
X62625626Y-70431860D01*
X62595692Y-70447860D01*
X62416428Y-70502239D01*
X62416427Y-70502239D01*
X62416424Y-70502240D01*
X62230000Y-70520601D01*
X62043575Y-70502240D01*
X62043572Y-70502239D01*
X62043571Y-70502239D01*
X61864307Y-70447860D01*
X61834373Y-70431860D01*
X61699097Y-70359554D01*
X61554288Y-70240712D01*
X61435446Y-70095903D01*
X61347142Y-69930696D01*
X61347141Y-69930693D01*
X61347140Y-69930692D01*
X61292761Y-69751428D01*
X61292761Y-69751427D01*
X61292760Y-69751424D01*
X61279000Y-69611717D01*
X61279000Y-68818282D01*
X61292760Y-68678570D01*
X61347140Y-68499308D01*
X61435447Y-68334097D01*
X61554289Y-68189288D01*
X61699098Y-68070446D01*
X61864304Y-67982142D01*
X61864305Y-67982142D01*
X61864308Y-67982140D01*
X62043572Y-67927761D01*
X62043573Y-67927761D01*
X62043576Y-67927760D01*
X62230000Y-67909399D01*
X62416425Y-67927760D01*
G37*
G36*
X64956425Y-67927760D02*
G01*
X64956428Y-67927761D01*
X64956429Y-67927761D01*
X65135693Y-67982140D01*
X65135696Y-67982142D01*
X65135697Y-67982142D01*
X65300903Y-68070446D01*
X65445712Y-68189288D01*
X65564554Y-68334097D01*
X65652859Y-68499305D01*
X65707240Y-68678574D01*
X65721000Y-68818283D01*
X65721000Y-69611718D01*
X65707240Y-69751425D01*
X65707239Y-69751428D01*
X65707239Y-69751429D01*
X65652860Y-69930693D01*
X65652858Y-69930696D01*
X65652858Y-69930697D01*
X65564554Y-70095903D01*
X65445712Y-70240712D01*
X65300903Y-70359554D01*
X65165626Y-70431860D01*
X65135692Y-70447860D01*
X64956428Y-70502239D01*
X64956427Y-70502239D01*
X64956424Y-70502240D01*
X64770000Y-70520601D01*
X64583575Y-70502240D01*
X64583572Y-70502239D01*
X64583571Y-70502239D01*
X64404307Y-70447860D01*
X64374373Y-70431860D01*
X64239097Y-70359554D01*
X64094288Y-70240712D01*
X63975446Y-70095903D01*
X63887142Y-69930696D01*
X63887141Y-69930693D01*
X63887140Y-69930692D01*
X63832761Y-69751428D01*
X63832761Y-69751427D01*
X63832760Y-69751424D01*
X63819000Y-69611717D01*
X63819000Y-68818282D01*
X63832760Y-68678570D01*
X63887140Y-68499308D01*
X63975447Y-68334097D01*
X64094289Y-68189288D01*
X64239098Y-68070446D01*
X64404304Y-67982142D01*
X64404305Y-67982142D01*
X64404308Y-67982140D01*
X64583572Y-67927761D01*
X64583573Y-67927761D01*
X64583576Y-67927760D01*
X64770000Y-67909399D01*
X64956425Y-67927760D01*
G37*
G36*
X54252395Y-68300546D02*
G01*
X54425466Y-68372234D01*
X54425467Y-68372235D01*
X54581227Y-68476310D01*
X54713690Y-68608773D01*
X54713691Y-68608775D01*
X54817766Y-68764534D01*
X54889454Y-68937605D01*
X54926000Y-69121333D01*
X54926000Y-69308667D01*
X54889454Y-69492395D01*
X54817766Y-69665466D01*
X54817765Y-69665467D01*
X54713690Y-69821227D01*
X54581227Y-69953690D01*
X54517271Y-69996424D01*
X54425466Y-70057766D01*
X54252395Y-70129454D01*
X54068667Y-70166000D01*
X53881333Y-70166000D01*
X53697605Y-70129454D01*
X53524534Y-70057766D01*
X53432729Y-69996424D01*
X53368773Y-69953690D01*
X53236310Y-69821227D01*
X53132235Y-69665467D01*
X53132234Y-69665466D01*
X53060546Y-69492395D01*
X53024000Y-69308667D01*
X53024000Y-69121333D01*
X53060546Y-68937605D01*
X53132234Y-68764534D01*
X53236309Y-68608775D01*
X53236310Y-68608773D01*
X53368773Y-68476310D01*
X53524533Y-68372235D01*
X53524534Y-68372234D01*
X53697605Y-68300546D01*
X53881333Y-68264000D01*
X54068667Y-68264000D01*
X54252395Y-68300546D01*
G37*
G36*
X54252395Y-65800546D02*
G01*
X54425466Y-65872234D01*
X54425467Y-65872235D01*
X54581227Y-65976310D01*
X54713690Y-66108773D01*
X54766081Y-66187182D01*
X54817766Y-66264534D01*
X54889454Y-66437605D01*
X54926000Y-66621333D01*
X54926000Y-66808667D01*
X54889454Y-66992395D01*
X54817766Y-67165466D01*
X54817765Y-67165467D01*
X54713690Y-67321227D01*
X54581227Y-67453690D01*
X54502818Y-67506081D01*
X54425466Y-67557766D01*
X54252395Y-67629454D01*
X54068667Y-67666000D01*
X53881333Y-67666000D01*
X53697605Y-67629454D01*
X53524534Y-67557766D01*
X53447182Y-67506081D01*
X53368773Y-67453690D01*
X53236310Y-67321227D01*
X53132235Y-67165467D01*
X53132234Y-67165466D01*
X53060546Y-66992395D01*
X53024000Y-66808667D01*
X53024000Y-66621333D01*
X53060546Y-66437605D01*
X53132234Y-66264534D01*
X53183919Y-66187182D01*
X53236310Y-66108773D01*
X53368773Y-65976310D01*
X53524533Y-65872235D01*
X53524534Y-65872234D01*
X53697605Y-65800546D01*
X53881333Y-65764000D01*
X54068667Y-65764000D01*
X54252395Y-65800546D01*
G37*
G36*
X75842395Y-65125546D02*
G01*
X76015466Y-65197234D01*
X76015467Y-65197235D01*
X76171227Y-65301310D01*
X76303690Y-65433773D01*
X76303691Y-65433775D01*
X76407766Y-65589534D01*
X76479454Y-65762605D01*
X76516000Y-65946333D01*
X76516000Y-66133667D01*
X76479454Y-66317395D01*
X76407766Y-66490466D01*
X76407765Y-66490467D01*
X76303690Y-66646227D01*
X76171227Y-66778690D01*
X76126366Y-66808665D01*
X76015466Y-66882766D01*
X75842395Y-66954454D01*
X75658667Y-66991000D01*
X75471333Y-66991000D01*
X75287605Y-66954454D01*
X75114534Y-66882766D01*
X75003634Y-66808665D01*
X74958773Y-66778690D01*
X74826310Y-66646227D01*
X74722235Y-66490467D01*
X74722234Y-66490466D01*
X74650546Y-66317395D01*
X74614000Y-66133667D01*
X74614000Y-65946333D01*
X74650546Y-65762605D01*
X74722234Y-65589534D01*
X74826309Y-65433775D01*
X74826310Y-65433773D01*
X74958773Y-65301310D01*
X75114533Y-65197235D01*
X75114534Y-65197234D01*
X75287605Y-65125546D01*
X75471333Y-65089000D01*
X75658667Y-65089000D01*
X75842395Y-65125546D01*
G37*
G36*
X78342395Y-65125546D02*
G01*
X78515466Y-65197234D01*
X78515467Y-65197235D01*
X78671227Y-65301310D01*
X78803690Y-65433773D01*
X78803691Y-65433775D01*
X78907766Y-65589534D01*
X78979454Y-65762605D01*
X79016000Y-65946333D01*
X79016000Y-66133667D01*
X78979454Y-66317395D01*
X78907766Y-66490466D01*
X78907765Y-66490467D01*
X78803690Y-66646227D01*
X78671227Y-66778690D01*
X78626366Y-66808665D01*
X78515466Y-66882766D01*
X78342395Y-66954454D01*
X78158667Y-66991000D01*
X77971333Y-66991000D01*
X77787605Y-66954454D01*
X77614534Y-66882766D01*
X77503634Y-66808665D01*
X77458773Y-66778690D01*
X77326310Y-66646227D01*
X77222235Y-66490467D01*
X77222234Y-66490466D01*
X77150546Y-66317395D01*
X77114000Y-66133667D01*
X77114000Y-65946333D01*
X77150546Y-65762605D01*
X77222234Y-65589534D01*
X77326309Y-65433775D01*
X77326310Y-65433773D01*
X77458773Y-65301310D01*
X77614533Y-65197235D01*
X77614534Y-65197234D01*
X77787605Y-65125546D01*
X77971333Y-65089000D01*
X78158667Y-65089000D01*
X78342395Y-65125546D01*
G37*
G36*
X86163254Y-60257818D02*
G01*
X86536511Y-60412426D01*
X86536513Y-60412427D01*
X86872436Y-60636884D01*
X87158116Y-60922564D01*
X87381934Y-61257530D01*
X87382574Y-61258489D01*
X87537182Y-61631746D01*
X87616000Y-62027993D01*
X87616000Y-62432007D01*
X87537182Y-62828254D01*
X87382574Y-63201511D01*
X87382573Y-63201513D01*
X87158116Y-63537436D01*
X86872436Y-63823116D01*
X86536513Y-64047573D01*
X86536512Y-64047574D01*
X86536511Y-64047574D01*
X86163254Y-64202182D01*
X85767007Y-64281000D01*
X85362993Y-64281000D01*
X84966746Y-64202182D01*
X84593489Y-64047574D01*
X84593488Y-64047574D01*
X84593487Y-64047573D01*
X84257564Y-63823116D01*
X83971884Y-63537436D01*
X83747427Y-63201513D01*
X83747426Y-63201511D01*
X83592818Y-62828254D01*
X83514000Y-62432007D01*
X83514000Y-62027993D01*
X83592818Y-61631746D01*
X83747426Y-61258489D01*
X83748067Y-61257530D01*
X83971884Y-60922564D01*
X84257564Y-60636884D01*
X84593487Y-60412427D01*
X84593489Y-60412426D01*
X84966746Y-60257818D01*
X85362993Y-60179000D01*
X85767007Y-60179000D01*
X86163254Y-60257818D01*
G37*
G36*
X45068254Y-59847818D02*
G01*
X45311295Y-59948489D01*
X45441513Y-60002427D01*
X45777436Y-60226884D01*
X46063116Y-60512564D01*
X46217963Y-60744308D01*
X46287574Y-60848489D01*
X46442182Y-61221746D01*
X46521000Y-61617993D01*
X46521000Y-62022007D01*
X46442182Y-62418254D01*
X46302490Y-62755500D01*
X46287573Y-62791513D01*
X46063116Y-63127436D01*
X45777436Y-63413116D01*
X45441513Y-63637573D01*
X45441512Y-63637574D01*
X45441511Y-63637574D01*
X45068254Y-63792182D01*
X44672007Y-63871000D01*
X44267993Y-63871000D01*
X43871746Y-63792182D01*
X43498489Y-63637574D01*
X43498488Y-63637574D01*
X43498487Y-63637573D01*
X43162564Y-63413116D01*
X42876884Y-63127436D01*
X42652427Y-62791513D01*
X42637510Y-62755500D01*
X42497818Y-62418254D01*
X42419000Y-62022007D01*
X42419000Y-61617993D01*
X42497818Y-61221746D01*
X42652426Y-60848489D01*
X42722038Y-60744308D01*
X42876884Y-60512564D01*
X43162564Y-60226884D01*
X43498487Y-60002427D01*
X43628705Y-59948489D01*
X43871746Y-59847818D01*
X44267993Y-59769000D01*
X44672007Y-59769000D01*
X45068254Y-59847818D01*
G37*
G36*
X79243210Y-61188489D02*
G01*
X79329950Y-61214802D01*
X79409889Y-61257530D01*
X79479962Y-61315038D01*
X79537470Y-61385111D01*
X79580198Y-61465050D01*
X79606511Y-61551790D01*
X79616000Y-61648140D01*
X79616000Y-62811860D01*
X79606511Y-62908210D01*
X79580198Y-62994950D01*
X79537470Y-63074889D01*
X79479962Y-63144962D01*
X79409889Y-63202470D01*
X79329950Y-63245198D01*
X79243210Y-63271511D01*
X79146860Y-63281000D01*
X74983140Y-63281000D01*
X74886790Y-63271511D01*
X74800050Y-63245198D01*
X74720111Y-63202470D01*
X74650038Y-63144962D01*
X74592530Y-63074889D01*
X74549802Y-62994950D01*
X74523489Y-62908210D01*
X74514000Y-62811860D01*
X74514000Y-61648140D01*
X74523489Y-61551790D01*
X74549802Y-61465050D01*
X74592530Y-61385111D01*
X74650038Y-61315038D01*
X74720111Y-61257530D01*
X74800050Y-61214802D01*
X74886790Y-61188489D01*
X74983140Y-61179000D01*
X79146860Y-61179000D01*
X79243210Y-61188489D01*
G37*
G36*
X26768254Y-58947818D02*
G01*
X27141511Y-59102426D01*
X27141513Y-59102427D01*
X27477436Y-59326884D01*
X27763116Y-59612564D01*
X27920309Y-59847819D01*
X27987574Y-59948489D01*
X28142182Y-60321746D01*
X28221000Y-60717993D01*
X28221000Y-61122007D01*
X28142182Y-61518254D01*
X28047549Y-61746718D01*
X27987573Y-61891513D01*
X27763116Y-62227436D01*
X27477436Y-62513116D01*
X27141513Y-62737573D01*
X27141512Y-62737574D01*
X27141511Y-62737574D01*
X26768254Y-62892182D01*
X26372007Y-62971000D01*
X25967993Y-62971000D01*
X25571746Y-62892182D01*
X25198489Y-62737574D01*
X25198488Y-62737574D01*
X25198487Y-62737573D01*
X24862564Y-62513116D01*
X24576884Y-62227436D01*
X24352427Y-61891513D01*
X24292451Y-61746718D01*
X24197818Y-61518254D01*
X24119000Y-61122007D01*
X24119000Y-60717993D01*
X24197818Y-60321746D01*
X24352426Y-59948489D01*
X24419692Y-59847819D01*
X24576884Y-59612564D01*
X24862564Y-59326884D01*
X25198487Y-59102427D01*
X25198489Y-59102426D01*
X25571746Y-58947818D01*
X25967993Y-58869000D01*
X26372007Y-58869000D01*
X26768254Y-58947818D01*
G37*
G36*
X62416425Y-60307760D02*
G01*
X62416428Y-60307761D01*
X62416429Y-60307761D01*
X62595693Y-60362140D01*
X62595696Y-60362142D01*
X62595697Y-60362142D01*
X62760903Y-60450446D01*
X62905712Y-60569288D01*
X63024554Y-60714097D01*
X63112859Y-60879305D01*
X63112860Y-60879307D01*
X63157117Y-61025203D01*
X63167240Y-61058574D01*
X63181000Y-61198283D01*
X63181000Y-61991718D01*
X63167240Y-62131425D01*
X63167239Y-62131428D01*
X63167239Y-62131429D01*
X63112860Y-62310693D01*
X63112858Y-62310696D01*
X63112858Y-62310697D01*
X63024554Y-62475903D01*
X62905712Y-62620712D01*
X62760903Y-62739554D01*
X62663693Y-62791513D01*
X62595692Y-62827860D01*
X62416428Y-62882239D01*
X62416427Y-62882239D01*
X62416424Y-62882240D01*
X62230000Y-62900601D01*
X62043575Y-62882240D01*
X62043572Y-62882239D01*
X62043571Y-62882239D01*
X61864307Y-62827860D01*
X61834373Y-62811860D01*
X61699097Y-62739554D01*
X61554288Y-62620712D01*
X61435446Y-62475903D01*
X61347142Y-62310696D01*
X61347141Y-62310693D01*
X61347140Y-62310692D01*
X61292761Y-62131428D01*
X61292761Y-62131427D01*
X61292760Y-62131424D01*
X61279000Y-61991717D01*
X61279000Y-61198282D01*
X61292760Y-61058570D01*
X61347140Y-60879308D01*
X61435447Y-60714097D01*
X61554289Y-60569288D01*
X61699098Y-60450446D01*
X61864304Y-60362142D01*
X61864305Y-60362142D01*
X61864308Y-60362140D01*
X62043572Y-60307761D01*
X62043573Y-60307761D01*
X62043576Y-60307760D01*
X62230000Y-60289399D01*
X62416425Y-60307760D01*
G37*
G36*
X59876425Y-60307760D02*
G01*
X59876428Y-60307761D01*
X59876429Y-60307761D01*
X60055693Y-60362140D01*
X60055696Y-60362142D01*
X60055697Y-60362142D01*
X60220903Y-60450446D01*
X60365712Y-60569288D01*
X60484554Y-60714097D01*
X60572859Y-60879305D01*
X60572860Y-60879307D01*
X60617117Y-61025203D01*
X60627240Y-61058574D01*
X60641000Y-61198283D01*
X60641000Y-61991718D01*
X60627240Y-62131425D01*
X60627239Y-62131428D01*
X60627239Y-62131429D01*
X60572860Y-62310693D01*
X60572858Y-62310696D01*
X60572858Y-62310697D01*
X60484554Y-62475903D01*
X60365712Y-62620712D01*
X60220903Y-62739554D01*
X60123693Y-62791513D01*
X60055692Y-62827860D01*
X59876428Y-62882239D01*
X59876427Y-62882239D01*
X59876424Y-62882240D01*
X59690000Y-62900601D01*
X59503575Y-62882240D01*
X59503572Y-62882239D01*
X59503571Y-62882239D01*
X59324307Y-62827860D01*
X59294373Y-62811860D01*
X59159097Y-62739554D01*
X59014288Y-62620712D01*
X58895446Y-62475903D01*
X58807142Y-62310696D01*
X58807141Y-62310693D01*
X58807140Y-62310692D01*
X58752761Y-62131428D01*
X58752761Y-62131427D01*
X58752760Y-62131424D01*
X58739000Y-61991717D01*
X58739000Y-61198282D01*
X58752760Y-61058570D01*
X58807140Y-60879308D01*
X58895447Y-60714097D01*
X59014289Y-60569288D01*
X59159098Y-60450446D01*
X59324304Y-60362142D01*
X59324305Y-60362142D01*
X59324308Y-60362140D01*
X59503572Y-60307761D01*
X59503573Y-60307761D01*
X59503576Y-60307760D01*
X59690000Y-60289399D01*
X59876425Y-60307760D01*
G37*
G36*
X57336425Y-60307760D02*
G01*
X57336428Y-60307761D01*
X57336429Y-60307761D01*
X57515693Y-60362140D01*
X57515696Y-60362142D01*
X57515697Y-60362142D01*
X57680903Y-60450446D01*
X57825712Y-60569288D01*
X57944554Y-60714097D01*
X58032859Y-60879305D01*
X58032860Y-60879307D01*
X58077117Y-61025203D01*
X58087240Y-61058574D01*
X58101000Y-61198283D01*
X58101000Y-61991718D01*
X58087240Y-62131425D01*
X58087239Y-62131428D01*
X58087239Y-62131429D01*
X58032860Y-62310693D01*
X58032858Y-62310696D01*
X58032858Y-62310697D01*
X57944554Y-62475903D01*
X57825712Y-62620712D01*
X57680903Y-62739554D01*
X57583693Y-62791513D01*
X57515692Y-62827860D01*
X57336428Y-62882239D01*
X57336427Y-62882239D01*
X57336424Y-62882240D01*
X57150000Y-62900601D01*
X56963575Y-62882240D01*
X56963572Y-62882239D01*
X56963571Y-62882239D01*
X56784307Y-62827860D01*
X56754373Y-62811860D01*
X56619097Y-62739554D01*
X56474288Y-62620712D01*
X56355446Y-62475903D01*
X56267142Y-62310696D01*
X56267141Y-62310693D01*
X56267140Y-62310692D01*
X56212761Y-62131428D01*
X56212761Y-62131427D01*
X56212760Y-62131424D01*
X56199000Y-61991717D01*
X56199000Y-61198282D01*
X56212760Y-61058570D01*
X56267140Y-60879308D01*
X56355447Y-60714097D01*
X56474289Y-60569288D01*
X56619098Y-60450446D01*
X56784304Y-60362142D01*
X56784305Y-60362142D01*
X56784308Y-60362140D01*
X56963572Y-60307761D01*
X56963573Y-60307761D01*
X56963576Y-60307760D01*
X57150000Y-60289399D01*
X57336425Y-60307760D01*
G37*
G36*
X65388455Y-60302528D02*
G01*
X65465812Y-60325995D01*
X65537117Y-60364108D01*
X65599608Y-60415392D01*
X65650892Y-60477883D01*
X65689005Y-60549188D01*
X65712472Y-60626545D01*
X65721000Y-60713140D01*
X65721000Y-62476860D01*
X65712472Y-62563455D01*
X65689005Y-62640812D01*
X65650892Y-62712117D01*
X65599608Y-62774608D01*
X65537117Y-62825892D01*
X65465812Y-62864005D01*
X65388455Y-62887472D01*
X65301860Y-62896000D01*
X64238140Y-62896000D01*
X64151545Y-62887472D01*
X64074188Y-62864005D01*
X64002883Y-62825892D01*
X63940392Y-62774608D01*
X63889108Y-62712117D01*
X63850995Y-62640812D01*
X63827528Y-62563455D01*
X63819000Y-62476860D01*
X63819000Y-60713140D01*
X63827528Y-60626545D01*
X63850995Y-60549188D01*
X63889108Y-60477883D01*
X63940392Y-60415392D01*
X64002883Y-60364108D01*
X64074188Y-60325995D01*
X64151545Y-60302528D01*
X64238140Y-60294000D01*
X65301860Y-60294000D01*
X65388455Y-60302528D01*
G37*
G36*
X72576425Y-60172760D02*
G01*
X72576428Y-60172761D01*
X72576429Y-60172761D01*
X72755693Y-60227140D01*
X72755696Y-60227142D01*
X72755697Y-60227142D01*
X72920903Y-60315446D01*
X73065712Y-60434288D01*
X73184554Y-60579097D01*
X73272859Y-60744305D01*
X73272860Y-60744307D01*
X73304463Y-60848489D01*
X73327240Y-60923574D01*
X73341000Y-61063283D01*
X73341000Y-61856718D01*
X73327240Y-61996425D01*
X73327239Y-61996428D01*
X73327239Y-61996429D01*
X73272860Y-62175693D01*
X73272858Y-62175696D01*
X73272858Y-62175697D01*
X73184554Y-62340903D01*
X73065712Y-62485712D01*
X72920903Y-62604554D01*
X72771007Y-62684674D01*
X72755692Y-62692860D01*
X72576428Y-62747239D01*
X72576427Y-62747239D01*
X72576424Y-62747240D01*
X72390000Y-62765601D01*
X72203575Y-62747240D01*
X72203572Y-62747239D01*
X72203571Y-62747239D01*
X72024307Y-62692860D01*
X72008992Y-62684674D01*
X71859097Y-62604554D01*
X71714288Y-62485712D01*
X71595446Y-62340903D01*
X71507142Y-62175696D01*
X71507141Y-62175693D01*
X71507140Y-62175692D01*
X71452761Y-61996428D01*
X71452761Y-61996427D01*
X71452760Y-61996424D01*
X71439000Y-61856717D01*
X71439000Y-61063282D01*
X71452760Y-60923570D01*
X71507140Y-60744308D01*
X71595447Y-60579097D01*
X71714289Y-60434288D01*
X71859098Y-60315446D01*
X72024304Y-60227142D01*
X72024305Y-60227142D01*
X72024308Y-60227140D01*
X72203572Y-60172761D01*
X72203573Y-60172761D01*
X72203576Y-60172760D01*
X72390000Y-60154399D01*
X72576425Y-60172760D01*
G37*
G36*
X68766425Y-60062760D02*
G01*
X68766428Y-60062761D01*
X68766429Y-60062761D01*
X68945693Y-60117140D01*
X68945696Y-60117142D01*
X68945697Y-60117142D01*
X69110903Y-60205446D01*
X69255712Y-60324288D01*
X69374554Y-60469097D01*
X69458711Y-60626545D01*
X69462860Y-60634307D01*
X69487064Y-60714097D01*
X69517240Y-60813574D01*
X69531000Y-60953283D01*
X69531000Y-61746718D01*
X69517240Y-61886425D01*
X69517239Y-61886428D01*
X69517239Y-61886429D01*
X69462860Y-62065693D01*
X69462858Y-62065696D01*
X69462858Y-62065697D01*
X69374554Y-62230903D01*
X69255712Y-62375712D01*
X69110903Y-62494554D01*
X68945696Y-62582858D01*
X68945692Y-62582860D01*
X68766428Y-62637239D01*
X68766427Y-62637239D01*
X68766424Y-62637240D01*
X68580000Y-62655601D01*
X68393575Y-62637240D01*
X68393572Y-62637239D01*
X68393571Y-62637239D01*
X68214307Y-62582860D01*
X68214303Y-62582858D01*
X68049097Y-62494554D01*
X67904288Y-62375712D01*
X67785446Y-62230903D01*
X67697142Y-62065696D01*
X67697141Y-62065693D01*
X67697140Y-62065692D01*
X67642761Y-61886428D01*
X67642761Y-61886427D01*
X67642760Y-61886424D01*
X67629000Y-61746717D01*
X67629000Y-60953282D01*
X67642760Y-60813570D01*
X67697140Y-60634308D01*
X67785447Y-60469097D01*
X67904289Y-60324288D01*
X68049098Y-60205446D01*
X68214304Y-60117142D01*
X68214305Y-60117142D01*
X68214308Y-60117140D01*
X68393572Y-60062761D01*
X68393573Y-60062761D01*
X68393576Y-60062760D01*
X68580000Y-60044399D01*
X68766425Y-60062760D01*
G37*
G36*
X65448210Y-57378489D02*
G01*
X65534950Y-57404802D01*
X65614889Y-57447530D01*
X65684962Y-57505038D01*
X65742470Y-57575111D01*
X65785198Y-57655050D01*
X65811511Y-57741790D01*
X65821000Y-57838140D01*
X65821000Y-59001860D01*
X65811511Y-59098210D01*
X65785198Y-59184950D01*
X65742470Y-59264889D01*
X65684962Y-59334962D01*
X65614889Y-59392470D01*
X65534950Y-59435198D01*
X65448210Y-59461511D01*
X65351860Y-59471000D01*
X61188140Y-59471000D01*
X61091790Y-59461511D01*
X61005050Y-59435198D01*
X60925111Y-59392470D01*
X60855038Y-59334962D01*
X60797530Y-59264889D01*
X60754802Y-59184950D01*
X60728489Y-59098210D01*
X60719000Y-59001860D01*
X60719000Y-57838140D01*
X60728489Y-57741790D01*
X60754802Y-57655050D01*
X60797530Y-57575111D01*
X60855038Y-57505038D01*
X60925111Y-57447530D01*
X61005050Y-57404802D01*
X61091790Y-57378489D01*
X61188140Y-57369000D01*
X65351860Y-57369000D01*
X65448210Y-57378489D01*
G37*
G36*
X72003228Y-55656703D02*
G01*
X72158100Y-55720853D01*
X72297481Y-55813985D01*
X72416015Y-55932519D01*
X72509147Y-56071900D01*
X72573297Y-56226772D01*
X72606000Y-56391184D01*
X72606000Y-56558816D01*
X72573297Y-56723228D01*
X72509147Y-56878100D01*
X72416015Y-57017481D01*
X72297481Y-57136015D01*
X72158100Y-57229147D01*
X72003228Y-57293297D01*
X71838816Y-57326000D01*
X71671184Y-57326000D01*
X71506772Y-57293297D01*
X71351900Y-57229147D01*
X71212519Y-57136015D01*
X71093985Y-57017481D01*
X71000853Y-56878100D01*
X70936703Y-56723228D01*
X70904000Y-56558816D01*
X70904000Y-56391184D01*
X70936703Y-56226772D01*
X71000853Y-56071900D01*
X71093985Y-55932519D01*
X71212519Y-55813985D01*
X71351900Y-55720853D01*
X71506772Y-55656703D01*
X71671184Y-55624000D01*
X71838816Y-55624000D01*
X72003228Y-55656703D01*
G37*
G36*
X65448210Y-54838489D02*
G01*
X65534950Y-54864802D01*
X65614889Y-54907530D01*
X65684962Y-54965038D01*
X65742470Y-55035111D01*
X65785198Y-55115050D01*
X65811511Y-55201790D01*
X65821000Y-55298140D01*
X65821000Y-56461860D01*
X65811511Y-56558210D01*
X65785198Y-56644950D01*
X65742470Y-56724889D01*
X65684962Y-56794962D01*
X65614889Y-56852470D01*
X65534950Y-56895198D01*
X65448210Y-56921511D01*
X65351860Y-56931000D01*
X61188140Y-56931000D01*
X61091790Y-56921511D01*
X61005050Y-56895198D01*
X60925111Y-56852470D01*
X60855038Y-56794962D01*
X60797530Y-56724889D01*
X60754802Y-56644950D01*
X60728489Y-56558210D01*
X60719000Y-56461860D01*
X60719000Y-55298140D01*
X60728489Y-55201790D01*
X60754802Y-55115050D01*
X60797530Y-55035111D01*
X60855038Y-54965038D01*
X60925111Y-54907530D01*
X61005050Y-54864802D01*
X61091790Y-54838489D01*
X61188140Y-54829000D01*
X65351860Y-54829000D01*
X65448210Y-54838489D01*
G37*
G36*
X72606000Y-54826000D02*
G01*
X70904000Y-54826000D01*
X70904000Y-53124000D01*
X72606000Y-53124000D01*
X72606000Y-54826000D01*
G37*
G36*
X65448210Y-52298489D02*
G01*
X65534950Y-52324802D01*
X65614889Y-52367530D01*
X65684962Y-52425038D01*
X65742470Y-52495111D01*
X65785198Y-52575050D01*
X65811511Y-52661790D01*
X65821000Y-52758140D01*
X65821000Y-53921860D01*
X65811511Y-54018210D01*
X65785198Y-54104950D01*
X65742470Y-54184889D01*
X65684962Y-54254962D01*
X65614889Y-54312470D01*
X65534950Y-54355198D01*
X65448210Y-54381511D01*
X65351860Y-54391000D01*
X61188140Y-54391000D01*
X61091790Y-54381511D01*
X61005050Y-54355198D01*
X60925111Y-54312470D01*
X60855038Y-54254962D01*
X60797530Y-54184889D01*
X60754802Y-54104950D01*
X60728489Y-54018210D01*
X60719000Y-53921860D01*
X60719000Y-52758140D01*
X60728489Y-52661790D01*
X60754802Y-52575050D01*
X60797530Y-52495111D01*
X60855038Y-52425038D01*
X60925111Y-52367530D01*
X61005050Y-52324802D01*
X61091790Y-52298489D01*
X61188140Y-52289000D01*
X65351860Y-52289000D01*
X65448210Y-52298489D01*
G37*
G36*
X45068254Y-48947818D02*
G01*
X45441511Y-49102426D01*
X45441513Y-49102427D01*
X45777436Y-49326884D01*
X46063116Y-49612564D01*
X46257123Y-49902915D01*
X46287574Y-49948489D01*
X46442182Y-50321746D01*
X46521000Y-50717993D01*
X46521000Y-51122007D01*
X46442182Y-51518254D01*
X46304354Y-51851000D01*
X46287573Y-51891513D01*
X46063116Y-52227436D01*
X45777436Y-52513116D01*
X45441513Y-52737573D01*
X45441512Y-52737574D01*
X45441511Y-52737574D01*
X45068254Y-52892182D01*
X44672007Y-52971000D01*
X44267993Y-52971000D01*
X43871746Y-52892182D01*
X43498489Y-52737574D01*
X43498488Y-52737574D01*
X43498487Y-52737573D01*
X43162564Y-52513116D01*
X42876884Y-52227436D01*
X42652427Y-51891513D01*
X42635646Y-51851000D01*
X42497818Y-51518254D01*
X42419000Y-51122007D01*
X42419000Y-50717993D01*
X42497818Y-50321746D01*
X42652426Y-49948489D01*
X42682878Y-49902915D01*
X42876884Y-49612564D01*
X43162564Y-49326884D01*
X43498487Y-49102427D01*
X43498489Y-49102426D01*
X43871746Y-48947818D01*
X44267993Y-48869000D01*
X44672007Y-48869000D01*
X45068254Y-48947818D01*
G37*
G36*
X65448210Y-49758489D02*
G01*
X65534950Y-49784802D01*
X65614889Y-49827530D01*
X65684962Y-49885038D01*
X65742470Y-49955111D01*
X65785198Y-50035050D01*
X65811511Y-50121790D01*
X65821000Y-50218140D01*
X65821000Y-51381860D01*
X65811511Y-51478210D01*
X65785198Y-51564950D01*
X65742470Y-51644889D01*
X65684962Y-51714962D01*
X65614889Y-51772470D01*
X65534950Y-51815198D01*
X65448210Y-51841511D01*
X65351860Y-51851000D01*
X61188140Y-51851000D01*
X61091790Y-51841511D01*
X61005050Y-51815198D01*
X60925111Y-51772470D01*
X60855038Y-51714962D01*
X60797530Y-51644889D01*
X60754802Y-51564950D01*
X60728489Y-51478210D01*
X60719000Y-51381860D01*
X60719000Y-50218140D01*
X60728489Y-50121790D01*
X60754802Y-50035050D01*
X60797530Y-49955111D01*
X60855038Y-49885038D01*
X60925111Y-49827530D01*
X61005050Y-49784802D01*
X61091790Y-49758489D01*
X61188140Y-49749000D01*
X65351860Y-49749000D01*
X65448210Y-49758489D01*
G37*
M02*
