G04 #@! TF.GenerationSoftware,KiCad,Pcbnew,5.1.5+dfsg1-2build2*
G04 #@! TF.CreationDate,2022-07-20T01:20:36+02:00*
G04 #@! TF.ProjectId,CapacitiveSensor,43617061-6369-4746-9976-6553656e736f,rev?*
G04 #@! TF.SameCoordinates,Original*
G04 #@! TF.FileFunction,Copper,L1,Top*
G04 #@! TF.FilePolarity,Positive*
%FSLAX46Y46*%
G04 Gerber Fmt 4.6, Leading zero omitted, Abs format (unit mm)*
G04 Created by KiCad (PCBNEW 5.1.5+dfsg1-2build2) date 2022-07-20 01:20:36*
%MOMM*%
%LPD*%
G04 APERTURE LIST*
%ADD10C,4.000000*%
%ADD11C,0.100000*%
%ADD12O,1.800000X2.500000*%
%ADD13C,1.800000*%
%ADD14C,1.600000*%
%ADD15R,1.600000X1.600000*%
%ADD16C,0.800000*%
%ADD17C,0.254000*%
G04 APERTURE END LIST*
D10*
X85565000Y-69830000D03*
X85565000Y-62230000D03*
G04 #@! TA.AperFunction,ComponentPad*
D11*
G36*
X79114009Y-61232408D02*
G01*
X79162545Y-61239607D01*
X79210142Y-61251530D01*
X79256342Y-61268060D01*
X79300698Y-61289039D01*
X79342785Y-61314265D01*
X79382197Y-61343495D01*
X79418553Y-61376447D01*
X79451505Y-61412803D01*
X79480735Y-61452215D01*
X79505961Y-61494302D01*
X79526940Y-61538658D01*
X79543470Y-61584858D01*
X79555393Y-61632455D01*
X79562592Y-61680991D01*
X79565000Y-61730000D01*
X79565000Y-62730000D01*
X79562592Y-62779009D01*
X79555393Y-62827545D01*
X79543470Y-62875142D01*
X79526940Y-62921342D01*
X79505961Y-62965698D01*
X79480735Y-63007785D01*
X79451505Y-63047197D01*
X79418553Y-63083553D01*
X79382197Y-63116505D01*
X79342785Y-63145735D01*
X79300698Y-63170961D01*
X79256342Y-63191940D01*
X79210142Y-63208470D01*
X79162545Y-63220393D01*
X79114009Y-63227592D01*
X79065000Y-63230000D01*
X75065000Y-63230000D01*
X75015991Y-63227592D01*
X74967455Y-63220393D01*
X74919858Y-63208470D01*
X74873658Y-63191940D01*
X74829302Y-63170961D01*
X74787215Y-63145735D01*
X74747803Y-63116505D01*
X74711447Y-63083553D01*
X74678495Y-63047197D01*
X74649265Y-63007785D01*
X74624039Y-62965698D01*
X74603060Y-62921342D01*
X74586530Y-62875142D01*
X74574607Y-62827545D01*
X74567408Y-62779009D01*
X74565000Y-62730000D01*
X74565000Y-61730000D01*
X74567408Y-61680991D01*
X74574607Y-61632455D01*
X74586530Y-61584858D01*
X74603060Y-61538658D01*
X74624039Y-61494302D01*
X74649265Y-61452215D01*
X74678495Y-61412803D01*
X74711447Y-61376447D01*
X74747803Y-61343495D01*
X74787215Y-61314265D01*
X74829302Y-61289039D01*
X74873658Y-61268060D01*
X74919858Y-61251530D01*
X74967455Y-61239607D01*
X75015991Y-61232408D01*
X75065000Y-61230000D01*
X79065000Y-61230000D01*
X79114009Y-61232408D01*
G37*
G04 #@! TD.AperFunction*
G04 #@! TA.AperFunction,ComponentPad*
G36*
X79114009Y-68852408D02*
G01*
X79162545Y-68859607D01*
X79210142Y-68871530D01*
X79256342Y-68888060D01*
X79300698Y-68909039D01*
X79342785Y-68934265D01*
X79382197Y-68963495D01*
X79418553Y-68996447D01*
X79451505Y-69032803D01*
X79480735Y-69072215D01*
X79505961Y-69114302D01*
X79526940Y-69158658D01*
X79543470Y-69204858D01*
X79555393Y-69252455D01*
X79562592Y-69300991D01*
X79565000Y-69350000D01*
X79565000Y-70350000D01*
X79562592Y-70399009D01*
X79555393Y-70447545D01*
X79543470Y-70495142D01*
X79526940Y-70541342D01*
X79505961Y-70585698D01*
X79480735Y-70627785D01*
X79451505Y-70667197D01*
X79418553Y-70703553D01*
X79382197Y-70736505D01*
X79342785Y-70765735D01*
X79300698Y-70790961D01*
X79256342Y-70811940D01*
X79210142Y-70828470D01*
X79162545Y-70840393D01*
X79114009Y-70847592D01*
X79065000Y-70850000D01*
X75065000Y-70850000D01*
X75015991Y-70847592D01*
X74967455Y-70840393D01*
X74919858Y-70828470D01*
X74873658Y-70811940D01*
X74829302Y-70790961D01*
X74787215Y-70765735D01*
X74747803Y-70736505D01*
X74711447Y-70703553D01*
X74678495Y-70667197D01*
X74649265Y-70627785D01*
X74624039Y-70585698D01*
X74603060Y-70541342D01*
X74586530Y-70495142D01*
X74574607Y-70447545D01*
X74567408Y-70399009D01*
X74565000Y-70350000D01*
X74565000Y-69350000D01*
X74567408Y-69300991D01*
X74574607Y-69252455D01*
X74586530Y-69204858D01*
X74603060Y-69158658D01*
X74624039Y-69114302D01*
X74649265Y-69072215D01*
X74678495Y-69032803D01*
X74711447Y-68996447D01*
X74747803Y-68963495D01*
X74787215Y-68934265D01*
X74829302Y-68909039D01*
X74873658Y-68888060D01*
X74919858Y-68871530D01*
X74967455Y-68859607D01*
X75015991Y-68852408D01*
X75065000Y-68850000D01*
X79065000Y-68850000D01*
X79114009Y-68852408D01*
G37*
G04 #@! TD.AperFunction*
D10*
X26170000Y-60920000D03*
X26170000Y-71820000D03*
X44470000Y-61820000D03*
X44470000Y-50920000D03*
G04 #@! TA.AperFunction,ComponentPad*
D11*
G36*
X65264108Y-60347167D02*
G01*
X65307791Y-60353647D01*
X65350628Y-60364377D01*
X65392208Y-60379254D01*
X65432129Y-60398135D01*
X65470007Y-60420839D01*
X65505477Y-60447145D01*
X65538198Y-60476802D01*
X65567855Y-60509523D01*
X65594161Y-60544993D01*
X65616865Y-60582871D01*
X65635746Y-60622792D01*
X65650623Y-60664372D01*
X65661353Y-60707209D01*
X65667833Y-60750892D01*
X65670000Y-60795000D01*
X65670000Y-62395000D01*
X65667833Y-62439108D01*
X65661353Y-62482791D01*
X65650623Y-62525628D01*
X65635746Y-62567208D01*
X65616865Y-62607129D01*
X65594161Y-62645007D01*
X65567855Y-62680477D01*
X65538198Y-62713198D01*
X65505477Y-62742855D01*
X65470007Y-62769161D01*
X65432129Y-62791865D01*
X65392208Y-62810746D01*
X65350628Y-62825623D01*
X65307791Y-62836353D01*
X65264108Y-62842833D01*
X65220000Y-62845000D01*
X64320000Y-62845000D01*
X64275892Y-62842833D01*
X64232209Y-62836353D01*
X64189372Y-62825623D01*
X64147792Y-62810746D01*
X64107871Y-62791865D01*
X64069993Y-62769161D01*
X64034523Y-62742855D01*
X64001802Y-62713198D01*
X63972145Y-62680477D01*
X63945839Y-62645007D01*
X63923135Y-62607129D01*
X63904254Y-62567208D01*
X63889377Y-62525628D01*
X63878647Y-62482791D01*
X63872167Y-62439108D01*
X63870000Y-62395000D01*
X63870000Y-60795000D01*
X63872167Y-60750892D01*
X63878647Y-60707209D01*
X63889377Y-60664372D01*
X63904254Y-60622792D01*
X63923135Y-60582871D01*
X63945839Y-60544993D01*
X63972145Y-60509523D01*
X64001802Y-60476802D01*
X64034523Y-60447145D01*
X64069993Y-60420839D01*
X64107871Y-60398135D01*
X64147792Y-60379254D01*
X64189372Y-60364377D01*
X64232209Y-60353647D01*
X64275892Y-60347167D01*
X64320000Y-60345000D01*
X65220000Y-60345000D01*
X65264108Y-60347167D01*
G37*
G04 #@! TD.AperFunction*
D12*
X57150000Y-69215000D03*
X62230000Y-61595000D03*
X59690000Y-69215000D03*
X59690000Y-61595000D03*
X62230000Y-69215000D03*
X57150000Y-61595000D03*
X64770000Y-69215000D03*
D13*
X53975000Y-69215000D03*
X53975000Y-66715000D03*
X78065000Y-66040000D03*
X75565000Y-66040000D03*
G04 #@! TA.AperFunction,ComponentPad*
D11*
G36*
X65319009Y-49802408D02*
G01*
X65367545Y-49809607D01*
X65415142Y-49821530D01*
X65461342Y-49838060D01*
X65505698Y-49859039D01*
X65547785Y-49884265D01*
X65587197Y-49913495D01*
X65623553Y-49946447D01*
X65656505Y-49982803D01*
X65685735Y-50022215D01*
X65710961Y-50064302D01*
X65731940Y-50108658D01*
X65748470Y-50154858D01*
X65760393Y-50202455D01*
X65767592Y-50250991D01*
X65770000Y-50300000D01*
X65770000Y-51300000D01*
X65767592Y-51349009D01*
X65760393Y-51397545D01*
X65748470Y-51445142D01*
X65731940Y-51491342D01*
X65710961Y-51535698D01*
X65685735Y-51577785D01*
X65656505Y-51617197D01*
X65623553Y-51653553D01*
X65587197Y-51686505D01*
X65547785Y-51715735D01*
X65505698Y-51740961D01*
X65461342Y-51761940D01*
X65415142Y-51778470D01*
X65367545Y-51790393D01*
X65319009Y-51797592D01*
X65270000Y-51800000D01*
X61270000Y-51800000D01*
X61220991Y-51797592D01*
X61172455Y-51790393D01*
X61124858Y-51778470D01*
X61078658Y-51761940D01*
X61034302Y-51740961D01*
X60992215Y-51715735D01*
X60952803Y-51686505D01*
X60916447Y-51653553D01*
X60883495Y-51617197D01*
X60854265Y-51577785D01*
X60829039Y-51535698D01*
X60808060Y-51491342D01*
X60791530Y-51445142D01*
X60779607Y-51397545D01*
X60772408Y-51349009D01*
X60770000Y-51300000D01*
X60770000Y-50300000D01*
X60772408Y-50250991D01*
X60779607Y-50202455D01*
X60791530Y-50154858D01*
X60808060Y-50108658D01*
X60829039Y-50064302D01*
X60854265Y-50022215D01*
X60883495Y-49982803D01*
X60916447Y-49946447D01*
X60952803Y-49913495D01*
X60992215Y-49884265D01*
X61034302Y-49859039D01*
X61078658Y-49838060D01*
X61124858Y-49821530D01*
X61172455Y-49809607D01*
X61220991Y-49802408D01*
X61270000Y-49800000D01*
X65270000Y-49800000D01*
X65319009Y-49802408D01*
G37*
G04 #@! TD.AperFunction*
G04 #@! TA.AperFunction,ComponentPad*
G36*
X65319009Y-52342408D02*
G01*
X65367545Y-52349607D01*
X65415142Y-52361530D01*
X65461342Y-52378060D01*
X65505698Y-52399039D01*
X65547785Y-52424265D01*
X65587197Y-52453495D01*
X65623553Y-52486447D01*
X65656505Y-52522803D01*
X65685735Y-52562215D01*
X65710961Y-52604302D01*
X65731940Y-52648658D01*
X65748470Y-52694858D01*
X65760393Y-52742455D01*
X65767592Y-52790991D01*
X65770000Y-52840000D01*
X65770000Y-53840000D01*
X65767592Y-53889009D01*
X65760393Y-53937545D01*
X65748470Y-53985142D01*
X65731940Y-54031342D01*
X65710961Y-54075698D01*
X65685735Y-54117785D01*
X65656505Y-54157197D01*
X65623553Y-54193553D01*
X65587197Y-54226505D01*
X65547785Y-54255735D01*
X65505698Y-54280961D01*
X65461342Y-54301940D01*
X65415142Y-54318470D01*
X65367545Y-54330393D01*
X65319009Y-54337592D01*
X65270000Y-54340000D01*
X61270000Y-54340000D01*
X61220991Y-54337592D01*
X61172455Y-54330393D01*
X61124858Y-54318470D01*
X61078658Y-54301940D01*
X61034302Y-54280961D01*
X60992215Y-54255735D01*
X60952803Y-54226505D01*
X60916447Y-54193553D01*
X60883495Y-54157197D01*
X60854265Y-54117785D01*
X60829039Y-54075698D01*
X60808060Y-54031342D01*
X60791530Y-53985142D01*
X60779607Y-53937545D01*
X60772408Y-53889009D01*
X60770000Y-53840000D01*
X60770000Y-52840000D01*
X60772408Y-52790991D01*
X60779607Y-52742455D01*
X60791530Y-52694858D01*
X60808060Y-52648658D01*
X60829039Y-52604302D01*
X60854265Y-52562215D01*
X60883495Y-52522803D01*
X60916447Y-52486447D01*
X60952803Y-52453495D01*
X60992215Y-52424265D01*
X61034302Y-52399039D01*
X61078658Y-52378060D01*
X61124858Y-52361530D01*
X61172455Y-52349607D01*
X61220991Y-52342408D01*
X61270000Y-52340000D01*
X65270000Y-52340000D01*
X65319009Y-52342408D01*
G37*
G04 #@! TD.AperFunction*
G04 #@! TA.AperFunction,ComponentPad*
G36*
X65319009Y-54882408D02*
G01*
X65367545Y-54889607D01*
X65415142Y-54901530D01*
X65461342Y-54918060D01*
X65505698Y-54939039D01*
X65547785Y-54964265D01*
X65587197Y-54993495D01*
X65623553Y-55026447D01*
X65656505Y-55062803D01*
X65685735Y-55102215D01*
X65710961Y-55144302D01*
X65731940Y-55188658D01*
X65748470Y-55234858D01*
X65760393Y-55282455D01*
X65767592Y-55330991D01*
X65770000Y-55380000D01*
X65770000Y-56380000D01*
X65767592Y-56429009D01*
X65760393Y-56477545D01*
X65748470Y-56525142D01*
X65731940Y-56571342D01*
X65710961Y-56615698D01*
X65685735Y-56657785D01*
X65656505Y-56697197D01*
X65623553Y-56733553D01*
X65587197Y-56766505D01*
X65547785Y-56795735D01*
X65505698Y-56820961D01*
X65461342Y-56841940D01*
X65415142Y-56858470D01*
X65367545Y-56870393D01*
X65319009Y-56877592D01*
X65270000Y-56880000D01*
X61270000Y-56880000D01*
X61220991Y-56877592D01*
X61172455Y-56870393D01*
X61124858Y-56858470D01*
X61078658Y-56841940D01*
X61034302Y-56820961D01*
X60992215Y-56795735D01*
X60952803Y-56766505D01*
X60916447Y-56733553D01*
X60883495Y-56697197D01*
X60854265Y-56657785D01*
X60829039Y-56615698D01*
X60808060Y-56571342D01*
X60791530Y-56525142D01*
X60779607Y-56477545D01*
X60772408Y-56429009D01*
X60770000Y-56380000D01*
X60770000Y-55380000D01*
X60772408Y-55330991D01*
X60779607Y-55282455D01*
X60791530Y-55234858D01*
X60808060Y-55188658D01*
X60829039Y-55144302D01*
X60854265Y-55102215D01*
X60883495Y-55062803D01*
X60916447Y-55026447D01*
X60952803Y-54993495D01*
X60992215Y-54964265D01*
X61034302Y-54939039D01*
X61078658Y-54918060D01*
X61124858Y-54901530D01*
X61172455Y-54889607D01*
X61220991Y-54882408D01*
X61270000Y-54880000D01*
X65270000Y-54880000D01*
X65319009Y-54882408D01*
G37*
G04 #@! TD.AperFunction*
G04 #@! TA.AperFunction,ComponentPad*
G36*
X65319009Y-57422408D02*
G01*
X65367545Y-57429607D01*
X65415142Y-57441530D01*
X65461342Y-57458060D01*
X65505698Y-57479039D01*
X65547785Y-57504265D01*
X65587197Y-57533495D01*
X65623553Y-57566447D01*
X65656505Y-57602803D01*
X65685735Y-57642215D01*
X65710961Y-57684302D01*
X65731940Y-57728658D01*
X65748470Y-57774858D01*
X65760393Y-57822455D01*
X65767592Y-57870991D01*
X65770000Y-57920000D01*
X65770000Y-58920000D01*
X65767592Y-58969009D01*
X65760393Y-59017545D01*
X65748470Y-59065142D01*
X65731940Y-59111342D01*
X65710961Y-59155698D01*
X65685735Y-59197785D01*
X65656505Y-59237197D01*
X65623553Y-59273553D01*
X65587197Y-59306505D01*
X65547785Y-59335735D01*
X65505698Y-59360961D01*
X65461342Y-59381940D01*
X65415142Y-59398470D01*
X65367545Y-59410393D01*
X65319009Y-59417592D01*
X65270000Y-59420000D01*
X61270000Y-59420000D01*
X61220991Y-59417592D01*
X61172455Y-59410393D01*
X61124858Y-59398470D01*
X61078658Y-59381940D01*
X61034302Y-59360961D01*
X60992215Y-59335735D01*
X60952803Y-59306505D01*
X60916447Y-59273553D01*
X60883495Y-59237197D01*
X60854265Y-59197785D01*
X60829039Y-59155698D01*
X60808060Y-59111342D01*
X60791530Y-59065142D01*
X60779607Y-59017545D01*
X60772408Y-58969009D01*
X60770000Y-58920000D01*
X60770000Y-57920000D01*
X60772408Y-57870991D01*
X60779607Y-57822455D01*
X60791530Y-57774858D01*
X60808060Y-57728658D01*
X60829039Y-57684302D01*
X60854265Y-57642215D01*
X60883495Y-57602803D01*
X60916447Y-57566447D01*
X60952803Y-57533495D01*
X60992215Y-57504265D01*
X61034302Y-57479039D01*
X61078658Y-57458060D01*
X61124858Y-57441530D01*
X61172455Y-57429607D01*
X61220991Y-57422408D01*
X61270000Y-57420000D01*
X65270000Y-57420000D01*
X65319009Y-57422408D01*
G37*
G04 #@! TD.AperFunction*
D12*
X72390000Y-69460000D03*
X72390000Y-61460000D03*
X68580000Y-69350000D03*
X68580000Y-61350000D03*
D14*
X71755000Y-56475000D03*
D15*
X71755000Y-53975000D03*
D16*
X62230000Y-69215000D02*
X62230000Y-67310000D01*
X62230000Y-67310000D02*
X62865000Y-66675000D01*
X62865000Y-66675000D02*
X67945000Y-66675000D01*
X67945000Y-66675000D02*
X68580000Y-67310000D01*
X68580000Y-67310000D02*
X68580000Y-69850000D01*
X72390000Y-60960000D02*
X72390000Y-66040000D01*
X71755000Y-66675000D02*
X67945000Y-66675000D01*
X72390000Y-66040000D02*
X71755000Y-66675000D01*
X59690000Y-71265000D02*
X60180000Y-71755000D01*
X59690000Y-69215000D02*
X59690000Y-71265000D01*
X60180000Y-71755000D02*
X71755000Y-71755000D01*
X71755000Y-71755000D02*
X72390000Y-71120000D01*
X72390000Y-71120000D02*
X72390000Y-69960000D01*
X72500000Y-69850000D02*
X72390000Y-69960000D01*
X75565000Y-69850000D02*
X72500000Y-69850000D01*
X75565000Y-69850000D02*
X77470000Y-69850000D01*
X78065000Y-69255000D02*
X78065000Y-66040000D01*
X77470000Y-69850000D02*
X78065000Y-69255000D01*
X59690000Y-67945000D02*
X59690000Y-69215000D01*
X62230000Y-65405000D02*
X59690000Y-67945000D01*
X62230000Y-61595000D02*
X62230000Y-65405000D01*
X60325000Y-55880000D02*
X64770000Y-55880000D01*
X59690000Y-56515000D02*
X60325000Y-55880000D01*
X59690000Y-61595000D02*
X59690000Y-56515000D01*
X53975000Y-69215000D02*
X57150000Y-69215000D01*
X64770000Y-53340000D02*
X66040000Y-53340000D01*
X66040000Y-53340000D02*
X66675000Y-53975000D01*
X66040000Y-58420000D02*
X64770000Y-58420000D01*
X66675000Y-57785000D02*
X66040000Y-58420000D01*
X71755000Y-56475000D02*
X67270000Y-56475000D01*
X67270000Y-56475000D02*
X66675000Y-55880000D01*
X66675000Y-55880000D02*
X66675000Y-57785000D01*
X66675000Y-53975000D02*
X66675000Y-55880000D01*
X75565000Y-66040000D02*
X75565000Y-62230000D01*
X75565000Y-62230000D02*
X75565000Y-57150000D01*
X74890000Y-56475000D02*
X71755000Y-56475000D01*
X75565000Y-57150000D02*
X74890000Y-56475000D01*
X64770000Y-53340000D02*
X60325000Y-53340000D01*
X53975000Y-66715000D02*
X53975000Y-59690000D01*
X53975000Y-59690000D02*
X54610000Y-59055000D01*
X54610000Y-59055000D02*
X57150000Y-59055000D01*
X57150000Y-59055000D02*
X57785000Y-58420000D01*
X57785000Y-58420000D02*
X57785000Y-53975000D01*
X58420000Y-53340000D02*
X60325000Y-53340000D01*
X57785000Y-53975000D02*
X58420000Y-53340000D01*
X64770000Y-61595000D02*
X64770000Y-58420000D01*
D17*
G36*
X41876126Y-49533545D02*
G01*
X41655482Y-50066225D01*
X41543000Y-50631716D01*
X41543000Y-51208284D01*
X41655482Y-51773775D01*
X41876126Y-52306455D01*
X42196450Y-52785854D01*
X42604146Y-53193550D01*
X43083545Y-53513874D01*
X43616225Y-53734518D01*
X44181716Y-53847000D01*
X44758284Y-53847000D01*
X45323775Y-53734518D01*
X45856455Y-53513874D01*
X46335854Y-53193550D01*
X46743550Y-52785854D01*
X47063874Y-52306455D01*
X47284518Y-51773775D01*
X47397000Y-51208284D01*
X47397000Y-50631716D01*
X47284518Y-50066225D01*
X47063874Y-49533545D01*
X46849025Y-49212000D01*
X60350134Y-49212000D01*
X60257787Y-49287787D01*
X60079764Y-49504710D01*
X59947480Y-49752194D01*
X59866021Y-50020731D01*
X59838515Y-50300000D01*
X59838515Y-51300000D01*
X59866021Y-51579269D01*
X59947480Y-51847806D01*
X60079764Y-52095290D01*
X60153430Y-52185052D01*
X60144188Y-52215518D01*
X60131928Y-52340000D01*
X60135000Y-53054250D01*
X60293750Y-53213000D01*
X63143000Y-53213000D01*
X63143000Y-53193000D01*
X63397000Y-53193000D01*
X63397000Y-53213000D01*
X66246250Y-53213000D01*
X66284250Y-53175000D01*
X70023515Y-53175000D01*
X70023515Y-54775000D01*
X70041413Y-54956724D01*
X70094420Y-55131464D01*
X70180499Y-55292505D01*
X70296341Y-55433659D01*
X70437495Y-55549501D01*
X70598536Y-55635580D01*
X70723163Y-55673385D01*
X70518329Y-55733486D01*
X70397429Y-55988996D01*
X70328700Y-56263184D01*
X70314783Y-56545512D01*
X70356213Y-56825130D01*
X70451397Y-57091292D01*
X70518329Y-57216514D01*
X70762298Y-57288097D01*
X71575395Y-56475000D01*
X71561253Y-56460858D01*
X71740858Y-56281253D01*
X71755000Y-56295395D01*
X71769143Y-56281253D01*
X71948748Y-56460858D01*
X71934605Y-56475000D01*
X72747702Y-57288097D01*
X72991671Y-57216514D01*
X73112571Y-56961004D01*
X73181300Y-56686816D01*
X73195217Y-56404488D01*
X73153787Y-56124870D01*
X73058603Y-55858708D01*
X72991671Y-55733486D01*
X72786837Y-55673385D01*
X72911464Y-55635580D01*
X73072505Y-55549501D01*
X73213659Y-55433659D01*
X73329501Y-55292505D01*
X73415580Y-55131464D01*
X73468587Y-54956724D01*
X73486485Y-54775000D01*
X73486485Y-53175000D01*
X73468587Y-52993276D01*
X73415580Y-52818536D01*
X73329501Y-52657495D01*
X73213659Y-52516341D01*
X73072505Y-52400499D01*
X72911464Y-52314420D01*
X72736724Y-52261413D01*
X72555000Y-52243515D01*
X70955000Y-52243515D01*
X70773276Y-52261413D01*
X70598536Y-52314420D01*
X70437495Y-52400499D01*
X70296341Y-52516341D01*
X70180499Y-52657495D01*
X70094420Y-52818536D01*
X70041413Y-52993276D01*
X70023515Y-53175000D01*
X66284250Y-53175000D01*
X66405000Y-53054250D01*
X66408072Y-52340000D01*
X66395812Y-52215518D01*
X66386570Y-52185052D01*
X66460236Y-52095290D01*
X66592520Y-51847806D01*
X66673979Y-51579269D01*
X66701485Y-51300000D01*
X66701485Y-50300000D01*
X66673979Y-50020731D01*
X66592520Y-49752194D01*
X66460236Y-49504710D01*
X66282213Y-49287787D01*
X66189866Y-49212000D01*
X73533000Y-49212000D01*
X73533000Y-59684549D01*
X73409938Y-59583555D01*
X73092546Y-59413905D01*
X72748155Y-59309435D01*
X72390000Y-59274160D01*
X72031846Y-59309435D01*
X71687455Y-59413905D01*
X71370063Y-59583555D01*
X71091866Y-59811865D01*
X70863555Y-60090062D01*
X70693905Y-60407454D01*
X70589435Y-60751845D01*
X70563000Y-61020245D01*
X70563000Y-61899754D01*
X70589435Y-62168154D01*
X70693905Y-62512545D01*
X70863555Y-62829937D01*
X71063000Y-63072963D01*
X71063001Y-65348000D01*
X68010174Y-65348000D01*
X67945000Y-65341581D01*
X67879826Y-65348000D01*
X63557805Y-65348000D01*
X63557000Y-65339829D01*
X63557000Y-63397716D01*
X63625820Y-63434502D01*
X63745518Y-63470812D01*
X63870000Y-63483072D01*
X64484250Y-63480000D01*
X64643000Y-63321250D01*
X64643000Y-61722000D01*
X64897000Y-61722000D01*
X64897000Y-63321250D01*
X65055750Y-63480000D01*
X65670000Y-63483072D01*
X65794482Y-63470812D01*
X65914180Y-63434502D01*
X66024494Y-63375537D01*
X66121185Y-63296185D01*
X66200537Y-63199494D01*
X66259502Y-63089180D01*
X66295812Y-62969482D01*
X66308072Y-62845000D01*
X66305000Y-61880750D01*
X66146250Y-61722000D01*
X64897000Y-61722000D01*
X64643000Y-61722000D01*
X64623000Y-61722000D01*
X64623000Y-61468000D01*
X64643000Y-61468000D01*
X64643000Y-61448000D01*
X64897000Y-61448000D01*
X64897000Y-61468000D01*
X66146250Y-61468000D01*
X66305000Y-61309250D01*
X66306271Y-60910245D01*
X66753000Y-60910245D01*
X66753000Y-61789754D01*
X66779435Y-62058154D01*
X66883905Y-62402545D01*
X67053555Y-62719937D01*
X67281865Y-62998135D01*
X67560062Y-63226445D01*
X67877454Y-63396095D01*
X68221845Y-63500565D01*
X68580000Y-63535840D01*
X68938154Y-63500565D01*
X69282545Y-63396095D01*
X69599937Y-63226445D01*
X69878135Y-62998135D01*
X70106445Y-62719938D01*
X70276095Y-62402546D01*
X70380565Y-62058155D01*
X70407000Y-61789755D01*
X70407000Y-60910246D01*
X70380565Y-60641845D01*
X70276095Y-60297454D01*
X70106445Y-59980062D01*
X69878135Y-59701865D01*
X69599938Y-59473555D01*
X69282546Y-59303905D01*
X68938155Y-59199435D01*
X68580000Y-59164160D01*
X68221846Y-59199435D01*
X67877455Y-59303905D01*
X67560063Y-59473555D01*
X67281866Y-59701865D01*
X67053555Y-59980062D01*
X66883905Y-60297454D01*
X66779435Y-60641845D01*
X66753000Y-60910245D01*
X66306271Y-60910245D01*
X66308072Y-60345000D01*
X66295812Y-60220518D01*
X66259502Y-60100820D01*
X66200537Y-59990506D01*
X66150333Y-59929332D01*
X66221185Y-59871185D01*
X66300537Y-59774494D01*
X66359502Y-59664180D01*
X66395812Y-59544482D01*
X66408072Y-59420000D01*
X66405000Y-58705750D01*
X66246250Y-58547000D01*
X63397000Y-58547000D01*
X63397000Y-58567000D01*
X63143000Y-58567000D01*
X63143000Y-58547000D01*
X63123000Y-58547000D01*
X63123000Y-58293000D01*
X63143000Y-58293000D01*
X63143000Y-58273000D01*
X63397000Y-58273000D01*
X63397000Y-58293000D01*
X66246250Y-58293000D01*
X66405000Y-58134250D01*
X66407866Y-57467702D01*
X70941903Y-57467702D01*
X71013486Y-57711671D01*
X71268996Y-57832571D01*
X71543184Y-57901300D01*
X71825512Y-57915217D01*
X72105130Y-57873787D01*
X72371292Y-57778603D01*
X72496514Y-57711671D01*
X72568097Y-57467702D01*
X71755000Y-56654605D01*
X70941903Y-57467702D01*
X66407866Y-57467702D01*
X66408072Y-57420000D01*
X66395812Y-57295518D01*
X66386570Y-57265052D01*
X66460236Y-57175290D01*
X66592520Y-56927806D01*
X66673979Y-56659269D01*
X66701485Y-56380000D01*
X66701485Y-55380000D01*
X66673979Y-55100731D01*
X66592520Y-54832194D01*
X66460236Y-54584710D01*
X66386570Y-54494948D01*
X66395812Y-54464482D01*
X66408072Y-54340000D01*
X66405000Y-53625750D01*
X66246250Y-53467000D01*
X63397000Y-53467000D01*
X63397000Y-53487000D01*
X63143000Y-53487000D01*
X63143000Y-53467000D01*
X60293750Y-53467000D01*
X60135000Y-53625750D01*
X60131928Y-54340000D01*
X60144188Y-54464482D01*
X60153430Y-54494948D01*
X60092243Y-54569504D01*
X60064863Y-54572201D01*
X59814722Y-54648081D01*
X59584192Y-54771302D01*
X59463274Y-54870537D01*
X59382130Y-54937130D01*
X59340579Y-54987761D01*
X58797760Y-55530580D01*
X58747131Y-55572130D01*
X58705580Y-55622760D01*
X58705578Y-55622762D01*
X58581302Y-55774192D01*
X58458081Y-56004723D01*
X58382202Y-56254863D01*
X58356581Y-56515000D01*
X58363001Y-56580184D01*
X58363000Y-59876997D01*
X58169938Y-59718555D01*
X57852546Y-59548905D01*
X57508155Y-59444435D01*
X57150000Y-59409160D01*
X56791846Y-59444435D01*
X56447455Y-59548905D01*
X56130063Y-59718555D01*
X55851866Y-59946865D01*
X55623555Y-60225062D01*
X55453905Y-60542454D01*
X55349435Y-60886845D01*
X55323000Y-61155245D01*
X55323000Y-62034754D01*
X55349435Y-62303154D01*
X55453905Y-62647545D01*
X55623555Y-62964937D01*
X55851865Y-63243135D01*
X56130062Y-63471445D01*
X56447454Y-63641095D01*
X56791845Y-63745565D01*
X57150000Y-63780840D01*
X57508154Y-63745565D01*
X57852545Y-63641095D01*
X58169937Y-63471445D01*
X58420000Y-63266225D01*
X58670062Y-63471445D01*
X58987454Y-63641095D01*
X59331845Y-63745565D01*
X59690000Y-63780840D01*
X60048154Y-63745565D01*
X60392545Y-63641095D01*
X60709937Y-63471445D01*
X60903000Y-63313003D01*
X60903001Y-64855338D01*
X58797765Y-66960575D01*
X58747130Y-67002130D01*
X58705578Y-67052762D01*
X58581302Y-67204192D01*
X58525049Y-67309435D01*
X58458081Y-67434723D01*
X58426657Y-67538313D01*
X58420000Y-67543776D01*
X58169938Y-67338555D01*
X57852546Y-67168905D01*
X57508155Y-67064435D01*
X57150000Y-67029160D01*
X56791846Y-67064435D01*
X56447455Y-67168905D01*
X56130063Y-67338555D01*
X55851866Y-67566865D01*
X55623555Y-67845062D01*
X55600604Y-67888000D01*
X55231769Y-67888000D01*
X55139645Y-67795876D01*
X55100639Y-67769813D01*
X55155030Y-67715422D01*
X55039082Y-67599474D01*
X55293261Y-67515792D01*
X55424158Y-67243225D01*
X55499365Y-66950358D01*
X55515991Y-66648447D01*
X55473397Y-66349093D01*
X55373222Y-66063801D01*
X55293261Y-65914208D01*
X55039080Y-65830525D01*
X54154605Y-66715000D01*
X54168748Y-66729143D01*
X53989143Y-66908748D01*
X53975000Y-66894605D01*
X53960858Y-66908748D01*
X53781253Y-66729143D01*
X53795395Y-66715000D01*
X52910920Y-65830525D01*
X52656739Y-65914208D01*
X52525842Y-66186775D01*
X52450635Y-66479642D01*
X52434009Y-66781553D01*
X52476603Y-67080907D01*
X52576778Y-67366199D01*
X52656739Y-67515792D01*
X52910918Y-67599474D01*
X52794970Y-67715422D01*
X52849361Y-67769813D01*
X52810355Y-67795876D01*
X52555876Y-68050355D01*
X52355934Y-68349591D01*
X52218211Y-68682084D01*
X52148000Y-69035056D01*
X52148000Y-69394944D01*
X52218211Y-69747916D01*
X52355934Y-70080409D01*
X52555876Y-70379645D01*
X52810355Y-70634124D01*
X53109591Y-70834066D01*
X53442084Y-70971789D01*
X53795056Y-71042000D01*
X54154944Y-71042000D01*
X54507916Y-70971789D01*
X54840409Y-70834066D01*
X55139645Y-70634124D01*
X55231769Y-70542000D01*
X55600605Y-70542000D01*
X55623555Y-70584937D01*
X55851865Y-70863135D01*
X56130062Y-71091445D01*
X56447454Y-71261095D01*
X56791845Y-71365565D01*
X57150000Y-71400840D01*
X57508154Y-71365565D01*
X57852545Y-71261095D01*
X58169937Y-71091445D01*
X58363001Y-70933002D01*
X58363001Y-71199817D01*
X58356581Y-71265000D01*
X58382202Y-71525137D01*
X58458081Y-71775277D01*
X58581302Y-72005808D01*
X58705578Y-72157238D01*
X58747131Y-72207870D01*
X58797761Y-72249421D01*
X59195575Y-72647235D01*
X59237130Y-72697870D01*
X59439192Y-72863698D01*
X59669722Y-72986919D01*
X59919863Y-73062799D01*
X60114816Y-73082000D01*
X60114826Y-73082000D01*
X60180000Y-73088419D01*
X60245174Y-73082000D01*
X71689826Y-73082000D01*
X71755000Y-73088419D01*
X71820174Y-73082000D01*
X71820184Y-73082000D01*
X72015137Y-73062799D01*
X72265278Y-72986919D01*
X72495808Y-72863698D01*
X72697870Y-72697870D01*
X72739425Y-72647235D01*
X73282241Y-72104420D01*
X73332870Y-72062870D01*
X73498698Y-71860808D01*
X73533000Y-71796634D01*
X73533000Y-73343000D01*
X28672638Y-73343000D01*
X28763874Y-73206455D01*
X28984518Y-72673775D01*
X29097000Y-72108284D01*
X29097000Y-71531716D01*
X28984518Y-70966225D01*
X28763874Y-70433545D01*
X28443550Y-69954146D01*
X28035854Y-69546450D01*
X27556455Y-69226126D01*
X27023775Y-69005482D01*
X26458284Y-68893000D01*
X25881716Y-68893000D01*
X25316225Y-69005482D01*
X24783545Y-69226126D01*
X24304146Y-69546450D01*
X23896450Y-69954146D01*
X23576126Y-70433545D01*
X23355482Y-70966225D01*
X23243000Y-71531716D01*
X23243000Y-72108284D01*
X23355482Y-72673775D01*
X23576126Y-73206455D01*
X23667362Y-73343000D01*
X20637000Y-73343000D01*
X20637000Y-65650920D01*
X53090525Y-65650920D01*
X53975000Y-66535395D01*
X54859475Y-65650920D01*
X54775792Y-65396739D01*
X54503225Y-65265842D01*
X54210358Y-65190635D01*
X53908447Y-65174009D01*
X53609093Y-65216603D01*
X53323801Y-65316778D01*
X53174208Y-65396739D01*
X53090525Y-65650920D01*
X20637000Y-65650920D01*
X20637000Y-60631716D01*
X23243000Y-60631716D01*
X23243000Y-61208284D01*
X23355482Y-61773775D01*
X23576126Y-62306455D01*
X23896450Y-62785854D01*
X24304146Y-63193550D01*
X24783545Y-63513874D01*
X25316225Y-63734518D01*
X25881716Y-63847000D01*
X26458284Y-63847000D01*
X27023775Y-63734518D01*
X27556455Y-63513874D01*
X28035854Y-63193550D01*
X28443550Y-62785854D01*
X28763874Y-62306455D01*
X28984518Y-61773775D01*
X29032666Y-61531716D01*
X41543000Y-61531716D01*
X41543000Y-62108284D01*
X41655482Y-62673775D01*
X41876126Y-63206455D01*
X42196450Y-63685854D01*
X42604146Y-64093550D01*
X43083545Y-64413874D01*
X43616225Y-64634518D01*
X44181716Y-64747000D01*
X44758284Y-64747000D01*
X45323775Y-64634518D01*
X45856455Y-64413874D01*
X46335854Y-64093550D01*
X46743550Y-63685854D01*
X47063874Y-63206455D01*
X47284518Y-62673775D01*
X47397000Y-62108284D01*
X47397000Y-61531716D01*
X47284518Y-60966225D01*
X47063874Y-60433545D01*
X46743550Y-59954146D01*
X46335854Y-59546450D01*
X45856455Y-59226126D01*
X45323775Y-59005482D01*
X44758284Y-58893000D01*
X44181716Y-58893000D01*
X43616225Y-59005482D01*
X43083545Y-59226126D01*
X42604146Y-59546450D01*
X42196450Y-59954146D01*
X41876126Y-60433545D01*
X41655482Y-60966225D01*
X41543000Y-61531716D01*
X29032666Y-61531716D01*
X29097000Y-61208284D01*
X29097000Y-60631716D01*
X28984518Y-60066225D01*
X28763874Y-59533545D01*
X28443550Y-59054146D01*
X28035854Y-58646450D01*
X27556455Y-58326126D01*
X27023775Y-58105482D01*
X26458284Y-57993000D01*
X25881716Y-57993000D01*
X25316225Y-58105482D01*
X24783545Y-58326126D01*
X24304146Y-58646450D01*
X23896450Y-59054146D01*
X23576126Y-59533545D01*
X23355482Y-60066225D01*
X23243000Y-60631716D01*
X20637000Y-60631716D01*
X20637000Y-49212000D01*
X42090975Y-49212000D01*
X41876126Y-49533545D01*
G37*
X41876126Y-49533545D02*
X41655482Y-50066225D01*
X41543000Y-50631716D01*
X41543000Y-51208284D01*
X41655482Y-51773775D01*
X41876126Y-52306455D01*
X42196450Y-52785854D01*
X42604146Y-53193550D01*
X43083545Y-53513874D01*
X43616225Y-53734518D01*
X44181716Y-53847000D01*
X44758284Y-53847000D01*
X45323775Y-53734518D01*
X45856455Y-53513874D01*
X46335854Y-53193550D01*
X46743550Y-52785854D01*
X47063874Y-52306455D01*
X47284518Y-51773775D01*
X47397000Y-51208284D01*
X47397000Y-50631716D01*
X47284518Y-50066225D01*
X47063874Y-49533545D01*
X46849025Y-49212000D01*
X60350134Y-49212000D01*
X60257787Y-49287787D01*
X60079764Y-49504710D01*
X59947480Y-49752194D01*
X59866021Y-50020731D01*
X59838515Y-50300000D01*
X59838515Y-51300000D01*
X59866021Y-51579269D01*
X59947480Y-51847806D01*
X60079764Y-52095290D01*
X60153430Y-52185052D01*
X60144188Y-52215518D01*
X60131928Y-52340000D01*
X60135000Y-53054250D01*
X60293750Y-53213000D01*
X63143000Y-53213000D01*
X63143000Y-53193000D01*
X63397000Y-53193000D01*
X63397000Y-53213000D01*
X66246250Y-53213000D01*
X66284250Y-53175000D01*
X70023515Y-53175000D01*
X70023515Y-54775000D01*
X70041413Y-54956724D01*
X70094420Y-55131464D01*
X70180499Y-55292505D01*
X70296341Y-55433659D01*
X70437495Y-55549501D01*
X70598536Y-55635580D01*
X70723163Y-55673385D01*
X70518329Y-55733486D01*
X70397429Y-55988996D01*
X70328700Y-56263184D01*
X70314783Y-56545512D01*
X70356213Y-56825130D01*
X70451397Y-57091292D01*
X70518329Y-57216514D01*
X70762298Y-57288097D01*
X71575395Y-56475000D01*
X71561253Y-56460858D01*
X71740858Y-56281253D01*
X71755000Y-56295395D01*
X71769143Y-56281253D01*
X71948748Y-56460858D01*
X71934605Y-56475000D01*
X72747702Y-57288097D01*
X72991671Y-57216514D01*
X73112571Y-56961004D01*
X73181300Y-56686816D01*
X73195217Y-56404488D01*
X73153787Y-56124870D01*
X73058603Y-55858708D01*
X72991671Y-55733486D01*
X72786837Y-55673385D01*
X72911464Y-55635580D01*
X73072505Y-55549501D01*
X73213659Y-55433659D01*
X73329501Y-55292505D01*
X73415580Y-55131464D01*
X73468587Y-54956724D01*
X73486485Y-54775000D01*
X73486485Y-53175000D01*
X73468587Y-52993276D01*
X73415580Y-52818536D01*
X73329501Y-52657495D01*
X73213659Y-52516341D01*
X73072505Y-52400499D01*
X72911464Y-52314420D01*
X72736724Y-52261413D01*
X72555000Y-52243515D01*
X70955000Y-52243515D01*
X70773276Y-52261413D01*
X70598536Y-52314420D01*
X70437495Y-52400499D01*
X70296341Y-52516341D01*
X70180499Y-52657495D01*
X70094420Y-52818536D01*
X70041413Y-52993276D01*
X70023515Y-53175000D01*
X66284250Y-53175000D01*
X66405000Y-53054250D01*
X66408072Y-52340000D01*
X66395812Y-52215518D01*
X66386570Y-52185052D01*
X66460236Y-52095290D01*
X66592520Y-51847806D01*
X66673979Y-51579269D01*
X66701485Y-51300000D01*
X66701485Y-50300000D01*
X66673979Y-50020731D01*
X66592520Y-49752194D01*
X66460236Y-49504710D01*
X66282213Y-49287787D01*
X66189866Y-49212000D01*
X73533000Y-49212000D01*
X73533000Y-59684549D01*
X73409938Y-59583555D01*
X73092546Y-59413905D01*
X72748155Y-59309435D01*
X72390000Y-59274160D01*
X72031846Y-59309435D01*
X71687455Y-59413905D01*
X71370063Y-59583555D01*
X71091866Y-59811865D01*
X70863555Y-60090062D01*
X70693905Y-60407454D01*
X70589435Y-60751845D01*
X70563000Y-61020245D01*
X70563000Y-61899754D01*
X70589435Y-62168154D01*
X70693905Y-62512545D01*
X70863555Y-62829937D01*
X71063000Y-63072963D01*
X71063001Y-65348000D01*
X68010174Y-65348000D01*
X67945000Y-65341581D01*
X67879826Y-65348000D01*
X63557805Y-65348000D01*
X63557000Y-65339829D01*
X63557000Y-63397716D01*
X63625820Y-63434502D01*
X63745518Y-63470812D01*
X63870000Y-63483072D01*
X64484250Y-63480000D01*
X64643000Y-63321250D01*
X64643000Y-61722000D01*
X64897000Y-61722000D01*
X64897000Y-63321250D01*
X65055750Y-63480000D01*
X65670000Y-63483072D01*
X65794482Y-63470812D01*
X65914180Y-63434502D01*
X66024494Y-63375537D01*
X66121185Y-63296185D01*
X66200537Y-63199494D01*
X66259502Y-63089180D01*
X66295812Y-62969482D01*
X66308072Y-62845000D01*
X66305000Y-61880750D01*
X66146250Y-61722000D01*
X64897000Y-61722000D01*
X64643000Y-61722000D01*
X64623000Y-61722000D01*
X64623000Y-61468000D01*
X64643000Y-61468000D01*
X64643000Y-61448000D01*
X64897000Y-61448000D01*
X64897000Y-61468000D01*
X66146250Y-61468000D01*
X66305000Y-61309250D01*
X66306271Y-60910245D01*
X66753000Y-60910245D01*
X66753000Y-61789754D01*
X66779435Y-62058154D01*
X66883905Y-62402545D01*
X67053555Y-62719937D01*
X67281865Y-62998135D01*
X67560062Y-63226445D01*
X67877454Y-63396095D01*
X68221845Y-63500565D01*
X68580000Y-63535840D01*
X68938154Y-63500565D01*
X69282545Y-63396095D01*
X69599937Y-63226445D01*
X69878135Y-62998135D01*
X70106445Y-62719938D01*
X70276095Y-62402546D01*
X70380565Y-62058155D01*
X70407000Y-61789755D01*
X70407000Y-60910246D01*
X70380565Y-60641845D01*
X70276095Y-60297454D01*
X70106445Y-59980062D01*
X69878135Y-59701865D01*
X69599938Y-59473555D01*
X69282546Y-59303905D01*
X68938155Y-59199435D01*
X68580000Y-59164160D01*
X68221846Y-59199435D01*
X67877455Y-59303905D01*
X67560063Y-59473555D01*
X67281866Y-59701865D01*
X67053555Y-59980062D01*
X66883905Y-60297454D01*
X66779435Y-60641845D01*
X66753000Y-60910245D01*
X66306271Y-60910245D01*
X66308072Y-60345000D01*
X66295812Y-60220518D01*
X66259502Y-60100820D01*
X66200537Y-59990506D01*
X66150333Y-59929332D01*
X66221185Y-59871185D01*
X66300537Y-59774494D01*
X66359502Y-59664180D01*
X66395812Y-59544482D01*
X66408072Y-59420000D01*
X66405000Y-58705750D01*
X66246250Y-58547000D01*
X63397000Y-58547000D01*
X63397000Y-58567000D01*
X63143000Y-58567000D01*
X63143000Y-58547000D01*
X63123000Y-58547000D01*
X63123000Y-58293000D01*
X63143000Y-58293000D01*
X63143000Y-58273000D01*
X63397000Y-58273000D01*
X63397000Y-58293000D01*
X66246250Y-58293000D01*
X66405000Y-58134250D01*
X66407866Y-57467702D01*
X70941903Y-57467702D01*
X71013486Y-57711671D01*
X71268996Y-57832571D01*
X71543184Y-57901300D01*
X71825512Y-57915217D01*
X72105130Y-57873787D01*
X72371292Y-57778603D01*
X72496514Y-57711671D01*
X72568097Y-57467702D01*
X71755000Y-56654605D01*
X70941903Y-57467702D01*
X66407866Y-57467702D01*
X66408072Y-57420000D01*
X66395812Y-57295518D01*
X66386570Y-57265052D01*
X66460236Y-57175290D01*
X66592520Y-56927806D01*
X66673979Y-56659269D01*
X66701485Y-56380000D01*
X66701485Y-55380000D01*
X66673979Y-55100731D01*
X66592520Y-54832194D01*
X66460236Y-54584710D01*
X66386570Y-54494948D01*
X66395812Y-54464482D01*
X66408072Y-54340000D01*
X66405000Y-53625750D01*
X66246250Y-53467000D01*
X63397000Y-53467000D01*
X63397000Y-53487000D01*
X63143000Y-53487000D01*
X63143000Y-53467000D01*
X60293750Y-53467000D01*
X60135000Y-53625750D01*
X60131928Y-54340000D01*
X60144188Y-54464482D01*
X60153430Y-54494948D01*
X60092243Y-54569504D01*
X60064863Y-54572201D01*
X59814722Y-54648081D01*
X59584192Y-54771302D01*
X59463274Y-54870537D01*
X59382130Y-54937130D01*
X59340579Y-54987761D01*
X58797760Y-55530580D01*
X58747131Y-55572130D01*
X58705580Y-55622760D01*
X58705578Y-55622762D01*
X58581302Y-55774192D01*
X58458081Y-56004723D01*
X58382202Y-56254863D01*
X58356581Y-56515000D01*
X58363001Y-56580184D01*
X58363000Y-59876997D01*
X58169938Y-59718555D01*
X57852546Y-59548905D01*
X57508155Y-59444435D01*
X57150000Y-59409160D01*
X56791846Y-59444435D01*
X56447455Y-59548905D01*
X56130063Y-59718555D01*
X55851866Y-59946865D01*
X55623555Y-60225062D01*
X55453905Y-60542454D01*
X55349435Y-60886845D01*
X55323000Y-61155245D01*
X55323000Y-62034754D01*
X55349435Y-62303154D01*
X55453905Y-62647545D01*
X55623555Y-62964937D01*
X55851865Y-63243135D01*
X56130062Y-63471445D01*
X56447454Y-63641095D01*
X56791845Y-63745565D01*
X57150000Y-63780840D01*
X57508154Y-63745565D01*
X57852545Y-63641095D01*
X58169937Y-63471445D01*
X58420000Y-63266225D01*
X58670062Y-63471445D01*
X58987454Y-63641095D01*
X59331845Y-63745565D01*
X59690000Y-63780840D01*
X60048154Y-63745565D01*
X60392545Y-63641095D01*
X60709937Y-63471445D01*
X60903000Y-63313003D01*
X60903001Y-64855338D01*
X58797765Y-66960575D01*
X58747130Y-67002130D01*
X58705578Y-67052762D01*
X58581302Y-67204192D01*
X58525049Y-67309435D01*
X58458081Y-67434723D01*
X58426657Y-67538313D01*
X58420000Y-67543776D01*
X58169938Y-67338555D01*
X57852546Y-67168905D01*
X57508155Y-67064435D01*
X57150000Y-67029160D01*
X56791846Y-67064435D01*
X56447455Y-67168905D01*
X56130063Y-67338555D01*
X55851866Y-67566865D01*
X55623555Y-67845062D01*
X55600604Y-67888000D01*
X55231769Y-67888000D01*
X55139645Y-67795876D01*
X55100639Y-67769813D01*
X55155030Y-67715422D01*
X55039082Y-67599474D01*
X55293261Y-67515792D01*
X55424158Y-67243225D01*
X55499365Y-66950358D01*
X55515991Y-66648447D01*
X55473397Y-66349093D01*
X55373222Y-66063801D01*
X55293261Y-65914208D01*
X55039080Y-65830525D01*
X54154605Y-66715000D01*
X54168748Y-66729143D01*
X53989143Y-66908748D01*
X53975000Y-66894605D01*
X53960858Y-66908748D01*
X53781253Y-66729143D01*
X53795395Y-66715000D01*
X52910920Y-65830525D01*
X52656739Y-65914208D01*
X52525842Y-66186775D01*
X52450635Y-66479642D01*
X52434009Y-66781553D01*
X52476603Y-67080907D01*
X52576778Y-67366199D01*
X52656739Y-67515792D01*
X52910918Y-67599474D01*
X52794970Y-67715422D01*
X52849361Y-67769813D01*
X52810355Y-67795876D01*
X52555876Y-68050355D01*
X52355934Y-68349591D01*
X52218211Y-68682084D01*
X52148000Y-69035056D01*
X52148000Y-69394944D01*
X52218211Y-69747916D01*
X52355934Y-70080409D01*
X52555876Y-70379645D01*
X52810355Y-70634124D01*
X53109591Y-70834066D01*
X53442084Y-70971789D01*
X53795056Y-71042000D01*
X54154944Y-71042000D01*
X54507916Y-70971789D01*
X54840409Y-70834066D01*
X55139645Y-70634124D01*
X55231769Y-70542000D01*
X55600605Y-70542000D01*
X55623555Y-70584937D01*
X55851865Y-70863135D01*
X56130062Y-71091445D01*
X56447454Y-71261095D01*
X56791845Y-71365565D01*
X57150000Y-71400840D01*
X57508154Y-71365565D01*
X57852545Y-71261095D01*
X58169937Y-71091445D01*
X58363001Y-70933002D01*
X58363001Y-71199817D01*
X58356581Y-71265000D01*
X58382202Y-71525137D01*
X58458081Y-71775277D01*
X58581302Y-72005808D01*
X58705578Y-72157238D01*
X58747131Y-72207870D01*
X58797761Y-72249421D01*
X59195575Y-72647235D01*
X59237130Y-72697870D01*
X59439192Y-72863698D01*
X59669722Y-72986919D01*
X59919863Y-73062799D01*
X60114816Y-73082000D01*
X60114826Y-73082000D01*
X60180000Y-73088419D01*
X60245174Y-73082000D01*
X71689826Y-73082000D01*
X71755000Y-73088419D01*
X71820174Y-73082000D01*
X71820184Y-73082000D01*
X72015137Y-73062799D01*
X72265278Y-72986919D01*
X72495808Y-72863698D01*
X72697870Y-72697870D01*
X72739425Y-72647235D01*
X73282241Y-72104420D01*
X73332870Y-72062870D01*
X73498698Y-71860808D01*
X73533000Y-71796634D01*
X73533000Y-73343000D01*
X28672638Y-73343000D01*
X28763874Y-73206455D01*
X28984518Y-72673775D01*
X29097000Y-72108284D01*
X29097000Y-71531716D01*
X28984518Y-70966225D01*
X28763874Y-70433545D01*
X28443550Y-69954146D01*
X28035854Y-69546450D01*
X27556455Y-69226126D01*
X27023775Y-69005482D01*
X26458284Y-68893000D01*
X25881716Y-68893000D01*
X25316225Y-69005482D01*
X24783545Y-69226126D01*
X24304146Y-69546450D01*
X23896450Y-69954146D01*
X23576126Y-70433545D01*
X23355482Y-70966225D01*
X23243000Y-71531716D01*
X23243000Y-72108284D01*
X23355482Y-72673775D01*
X23576126Y-73206455D01*
X23667362Y-73343000D01*
X20637000Y-73343000D01*
X20637000Y-65650920D01*
X53090525Y-65650920D01*
X53975000Y-66535395D01*
X54859475Y-65650920D01*
X54775792Y-65396739D01*
X54503225Y-65265842D01*
X54210358Y-65190635D01*
X53908447Y-65174009D01*
X53609093Y-65216603D01*
X53323801Y-65316778D01*
X53174208Y-65396739D01*
X53090525Y-65650920D01*
X20637000Y-65650920D01*
X20637000Y-60631716D01*
X23243000Y-60631716D01*
X23243000Y-61208284D01*
X23355482Y-61773775D01*
X23576126Y-62306455D01*
X23896450Y-62785854D01*
X24304146Y-63193550D01*
X24783545Y-63513874D01*
X25316225Y-63734518D01*
X25881716Y-63847000D01*
X26458284Y-63847000D01*
X27023775Y-63734518D01*
X27556455Y-63513874D01*
X28035854Y-63193550D01*
X28443550Y-62785854D01*
X28763874Y-62306455D01*
X28984518Y-61773775D01*
X29032666Y-61531716D01*
X41543000Y-61531716D01*
X41543000Y-62108284D01*
X41655482Y-62673775D01*
X41876126Y-63206455D01*
X42196450Y-63685854D01*
X42604146Y-64093550D01*
X43083545Y-64413874D01*
X43616225Y-64634518D01*
X44181716Y-64747000D01*
X44758284Y-64747000D01*
X45323775Y-64634518D01*
X45856455Y-64413874D01*
X46335854Y-64093550D01*
X46743550Y-63685854D01*
X47063874Y-63206455D01*
X47284518Y-62673775D01*
X47397000Y-62108284D01*
X47397000Y-61531716D01*
X47284518Y-60966225D01*
X47063874Y-60433545D01*
X46743550Y-59954146D01*
X46335854Y-59546450D01*
X45856455Y-59226126D01*
X45323775Y-59005482D01*
X44758284Y-58893000D01*
X44181716Y-58893000D01*
X43616225Y-59005482D01*
X43083545Y-59226126D01*
X42604146Y-59546450D01*
X42196450Y-59954146D01*
X41876126Y-60433545D01*
X41655482Y-60966225D01*
X41543000Y-61531716D01*
X29032666Y-61531716D01*
X29097000Y-61208284D01*
X29097000Y-60631716D01*
X28984518Y-60066225D01*
X28763874Y-59533545D01*
X28443550Y-59054146D01*
X28035854Y-58646450D01*
X27556455Y-58326126D01*
X27023775Y-58105482D01*
X26458284Y-57993000D01*
X25881716Y-57993000D01*
X25316225Y-58105482D01*
X24783545Y-58326126D01*
X24304146Y-58646450D01*
X23896450Y-59054146D01*
X23576126Y-59533545D01*
X23355482Y-60066225D01*
X23243000Y-60631716D01*
X20637000Y-60631716D01*
X20637000Y-49212000D01*
X42090975Y-49212000D01*
X41876126Y-49533545D01*
M02*
