G04 #@! TF.GenerationSoftware,KiCad,Pcbnew,5.1.5+dfsg1-2build2*
G04 #@! TF.CreationDate,2022-07-20T01:20:36+02:00*
G04 #@! TF.ProjectId,CapacitiveSensor,43617061-6369-4746-9976-6553656e736f,rev?*
G04 #@! TF.SameCoordinates,Original*
G04 #@! TF.FileFunction,Legend,Top*
G04 #@! TF.FilePolarity,Positive*
%FSLAX46Y46*%
G04 Gerber Fmt 4.6, Leading zero omitted, Abs format (unit mm)*
G04 Created by KiCad (PCBNEW 5.1.5+dfsg1-2build2) date 2022-07-20 01:20:36*
%MOMM*%
%LPD*%
G04 APERTURE LIST*
%ADD10C,0.150000*%
%ADD11C,0.120000*%
G04 APERTURE END LIST*
D10*
X83161428Y-59412142D02*
X83113809Y-59459761D01*
X82970952Y-59507380D01*
X82875714Y-59507380D01*
X82732857Y-59459761D01*
X82637619Y-59364523D01*
X82590000Y-59269285D01*
X82542380Y-59078809D01*
X82542380Y-58935952D01*
X82590000Y-58745476D01*
X82637619Y-58650238D01*
X82732857Y-58555000D01*
X82875714Y-58507380D01*
X82970952Y-58507380D01*
X83113809Y-58555000D01*
X83161428Y-58602619D01*
X83351904Y-59602619D02*
X84113809Y-59602619D01*
X84209047Y-58507380D02*
X84780476Y-58507380D01*
X84494761Y-59507380D02*
X84494761Y-58507380D01*
X85113809Y-58507380D02*
X85113809Y-59316904D01*
X85161428Y-59412142D01*
X85209047Y-59459761D01*
X85304285Y-59507380D01*
X85494761Y-59507380D01*
X85590000Y-59459761D01*
X85637619Y-59412142D01*
X85685238Y-59316904D01*
X85685238Y-58507380D01*
X86494761Y-58983571D02*
X86637619Y-59031190D01*
X86685238Y-59078809D01*
X86732857Y-59174047D01*
X86732857Y-59316904D01*
X86685238Y-59412142D01*
X86637619Y-59459761D01*
X86542380Y-59507380D01*
X86161428Y-59507380D01*
X86161428Y-58507380D01*
X86494761Y-58507380D01*
X86590000Y-58555000D01*
X86637619Y-58602619D01*
X86685238Y-58697857D01*
X86685238Y-58793095D01*
X86637619Y-58888333D01*
X86590000Y-58935952D01*
X86494761Y-58983571D01*
X86161428Y-58983571D01*
X87161428Y-58983571D02*
X87494761Y-58983571D01*
X87637619Y-59507380D02*
X87161428Y-59507380D01*
X87161428Y-58507380D01*
X87637619Y-58507380D01*
X83256666Y-73382142D02*
X83209047Y-73429761D01*
X83066190Y-73477380D01*
X82970952Y-73477380D01*
X82828095Y-73429761D01*
X82732857Y-73334523D01*
X82685238Y-73239285D01*
X82637619Y-73048809D01*
X82637619Y-72905952D01*
X82685238Y-72715476D01*
X82732857Y-72620238D01*
X82828095Y-72525000D01*
X82970952Y-72477380D01*
X83066190Y-72477380D01*
X83209047Y-72525000D01*
X83256666Y-72572619D01*
X83447142Y-73572619D02*
X84209047Y-73572619D01*
X84351904Y-72477380D02*
X84590000Y-73477380D01*
X84780476Y-72763095D01*
X84970952Y-73477380D01*
X85209047Y-72477380D01*
X85590000Y-73477380D02*
X85590000Y-72477380D01*
X86637619Y-73477380D02*
X86304285Y-73001190D01*
X86066190Y-73477380D02*
X86066190Y-72477380D01*
X86447142Y-72477380D01*
X86542380Y-72525000D01*
X86590000Y-72572619D01*
X86637619Y-72667857D01*
X86637619Y-72810714D01*
X86590000Y-72905952D01*
X86542380Y-72953571D01*
X86447142Y-73001190D01*
X86066190Y-73001190D01*
X87066190Y-72953571D02*
X87399523Y-72953571D01*
X87542380Y-73477380D02*
X87066190Y-73477380D01*
X87066190Y-72477380D01*
X87542380Y-72477380D01*
X57658095Y-57920000D02*
X57562857Y-57872380D01*
X57420000Y-57872380D01*
X57277142Y-57920000D01*
X57181904Y-58015238D01*
X57134285Y-58110476D01*
X57086666Y-58300952D01*
X57086666Y-58443809D01*
X57134285Y-58634285D01*
X57181904Y-58729523D01*
X57277142Y-58824761D01*
X57420000Y-58872380D01*
X57515238Y-58872380D01*
X57658095Y-58824761D01*
X57705714Y-58777142D01*
X57705714Y-58443809D01*
X57515238Y-58443809D01*
X58134285Y-58872380D02*
X58134285Y-57872380D01*
X58705714Y-58872380D01*
X58705714Y-57872380D01*
X59181904Y-58872380D02*
X59181904Y-57872380D01*
X59420000Y-57872380D01*
X59562857Y-57920000D01*
X59658095Y-58015238D01*
X59705714Y-58110476D01*
X59753333Y-58300952D01*
X59753333Y-58443809D01*
X59705714Y-58634285D01*
X59658095Y-58729523D01*
X59562857Y-58824761D01*
X59420000Y-58872380D01*
X59181904Y-58872380D01*
X55665952Y-56332380D02*
X55665952Y-55332380D01*
X56046904Y-55332380D01*
X56142142Y-55380000D01*
X56189761Y-55427619D01*
X56237380Y-55522857D01*
X56237380Y-55665714D01*
X56189761Y-55760952D01*
X56142142Y-55808571D01*
X56046904Y-55856190D01*
X55665952Y-55856190D01*
X56665952Y-55332380D02*
X56665952Y-56141904D01*
X56713571Y-56237142D01*
X56761190Y-56284761D01*
X56856428Y-56332380D01*
X57046904Y-56332380D01*
X57142142Y-56284761D01*
X57189761Y-56237142D01*
X57237380Y-56141904D01*
X57237380Y-55332380D01*
X58189761Y-56332380D02*
X57713571Y-56332380D01*
X57713571Y-55332380D01*
X58475476Y-56284761D02*
X58618333Y-56332380D01*
X58856428Y-56332380D01*
X58951666Y-56284761D01*
X58999285Y-56237142D01*
X59046904Y-56141904D01*
X59046904Y-56046666D01*
X58999285Y-55951428D01*
X58951666Y-55903809D01*
X58856428Y-55856190D01*
X58665952Y-55808571D01*
X58570714Y-55760952D01*
X58523095Y-55713333D01*
X58475476Y-55618095D01*
X58475476Y-55522857D01*
X58523095Y-55427619D01*
X58570714Y-55380000D01*
X58665952Y-55332380D01*
X58904047Y-55332380D01*
X59046904Y-55380000D01*
X59475476Y-55808571D02*
X59808809Y-55808571D01*
X59951666Y-56332380D02*
X59475476Y-56332380D01*
X59475476Y-55332380D01*
X59951666Y-55332380D01*
X57658095Y-52840000D02*
X57562857Y-52792380D01*
X57420000Y-52792380D01*
X57277142Y-52840000D01*
X57181904Y-52935238D01*
X57134285Y-53030476D01*
X57086666Y-53220952D01*
X57086666Y-53363809D01*
X57134285Y-53554285D01*
X57181904Y-53649523D01*
X57277142Y-53744761D01*
X57420000Y-53792380D01*
X57515238Y-53792380D01*
X57658095Y-53744761D01*
X57705714Y-53697142D01*
X57705714Y-53363809D01*
X57515238Y-53363809D01*
X58134285Y-53792380D02*
X58134285Y-52792380D01*
X58705714Y-53792380D01*
X58705714Y-52792380D01*
X59181904Y-53792380D02*
X59181904Y-52792380D01*
X59420000Y-52792380D01*
X59562857Y-52840000D01*
X59658095Y-52935238D01*
X59705714Y-53030476D01*
X59753333Y-53220952D01*
X59753333Y-53363809D01*
X59705714Y-53554285D01*
X59658095Y-53649523D01*
X59562857Y-53744761D01*
X59420000Y-53792380D01*
X59181904Y-53792380D01*
X57086666Y-50252380D02*
X57420000Y-51252380D01*
X57753333Y-50252380D01*
X58658095Y-51157142D02*
X58610476Y-51204761D01*
X58467619Y-51252380D01*
X58372380Y-51252380D01*
X58229523Y-51204761D01*
X58134285Y-51109523D01*
X58086666Y-51014285D01*
X58039047Y-50823809D01*
X58039047Y-50680952D01*
X58086666Y-50490476D01*
X58134285Y-50395238D01*
X58229523Y-50300000D01*
X58372380Y-50252380D01*
X58467619Y-50252380D01*
X58610476Y-50300000D01*
X58658095Y-50347619D01*
X59658095Y-51157142D02*
X59610476Y-51204761D01*
X59467619Y-51252380D01*
X59372380Y-51252380D01*
X59229523Y-51204761D01*
X59134285Y-51109523D01*
X59086666Y-51014285D01*
X59039047Y-50823809D01*
X59039047Y-50680952D01*
X59086666Y-50490476D01*
X59134285Y-50395238D01*
X59229523Y-50300000D01*
X59372380Y-50252380D01*
X59467619Y-50252380D01*
X59610476Y-50300000D01*
X59658095Y-50347619D01*
D11*
X51470000Y-52320000D02*
X22370000Y-52320000D01*
X19270000Y-62720000D02*
X19270000Y-55420000D01*
X19270000Y-69720000D02*
X19270000Y-65820000D01*
X51470000Y-67220000D02*
X51470000Y-59920000D01*
X48370000Y-70320000D02*
X19270000Y-70320000D01*
X51470000Y-56820000D02*
X26170000Y-56820000D01*
X19270000Y-65820000D02*
X44570000Y-65820000D01*
X19270000Y-55420000D02*
G75*
G02X22370000Y-52320000I3100000J0D01*
G01*
X51470000Y-67220000D02*
G75*
G02X48370000Y-70320000I-3100000J0D01*
G01*
X22370000Y-65820000D02*
G75*
G02X19270000Y-62720000I0J3100000D01*
G01*
X48370000Y-56820000D02*
G75*
G02X51470000Y-59920000I0J-3100000D01*
G01*
X19270000Y-69720000D02*
X19270000Y-69920000D01*
X19270000Y-70320000D02*
X19270000Y-69720000D01*
X51470000Y-52820000D02*
X51470000Y-52320000D01*
X51470000Y-56820000D02*
X44470000Y-56820000D01*
X19270000Y-65820000D02*
X26270000Y-65820000D01*
X51470000Y-56820000D02*
X44470000Y-56820000D01*
X51470000Y-56820000D02*
X48170000Y-56820000D01*
X51470000Y-52820000D02*
X51470000Y-56820000D01*
X65870000Y-49620000D02*
X65870000Y-59620000D01*
X60470000Y-49620000D02*
X65870000Y-49620000D01*
X60470000Y-59620000D02*
X60470000Y-49620000D01*
X60670000Y-59620000D02*
X60470000Y-59620000D01*
X65870000Y-59620000D02*
X60670000Y-59620000D01*
X65870000Y-56920000D02*
X65870000Y-52220000D01*
X66100000Y-66405000D02*
G75*
G02X66100000Y-64405000I0J1000000D01*
G01*
X66100000Y-64405000D02*
X66100000Y-62755000D01*
X66100000Y-62755000D02*
X55820000Y-62755000D01*
X55820000Y-62755000D02*
X55820000Y-68055000D01*
X55820000Y-68055000D02*
X66100000Y-68055000D01*
X66100000Y-68055000D02*
X66100000Y-66405000D01*
X52855000Y-70385000D02*
X52855000Y-65545000D01*
X55095000Y-70385000D02*
X55095000Y-65545000D01*
X52855000Y-70385000D02*
X55095000Y-70385000D01*
X52855000Y-65545000D02*
X55095000Y-65545000D01*
X79235000Y-67160000D02*
X74395000Y-67160000D01*
X79235000Y-64920000D02*
X74395000Y-64920000D01*
X79235000Y-67160000D02*
X79235000Y-64920000D01*
X74395000Y-67160000D02*
X74395000Y-64920000D01*
X72390000Y-69480000D02*
X72390000Y-68710000D01*
X72390000Y-61400000D02*
X72390000Y-62170000D01*
X73760000Y-68710000D02*
X73760000Y-62170000D01*
X71020000Y-68710000D02*
X73760000Y-68710000D01*
X71020000Y-62170000D02*
X71020000Y-68710000D01*
X73760000Y-62170000D02*
X71020000Y-62170000D01*
X68580000Y-69370000D02*
X68580000Y-68600000D01*
X68580000Y-61290000D02*
X68580000Y-62060000D01*
X69950000Y-68600000D02*
X69950000Y-62060000D01*
X67210000Y-68600000D02*
X69950000Y-68600000D01*
X67210000Y-62060000D02*
X67210000Y-68600000D01*
X69950000Y-62060000D02*
X67210000Y-62060000D01*
X74305000Y-51457789D02*
X73555000Y-51457789D01*
X73930000Y-51082789D02*
X73930000Y-51832789D01*
X72196000Y-59066000D02*
X71314000Y-59066000D01*
X72448000Y-59026000D02*
X71062000Y-59026000D01*
X72632000Y-58986000D02*
X70878000Y-58986000D01*
X72783000Y-58946000D02*
X70727000Y-58946000D01*
X72913000Y-58906000D02*
X70597000Y-58906000D01*
X73030000Y-58866000D02*
X70480000Y-58866000D01*
X73136000Y-58826000D02*
X70374000Y-58826000D01*
X73233000Y-58786000D02*
X70277000Y-58786000D01*
X73324000Y-58746000D02*
X70186000Y-58746000D01*
X73409000Y-58706000D02*
X70101000Y-58706000D01*
X73488000Y-58666000D02*
X70022000Y-58666000D01*
X73564000Y-58626000D02*
X69946000Y-58626000D01*
X73636000Y-58586000D02*
X69874000Y-58586000D01*
X73704000Y-58546000D02*
X69806000Y-58546000D01*
X73769000Y-58506000D02*
X69741000Y-58506000D01*
X73832000Y-58466000D02*
X69678000Y-58466000D01*
X73892000Y-58426000D02*
X69618000Y-58426000D01*
X73950000Y-58386000D02*
X69560000Y-58386000D01*
X74005000Y-58346000D02*
X69505000Y-58346000D01*
X74059000Y-58306000D02*
X69451000Y-58306000D01*
X74110000Y-58266000D02*
X69400000Y-58266000D01*
X74160000Y-58226000D02*
X69350000Y-58226000D01*
X74209000Y-58186000D02*
X69301000Y-58186000D01*
X74255000Y-58146000D02*
X69255000Y-58146000D01*
X74301000Y-58106000D02*
X69209000Y-58106000D01*
X74344000Y-58066000D02*
X69166000Y-58066000D01*
X74387000Y-58026000D02*
X69123000Y-58026000D01*
X74428000Y-57986000D02*
X69082000Y-57986000D01*
X74468000Y-57946000D02*
X69042000Y-57946000D01*
X74507000Y-57906000D02*
X69003000Y-57906000D01*
X74545000Y-57866000D02*
X68965000Y-57866000D01*
X74582000Y-57826000D02*
X68928000Y-57826000D01*
X74618000Y-57786000D02*
X68892000Y-57786000D01*
X74653000Y-57746000D02*
X68857000Y-57746000D01*
X74686000Y-57706000D02*
X68824000Y-57706000D01*
X74719000Y-57666000D02*
X68791000Y-57666000D01*
X74751000Y-57626000D02*
X68759000Y-57626000D01*
X74783000Y-57586000D02*
X68727000Y-57586000D01*
X74813000Y-57546000D02*
X68697000Y-57546000D01*
X70715000Y-57506000D02*
X68667000Y-57506000D01*
X74843000Y-57506000D02*
X72795000Y-57506000D01*
X70715000Y-57466000D02*
X68639000Y-57466000D01*
X74871000Y-57466000D02*
X72795000Y-57466000D01*
X70715000Y-57426000D02*
X68611000Y-57426000D01*
X74899000Y-57426000D02*
X72795000Y-57426000D01*
X70715000Y-57386000D02*
X68583000Y-57386000D01*
X74927000Y-57386000D02*
X72795000Y-57386000D01*
X70715000Y-57346000D02*
X68557000Y-57346000D01*
X74953000Y-57346000D02*
X72795000Y-57346000D01*
X70715000Y-57306000D02*
X68531000Y-57306000D01*
X74979000Y-57306000D02*
X72795000Y-57306000D01*
X70715000Y-57266000D02*
X68506000Y-57266000D01*
X75004000Y-57266000D02*
X72795000Y-57266000D01*
X70715000Y-57226000D02*
X68481000Y-57226000D01*
X75029000Y-57226000D02*
X72795000Y-57226000D01*
X70715000Y-57186000D02*
X68458000Y-57186000D01*
X75052000Y-57186000D02*
X72795000Y-57186000D01*
X70715000Y-57146000D02*
X68434000Y-57146000D01*
X75076000Y-57146000D02*
X72795000Y-57146000D01*
X70715000Y-57106000D02*
X68412000Y-57106000D01*
X75098000Y-57106000D02*
X72795000Y-57106000D01*
X70715000Y-57066000D02*
X68390000Y-57066000D01*
X75120000Y-57066000D02*
X72795000Y-57066000D01*
X70715000Y-57026000D02*
X68369000Y-57026000D01*
X75141000Y-57026000D02*
X72795000Y-57026000D01*
X70715000Y-56986000D02*
X68348000Y-56986000D01*
X75162000Y-56986000D02*
X72795000Y-56986000D01*
X70715000Y-56946000D02*
X68328000Y-56946000D01*
X75182000Y-56946000D02*
X72795000Y-56946000D01*
X70715000Y-56906000D02*
X68308000Y-56906000D01*
X75202000Y-56906000D02*
X72795000Y-56906000D01*
X70715000Y-56866000D02*
X68289000Y-56866000D01*
X75221000Y-56866000D02*
X72795000Y-56866000D01*
X70715000Y-56826000D02*
X68271000Y-56826000D01*
X75239000Y-56826000D02*
X72795000Y-56826000D01*
X70715000Y-56786000D02*
X68253000Y-56786000D01*
X75257000Y-56786000D02*
X72795000Y-56786000D01*
X70715000Y-56746000D02*
X68235000Y-56746000D01*
X75275000Y-56746000D02*
X72795000Y-56746000D01*
X70715000Y-56706000D02*
X68219000Y-56706000D01*
X75291000Y-56706000D02*
X72795000Y-56706000D01*
X70715000Y-56666000D02*
X68202000Y-56666000D01*
X75308000Y-56666000D02*
X72795000Y-56666000D01*
X70715000Y-56626000D02*
X68187000Y-56626000D01*
X75323000Y-56626000D02*
X72795000Y-56626000D01*
X70715000Y-56586000D02*
X68171000Y-56586000D01*
X75339000Y-56586000D02*
X72795000Y-56586000D01*
X70715000Y-56546000D02*
X68157000Y-56546000D01*
X75353000Y-56546000D02*
X72795000Y-56546000D01*
X70715000Y-56506000D02*
X68142000Y-56506000D01*
X75368000Y-56506000D02*
X72795000Y-56506000D01*
X70715000Y-56466000D02*
X68129000Y-56466000D01*
X75381000Y-56466000D02*
X72795000Y-56466000D01*
X70715000Y-56426000D02*
X68115000Y-56426000D01*
X75395000Y-56426000D02*
X72795000Y-56426000D01*
X70715000Y-56386000D02*
X68102000Y-56386000D01*
X75408000Y-56386000D02*
X72795000Y-56386000D01*
X70715000Y-56346000D02*
X68090000Y-56346000D01*
X75420000Y-56346000D02*
X72795000Y-56346000D01*
X70715000Y-56306000D02*
X68078000Y-56306000D01*
X75432000Y-56306000D02*
X72795000Y-56306000D01*
X70715000Y-56266000D02*
X68067000Y-56266000D01*
X75443000Y-56266000D02*
X72795000Y-56266000D01*
X70715000Y-56226000D02*
X68056000Y-56226000D01*
X75454000Y-56226000D02*
X72795000Y-56226000D01*
X70715000Y-56186000D02*
X68045000Y-56186000D01*
X75465000Y-56186000D02*
X72795000Y-56186000D01*
X70715000Y-56146000D02*
X68035000Y-56146000D01*
X75475000Y-56146000D02*
X72795000Y-56146000D01*
X70715000Y-56106000D02*
X68026000Y-56106000D01*
X75484000Y-56106000D02*
X72795000Y-56106000D01*
X70715000Y-56066000D02*
X68017000Y-56066000D01*
X75493000Y-56066000D02*
X72795000Y-56066000D01*
X70715000Y-56026000D02*
X68008000Y-56026000D01*
X75502000Y-56026000D02*
X72795000Y-56026000D01*
X70715000Y-55986000D02*
X68000000Y-55986000D01*
X75510000Y-55986000D02*
X72795000Y-55986000D01*
X70715000Y-55946000D02*
X67992000Y-55946000D01*
X75518000Y-55946000D02*
X72795000Y-55946000D01*
X70715000Y-55905000D02*
X67985000Y-55905000D01*
X75525000Y-55905000D02*
X72795000Y-55905000D01*
X70715000Y-55865000D02*
X67978000Y-55865000D01*
X75532000Y-55865000D02*
X72795000Y-55865000D01*
X70715000Y-55825000D02*
X67971000Y-55825000D01*
X75539000Y-55825000D02*
X72795000Y-55825000D01*
X70715000Y-55785000D02*
X67965000Y-55785000D01*
X75545000Y-55785000D02*
X72795000Y-55785000D01*
X70715000Y-55745000D02*
X67960000Y-55745000D01*
X75550000Y-55745000D02*
X72795000Y-55745000D01*
X70715000Y-55705000D02*
X67954000Y-55705000D01*
X75556000Y-55705000D02*
X72795000Y-55705000D01*
X70715000Y-55665000D02*
X67950000Y-55665000D01*
X75560000Y-55665000D02*
X72795000Y-55665000D01*
X70715000Y-55625000D02*
X67945000Y-55625000D01*
X75565000Y-55625000D02*
X72795000Y-55625000D01*
X70715000Y-55585000D02*
X67941000Y-55585000D01*
X75569000Y-55585000D02*
X72795000Y-55585000D01*
X70715000Y-55545000D02*
X67938000Y-55545000D01*
X75572000Y-55545000D02*
X72795000Y-55545000D01*
X70715000Y-55505000D02*
X67935000Y-55505000D01*
X75575000Y-55505000D02*
X72795000Y-55505000D01*
X70715000Y-55465000D02*
X67932000Y-55465000D01*
X75578000Y-55465000D02*
X72795000Y-55465000D01*
X75580000Y-55425000D02*
X67930000Y-55425000D01*
X75582000Y-55385000D02*
X67928000Y-55385000D01*
X75584000Y-55345000D02*
X67926000Y-55345000D01*
X75585000Y-55305000D02*
X67925000Y-55305000D01*
X75585000Y-55265000D02*
X67925000Y-55265000D01*
X75585000Y-55225000D02*
X67925000Y-55225000D01*
X75625000Y-55225000D02*
G75*
G03X75625000Y-55225000I-3870000J0D01*
G01*
D10*
X76501666Y-59777380D02*
X76501666Y-60491666D01*
X76454047Y-60634523D01*
X76358809Y-60729761D01*
X76215952Y-60777380D01*
X76120714Y-60777380D01*
X76930238Y-59872619D02*
X76977857Y-59825000D01*
X77073095Y-59777380D01*
X77311190Y-59777380D01*
X77406428Y-59825000D01*
X77454047Y-59872619D01*
X77501666Y-59967857D01*
X77501666Y-60063095D01*
X77454047Y-60205952D01*
X76882619Y-60777380D01*
X77501666Y-60777380D01*
X66976666Y-50252380D02*
X66976666Y-50966666D01*
X66929047Y-51109523D01*
X66833809Y-51204761D01*
X66690952Y-51252380D01*
X66595714Y-51252380D01*
X67357619Y-50252380D02*
X67976666Y-50252380D01*
X67643333Y-50633333D01*
X67786190Y-50633333D01*
X67881428Y-50680952D01*
X67929047Y-50728571D01*
X67976666Y-50823809D01*
X67976666Y-51061904D01*
X67929047Y-51157142D01*
X67881428Y-51204761D01*
X67786190Y-51252380D01*
X67500476Y-51252380D01*
X67405238Y-51204761D01*
X67357619Y-51157142D01*
X58293333Y-65857380D02*
X58293333Y-64857380D01*
X58864761Y-65857380D01*
X58864761Y-64857380D01*
X59340952Y-65333571D02*
X59674285Y-65333571D01*
X59817142Y-65857380D02*
X59340952Y-65857380D01*
X59340952Y-64857380D01*
X59817142Y-64857380D01*
X60721904Y-64857380D02*
X60245714Y-64857380D01*
X60198095Y-65333571D01*
X60245714Y-65285952D01*
X60340952Y-65238333D01*
X60579047Y-65238333D01*
X60674285Y-65285952D01*
X60721904Y-65333571D01*
X60769523Y-65428809D01*
X60769523Y-65666904D01*
X60721904Y-65762142D01*
X60674285Y-65809761D01*
X60579047Y-65857380D01*
X60340952Y-65857380D01*
X60245714Y-65809761D01*
X60198095Y-65762142D01*
X61674285Y-64857380D02*
X61198095Y-64857380D01*
X61150476Y-65333571D01*
X61198095Y-65285952D01*
X61293333Y-65238333D01*
X61531428Y-65238333D01*
X61626666Y-65285952D01*
X61674285Y-65333571D01*
X61721904Y-65428809D01*
X61721904Y-65666904D01*
X61674285Y-65762142D01*
X61626666Y-65809761D01*
X61531428Y-65857380D01*
X61293333Y-65857380D01*
X61198095Y-65809761D01*
X61150476Y-65762142D01*
X62626666Y-64857380D02*
X62150476Y-64857380D01*
X62102857Y-65333571D01*
X62150476Y-65285952D01*
X62245714Y-65238333D01*
X62483809Y-65238333D01*
X62579047Y-65285952D01*
X62626666Y-65333571D01*
X62674285Y-65428809D01*
X62674285Y-65666904D01*
X62626666Y-65762142D01*
X62579047Y-65809761D01*
X62483809Y-65857380D01*
X62245714Y-65857380D01*
X62150476Y-65809761D01*
X62102857Y-65762142D01*
X63102857Y-65857380D02*
X63102857Y-64857380D01*
X63483809Y-64857380D01*
X63579047Y-64905000D01*
X63626666Y-64952619D01*
X63674285Y-65047857D01*
X63674285Y-65190714D01*
X63626666Y-65285952D01*
X63579047Y-65333571D01*
X63483809Y-65381190D01*
X63102857Y-65381190D01*
X53808333Y-72112142D02*
X53760714Y-72159761D01*
X53617857Y-72207380D01*
X53522619Y-72207380D01*
X53379761Y-72159761D01*
X53284523Y-72064523D01*
X53236904Y-71969285D01*
X53189285Y-71778809D01*
X53189285Y-71635952D01*
X53236904Y-71445476D01*
X53284523Y-71350238D01*
X53379761Y-71255000D01*
X53522619Y-71207380D01*
X53617857Y-71207380D01*
X53760714Y-71255000D01*
X53808333Y-71302619D01*
X54189285Y-71302619D02*
X54236904Y-71255000D01*
X54332142Y-71207380D01*
X54570238Y-71207380D01*
X54665476Y-71255000D01*
X54713095Y-71302619D01*
X54760714Y-71397857D01*
X54760714Y-71493095D01*
X54713095Y-71635952D01*
X54141666Y-72207380D01*
X54760714Y-72207380D01*
X80478333Y-66397142D02*
X80430714Y-66444761D01*
X80287857Y-66492380D01*
X80192619Y-66492380D01*
X80049761Y-66444761D01*
X79954523Y-66349523D01*
X79906904Y-66254285D01*
X79859285Y-66063809D01*
X79859285Y-65920952D01*
X79906904Y-65730476D01*
X79954523Y-65635238D01*
X80049761Y-65540000D01*
X80192619Y-65492380D01*
X80287857Y-65492380D01*
X80430714Y-65540000D01*
X80478333Y-65587619D01*
X81430714Y-66492380D02*
X80859285Y-66492380D01*
X81145000Y-66492380D02*
X81145000Y-65492380D01*
X81049761Y-65635238D01*
X80954523Y-65730476D01*
X80859285Y-65778095D01*
X60626666Y-60202380D02*
X60626666Y-60916666D01*
X60579047Y-61059523D01*
X60483809Y-61154761D01*
X60340952Y-61202380D01*
X60245714Y-61202380D01*
X61626666Y-61202380D02*
X61055238Y-61202380D01*
X61340952Y-61202380D02*
X61340952Y-60202380D01*
X61245714Y-60345238D01*
X61150476Y-60440476D01*
X61055238Y-60488095D01*
X72223333Y-65892380D02*
X71890000Y-65416190D01*
X71651904Y-65892380D02*
X71651904Y-64892380D01*
X72032857Y-64892380D01*
X72128095Y-64940000D01*
X72175714Y-64987619D01*
X72223333Y-65082857D01*
X72223333Y-65225714D01*
X72175714Y-65320952D01*
X72128095Y-65368571D01*
X72032857Y-65416190D01*
X71651904Y-65416190D01*
X72604285Y-64987619D02*
X72651904Y-64940000D01*
X72747142Y-64892380D01*
X72985238Y-64892380D01*
X73080476Y-64940000D01*
X73128095Y-64987619D01*
X73175714Y-65082857D01*
X73175714Y-65178095D01*
X73128095Y-65320952D01*
X72556666Y-65892380D01*
X73175714Y-65892380D01*
X68413333Y-65782380D02*
X68080000Y-65306190D01*
X67841904Y-65782380D02*
X67841904Y-64782380D01*
X68222857Y-64782380D01*
X68318095Y-64830000D01*
X68365714Y-64877619D01*
X68413333Y-64972857D01*
X68413333Y-65115714D01*
X68365714Y-65210952D01*
X68318095Y-65258571D01*
X68222857Y-65306190D01*
X67841904Y-65306190D01*
X69365714Y-65782380D02*
X68794285Y-65782380D01*
X69080000Y-65782380D02*
X69080000Y-64782380D01*
X68984761Y-64925238D01*
X68889523Y-65020476D01*
X68794285Y-65068095D01*
X71588333Y-50522142D02*
X71540714Y-50569761D01*
X71397857Y-50617380D01*
X71302619Y-50617380D01*
X71159761Y-50569761D01*
X71064523Y-50474523D01*
X71016904Y-50379285D01*
X70969285Y-50188809D01*
X70969285Y-50045952D01*
X71016904Y-49855476D01*
X71064523Y-49760238D01*
X71159761Y-49665000D01*
X71302619Y-49617380D01*
X71397857Y-49617380D01*
X71540714Y-49665000D01*
X71588333Y-49712619D01*
X71921666Y-49617380D02*
X72540714Y-49617380D01*
X72207380Y-49998333D01*
X72350238Y-49998333D01*
X72445476Y-50045952D01*
X72493095Y-50093571D01*
X72540714Y-50188809D01*
X72540714Y-50426904D01*
X72493095Y-50522142D01*
X72445476Y-50569761D01*
X72350238Y-50617380D01*
X72064523Y-50617380D01*
X71969285Y-50569761D01*
X71921666Y-50522142D01*
M02*
